<svg id="my-svg" width="100%" xmlns="http://www.w3.org/2000/svg" xmlns:xlink="http://www.w3.org/1999/xlink" class="classDiagram" style="max-width: 540px; background-color: white;" viewBox="0 0 540 401" role="graphics-document document" aria-roledescription="class"><style>#my-svg{font-family:JetBrains Mono;font-size:10px;fill:#333;}@keyframes edge-animation-frame{from{stroke-dashoffset:0;}}@keyframes dash{to{stroke-dashoffset:0;}}#my-svg .edge-animation-slow{stroke-dasharray:9,5!important;stroke-dashoffset:900;animation:dash 50s linear infinite;stroke-linecap:round;}#my-svg .edge-animation-fast{stroke-dasharray:9,5!important;stroke-dashoffset:900;animation:dash 20s linear infinite;stroke-linecap:round;}#my-svg .error-icon{fill:hsl(220.5882352941, 100%, 98.3333333333%);}#my-svg .error-text{fill:rgb(8.5000000002, 5.7500000001, 0);stroke:rgb(8.5000000002, 5.7500000001, 0);}#my-svg .edge-thickness-normal{stroke-width:1px;}#my-svg .edge-thickness-thick{stroke-width:3.5px;}#my-svg .edge-pattern-solid{stroke-dasharray:0;}#my-svg .edge-thickness-invisible{stroke-width:0;fill:none;}#my-svg .edge-pattern-dashed{stroke-dasharray:3;}#my-svg .edge-pattern-dotted{stroke-dasharray:2;}#my-svg .marker{fill:#0b0b0b;stroke:#0b0b0b;}#my-svg .marker.cross{stroke:#0b0b0b;}#my-svg svg{font-family:JetBrains Mono;font-size:10px;}#my-svg p{margin:0;}#my-svg g.classGroup text{fill:hsl(40.5882352941, 60%, 83.3333333333%);stroke:none;font-family:JetBrains Mono;font-size:10px;}#my-svg g.classGroup text .title{font-weight:bolder;}#my-svg .nodeLabel,#my-svg .edgeLabel{color:#333;}#my-svg .edgeLabel .label rect{fill:#fff4dd;}#my-svg .label text{fill:#333;}#my-svg .labelBkg{background:#fff4dd;}#my-svg .edgeLabel .label span{background:#fff4dd;}#my-svg .classTitle{font-weight:bolder;}#my-svg .node rect,#my-svg .node circle,#my-svg .node ellipse,#my-svg .node polygon,#my-svg .node path{fill:#fff4dd;stroke:hsl(40.5882352941, 60%, 83.3333333333%);stroke-width:1px;}#my-svg .divider{stroke:hsl(40.5882352941, 60%, 83.3333333333%);stroke-width:1;}#my-svg g.clickable{cursor:pointer;}#my-svg g.classGroup rect{fill:#fff4dd;stroke:hsl(40.5882352941, 60%, 83.3333333333%);}#my-svg g.classGroup line{stroke:hsl(40.5882352941, 60%, 83.3333333333%);stroke-width:1;}#my-svg .classLabel .box{stroke:none;stroke-width:0;fill:#fff4dd;opacity:0.5;}#my-svg .classLabel .label{fill:hsl(40.5882352941, 60%, 83.3333333333%);font-size:10px;}#my-svg .relation{stroke:#0b0b0b;stroke-width:1;fill:none;}#my-svg .dashed-line{stroke-dasharray:3;}#my-svg .dotted-line{stroke-dasharray:1 2;}#my-svg #compositionStart,#my-svg .composition{fill:#0b0b0b!important;stroke:#0b0b0b!important;stroke-width:1;}#my-svg #compositionEnd,#my-svg .composition{fill:#0b0b0b!important;stroke:#0b0b0b!important;stroke-width:1;}#my-svg #dependencyStart,#my-svg .dependency{fill:#0b0b0b!important;stroke:#0b0b0b!important;stroke-width:1;}#my-svg #dependencyStart,#my-svg .dependency{fill:#0b0b0b!important;stroke:#0b0b0b!important;stroke-width:1;}#my-svg #extensionStart,#my-svg .extension{fill:transparent!important;stroke:#0b0b0b!important;stroke-width:1;}#my-svg #extensionEnd,#my-svg .extension{fill:transparent!important;stroke:#0b0b0b!important;stroke-width:1;}#my-svg #aggregationStart,#my-svg .aggregation{fill:transparent!important;stroke:#0b0b0b!important;stroke-width:1;}#my-svg #aggregationEnd,#my-svg .aggregation{fill:transparent!important;stroke:#0b0b0b!important;stroke-width:1;}#my-svg #lollipopStart,#my-svg .lollipop{fill:#fff4dd!important;stroke:#0b0b0b!important;stroke-width:1;}#my-svg #lollipopEnd,#my-svg .lollipop{fill:#fff4dd!important;stroke:#0b0b0b!important;stroke-width:1;}#my-svg .edgeTerminals{font-size:11px;line-height:initial;}#my-svg .classTitleText{text-anchor:middle;font-size:18px;fill:#333;}#my-svg .label-icon{display:inline-block;height:1em;overflow:visible;vertical-align:-0.125em;}#my-svg .node .label-icon path{fill:currentColor;stroke:revert;stroke-width:revert;}#my-svg :root{--mermaid-font-family:"trebuchet ms",verdana,arial,sans-serif;}</style><g><defs><marker id="my-svg_class-aggregationStart" class="marker aggregation class" refX="18" refY="7" markerWidth="190" markerHeight="240" orient="auto"><path d="M 18,7 L9,13 L1,7 L9,1 Z"/></marker></defs><defs><marker id="my-svg_class-aggregationEnd" class="marker aggregation class" refX="1" refY="7" markerWidth="20" markerHeight="28" orient="auto"><path d="M 18,7 L9,13 L1,7 L9,1 Z"/></marker></defs><defs><marker id="my-svg_class-extensionStart" class="marker extension class" refX="18" refY="7" markerWidth="190" markerHeight="240" orient="auto"><path d="M 1,7 L18,13 V 1 Z"/></marker></defs><defs><marker id="my-svg_class-extensionEnd" class="marker extension class" refX="1" refY="7" markerWidth="20" markerHeight="28" orient="auto"><path d="M 1,1 V 13 L18,7 Z"/></marker></defs><defs><marker id="my-svg_class-compositionStart" class="marker composition class" refX="18" refY="7" markerWidth="190" markerHeight="240" orient="auto"><path d="M 18,7 L9,13 L1,7 L9,1 Z"/></marker></defs><defs><marker id="my-svg_class-compositionEnd" class="marker composition class" refX="1" refY="7" markerWidth="20" markerHeight="28" orient="auto"><path d="M 18,7 L9,13 L1,7 L9,1 Z"/></marker></defs><defs><marker id="my-svg_class-dependencyStart" class="marker dependency class" refX="6" refY="7" markerWidth="190" markerHeight="240" orient="auto"><path d="M 5,7 L9,13 L1,7 L9,1 Z"/></marker></defs><defs><marker id="my-svg_class-dependencyEnd" class="marker dependency class" refX="13" refY="7" markerWidth="20" markerHeight="28" orient="auto"><path d="M 18,7 L9,13 L14,7 L9,1 Z"/></marker></defs><defs><marker id="my-svg_class-lollipopStart" class="marker lollipop class" refX="13" refY="7" markerWidth="190" markerHeight="240" orient="auto"><circle stroke="black" fill="transparent" cx="7" cy="7" r="6"/></marker></defs><defs><marker id="my-svg_class-lollipopEnd" class="marker lollipop class" refX="1" refY="7" markerWidth="190" markerHeight="240" orient="auto"><circle stroke="black" fill="transparent" cx="7" cy="7" r="6"/></marker></defs><g class="root"><g class="clusters"/><g class="edgePaths"><path d="M135.5,151L135.5,156.583C135.5,162.167,135.5,173.333,141.357,183.855C147.214,194.377,158.928,204.255,164.785,209.194L170.642,214.132" id="id_FeatureIndexing_FeatureTransformer_1" class="edge-thickness-normal edge-pattern-solid relation" style=";;;" data-edge="true" data-et="edge" data-id="id_FeatureIndexing_FeatureTransformer_1" data-points="W3sieCI6MTM1LjUsInkiOjE1MX0seyJ4IjoxMzUuNSwieSI6MTg0LjV9LHsieCI6MTc1LjIyOTMzODg0Mjk3NTIsInkiOjIxOH1d" marker-end="url(#my-svg_class-dependencyEnd)"/><path d="M422.5,131.5L422.5,140.333C422.5,149.167,422.5,166.833,416.643,180.605C410.786,194.377,399.072,204.255,393.215,209.194L387.358,214.132" id="id_Network_FeatureTransformer_2" class="edge-thickness-normal edge-pattern-solid relation" style=";;;" data-edge="true" data-et="edge" data-id="id_Network_FeatureTransformer_2" data-points="W3sieCI6NDIyLjUsInkiOjEzMS41fSx7IngiOjQyMi41LCJ5IjoxODQuNX0seyJ4IjozODIuNzcwNjYxMTU3MDI0OCwieSI6MjE4fV0=" marker-end="url(#my-svg_class-dependencyEnd)"/></g><g class="edgeLabels"><g class="edgeLabel" transform="translate(135.5, 184.5)"><g class="label" data-id="id_FeatureIndexing_FeatureTransformer_1" transform="translate(-53, -8.5)"><g><rect class="background" style="" x="-2" y="-2" width="106" height="17"/><text y="-10.1" style=""><tspan class="text-outer-tspan" x="0" y="-0.1em" dy="1.1em"><tspan font-style="normal" class="text-inner-tspan" font-weight="normal">select</tspan><tspan font-style="normal" class="text-inner-tspan" font-weight="normal"> weight</tspan><tspan font-style="normal" class="text-inner-tspan" font-weight="normal"> row</tspan></tspan></text></g></g></g><g class="edgeLabel" transform="translate(422.5, 184.5)"><g class="label" data-id="id_Network_FeatureTransformer_2" transform="translate(-65, -8.5)"><g><rect class="background" style="" x="-2" y="-2" width="130" height="17"/><text y="-10.1" style=""><tspan class="text-outer-tspan" x="0" y="-0.1em" dy="1.1em"><tspan font-style="normal" class="text-inner-tspan" font-weight="normal">use</tspan><tspan font-style="normal" class="text-inner-tspan" font-weight="normal"> transformed</tspan><tspan font-style="normal" class="text-inner-tspan" font-weight="normal"> feats</tspan></tspan></text></g></g></g></g><g class="nodes"><g class="node default" id="classId-FeatureTransformer-0" transform="translate(279, 305.5)"><g class="basic label-container"><path d="M-132 -87.5 L132 -87.5 L132 87.5 L-132 87.5" stroke="none" stroke-width="0" fill="#fff4dd" style=""/><path d="M-132 -87.5 C-78.33419214301328 -87.5, -24.668384286026566 -87.5, 132 -87.5 M-132 -87.5 C-27.213999725309336 -87.5, 77.57200054938133 -87.5, 132 -87.5 M132 -87.5 C132 -26.95470201841662, 132 33.59059596316676, 132 87.5 M132 -87.5 C132 -30.07851659586303, 132 27.342966808273943, 132 87.5 M132 87.5 C71.10278513886999 87.5, 10.205570277739966 87.5, -132 87.5 M132 87.5 C50.35671798222222 87.5, -31.286564035555557 87.5, -132 87.5 M-132 87.5 C-132 38.1225799226191, -132 -11.254840154761794, -132 -87.5 M-132 87.5 C-132 23.014070254895202, -132 -41.471859490209596, -132 -87.5" stroke="hsl(40.5882352941, 60%, 83.3333333333%)" stroke-width="1.3" fill="none" stroke-dasharray="0 0" style=""/></g><g class="annotation-group text" transform="translate(0, -67.5)"/><g class="label-group text" transform="translate(-54, -67.5)"><g class="label" style="font-weight: bolder" transform="translate(0,-6.5)"><g><rect class="background" style="stroke: none"/><text y="-10.1" style=""><tspan class="text-outer-tspan" x="0" y="-0.1em" dy="1.1em" font-weight=""><tspan font-style="normal" class="text-inner-tspan" font-weight="">FeatureTransformer</tspan></tspan></text></g></g></g><g class="members-group text" transform="translate(-120, -30.5)"><g class="label" style="" transform="translate(0,-6.5)"><g><rect class="background" style="stroke: none"/><text y="-10.1" style=""><tspan class="text-outer-tspan" x="0" y="-0.1em" dy="1.1em"><tspan font-style="normal" class="text-inner-tspan" font-weight="normal">+input_dims:</tspan><tspan font-style="normal" class="text-inner-tspan" font-weight="normal"> usize</tspan></tspan></text></g></g><g class="label" style="" transform="translate(0,9.5)"><g><rect class="background" style="stroke: none"/><text y="-10.1" style=""><tspan class="text-outer-tspan" x="0" y="-0.1em" dy="1.1em"><tspan font-style="normal" class="text-inner-tspan" font-weight="normal">+half_dims:</tspan><tspan font-style="normal" class="text-inner-tspan" font-weight="normal"> usize</tspan></tspan></text></g></g><g class="label" style="" transform="translate(0,25.5)"><g><rect class="background" style="stroke: none"/><text y="-10.1" style=""><tspan class="text-outer-tspan" x="0" y="-0.1em" dy="1.1em"><tspan font-style="normal" class="text-inner-tspan" font-weight="normal">+biases:</tspan><tspan font-style="normal" class="text-inner-tspan" font-weight="normal"> AlignedI16</tspan></tspan></text></g></g><g class="label" style="" transform="translate(0,41.5)"><g><rect class="background" style="stroke: none"/><text y="-10.1" style=""><tspan class="text-outer-tspan" x="0" y="-0.1em" dy="1.1em"><tspan font-style="normal" class="text-inner-tspan" font-weight="normal">+weights:</tspan><tspan font-style="normal" class="text-inner-tspan" font-weight="normal"> AlignedI16</tspan></tspan></text></g></g><g class="label" style="" transform="translate(0,57.5)"><g><rect class="background" style="stroke: none"/><text y="-10.1" style=""><tspan class="text-outer-tspan" x="0" y="-0.1em" dy="1.1em"><tspan font-style="normal" class="text-inner-tspan" font-weight="normal">+psqt_weights:</tspan><tspan font-style="normal" class="text-inner-tspan" font-weight="normal"> AlignedI32</tspan></tspan></text></g></g></g><g class="methods-group text" transform="translate(-120, 70.5)"><g class="label" style="" transform="translate(0,-6.5)"><g><rect class="background" style="stroke: none"/><text y="-10.1" style=""><tspan class="text-outer-tspan" x="0" y="-0.1em" dy="1.1em"><tspan font-style="normal" class="text-inner-tspan" font-weight="normal">+read_params(reader,skip_magic)</tspan></tspan></text></g></g></g><g class="divider" style=""><path d="M-132 -50.5 C-77.46147576341001 -50.5, -22.922951526820015 -50.5, 132 -50.5 M-132 -50.5 C-29.36753223012569 -50.5, 73.26493553974862 -50.5, 132 -50.5" stroke="hsl(40.5882352941, 60%, 83.3333333333%)" stroke-width="1.3" fill="none" stroke-dasharray="0 0" style=""/></g><g class="divider" style=""><path d="M-132 50.5 C-51.53425753012604 50.5, 28.931484939747918 50.5, 132 50.5 M-132 50.5 C-29.82624415564119 50.5, 72.34751168871762 50.5, 132 50.5" stroke="hsl(40.5882352941, 60%, 83.3333333333%)" stroke-width="1.3" fill="none" stroke-dasharray="0 0" style=""/></g></g><g class="node default" id="classId-FeatureIndexing-1" transform="translate(135.5, 79.5)"><g class="basic label-container"><path d="M-127.5 -71.5 L127.5 -71.5 L127.5 71.5 L-127.5 71.5" stroke="none" stroke-width="0" fill="#fff4dd" style=""/><path d="M-127.5 -71.5 C-42.21833346583976 -71.5, 43.063333068320475 -71.5, 127.5 -71.5 M-127.5 -71.5 C-33.93977304153695 -71.5, 59.620453916926095 -71.5, 127.5 -71.5 M127.5 -71.5 C127.5 -27.58643383339178, 127.5 16.32713233321644, 127.5 71.5 M127.5 -71.5 C127.5 -36.629986016885624, 127.5 -1.7599720337712483, 127.5 71.5 M127.5 71.5 C74.4433342549483 71.5, 21.386668509896595 71.5, -127.5 71.5 M127.5 71.5 C48.83946200143765 71.5, -29.821075997124694 71.5, -127.5 71.5 M-127.5 71.5 C-127.5 25.615161495937905, -127.5 -20.26967700812419, -127.5 -71.5 M-127.5 71.5 C-127.5 35.96384133190029, -127.5 0.4276826638005815, -127.5 -71.5" stroke="hsl(40.5882352941, 60%, 83.3333333333%)" stroke-width="1.3" fill="none" stroke-dasharray="0 0" style=""/></g><g class="annotation-group text" transform="translate(0, -51.5)"/><g class="label-group text" transform="translate(-45, -51.5)"><g class="label" style="font-weight: bolder" transform="translate(0,-6.5)"><g><rect class="background" style="stroke: none"/><text y="-10.1" style=""><tspan class="text-outer-tspan" x="0" y="-0.1em" dy="1.1em" font-weight=""><tspan font-style="normal" class="text-inner-tspan" font-weight="">FeatureIndexing</tspan></tspan></text></g></g></g><g class="members-group text" transform="translate(-115.5, -14.5)"><g class="label" style="" transform="translate(0,-6.5)"><g><rect class="background" style="stroke: none"/><text y="-10.1" style=""><tspan class="text-outer-tspan" x="0" y="-0.1em" dy="1.1em"><tspan font-style="normal" class="text-inner-tspan" font-weight="normal">+PIECE_SQ_INDEX[2][16]</tspan></tspan></text></g></g><g class="label" style="" transform="translate(0,9.5)"><g><rect class="background" style="stroke: none"/><text y="-10.1" style=""><tspan class="text-outer-tspan" x="0" y="-0.1em" dy="1.1em"><tspan font-style="normal" class="text-inner-tspan" font-weight="normal">+KING_BUCKETS[2][64]</tspan></tspan></text></g></g><g class="label" style="" transform="translate(0,25.5)"><g><rect class="background" style="stroke: none"/><text y="-10.1" style=""><tspan class="text-outer-tspan" x="0" y="-0.1em" dy="1.1em"><tspan font-style="normal" class="text-inner-tspan" font-weight="normal">+ORIENT_TBL[2][64]</tspan></tspan></text></g></g></g><g class="methods-group text" transform="translate(-115.5, 54.5)"><g class="label" style="" transform="translate(0,-6.5)"><g><rect class="background" style="stroke: none"/><text y="-10.1" style=""><tspan class="text-outer-tspan" x="0" y="-0.1em" dy="1.1em"><tspan font-style="normal" class="text-inner-tspan" font-weight="normal">+make_index(p,s,pc,ksq)</tspan><tspan font-style="normal" class="text-inner-tspan" font-weight="normal"> :</tspan><tspan font-style="normal" class="text-inner-tspan" font-weight="normal"> usize</tspan></tspan></text></g></g></g><g class="divider" style=""><path d="M-127.5 -34.5 C-69.40795105482306 -34.5, -11.315902109646103 -34.5, 127.5 -34.5 M-127.5 -34.5 C-70.33562828368716 -34.5, -13.171256567374314 -34.5, 127.5 -34.5" stroke="hsl(40.5882352941, 60%, 83.3333333333%)" stroke-width="1.3" fill="none" stroke-dasharray="0 0" style=""/></g><g class="divider" style=""><path d="M-127.5 34.5 C-53.961783704508434 34.5, 19.57643259098313 34.5, 127.5 34.5 M-127.5 34.5 C-39.7796543623632 34.5, 47.94069127527359 34.5, 127.5 34.5" stroke="hsl(40.5882352941, 60%, 83.3333333333%)" stroke-width="1.3" fill="none" stroke-dasharray="0 0" style=""/></g></g><g class="node default" id="classId-Network-2" transform="translate(422.5, 79.5)"><g class="basic label-container"><path d="M-109.5 -52 L109.5 -52 L109.5 52 L-109.5 52" stroke="none" stroke-width="0" fill="#fff4dd" style=""/><path d="M-109.5 -52 C-28.485035138861036 -52, 52.52992972227793 -52, 109.5 -52 M-109.5 -52 C-34.579490050313666 -52, 40.34101989937267 -52, 109.5 -52 M109.5 -52 C109.5 -19.787485970192968, 109.5 12.425028059614064, 109.5 52 M109.5 -52 C109.5 -12.520867078206876, 109.5 26.958265843586247, 109.5 52 M109.5 52 C43.471097329068925 52, -22.55780534186215 52, -109.5 52 M109.5 52 C35.77197408614782 52, -37.95605182770436 52, -109.5 52 M-109.5 52 C-109.5 14.876268130343057, -109.5 -22.247463739313886, -109.5 -52 M-109.5 52 C-109.5 15.296991205590047, -109.5 -21.406017588819907, -109.5 -52" stroke="hsl(40.5882352941, 60%, 83.3333333333%)" stroke-width="1.3" fill="none" stroke-dasharray="0 0" style=""/></g><g class="annotation-group text" transform="translate(0, -32)"/><g class="label-group text" transform="translate(-21, -32)"><g class="label" style="font-weight: bolder" transform="translate(0,-6.5)"><g><rect class="background" style="stroke: none"/><text y="-10.1" style=""><tspan class="text-outer-tspan" x="0" y="-0.1em" dy="1.1em" font-weight=""><tspan font-style="normal" class="text-inner-tspan" font-weight="">Network</tspan></tspan></text></g></g></g><g class="members-group text" transform="translate(-97.5, 5)"/><g class="methods-group text" transform="translate(-97.5, 35)"><g class="label" style="" transform="translate(0,-6.5)"><g><rect class="background" style="stroke: none"/><text y="-10.1" style=""><tspan class="text-outer-tspan" x="0" y="-0.1em" dy="1.1em"><tspan font-style="normal" class="text-inner-tspan" font-weight="normal">+transform_feats(acc,scratch)</tspan></tspan></text></g></g></g><g class="divider" style=""><path d="M-109.5 -15 C-23.722189486304444 -15, 62.05562102739111 -15, 109.5 -15 M-109.5 -15 C-60.12125774139213 -15, -10.742515482784256 -15, 109.5 -15" stroke="hsl(40.5882352941, 60%, 83.3333333333%)" stroke-width="1.3" fill="none" stroke-dasharray="0 0" style=""/></g><g class="divider" style=""><path d="M-109.5 9 C-56.57438424753292 9, -3.6487684950658377 9, 109.5 9 M-109.5 9 C-28.513645658818277 9, 52.47270868236345 9, 109.5 9" stroke="hsl(40.5882352941, 60%, 83.3333333333%)" stroke-width="1.3" fill="none" stroke-dasharray="0 0" style=""/></g></g></g></g></g></svg>