<svg id="my-svg" width="100%" xmlns="http://www.w3.org/2000/svg" xmlns:xlink="http://www.w3.org/1999/xlink" class="classDiagram" style="max-width: 1127px; background-color: white;" viewBox="0 0 1127 676" role="graphics-document document" aria-roledescription="class"><style>#my-svg{font-family:JetBrains Mono;font-size:10px;fill:#333;}@keyframes edge-animation-frame{from{stroke-dashoffset:0;}}@keyframes dash{to{stroke-dashoffset:0;}}#my-svg .edge-animation-slow{stroke-dasharray:9,5!important;stroke-dashoffset:900;animation:dash 50s linear infinite;stroke-linecap:round;}#my-svg .edge-animation-fast{stroke-dasharray:9,5!important;stroke-dashoffset:900;animation:dash 20s linear infinite;stroke-linecap:round;}#my-svg .error-icon{fill:hsl(220.5882352941, 100%, 98.3333333333%);}#my-svg .error-text{fill:rgb(8.5000000002, 5.7500000001, 0);stroke:rgb(8.5000000002, 5.7500000001, 0);}#my-svg .edge-thickness-normal{stroke-width:1px;}#my-svg .edge-thickness-thick{stroke-width:3.5px;}#my-svg .edge-pattern-solid{stroke-dasharray:0;}#my-svg .edge-thickness-invisible{stroke-width:0;fill:none;}#my-svg .edge-pattern-dashed{stroke-dasharray:3;}#my-svg .edge-pattern-dotted{stroke-dasharray:2;}#my-svg .marker{fill:#0b0b0b;stroke:#0b0b0b;}#my-svg .marker.cross{stroke:#0b0b0b;}#my-svg svg{font-family:JetBrains Mono;font-size:10px;}#my-svg p{margin:0;}#my-svg g.classGroup text{fill:hsl(40.5882352941, 60%, 83.3333333333%);stroke:none;font-family:JetBrains Mono;font-size:10px;}#my-svg g.classGroup text .title{font-weight:bolder;}#my-svg .nodeLabel,#my-svg .edgeLabel{color:#333;}#my-svg .edgeLabel .label rect{fill:#fff4dd;}#my-svg .label text{fill:#333;}#my-svg .labelBkg{background:#fff4dd;}#my-svg .edgeLabel .label span{background:#fff4dd;}#my-svg .classTitle{font-weight:bolder;}#my-svg .node rect,#my-svg .node circle,#my-svg .node ellipse,#my-svg .node polygon,#my-svg .node path{fill:#fff4dd;stroke:hsl(40.5882352941, 60%, 83.3333333333%);stroke-width:1px;}#my-svg .divider{stroke:hsl(40.5882352941, 60%, 83.3333333333%);stroke-width:1;}#my-svg g.clickable{cursor:pointer;}#my-svg g.classGroup rect{fill:#fff4dd;stroke:hsl(40.5882352941, 60%, 83.3333333333%);}#my-svg g.classGroup line{stroke:hsl(40.5882352941, 60%, 83.3333333333%);stroke-width:1;}#my-svg .classLabel .box{stroke:none;stroke-width:0;fill:#fff4dd;opacity:0.5;}#my-svg .classLabel .label{fill:hsl(40.5882352941, 60%, 83.3333333333%);font-size:10px;}#my-svg .relation{stroke:#0b0b0b;stroke-width:1;fill:none;}#my-svg .dashed-line{stroke-dasharray:3;}#my-svg .dotted-line{stroke-dasharray:1 2;}#my-svg #compositionStart,#my-svg .composition{fill:#0b0b0b!important;stroke:#0b0b0b!important;stroke-width:1;}#my-svg #compositionEnd,#my-svg .composition{fill:#0b0b0b!important;stroke:#0b0b0b!important;stroke-width:1;}#my-svg #dependencyStart,#my-svg .dependency{fill:#0b0b0b!important;stroke:#0b0b0b!important;stroke-width:1;}#my-svg #dependencyStart,#my-svg .dependency{fill:#0b0b0b!important;stroke:#0b0b0b!important;stroke-width:1;}#my-svg #extensionStart,#my-svg .extension{fill:transparent!important;stroke:#0b0b0b!important;stroke-width:1;}#my-svg #extensionEnd,#my-svg .extension{fill:transparent!important;stroke:#0b0b0b!important;stroke-width:1;}#my-svg #aggregationStart,#my-svg .aggregation{fill:transparent!important;stroke:#0b0b0b!important;stroke-width:1;}#my-svg #aggregationEnd,#my-svg .aggregation{fill:transparent!important;stroke:#0b0b0b!important;stroke-width:1;}#my-svg #lollipopStart,#my-svg .lollipop{fill:#fff4dd!important;stroke:#0b0b0b!important;stroke-width:1;}#my-svg #lollipopEnd,#my-svg .lollipop{fill:#fff4dd!important;stroke:#0b0b0b!important;stroke-width:1;}#my-svg .edgeTerminals{font-size:11px;line-height:initial;}#my-svg .classTitleText{text-anchor:middle;font-size:18px;fill:#333;}#my-svg .label-icon{display:inline-block;height:1em;overflow:visible;vertical-align:-0.125em;}#my-svg .node .label-icon path{fill:currentColor;stroke:revert;stroke-width:revert;}#my-svg :root{--mermaid-font-family:"trebuchet ms",verdana,arial,sans-serif;}</style><g><defs><marker id="my-svg_class-aggregationStart" class="marker aggregation class" refX="18" refY="7" markerWidth="190" markerHeight="240" orient="auto"><path d="M 18,7 L9,13 L1,7 L9,1 Z"/></marker></defs><defs><marker id="my-svg_class-aggregationEnd" class="marker aggregation class" refX="1" refY="7" markerWidth="20" markerHeight="28" orient="auto"><path d="M 18,7 L9,13 L1,7 L9,1 Z"/></marker></defs><defs><marker id="my-svg_class-extensionStart" class="marker extension class" refX="18" refY="7" markerWidth="190" markerHeight="240" orient="auto"><path d="M 1,7 L18,13 V 1 Z"/></marker></defs><defs><marker id="my-svg_class-extensionEnd" class="marker extension class" refX="1" refY="7" markerWidth="20" markerHeight="28" orient="auto"><path d="M 1,1 V 13 L18,7 Z"/></marker></defs><defs><marker id="my-svg_class-compositionStart" class="marker composition class" refX="18" refY="7" markerWidth="190" markerHeight="240" orient="auto"><path d="M 18,7 L9,13 L1,7 L9,1 Z"/></marker></defs><defs><marker id="my-svg_class-compositionEnd" class="marker composition class" refX="1" refY="7" markerWidth="20" markerHeight="28" orient="auto"><path d="M 18,7 L9,13 L1,7 L9,1 Z"/></marker></defs><defs><marker id="my-svg_class-dependencyStart" class="marker dependency class" refX="6" refY="7" markerWidth="190" markerHeight="240" orient="auto"><path d="M 5,7 L9,13 L1,7 L9,1 Z"/></marker></defs><defs><marker id="my-svg_class-dependencyEnd" class="marker dependency class" refX="13" refY="7" markerWidth="20" markerHeight="28" orient="auto"><path d="M 18,7 L9,13 L14,7 L9,1 Z"/></marker></defs><defs><marker id="my-svg_class-lollipopStart" class="marker lollipop class" refX="13" refY="7" markerWidth="190" markerHeight="240" orient="auto"><circle stroke="black" fill="transparent" cx="7" cy="7" r="6"/></marker></defs><defs><marker id="my-svg_class-lollipopEnd" class="marker lollipop class" refX="1" refY="7" markerWidth="190" markerHeight="240" orient="auto"><circle stroke="black" fill="transparent" cx="7" cy="7" r="6"/></marker></defs><g class="root"><g class="clusters"/><g class="edgePaths"><path d="M665.5,152.25L665.5,153.542C665.5,154.833,665.5,157.417,665.5,162.875C665.5,168.333,665.5,176.667,665.5,180.833L665.5,185" id="id_NnueNetworks_Network_1" class="edge-thickness-normal edge-pattern-solid relation" style=";;;" data-edge="true" data-et="edge" data-id="id_NnueNetworks_Network_1" data-points="W3sieCI6NjY1LjUsInkiOjEzNX0seyJ4Ijo2NjUuNSwieSI6MTYwfSx7IngiOjY2NS41LCJ5IjoxODV9XQ==" marker-start="url(#my-svg_class-compositionStart)"/><path d="M533.243,336.81L456.702,355.508C380.162,374.206,227.081,411.603,150.54,444.552C74,477.5,74,506,74,520.25L74,534.5" id="id_Network_FeatureTransformer_2" class="edge-thickness-normal edge-pattern-solid relation" style=";;;" data-edge="true" data-et="edge" data-id="id_Network_FeatureTransformer_2" data-points="W3sieCI6NTUwLCJ5IjozMzIuNzE1OTc2MzMxMzYwOTN9LHsieCI6NzQsInkiOjQ0OX0seyJ4Ijo3NCwieSI6NTM0LjV9XQ==" marker-start="url(#my-svg_class-compositionStart)"/><path d="M534.01,357.722L496.425,372.935C458.84,388.148,383.67,418.574,346.085,437.954C308.5,457.333,308.5,465.667,308.5,469.833L308.5,474" id="id_Network_ScratchBuffer_3" class="edge-thickness-normal edge-pattern-solid relation" style=";;;" data-edge="true" data-et="edge" data-id="id_Network_ScratchBuffer_3" data-points="W3sieCI6NTUwLCJ5IjozNTEuMjV9LHsieCI6MzA4LjUsInkiOjQ0OX0seyJ4IjozMDguNSwieSI6NDc0fV0=" marker-start="url(#my-svg_class-compositionStart)"/><path d="M584.042,424L581.201,428.167C578.361,432.333,572.681,440.667,569.84,458.083C567,475.5,567,502,567,515.25L567,528.5" id="id_Network_AffineTransformSparseInput_4" class="edge-thickness-normal edge-pattern-solid relation" style=";;;" data-edge="true" data-et="edge" data-id="id_Network_AffineTransformSparseInput_4" data-points="W3sieCI6NTg0LjA0MTUyMjQ5MTM0OTUsInkiOjQyNH0seyJ4Ijo1NjcsInkiOjQ0OX0seyJ4Ijo1NjcsInkiOjUzNC41fV0=" marker-end="url(#my-svg_class-dependencyEnd)"/><path d="M746.958,424L749.799,428.167C752.639,432.333,758.319,440.667,761.16,458.083C764,475.5,764,502,764,515.25L764,528.5" id="id_Network_AffineTransform_5" class="edge-thickness-normal edge-pattern-solid relation" style=";;;" data-edge="true" data-et="edge" data-id="id_Network_AffineTransform_5" data-points="W3sieCI6NzQ2Ljk1ODQ3NzUwODY1MDUsInkiOjQyNH0seyJ4Ijo3NjQsInkiOjQ0OX0seyJ4Ijo3NjQsInkiOjUzNC41fV0=" marker-end="url(#my-svg_class-dependencyEnd)"/><path d="M781,371.126L803.5,384.105C826,397.084,871,423.042,893.5,449.271C916,475.5,916,502,916,515.25L916,528.5" id="id_Network_ClippedReLU_6" class="edge-thickness-normal edge-pattern-solid relation" style=";;;" data-edge="true" data-et="edge" data-id="id_Network_ClippedReLU_6" data-points="W3sieCI6NzgxLCJ5IjozNzEuMTI1NzQ4NTAyOTk0MDR9LHsieCI6OTE2LCJ5Ijo0NDl9LHsieCI6OTE2LCJ5Ijo1MzQuNX1d" marker-end="url(#my-svg_class-dependencyEnd)"/><path d="M781,346.277L828.333,363.397C875.667,380.518,970.333,414.759,1017.667,445.129C1065,475.5,1065,502,1065,515.25L1065,528.5" id="id_Network_SqrClippedReLU_7" class="edge-thickness-normal edge-pattern-solid relation" style=";;;" data-edge="true" data-et="edge" data-id="id_Network_SqrClippedReLU_7" data-points="W3sieCI6NzgxLCJ5IjozNDYuMjc2NTk1NzQ0NjgwODN9LHsieCI6MTA2NSwieSI6NDQ5fSx7IngiOjEwNjUsInkiOjUzNC41fV0=" marker-end="url(#my-svg_class-dependencyEnd)"/></g><g class="edgeLabels"><g><rect class="background" style="stroke: none"/></g><g><rect class="background" style="stroke: none"/></g><g><rect class="background" style="stroke: none"/></g><g><rect class="background" style="stroke: none"/></g><g><rect class="background" style="stroke: none"/></g><g><rect class="background" style="stroke: none"/></g><g><rect class="background" style="stroke: none"/></g><g class="edgeLabel"><g class="label" data-id="id_NnueNetworks_Network_1" transform="translate(0, 0)"><text y="-10.1"><tspan class="text-outer-tspan" x="0" y="-0.1em" dy="1.1em"/></text></g></g><g class="edgeLabel"><g class="label" data-id="id_Network_FeatureTransformer_2" transform="translate(0, 0)"><text y="-10.1"><tspan class="text-outer-tspan" x="0" y="-0.1em" dy="1.1em"/></text></g></g><g class="edgeLabel"><g class="label" data-id="id_Network_ScratchBuffer_3" transform="translate(0, 0)"><text y="-10.1"><tspan class="text-outer-tspan" x="0" y="-0.1em" dy="1.1em"/></text></g></g><g class="edgeLabel"><g class="label" data-id="id_Network_AffineTransformSparseInput_4" transform="translate(0, 0)"><text y="-10.1"><tspan class="text-outer-tspan" x="0" y="-0.1em" dy="1.1em"/></text></g></g><g class="edgeLabel"><g class="label" data-id="id_Network_AffineTransform_5" transform="translate(0, 0)"><text y="-10.1"><tspan class="text-outer-tspan" x="0" y="-0.1em" dy="1.1em"/></text></g></g><g class="edgeLabel"><g class="label" data-id="id_Network_ClippedReLU_6" transform="translate(0, 0)"><text y="-10.1"><tspan class="text-outer-tspan" x="0" y="-0.1em" dy="1.1em"/></text></g></g><g class="edgeLabel"><g class="label" data-id="id_Network_SqrClippedReLU_7" transform="translate(0, 0)"><text y="-10.1"><tspan class="text-outer-tspan" x="0" y="-0.1em" dy="1.1em"/></text></g></g></g><g class="nodes"><g class="node default" id="classId-NnueNetworks-0" transform="translate(665.5, 71.5)"><g class="basic label-container"><path d="M-105 -63.5 L105 -63.5 L105 63.5 L-105 63.5" stroke="none" stroke-width="0" fill="#fff4dd" style=""/><path d="M-105 -63.5 C-47.730767520384084 -63.5, 9.538464959231831 -63.5, 105 -63.5 M-105 -63.5 C-62.82594767038283 -63.5, -20.651895340765662 -63.5, 105 -63.5 M105 -63.5 C105 -37.21519049637568, 105 -10.930380992751374, 105 63.5 M105 -63.5 C105 -37.097324595710184, 105 -10.694649191420368, 105 63.5 M105 63.5 C46.62206841808911 63.5, -11.755863163821786 63.5, -105 63.5 M105 63.5 C60.417148964580996 63.5, 15.834297929161991 63.5, -105 63.5 M-105 63.5 C-105 31.120541402771842, -105 -1.2589171944563162, -105 -63.5 M-105 63.5 C-105 26.66421634382555, -105 -10.171567312348898, -105 -63.5" stroke="hsl(40.5882352941, 60%, 83.3333333333%)" stroke-width="1.3" fill="none" stroke-dasharray="0 0" style=""/></g><g class="annotation-group text" transform="translate(0, -43.5)"/><g class="label-group text" transform="translate(-36, -43.5)"><g class="label" style="font-weight: bolder" transform="translate(0,-6.5)"><g><rect class="background" style="stroke: none"/><text y="-10.1" style=""><tspan class="text-outer-tspan" x="0" y="-0.1em" dy="1.1em" font-weight=""><tspan font-style="normal" class="text-inner-tspan" font-weight="">NnueNetworks</tspan></tspan></text></g></g></g><g class="members-group text" transform="translate(-93, -6.5)"><g class="label" style="" transform="translate(0,-6.5)"><g><rect class="background" style="stroke: none"/><text y="-10.1" style=""><tspan class="text-outer-tspan" x="0" y="-0.1em" dy="1.1em"><tspan font-style="normal" class="text-inner-tspan" font-weight="normal">+big_net:</tspan><tspan font-style="normal" class="text-inner-tspan" font-weight="normal"> Network</tspan></tspan></text></g></g><g class="label" style="" transform="translate(0,9.5)"><g><rect class="background" style="stroke: none"/><text y="-10.1" style=""><tspan class="text-outer-tspan" x="0" y="-0.1em" dy="1.1em"><tspan font-style="normal" class="text-inner-tspan" font-weight="normal">+small_net:</tspan><tspan font-style="normal" class="text-inner-tspan" font-weight="normal"> Network</tspan></tspan></text></g></g></g><g class="methods-group text" transform="translate(-93, 46.5)"><g class="label" style="" transform="translate(0,-6.5)"><g><rect class="background" style="stroke: none"/><text y="-10.1" style=""><tspan class="text-outer-tspan" x="0" y="-0.1em" dy="1.1em"><tspan font-style="normal" class="text-inner-tspan" font-weight="normal">+new(big_path,small_path)</tspan></tspan></text></g></g></g><g class="divider" style=""><path d="M-105 -26.5 C-45.655149856573786 -26.5, 13.689700286852428 -26.5, 105 -26.5 M-105 -26.5 C-40.784093096424414 -26.5, 23.431813807151173 -26.5, 105 -26.5" stroke="hsl(40.5882352941, 60%, 83.3333333333%)" stroke-width="1.3" fill="none" stroke-dasharray="0 0" style=""/></g><g class="divider" style=""><path d="M-105 26.5 C-48.45166724509535 26.5, 8.096665509809299 26.5, 105 26.5 M-105 26.5 C-39.15073441421511 26.5, 26.698531171569783 26.5, 105 26.5" stroke="hsl(40.5882352941, 60%, 83.3333333333%)" stroke-width="1.3" fill="none" stroke-dasharray="0 0" style=""/></g></g><g class="node default" id="classId-Network-1" transform="translate(665.5, 304.5)"><g class="basic label-container"><path d="M-115.5 -119.5 L115.5 -119.5 L115.5 119.5 L-115.5 119.5" stroke="none" stroke-width="0" fill="#fff4dd" style=""/><path d="M-115.5 -119.5 C-50.18828481019575 -119.5, 15.123430379608493 -119.5, 115.5 -119.5 M-115.5 -119.5 C-64.89093959438802 -119.5, -14.281879188776045 -119.5, 115.5 -119.5 M115.5 -119.5 C115.5 -63.374896011132485, 115.5 -7.24979202226497, 115.5 119.5 M115.5 -119.5 C115.5 -65.87741344246083, 115.5 -12.254826884921684, 115.5 119.5 M115.5 119.5 C50.71145338564703 119.5, -14.077093228705934 119.5, -115.5 119.5 M115.5 119.5 C45.720248507568485 119.5, -24.05950298486303 119.5, -115.5 119.5 M-115.5 119.5 C-115.5 43.26135345383844, -115.5 -32.97729309232312, -115.5 -119.5 M-115.5 119.5 C-115.5 49.43860567132744, -115.5 -20.622788657345126, -115.5 -119.5" stroke="hsl(40.5882352941, 60%, 83.3333333333%)" stroke-width="1.3" fill="none" stroke-dasharray="0 0" style=""/></g><g class="annotation-group text" transform="translate(0, -99.5)"/><g class="label-group text" transform="translate(-21, -99.5)"><g class="label" style="font-weight: bolder" transform="translate(0,-6.5)"><g><rect class="background" style="stroke: none"/><text y="-10.1" style=""><tspan class="text-outer-tspan" x="0" y="-0.1em" dy="1.1em" font-weight=""><tspan font-style="normal" class="text-inner-tspan" font-weight="">Network</tspan></tspan></text></g></g></g><g class="members-group text" transform="translate(-103.5, -62.5)"><g class="label" style="" transform="translate(0,-6.5)"><g><rect class="background" style="stroke: none"/><text y="-10.1" style=""><tspan class="text-outer-tspan" x="0" y="-0.1em" dy="1.1em"><tspan font-style="normal" class="text-inner-tspan" font-weight="normal">+feature_tx:</tspan><tspan font-style="normal" class="text-inner-tspan" font-weight="normal"> FeatureTransformer</tspan></tspan></text></g></g><g class="label" style="" transform="translate(0,9.5)"><g><rect class="background" style="stroke: none"/><text y="-10.1" style=""><tspan class="text-outer-tspan" x="0" y="-0.1em" dy="1.1em">+fc_0: Vec&lt;AffineSparse&gt;</tspan></text></g></g><g class="label" style="" transform="translate(0,25.5)"><g><rect class="background" style="stroke: none"/><text y="-10.1" style=""><tspan class="text-outer-tspan" x="0" y="-0.1em" dy="1.1em">+fc_1: Vec&lt;Affine&gt;</tspan></text></g></g><g class="label" style="" transform="translate(0,41.5)"><g><rect class="background" style="stroke: none"/><text y="-10.1" style=""><tspan class="text-outer-tspan" x="0" y="-0.1em" dy="1.1em">+fc_2: Vec&lt;Affine&gt;</tspan></text></g></g><g class="label" style="" transform="translate(0,57.5)"><g><rect class="background" style="stroke: none"/><text y="-10.1" style=""><tspan class="text-outer-tspan" x="0" y="-0.1em" dy="1.1em"><tspan font-style="normal" class="text-inner-tspan" font-weight="normal">+ac_sqr_0:</tspan><tspan font-style="normal" class="text-inner-tspan" font-weight="normal"> SqrClippedReLU</tspan></tspan></text></g></g><g class="label" style="" transform="translate(0,73.5)"><g><rect class="background" style="stroke: none"/><text y="-10.1" style=""><tspan class="text-outer-tspan" x="0" y="-0.1em" dy="1.1em"><tspan font-style="normal" class="text-inner-tspan" font-weight="normal">+ac_0:</tspan><tspan font-style="normal" class="text-inner-tspan" font-weight="normal"> ClippedReLU</tspan></tspan></text></g></g><g class="label" style="" transform="translate(0,89.5)"><g><rect class="background" style="stroke: none"/><text y="-10.1" style=""><tspan class="text-outer-tspan" x="0" y="-0.1em" dy="1.1em"><tspan font-style="normal" class="text-inner-tspan" font-weight="normal">+ac_1:</tspan><tspan font-style="normal" class="text-inner-tspan" font-weight="normal"> ClippedReLU</tspan></tspan></text></g></g><g class="label" style="" transform="translate(0,105.5)"><g><rect class="background" style="stroke: none"/><text y="-10.1" style=""><tspan class="text-outer-tspan" x="0" y="-0.1em" dy="1.1em"><tspan font-style="normal" class="text-inner-tspan" font-weight="normal">+is_big:</tspan><tspan font-style="normal" class="text-inner-tspan" font-weight="normal"> bool</tspan></tspan></text></g></g></g><g class="methods-group text" transform="translate(-103.5, 86.5)"><g class="label" style="" transform="translate(0,-6.5)"><g><rect class="background" style="stroke: none"/><text y="-10.1" style=""><tspan class="text-outer-tspan" x="0" y="-0.1em" dy="1.1em"><tspan font-style="normal" class="text-inner-tspan" font-weight="normal">+load(path,is_big)</tspan><tspan font-style="normal" class="text-inner-tspan" font-weight="normal"> :</tspan><tspan font-style="normal" class="text-inner-tspan" font-weight="normal"> Network</tspan></tspan></text></g></g><g class="label" style="" transform="translate(0,9.5)"><g><rect class="background" style="stroke: none"/><text y="-10.1" style=""><tspan class="text-outer-tspan" x="0" y="-0.1em" dy="1.1em"><tspan font-style="normal" class="text-inner-tspan" font-weight="normal">+evaluate(acc,bucket,stm)</tspan></tspan></text></g></g></g><g class="divider" style=""><path d="M-115.5 -82.5 C-23.771652915931 -82.5, 67.956694168138 -82.5, 115.5 -82.5 M-115.5 -82.5 C-26.437955583323543 -82.5, 62.624088833352914 -82.5, 115.5 -82.5" stroke="hsl(40.5882352941, 60%, 83.3333333333%)" stroke-width="1.3" fill="none" stroke-dasharray="0 0" style=""/></g><g class="divider" style=""><path d="M-115.5 66.5 C-49.85753141451892 66.5, 15.784937170962166 66.5, 115.5 66.5 M-115.5 66.5 C-47.762565447047464 66.5, 19.97486910590507 66.5, 115.5 66.5" stroke="hsl(40.5882352941, 60%, 83.3333333333%)" stroke-width="1.3" fill="none" stroke-dasharray="0 0" style=""/></g></g><g class="node default" id="classId-ScratchBuffer-2" transform="translate(308.5, 571)"><g class="basic label-container"><path d="M-118.5 -97 L118.5 -97 L118.5 97 L-118.5 97" stroke="none" stroke-width="0" fill="#fff4dd" style=""/><path d="M-118.5 -97 C-26.587343303851895 -97, 65.32531339229621 -97, 118.5 -97 M-118.5 -97 C-70.60624518753315 -97, -22.712490375066295 -97, 118.5 -97 M118.5 -97 C118.5 -42.144437839535215, 118.5 12.71112432092957, 118.5 97 M118.5 -97 C118.5 -44.02927389707856, 118.5 8.941452205842879, 118.5 97 M118.5 97 C29.76379746668438 97, -58.97240506663124 97, -118.5 97 M118.5 97 C38.727636315324816 97, -41.04472736935037 97, -118.5 97 M-118.5 97 C-118.5 45.00374984626635, -118.5 -6.992500307467296, -118.5 -97 M-118.5 97 C-118.5 36.237491714222244, -118.5 -24.52501657155551, -118.5 -97" stroke="hsl(40.5882352941, 60%, 83.3333333333%)" stroke-width="1.3" fill="none" stroke-dasharray="0 0" style=""/></g><g class="annotation-group text" transform="translate(0, -77)"/><g class="label-group text" transform="translate(-39, -77)"><g class="label" style="font-weight: bolder" transform="translate(0,-6.5)"><g><rect class="background" style="stroke: none"/><text y="-10.1" style=""><tspan class="text-outer-tspan" x="0" y="-0.1em" dy="1.1em" font-weight=""><tspan font-style="normal" class="text-inner-tspan" font-weight="">ScratchBuffer</tspan></tspan></text></g></g></g><g class="members-group text" transform="translate(-106.5, -40)"><g class="label" style="" transform="translate(0,-6.5)"><g><rect class="background" style="stroke: none"/><text y="-10.1" style=""><tspan class="text-outer-tspan" x="0" y="-0.1em" dy="1.1em"><tspan font-style="normal" class="text-inner-tspan" font-weight="normal">+transformed_feats:</tspan><tspan font-style="normal" class="text-inner-tspan" font-weight="normal"> AlignedU8</tspan></tspan></text></g></g><g class="label" style="" transform="translate(0,9.5)"><g><rect class="background" style="stroke: none"/><text y="-10.1" style=""><tspan class="text-outer-tspan" x="0" y="-0.1em" dy="1.1em"><tspan font-style="normal" class="text-inner-tspan" font-weight="normal">+fc_0_out:</tspan><tspan font-style="normal" class="text-inner-tspan" font-weight="normal"> AlignedI32</tspan></tspan></text></g></g><g class="label" style="" transform="translate(0,25.5)"><g><rect class="background" style="stroke: none"/><text y="-10.1" style=""><tspan class="text-outer-tspan" x="0" y="-0.1em" dy="1.1em"><tspan font-style="normal" class="text-inner-tspan" font-weight="normal">+ac_0_out:</tspan><tspan font-style="normal" class="text-inner-tspan" font-weight="normal"> AlignedU8</tspan></tspan></text></g></g><g class="label" style="" transform="translate(0,41.5)"><g><rect class="background" style="stroke: none"/><text y="-10.1" style=""><tspan class="text-outer-tspan" x="0" y="-0.1em" dy="1.1em"><tspan font-style="normal" class="text-inner-tspan" font-weight="normal">+fc_1_in:</tspan><tspan font-style="normal" class="text-inner-tspan" font-weight="normal"> AlignedU8</tspan></tspan></text></g></g><g class="label" style="" transform="translate(0,57.5)"><g><rect class="background" style="stroke: none"/><text y="-10.1" style=""><tspan class="text-outer-tspan" x="0" y="-0.1em" dy="1.1em"><tspan font-style="normal" class="text-inner-tspan" font-weight="normal">+fc_1_out:</tspan><tspan font-style="normal" class="text-inner-tspan" font-weight="normal"> AlignedI32</tspan></tspan></text></g></g><g class="label" style="" transform="translate(0,73.5)"><g><rect class="background" style="stroke: none"/><text y="-10.1" style=""><tspan class="text-outer-tspan" x="0" y="-0.1em" dy="1.1em"><tspan font-style="normal" class="text-inner-tspan" font-weight="normal">+ac_1_out:</tspan><tspan font-style="normal" class="text-inner-tspan" font-weight="normal"> AlignedU8</tspan></tspan></text></g></g><g class="label" style="" transform="translate(0,89.5)"><g><rect class="background" style="stroke: none"/><text y="-10.1" style=""><tspan class="text-outer-tspan" x="0" y="-0.1em" dy="1.1em"><tspan font-style="normal" class="text-inner-tspan" font-weight="normal">+fc_2_out:</tspan><tspan font-style="normal" class="text-inner-tspan" font-weight="normal"> AlignedI32</tspan></tspan></text></g></g></g><g class="methods-group text" transform="translate(-106.5, 93)"/><g class="divider" style=""><path d="M-118.5 -60 C-31.12484301525761 -60, 56.25031396948478 -60, 118.5 -60 M-118.5 -60 C-39.58607599326071 -60, 39.32784801347859 -60, 118.5 -60" stroke="hsl(40.5882352941, 60%, 83.3333333333%)" stroke-width="1.3" fill="none" stroke-dasharray="0 0" style=""/></g><g class="divider" style=""><path d="M-118.5 73 C-62.63891522313397 73, -6.7778304462679415 73, 118.5 73 M-118.5 73 C-63.22138781755771 73, -7.942775635115424 73, 118.5 73" stroke="hsl(40.5882352941, 60%, 83.3333333333%)" stroke-width="1.3" fill="none" stroke-dasharray="0 0" style=""/></g></g><g class="node default" id="classId-FeatureTransformer-3" transform="translate(74, 571)"><g class="basic label-container"><path d="M-66 -36.5 L66 -36.5 L66 36.5 L-66 36.5" stroke="none" stroke-width="0" fill="#fff4dd" style=""/><path d="M-66 -36.5 C-16.83771600171066 -36.5, 32.32456799657868 -36.5, 66 -36.5 M-66 -36.5 C-39.21901854179812 -36.5, -12.438037083596242 -36.5, 66 -36.5 M66 -36.5 C66 -9.267971500522073, 66 17.964056998955854, 66 36.5 M66 -36.5 C66 -13.608434701528186, 66 9.283130596943629, 66 36.5 M66 36.5 C18.871009509444576 36.5, -28.257980981110848 36.5, -66 36.5 M66 36.5 C14.878692681082747 36.5, -36.24261463783451 36.5, -66 36.5 M-66 36.5 C-66 9.650174522455103, -66 -17.199650955089794, -66 -36.5 M-66 36.5 C-66 17.62186449126045, -66 -1.2562710174791007, -66 -36.5" stroke="hsl(40.5882352941, 60%, 83.3333333333%)" stroke-width="1.3" fill="none" stroke-dasharray="0 0" style=""/></g><g class="annotation-group text" transform="translate(0, -16.5)"/><g class="label-group text" transform="translate(-54, -16.5)"><g class="label" style="font-weight: bolder" transform="translate(0,-6.5)"><g><rect class="background" style="stroke: none"/><text y="-10.1" style=""><tspan class="text-outer-tspan" x="0" y="-0.1em" dy="1.1em" font-weight=""><tspan font-style="normal" class="text-inner-tspan" font-weight="">FeatureTransformer</tspan></tspan></text></g></g></g><g class="members-group text" transform="translate(-54, 20.5)"/><g class="methods-group text" transform="translate(-54, 50.5)"/><g class="divider" style=""><path d="M-66 0.5 C-19.492229310107106 0.5, 27.015541379785788 0.5, 66 0.5 M-66 0.5 C-15.664674721230213 0.5, 34.670650557539574 0.5, 66 0.5" stroke="hsl(40.5882352941, 60%, 83.3333333333%)" stroke-width="1.3" fill="none" stroke-dasharray="0 0" style=""/></g><g class="divider" style=""><path d="M-66 18.5 C-16.992225322811272 18.5, 32.015549354377455 18.5, 66 18.5 M-66 18.5 C-20.52512284027428 18.5, 24.949754319451444 18.5, 66 18.5" stroke="hsl(40.5882352941, 60%, 83.3333333333%)" stroke-width="1.3" fill="none" stroke-dasharray="0 0" style=""/></g></g><g class="node default" id="classId-AffineTransformSparseInput-4" transform="translate(567, 571)"><g class="basic label-container"><path d="M-90 -36.5 L90 -36.5 L90 36.5 L-90 36.5" stroke="none" stroke-width="0" fill="#fff4dd" style=""/><path d="M-90 -36.5 C-50.670363037001444 -36.5, -11.340726074002887 -36.5, 90 -36.5 M-90 -36.5 C-41.85947212482689 -36.5, 6.281055750346226 -36.5, 90 -36.5 M90 -36.5 C90 -11.17175789094318, 90 14.15648421811364, 90 36.5 M90 -36.5 C90 -12.6390807159612, 90 11.221838568077601, 90 36.5 M90 36.5 C26.51668491209437 36.5, -36.96663017581126 36.5, -90 36.5 M90 36.5 C30.511203121196246 36.5, -28.977593757607508 36.5, -90 36.5 M-90 36.5 C-90 14.313186986100519, -90 -7.873626027798963, -90 -36.5 M-90 36.5 C-90 8.351305876586526, -90 -19.797388246826948, -90 -36.5" stroke="hsl(40.5882352941, 60%, 83.3333333333%)" stroke-width="1.3" fill="none" stroke-dasharray="0 0" style=""/></g><g class="annotation-group text" transform="translate(0, -16.5)"/><g class="label-group text" transform="translate(-78, -16.5)"><g class="label" style="font-weight: bolder" transform="translate(0,-6.5)"><g><rect class="background" style="stroke: none"/><text y="-10.1" style=""><tspan class="text-outer-tspan" x="0" y="-0.1em" dy="1.1em" font-weight=""><tspan font-style="normal" class="text-inner-tspan" font-weight="">AffineTransformSparseInput</tspan></tspan></text></g></g></g><g class="members-group text" transform="translate(-78, 20.5)"/><g class="methods-group text" transform="translate(-78, 50.5)"/><g class="divider" style=""><path d="M-90 0.5 C-43.12781236944872 0.5, 3.7443752611025616 0.5, 90 0.5 M-90 0.5 C-45.46552291882781 0.5, -0.931045837655617 0.5, 90 0.5" stroke="hsl(40.5882352941, 60%, 83.3333333333%)" stroke-width="1.3" fill="none" stroke-dasharray="0 0" style=""/></g><g class="divider" style=""><path d="M-90 18.5 C-50.86193470922545 18.5, -11.723869418450903 18.5, 90 18.5 M-90 18.5 C-25.797933862711773 18.5, 38.404132274576455 18.5, 90 18.5" stroke="hsl(40.5882352941, 60%, 83.3333333333%)" stroke-width="1.3" fill="none" stroke-dasharray="0 0" style=""/></g></g><g class="node default" id="classId-AffineTransform-5" transform="translate(764, 571)"><g class="basic label-container"><path d="M-57 -36.5 L57 -36.5 L57 36.5 L-57 36.5" stroke="none" stroke-width="0" fill="#fff4dd" style=""/><path d="M-57 -36.5 C-13.040589170795265 -36.5, 30.91882165840947 -36.5, 57 -36.5 M-57 -36.5 C-13.80593631037982 -36.5, 29.38812737924036 -36.5, 57 -36.5 M57 -36.5 C57 -7.752886760820466, 57 20.994226478359067, 57 36.5 M57 -36.5 C57 -19.531842661860896, 57 -2.563685323721792, 57 36.5 M57 36.5 C17.048491700856744 36.5, -22.903016598286513 36.5, -57 36.5 M57 36.5 C24.887970007636802 36.5, -7.224059984726395 36.5, -57 36.5 M-57 36.5 C-57 20.34273374143009, -57 4.185467482860183, -57 -36.5 M-57 36.5 C-57 21.706476528855212, -57 6.912953057710421, -57 -36.5" stroke="hsl(40.5882352941, 60%, 83.3333333333%)" stroke-width="1.3" fill="none" stroke-dasharray="0 0" style=""/></g><g class="annotation-group text" transform="translate(0, -16.5)"/><g class="label-group text" transform="translate(-45, -16.5)"><g class="label" style="font-weight: bolder" transform="translate(0,-6.5)"><g><rect class="background" style="stroke: none"/><text y="-10.1" style=""><tspan class="text-outer-tspan" x="0" y="-0.1em" dy="1.1em" font-weight=""><tspan font-style="normal" class="text-inner-tspan" font-weight="">AffineTransform</tspan></tspan></text></g></g></g><g class="members-group text" transform="translate(-45, 20.5)"/><g class="methods-group text" transform="translate(-45, 50.5)"/><g class="divider" style=""><path d="M-57 0.5 C-33.37769509511213 0.5, -9.755390190224261 0.5, 57 0.5 M-57 0.5 C-19.298856168243894 0.5, 18.40228766351221 0.5, 57 0.5" stroke="hsl(40.5882352941, 60%, 83.3333333333%)" stroke-width="1.3" fill="none" stroke-dasharray="0 0" style=""/></g><g class="divider" style=""><path d="M-57 18.5 C-32.844315241133394 18.5, -8.688630482266788 18.5, 57 18.5 M-57 18.5 C-31.657031496875643 18.5, -6.3140629937512855 18.5, 57 18.5" stroke="hsl(40.5882352941, 60%, 83.3333333333%)" stroke-width="1.3" fill="none" stroke-dasharray="0 0" style=""/></g></g><g class="node default" id="classId-ClippedReLU-6" transform="translate(916, 571)"><g class="basic label-container"><path d="M-45 -36.5 L45 -36.5 L45 36.5 L-45 36.5" stroke="none" stroke-width="0" fill="#fff4dd" style=""/><path d="M-45 -36.5 C-19.581729606789132 -36.5, 5.836540786421736 -36.5, 45 -36.5 M-45 -36.5 C-11.713140780905604 -36.5, 21.57371843818879 -36.5, 45 -36.5 M45 -36.5 C45 -18.373676114574085, 45 -0.24735222914817, 45 36.5 M45 -36.5 C45 -17.365572432486122, 45 1.7688551350277564, 45 36.5 M45 36.5 C13.55287997326155 36.5, -17.8942400534769 36.5, -45 36.5 M45 36.5 C12.871600008117525 36.5, -19.25679998376495 36.5, -45 36.5 M-45 36.5 C-45 8.869416072961858, -45 -18.761167854076284, -45 -36.5 M-45 36.5 C-45 19.347783181858237, -45 2.1955663637164733, -45 -36.5" stroke="hsl(40.5882352941, 60%, 83.3333333333%)" stroke-width="1.3" fill="none" stroke-dasharray="0 0" style=""/></g><g class="annotation-group text" transform="translate(0, -16.5)"/><g class="label-group text" transform="translate(-33, -16.5)"><g class="label" style="font-weight: bolder" transform="translate(0,-6.5)"><g><rect class="background" style="stroke: none"/><text y="-10.1" style=""><tspan class="text-outer-tspan" x="0" y="-0.1em" dy="1.1em" font-weight=""><tspan font-style="normal" class="text-inner-tspan" font-weight="">ClippedReLU</tspan></tspan></text></g></g></g><g class="members-group text" transform="translate(-33, 20.5)"/><g class="methods-group text" transform="translate(-33, 50.5)"/><g class="divider" style=""><path d="M-45 0.5 C-11.756878226551237 0.5, 21.486243546897526 0.5, 45 0.5 M-45 0.5 C-9.895641331589005 0.5, 25.20871733682199 0.5, 45 0.5" stroke="hsl(40.5882352941, 60%, 83.3333333333%)" stroke-width="1.3" fill="none" stroke-dasharray="0 0" style=""/></g><g class="divider" style=""><path d="M-45 18.5 C-14.880241507135988 18.5, 15.239516985728024 18.5, 45 18.5 M-45 18.5 C-23.503424799403348 18.5, -2.0068495988066957 18.5, 45 18.5" stroke="hsl(40.5882352941, 60%, 83.3333333333%)" stroke-width="1.3" fill="none" stroke-dasharray="0 0" style=""/></g></g><g class="node default" id="classId-SqrClippedReLU-7" transform="translate(1065, 571)"><g class="basic label-container"><path d="M-54 -36.5 L54 -36.5 L54 36.5 L-54 36.5" stroke="none" stroke-width="0" fill="#fff4dd" style=""/><path d="M-54 -36.5 C-15.198472358426656 -36.5, 23.603055283146688 -36.5, 54 -36.5 M-54 -36.5 C-25.54152232704277 -36.5, 2.9169553459144595 -36.5, 54 -36.5 M54 -36.5 C54 -16.37713830192471, 54 3.7457233961505807, 54 36.5 M54 -36.5 C54 -20.625757165968672, 54 -4.751514331937347, 54 36.5 M54 36.5 C11.298697425556036 36.5, -31.40260514888793 36.5, -54 36.5 M54 36.5 C15.912639375056123 36.5, -22.174721249887753 36.5, -54 36.5 M-54 36.5 C-54 15.212258769014234, -54 -6.075482461971532, -54 -36.5 M-54 36.5 C-54 8.781935190168529, -54 -18.936129619662943, -54 -36.5" stroke="hsl(40.5882352941, 60%, 83.3333333333%)" stroke-width="1.3" fill="none" stroke-dasharray="0 0" style=""/></g><g class="annotation-group text" transform="translate(0, -16.5)"/><g class="label-group text" transform="translate(-42, -16.5)"><g class="label" style="font-weight: bolder" transform="translate(0,-6.5)"><g><rect class="background" style="stroke: none"/><text y="-10.1" style=""><tspan class="text-outer-tspan" x="0" y="-0.1em" dy="1.1em" font-weight=""><tspan font-style="normal" class="text-inner-tspan" font-weight="">SqrClippedReLU</tspan></tspan></text></g></g></g><g class="members-group text" transform="translate(-42, 20.5)"/><g class="methods-group text" transform="translate(-42, 50.5)"/><g class="divider" style=""><path d="M-54 0.5 C-17.67083752646446 0.5, 18.65832494707108 0.5, 54 0.5 M-54 0.5 C-26.766788476104665 0.5, 0.4664230477906699 0.5, 54 0.5" stroke="hsl(40.5882352941, 60%, 83.3333333333%)" stroke-width="1.3" fill="none" stroke-dasharray="0 0" style=""/></g><g class="divider" style=""><path d="M-54 18.5 C-16.68232772837559 18.5, 20.63534454324882 18.5, 54 18.5 M-54 18.5 C-21.784525764257673 18.5, 10.430948471484655 18.5, 54 18.5" stroke="hsl(40.5882352941, 60%, 83.3333333333%)" stroke-width="1.3" fill="none" stroke-dasharray="0 0" style=""/></g></g></g></g></g></svg>