<svg id="my-svg" width="100%" xmlns="http://www.w3.org/2000/svg" xmlns:xlink="http://www.w3.org/1999/xlink" class="classDiagram" style="max-width: 320.75px; background-color: white;" viewBox="0 0 320.75 509" role="graphics-document document" aria-roledescription="class"><style>#my-svg{font-family:JetBrains Mono;font-size:10px;fill:#333;}@keyframes edge-animation-frame{from{stroke-dashoffset:0;}}@keyframes dash{to{stroke-dashoffset:0;}}#my-svg .edge-animation-slow{stroke-dasharray:9,5!important;stroke-dashoffset:900;animation:dash 50s linear infinite;stroke-linecap:round;}#my-svg .edge-animation-fast{stroke-dasharray:9,5!important;stroke-dashoffset:900;animation:dash 20s linear infinite;stroke-linecap:round;}#my-svg .error-icon{fill:hsl(220.5882352941, 100%, 98.3333333333%);}#my-svg .error-text{fill:rgb(8.5000000002, 5.7500000001, 0);stroke:rgb(8.5000000002, 5.7500000001, 0);}#my-svg .edge-thickness-normal{stroke-width:1px;}#my-svg .edge-thickness-thick{stroke-width:3.5px;}#my-svg .edge-pattern-solid{stroke-dasharray:0;}#my-svg .edge-thickness-invisible{stroke-width:0;fill:none;}#my-svg .edge-pattern-dashed{stroke-dasharray:3;}#my-svg .edge-pattern-dotted{stroke-dasharray:2;}#my-svg .marker{fill:#0b0b0b;stroke:#0b0b0b;}#my-svg .marker.cross{stroke:#0b0b0b;}#my-svg svg{font-family:JetBrains Mono;font-size:10px;}#my-svg p{margin:0;}#my-svg g.classGroup text{fill:hsl(40.5882352941, 60%, 83.3333333333%);stroke:none;font-family:JetBrains Mono;font-size:10px;}#my-svg g.classGroup text .title{font-weight:bolder;}#my-svg .nodeLabel,#my-svg .edgeLabel{color:#333;}#my-svg .edgeLabel .label rect{fill:#fff4dd;}#my-svg .label text{fill:#333;}#my-svg .labelBkg{background:#fff4dd;}#my-svg .edgeLabel .label span{background:#fff4dd;}#my-svg .classTitle{font-weight:bolder;}#my-svg .node rect,#my-svg .node circle,#my-svg .node ellipse,#my-svg .node polygon,#my-svg .node path{fill:#fff4dd;stroke:hsl(40.5882352941, 60%, 83.3333333333%);stroke-width:1px;}#my-svg .divider{stroke:hsl(40.5882352941, 60%, 83.3333333333%);stroke-width:1;}#my-svg g.clickable{cursor:pointer;}#my-svg g.classGroup rect{fill:#fff4dd;stroke:hsl(40.5882352941, 60%, 83.3333333333%);}#my-svg g.classGroup line{stroke:hsl(40.5882352941, 60%, 83.3333333333%);stroke-width:1;}#my-svg .classLabel .box{stroke:none;stroke-width:0;fill:#fff4dd;opacity:0.5;}#my-svg .classLabel .label{fill:hsl(40.5882352941, 60%, 83.3333333333%);font-size:10px;}#my-svg .relation{stroke:#0b0b0b;stroke-width:1;fill:none;}#my-svg .dashed-line{stroke-dasharray:3;}#my-svg .dotted-line{stroke-dasharray:1 2;}#my-svg #compositionStart,#my-svg .composition{fill:#0b0b0b!important;stroke:#0b0b0b!important;stroke-width:1;}#my-svg #compositionEnd,#my-svg .composition{fill:#0b0b0b!important;stroke:#0b0b0b!important;stroke-width:1;}#my-svg #dependencyStart,#my-svg .dependency{fill:#0b0b0b!important;stroke:#0b0b0b!important;stroke-width:1;}#my-svg #dependencyStart,#my-svg .dependency{fill:#0b0b0b!important;stroke:#0b0b0b!important;stroke-width:1;}#my-svg #extensionStart,#my-svg .extension{fill:transparent!important;stroke:#0b0b0b!important;stroke-width:1;}#my-svg #extensionEnd,#my-svg .extension{fill:transparent!important;stroke:#0b0b0b!important;stroke-width:1;}#my-svg #aggregationStart,#my-svg .aggregation{fill:transparent!important;stroke:#0b0b0b!important;stroke-width:1;}#my-svg #aggregationEnd,#my-svg .aggregation{fill:transparent!important;stroke:#0b0b0b!important;stroke-width:1;}#my-svg #lollipopStart,#my-svg .lollipop{fill:#fff4dd!important;stroke:#0b0b0b!important;stroke-width:1;}#my-svg #lollipopEnd,#my-svg .lollipop{fill:#fff4dd!important;stroke:#0b0b0b!important;stroke-width:1;}#my-svg .edgeTerminals{font-size:11px;line-height:initial;}#my-svg .classTitleText{text-anchor:middle;font-size:18px;fill:#333;}#my-svg .label-icon{display:inline-block;height:1em;overflow:visible;vertical-align:-0.125em;}#my-svg .node .label-icon path{fill:currentColor;stroke:revert;stroke-width:revert;}#my-svg :root{--mermaid-font-family:"trebuchet ms",verdana,arial,sans-serif;}</style><g><defs><marker id="my-svg_class-aggregationStart" class="marker aggregation class" refX="18" refY="7" markerWidth="190" markerHeight="240" orient="auto"><path d="M 18,7 L9,13 L1,7 L9,1 Z"/></marker></defs><defs><marker id="my-svg_class-aggregationEnd" class="marker aggregation class" refX="1" refY="7" markerWidth="20" markerHeight="28" orient="auto"><path d="M 18,7 L9,13 L1,7 L9,1 Z"/></marker></defs><defs><marker id="my-svg_class-extensionStart" class="marker extension class" refX="18" refY="7" markerWidth="190" markerHeight="240" orient="auto"><path d="M 1,7 L18,13 V 1 Z"/></marker></defs><defs><marker id="my-svg_class-extensionEnd" class="marker extension class" refX="1" refY="7" markerWidth="20" markerHeight="28" orient="auto"><path d="M 1,1 V 13 L18,7 Z"/></marker></defs><defs><marker id="my-svg_class-compositionStart" class="marker composition class" refX="18" refY="7" markerWidth="190" markerHeight="240" orient="auto"><path d="M 18,7 L9,13 L1,7 L9,1 Z"/></marker></defs><defs><marker id="my-svg_class-compositionEnd" class="marker composition class" refX="1" refY="7" markerWidth="20" markerHeight="28" orient="auto"><path d="M 18,7 L9,13 L1,7 L9,1 Z"/></marker></defs><defs><marker id="my-svg_class-dependencyStart" class="marker dependency class" refX="6" refY="7" markerWidth="190" markerHeight="240" orient="auto"><path d="M 5,7 L9,13 L1,7 L9,1 Z"/></marker></defs><defs><marker id="my-svg_class-dependencyEnd" class="marker dependency class" refX="13" refY="7" markerWidth="20" markerHeight="28" orient="auto"><path d="M 18,7 L9,13 L14,7 L9,1 Z"/></marker></defs><defs><marker id="my-svg_class-lollipopStart" class="marker lollipop class" refX="13" refY="7" markerWidth="190" markerHeight="240" orient="auto"><circle stroke="black" fill="transparent" cx="7" cy="7" r="6"/></marker></defs><defs><marker id="my-svg_class-lollipopEnd" class="marker lollipop class" refX="1" refY="7" markerWidth="190" markerHeight="240" orient="auto"><circle stroke="black" fill="transparent" cx="7" cy="7" r="6"/></marker></defs><g class="root"><g class="clusters"/><g class="edgePaths"><path d="M120.5,314L120.5,319.583C120.5,325.167,120.5,336.333,124.285,346.715C128.069,357.096,135.639,366.693,139.423,371.491L143.208,376.289" id="id_Through_Between_1" class="edge-thickness-normal edge-pattern-solid relation" style=";;;" data-edge="true" data-et="edge" data-id="id_Through_Between_1" data-points="W3sieCI6MTIwLjUsInkiOjMxNH0seyJ4IjoxMjAuNSwieSI6MzQ3LjV9LHsieCI6MTQ2LjkyMzc5Njc5MTQ0Mzg2LCJ5IjozODF9XQ==" marker-end="url(#my-svg_class-dependencyEnd)"/><path d="M246.309,128L249.924,132.167C253.539,136.333,260.77,144.667,264.385,164.333C268,184,268,215,268,247.417C268,279.833,268,313.667,264.215,335.382C260.431,357.096,252.861,366.693,249.077,371.491L245.292,376.289" id="id_API_Between_2" class="edge-thickness-normal edge-pattern-solid relation" style=";;;" data-edge="true" data-et="edge" data-id="id_API_Between_2" data-points="W3sieCI6MjQ2LjMwODgyMzUyOTQxMTc3LCJ5IjoxMjh9LHsieCI6MjY4LCJ5IjoxNTN9LHsieCI6MjY4LCJ5IjoyNDZ9LHsieCI6MjY4LCJ5IjozNDcuNX0seyJ4IjoyNDEuNTc2MjAzMjA4NTU2MTQsInkiOjM4MX1d" marker-end="url(#my-svg_class-dependencyEnd)"/><path d="M142.191,128L138.576,132.167C134.961,136.333,127.73,144.667,124.115,152C120.5,159.333,120.5,165.667,120.5,168.833L120.5,172" id="id_API_Through_3" class="edge-thickness-normal edge-pattern-solid relation" style=";;;" data-edge="true" data-et="edge" data-id="id_API_Through_3" data-points="W3sieCI6MTQyLjE5MTE3NjQ3MDU4ODIzLCJ5IjoxMjh9LHsieCI6MTIwLjUsInkiOjE1M30seyJ4IjoxMjAuNSwieSI6MTc4fV0=" marker-end="url(#my-svg_class-dependencyEnd)"/></g><g class="edgeLabels"><g><rect class="background" style="stroke: none"/></g><g><rect class="background" style="stroke: none"/></g><g class="edgeLabel" transform="translate(120.5, 347.5)"><g class="label" data-id="id_Through_Between_1" transform="translate(-56, -8.5)"><g><rect class="background" style="" x="-2" y="-2" width="112" height="17"/><text y="-10.1" style=""><tspan class="text-outer-tspan" x="0" y="-0.1em" dy="1.1em"><tspan font-style="normal" class="text-inner-tspan" font-weight="normal">uses</tspan><tspan font-style="normal" class="text-inner-tspan" font-weight="normal"> BETWEEN</tspan><tspan font-style="normal" class="text-inner-tspan" font-weight="normal"> table</tspan></tspan></text></g></g></g><g class="edgeLabel"><g class="label" data-id="id_API_Between_2" transform="translate(0, 0)"><text y="-10.1"><tspan class="text-outer-tspan" x="0" y="-0.1em" dy="1.1em"/></text></g></g><g class="edgeLabel"><g class="label" data-id="id_API_Through_3" transform="translate(0, 0)"><text y="-10.1"><tspan class="text-outer-tspan" x="0" y="-0.1em" dy="1.1em"/></text></g></g></g><g class="nodes"><g class="node default" id="classId-Between-0" transform="translate(194.25, 441)"><g class="basic label-container"><path d="M-118.5 -60 L118.5 -60 L118.5 60 L-118.5 60" stroke="none" stroke-width="0" fill="#fff4dd" style=""/><path d="M-118.5 -60 C-57.88071759888834 -60, 2.7385648022233227 -60, 118.5 -60 M-118.5 -60 C-66.3416645377591 -60, -14.183329075518188 -60, 118.5 -60 M118.5 -60 C118.5 -33.748020596383235, 118.5 -7.496041192766469, 118.5 60 M118.5 -60 C118.5 -24.888929610163373, 118.5 10.222140779673254, 118.5 60 M118.5 60 C25.413271089404446 60, -67.6734578211911 60, -118.5 60 M118.5 60 C49.62386114032245 60, -19.252277719355106 60, -118.5 60 M-118.5 60 C-118.5 12.89648561287163, -118.5 -34.20702877425674, -118.5 -60 M-118.5 60 C-118.5 32.68651004137584, -118.5 5.37302008275168, -118.5 -60" stroke="hsl(40.5882352941, 60%, 83.3333333333%)" stroke-width="1.3" fill="none" stroke-dasharray="0 0" style=""/></g><g class="annotation-group text" transform="translate(0, -40)"/><g class="label-group text" transform="translate(-21, -40)"><g class="label" style="font-weight: bolder" transform="translate(0,-6.5)"><g><rect class="background" style="stroke: none"/><text y="-10.1" style=""><tspan class="text-outer-tspan" x="0" y="-0.1em" dy="1.1em" font-weight=""><tspan font-style="normal" class="text-inner-tspan" font-weight="">Between</tspan></tspan></text></g></g></g><g class="members-group text" transform="translate(-106.5, -3)"/><g class="methods-group text" transform="translate(-106.5, 27)"><g class="label" style="" transform="translate(0,-6.5)"><g><rect class="background" style="stroke: none"/><text y="-10.1" style=""><tspan class="text-outer-tspan" x="0" y="-0.1em" dy="1.1em"><tspan font-style="normal" class="text-inner-tspan" font-weight="normal">+generate_between()</tspan><tspan font-style="normal" class="text-inner-tspan" font-weight="normal"> :</tspan><tspan font-style="normal" class="text-inner-tspan" font-weight="normal"> BetweenTbl</tspan></tspan></text></g></g><g class="label" style="" transform="translate(0,9.5)"><g><rect class="background" style="stroke: none"/><text y="-10.1" style=""><tspan class="text-outer-tspan" x="0" y="-0.1em" dy="1.1em"><tspan font-style="normal" class="text-inner-tspan" font-weight="normal">-calc_between(from,to)</tspan><tspan font-style="normal" class="text-inner-tspan" font-weight="normal"> :</tspan><tspan font-style="normal" class="text-inner-tspan" font-weight="normal"> u64</tspan></tspan></text></g></g></g><g class="divider" style=""><path d="M-118.5 -23 C-65.64911187238569 -23, -12.798223744771377 -23, 118.5 -23 M-118.5 -23 C-27.277878972419515 -23, 63.94424205516097 -23, 118.5 -23" stroke="hsl(40.5882352941, 60%, 83.3333333333%)" stroke-width="1.3" fill="none" stroke-dasharray="0 0" style=""/></g><g class="divider" style=""><path d="M-118.5 1 C-68.52629099967487 1, -18.55258199934974 1, 118.5 1 M-118.5 1 C-37.481636506084385 1, 43.53672698783123 1, 118.5 1" stroke="hsl(40.5882352941, 60%, 83.3333333333%)" stroke-width="1.3" fill="none" stroke-dasharray="0 0" style=""/></g></g><g class="node default" id="classId-Through-1" transform="translate(120.5, 246)"><g class="basic label-container"><path d="M-112.5 -68 L112.5 -68 L112.5 68 L-112.5 68" stroke="none" stroke-width="0" fill="#fff4dd" style=""/><path d="M-112.5 -68 C-32.68046223387164 -68, 47.139075532256726 -68, 112.5 -68 M-112.5 -68 C-31.247897523597445 -68, 50.00420495280511 -68, 112.5 -68 M112.5 -68 C112.5 -19.815057108070945, 112.5 28.36988578385811, 112.5 68 M112.5 -68 C112.5 -30.370040292630904, 112.5 7.259919414738192, 112.5 68 M112.5 68 C67.48748701584682 68, 22.474974031693662 68, -112.5 68 M112.5 68 C28.98784380023109 68, -54.52431239953782 68, -112.5 68 M-112.5 68 C-112.5 39.091025721608254, -112.5 10.182051443216508, -112.5 -68 M-112.5 68 C-112.5 24.08652675079064, -112.5 -19.82694649841872, -112.5 -68" stroke="hsl(40.5882352941, 60%, 83.3333333333%)" stroke-width="1.3" fill="none" stroke-dasharray="0 0" style=""/></g><g class="annotation-group text" transform="translate(0, -48)"/><g class="label-group text" transform="translate(-21, -48)"><g class="label" style="font-weight: bolder" transform="translate(0,-6.5)"><g><rect class="background" style="stroke: none"/><text y="-10.1" style=""><tspan class="text-outer-tspan" x="0" y="-0.1em" dy="1.1em" font-weight=""><tspan font-style="normal" class="text-inner-tspan" font-weight="">Through</tspan></tspan></text></g></g></g><g class="members-group text" transform="translate(-100.5, -11)"/><g class="methods-group text" transform="translate(-100.5, 19)"><g class="label" style="" transform="translate(0,-6.5)"><g><rect class="background" style="stroke: none"/><text y="-10.1" style=""><tspan class="text-outer-tspan" x="0" y="-0.1em" dy="1.1em"><tspan font-style="normal" class="text-inner-tspan" font-weight="normal">+generate_line()</tspan><tspan font-style="normal" class="text-inner-tspan" font-weight="normal"> :</tspan><tspan font-style="normal" class="text-inner-tspan" font-weight="normal"> ThroughTbl</tspan></tspan></text></g></g><g class="label" style="" transform="translate(0,9.5)"><g><rect class="background" style="stroke: none"/><text y="-10.1" style=""><tspan class="text-outer-tspan" x="0" y="-0.1em" dy="1.1em"><tspan font-style="normal" class="text-inner-tspan" font-weight="normal">-calc_line(from,to)</tspan><tspan font-style="normal" class="text-inner-tspan" font-weight="normal"> :</tspan><tspan font-style="normal" class="text-inner-tspan" font-weight="normal"> u64</tspan></tspan></text></g></g><g class="label" style="" transform="translate(0,25.5)"><g><rect class="background" style="stroke: none"/><text y="-10.1" style=""><tspan class="text-outer-tspan" x="0" y="-0.1em" dy="1.1em"><tspan font-style="normal" class="text-inner-tspan" font-weight="normal">-extend_ray(from,to)</tspan><tspan font-style="normal" class="text-inner-tspan" font-weight="normal"> :</tspan><tspan font-style="normal" class="text-inner-tspan" font-weight="normal"> RayMask</tspan></tspan></text></g></g></g><g class="divider" style=""><path d="M-112.5 -31 C-61.998238443630896 -31, -11.496476887261792 -31, 112.5 -31 M-112.5 -31 C-58.698373706207036 -31, -4.896747412414072 -31, 112.5 -31" stroke="hsl(40.5882352941, 60%, 83.3333333333%)" stroke-width="1.3" fill="none" stroke-dasharray="0 0" style=""/></g><g class="divider" style=""><path d="M-112.5 -7 C-53.0278332593983 -7, 6.444333481203401 -7, 112.5 -7 M-112.5 -7 C-37.49508710465122 -7, 37.50982579069756 -7, 112.5 -7" stroke="hsl(40.5882352941, 60%, 83.3333333333%)" stroke-width="1.3" fill="none" stroke-dasharray="0 0" style=""/></g></g><g class="node default" id="classId-API-2" transform="translate(194.25, 68)"><g class="basic label-container"><path d="M-100.5 -60 L100.5 -60 L100.5 60 L-100.5 60" stroke="none" stroke-width="0" fill="#fff4dd" style=""/><path d="M-100.5 -60 C-22.25532837434008 -60, 55.98934325131984 -60, 100.5 -60 M-100.5 -60 C-23.64082671620359 -60, 53.21834656759282 -60, 100.5 -60 M100.5 -60 C100.5 -24.448701829010773, 100.5 11.102596341978455, 100.5 60 M100.5 -60 C100.5 -20.727797493516682, 100.5 18.544405012966635, 100.5 60 M100.5 60 C47.23382891314599 60, -6.032342173708017 60, -100.5 60 M100.5 60 C36.20796164162158 60, -28.08407671675684 60, -100.5 60 M-100.5 60 C-100.5 20.746021570598415, -100.5 -18.50795685880317, -100.5 -60 M-100.5 60 C-100.5 17.22314051574189, -100.5 -25.553718968516222, -100.5 -60" stroke="hsl(40.5882352941, 60%, 83.3333333333%)" stroke-width="1.3" fill="none" stroke-dasharray="0 0" style=""/></g><g class="annotation-group text" transform="translate(0, -40)"/><g class="label-group text" transform="translate(-9, -40)"><g class="label" style="font-weight: bolder" transform="translate(0,-6.5)"><g><rect class="background" style="stroke: none"/><text y="-10.1" style=""><tspan class="text-outer-tspan" x="0" y="-0.1em" dy="1.1em" font-weight=""><tspan font-style="normal" class="text-inner-tspan" font-weight="">API</tspan></tspan></text></g></g></g><g class="members-group text" transform="translate(-88.5, -3)"/><g class="methods-group text" transform="translate(-88.5, 27)"><g class="label" style="" transform="translate(0,-6.5)"><g><rect class="background" style="stroke: none"/><text y="-10.1" style=""><tspan class="text-outer-tspan" x="0" y="-0.1em" dy="1.1em"><tspan font-style="normal" class="text-inner-tspan" font-weight="normal">+line_between(a,b)</tspan><tspan font-style="normal" class="text-inner-tspan" font-weight="normal"> :</tspan><tspan font-style="normal" class="text-inner-tspan" font-weight="normal"> u64</tspan></tspan></text></g></g><g class="label" style="" transform="translate(0,9.5)"><g><rect class="background" style="stroke: none"/><text y="-10.1" style=""><tspan class="text-outer-tspan" x="0" y="-0.1em" dy="1.1em"><tspan font-style="normal" class="text-inner-tspan" font-weight="normal">+line_through(sq1,sq2)</tspan><tspan font-style="normal" class="text-inner-tspan" font-weight="normal"> :</tspan><tspan font-style="normal" class="text-inner-tspan" font-weight="normal"> u64</tspan></tspan></text></g></g></g><g class="divider" style=""><path d="M-100.5 -23 C-46.20315507798347 -23, 8.093689844033065 -23, 100.5 -23 M-100.5 -23 C-39.95388641333462 -23, 20.592227173330755 -23, 100.5 -23" stroke="hsl(40.5882352941, 60%, 83.3333333333%)" stroke-width="1.3" fill="none" stroke-dasharray="0 0" style=""/></g><g class="divider" style=""><path d="M-100.5 1 C-21.684878748802902 1, 57.130242502394196 1, 100.5 1 M-100.5 1 C-37.05021297240355 1, 26.3995740551929 1, 100.5 1" stroke="hsl(40.5882352941, 60%, 83.3333333333%)" stroke-width="1.3" fill="none" stroke-dasharray="0 0" style=""/></g></g></g></g></g></svg>