<svg id="my-svg" width="100%" xmlns="http://www.w3.org/2000/svg" xmlns:xlink="http://www.w3.org/1999/xlink" class="classDiagram" style="max-width: 804px; background-color: white;" viewBox="0 0 804 290" role="graphics-document document" aria-roledescription="class"><style>#my-svg{font-family:JetBrains Mono;font-size:10px;fill:#333;}@keyframes edge-animation-frame{from{stroke-dashoffset:0;}}@keyframes dash{to{stroke-dashoffset:0;}}#my-svg .edge-animation-slow{stroke-dasharray:9,5!important;stroke-dashoffset:900;animation:dash 50s linear infinite;stroke-linecap:round;}#my-svg .edge-animation-fast{stroke-dasharray:9,5!important;stroke-dashoffset:900;animation:dash 20s linear infinite;stroke-linecap:round;}#my-svg .error-icon{fill:hsl(220.5882352941, 100%, 98.3333333333%);}#my-svg .error-text{fill:rgb(8.5000000002, 5.7500000001, 0);stroke:rgb(8.5000000002, 5.7500000001, 0);}#my-svg .edge-thickness-normal{stroke-width:1px;}#my-svg .edge-thickness-thick{stroke-width:3.5px;}#my-svg .edge-pattern-solid{stroke-dasharray:0;}#my-svg .edge-thickness-invisible{stroke-width:0;fill:none;}#my-svg .edge-pattern-dashed{stroke-dasharray:3;}#my-svg .edge-pattern-dotted{stroke-dasharray:2;}#my-svg .marker{fill:#0b0b0b;stroke:#0b0b0b;}#my-svg .marker.cross{stroke:#0b0b0b;}#my-svg svg{font-family:JetBrains Mono;font-size:10px;}#my-svg p{margin:0;}#my-svg g.classGroup text{fill:hsl(40.5882352941, 60%, 83.3333333333%);stroke:none;font-family:JetBrains Mono;font-size:10px;}#my-svg g.classGroup text .title{font-weight:bolder;}#my-svg .nodeLabel,#my-svg .edgeLabel{color:#333;}#my-svg .edgeLabel .label rect{fill:#fff4dd;}#my-svg .label text{fill:#333;}#my-svg .labelBkg{background:#fff4dd;}#my-svg .edgeLabel .label span{background:#fff4dd;}#my-svg .classTitle{font-weight:bolder;}#my-svg .node rect,#my-svg .node circle,#my-svg .node ellipse,#my-svg .node polygon,#my-svg .node path{fill:#fff4dd;stroke:hsl(40.5882352941, 60%, 83.3333333333%);stroke-width:1px;}#my-svg .divider{stroke:hsl(40.5882352941, 60%, 83.3333333333%);stroke-width:1;}#my-svg g.clickable{cursor:pointer;}#my-svg g.classGroup rect{fill:#fff4dd;stroke:hsl(40.5882352941, 60%, 83.3333333333%);}#my-svg g.classGroup line{stroke:hsl(40.5882352941, 60%, 83.3333333333%);stroke-width:1;}#my-svg .classLabel .box{stroke:none;stroke-width:0;fill:#fff4dd;opacity:0.5;}#my-svg .classLabel .label{fill:hsl(40.5882352941, 60%, 83.3333333333%);font-size:10px;}#my-svg .relation{stroke:#0b0b0b;stroke-width:1;fill:none;}#my-svg .dashed-line{stroke-dasharray:3;}#my-svg .dotted-line{stroke-dasharray:1 2;}#my-svg #compositionStart,#my-svg .composition{fill:#0b0b0b!important;stroke:#0b0b0b!important;stroke-width:1;}#my-svg #compositionEnd,#my-svg .composition{fill:#0b0b0b!important;stroke:#0b0b0b!important;stroke-width:1;}#my-svg #dependencyStart,#my-svg .dependency{fill:#0b0b0b!important;stroke:#0b0b0b!important;stroke-width:1;}#my-svg #dependencyStart,#my-svg .dependency{fill:#0b0b0b!important;stroke:#0b0b0b!important;stroke-width:1;}#my-svg #extensionStart,#my-svg .extension{fill:transparent!important;stroke:#0b0b0b!important;stroke-width:1;}#my-svg #extensionEnd,#my-svg .extension{fill:transparent!important;stroke:#0b0b0b!important;stroke-width:1;}#my-svg #aggregationStart,#my-svg .aggregation{fill:transparent!important;stroke:#0b0b0b!important;stroke-width:1;}#my-svg #aggregationEnd,#my-svg .aggregation{fill:transparent!important;stroke:#0b0b0b!important;stroke-width:1;}#my-svg #lollipopStart,#my-svg .lollipop{fill:#fff4dd!important;stroke:#0b0b0b!important;stroke-width:1;}#my-svg #lollipopEnd,#my-svg .lollipop{fill:#fff4dd!important;stroke:#0b0b0b!important;stroke-width:1;}#my-svg .edgeTerminals{font-size:11px;line-height:initial;}#my-svg .classTitleText{text-anchor:middle;font-size:18px;fill:#333;}#my-svg .label-icon{display:inline-block;height:1em;overflow:visible;vertical-align:-0.125em;}#my-svg .node .label-icon path{fill:currentColor;stroke:revert;stroke-width:revert;}#my-svg :root{--mermaid-font-family:"trebuchet ms",verdana,arial,sans-serif;}</style><g><defs><marker id="my-svg_class-aggregationStart" class="marker aggregation class" refX="18" refY="7" markerWidth="190" markerHeight="240" orient="auto"><path d="M 18,7 L9,13 L1,7 L9,1 Z"/></marker></defs><defs><marker id="my-svg_class-aggregationEnd" class="marker aggregation class" refX="1" refY="7" markerWidth="20" markerHeight="28" orient="auto"><path d="M 18,7 L9,13 L1,7 L9,1 Z"/></marker></defs><defs><marker id="my-svg_class-extensionStart" class="marker extension class" refX="18" refY="7" markerWidth="190" markerHeight="240" orient="auto"><path d="M 1,7 L18,13 V 1 Z"/></marker></defs><defs><marker id="my-svg_class-extensionEnd" class="marker extension class" refX="1" refY="7" markerWidth="20" markerHeight="28" orient="auto"><path d="M 1,1 V 13 L18,7 Z"/></marker></defs><defs><marker id="my-svg_class-compositionStart" class="marker composition class" refX="18" refY="7" markerWidth="190" markerHeight="240" orient="auto"><path d="M 18,7 L9,13 L1,7 L9,1 Z"/></marker></defs><defs><marker id="my-svg_class-compositionEnd" class="marker composition class" refX="1" refY="7" markerWidth="20" markerHeight="28" orient="auto"><path d="M 18,7 L9,13 L1,7 L9,1 Z"/></marker></defs><defs><marker id="my-svg_class-dependencyStart" class="marker dependency class" refX="6" refY="7" markerWidth="190" markerHeight="240" orient="auto"><path d="M 5,7 L9,13 L1,7 L9,1 Z"/></marker></defs><defs><marker id="my-svg_class-dependencyEnd" class="marker dependency class" refX="13" refY="7" markerWidth="20" markerHeight="28" orient="auto"><path d="M 18,7 L9,13 L14,7 L9,1 Z"/></marker></defs><defs><marker id="my-svg_class-lollipopStart" class="marker lollipop class" refX="13" refY="7" markerWidth="190" markerHeight="240" orient="auto"><circle stroke="black" fill="transparent" cx="7" cy="7" r="6"/></marker></defs><defs><marker id="my-svg_class-lollipopEnd" class="marker lollipop class" refX="1" refY="7" markerWidth="190" markerHeight="240" orient="auto"><circle stroke="black" fill="transparent" cx="7" cy="7" r="6"/></marker></defs><g class="root"><g class="clusters"/><g class="edgePaths"><path d="M444,108.59L435.083,113.325C426.167,118.06,408.333,127.53,399.417,135.432C390.5,143.333,390.5,149.667,390.5,152.833L390.5,156" id="id_Builder_BishopGen_1" class="edge-thickness-normal edge-pattern-solid relation" style=";;;" data-edge="true" data-et="edge" data-id="id_Builder_BishopGen_1" data-points="W3sieCI6NDQ0LCJ5IjoxMDguNTg5NjU1MTcyNDEzNzl9LHsieCI6MzkwLjUsInkiOjEzN30seyJ4IjozOTAuNSwieSI6MTYyfV0=" marker-end="url(#my-svg_class-dependencyEnd)"/><path d="M627,108.59L635.917,113.325C644.833,118.06,662.667,127.53,671.583,135.432C680.5,143.333,680.5,149.667,680.5,152.833L680.5,156" id="id_Builder_RookGen_2" class="edge-thickness-normal edge-pattern-solid relation" style=";;;" data-edge="true" data-et="edge" data-id="id_Builder_RookGen_2" data-points="W3sieCI6NjI3LCJ5IjoxMDguNTg5NjU1MTcyNDEzNzl9LHsieCI6NjgwLjUsInkiOjEzN30seyJ4Ijo2ODAuNSwieSI6MTYyfV0=" marker-end="url(#my-svg_class-dependencyEnd)"/></g><g class="edgeLabels"><g><rect class="background" style="stroke: none"/></g><g><rect class="background" style="stroke: none"/></g><g class="edgeLabel"><g class="label" data-id="id_Builder_BishopGen_1" transform="translate(0, 0)"><text y="-10.1"><tspan class="text-outer-tspan" x="0" y="-0.1em" dy="1.1em"/></text></g></g><g class="edgeLabel"><g class="label" data-id="id_Builder_RookGen_2" transform="translate(0, 0)"><text y="-10.1"><tspan class="text-outer-tspan" x="0" y="-0.1em" dy="1.1em"/></text></g></g></g><g class="nodes"><g class="node default" id="classId-PawnGen-0" transform="translate(87.5, 60)"><g class="basic label-container"><path d="M-79.5 -52 L79.5 -52 L79.5 52 L-79.5 52" stroke="none" stroke-width="0" fill="#fff4dd" style=""/><path d="M-79.5 -52 C-47.43623364808325 -52, -15.372467296166505 -52, 79.5 -52 M-79.5 -52 C-43.2698203813698 -52, -7.0396407627395945 -52, 79.5 -52 M79.5 -52 C79.5 -17.708996840273464, 79.5 16.582006319453072, 79.5 52 M79.5 -52 C79.5 -23.12267333503602, 79.5 5.754653329927962, 79.5 52 M79.5 52 C36.94194888113006 52, -5.616102237739881 52, -79.5 52 M79.5 52 C40.91596508176935 52, 2.3319301635387006 52, -79.5 52 M-79.5 52 C-79.5 15.530949148083877, -79.5 -20.938101703832245, -79.5 -52 M-79.5 52 C-79.5 14.39628858354775, -79.5 -23.2074228329045, -79.5 -52" stroke="hsl(40.5882352941, 60%, 83.3333333333%)" stroke-width="1.3" fill="none" stroke-dasharray="0 0" style=""/></g><g class="annotation-group text" transform="translate(0, -32)"/><g class="label-group text" transform="translate(-21, -32)"><g class="label" style="font-weight: bolder" transform="translate(0,-6.5)"><g><rect class="background" style="stroke: none"/><text y="-10.1" style=""><tspan class="text-outer-tspan" x="0" y="-0.1em" dy="1.1em" font-weight=""><tspan font-style="normal" class="text-inner-tspan" font-weight="">PawnGen</tspan></tspan></text></g></g></g><g class="members-group text" transform="translate(-67.5, 5)"/><g class="methods-group text" transform="translate(-67.5, 35)"><g class="label" style="" transform="translate(0,-6.5)"><g><rect class="background" style="stroke: none"/><text y="-10.1" style=""><tspan class="text-outer-tspan" x="0" y="-0.1em" dy="1.1em"><tspan font-style="normal" class="text-inner-tspan" font-weight="normal">+gen_pawn_attacks()</tspan></tspan></text></g></g></g><g class="divider" style=""><path d="M-79.5 -15 C-24.50361874992931 -15, 30.49276250014138 -15, 79.5 -15 M-79.5 -15 C-40.70752198831895 -15, -1.9150439766379037 -15, 79.5 -15" stroke="hsl(40.5882352941, 60%, 83.3333333333%)" stroke-width="1.3" fill="none" stroke-dasharray="0 0" style=""/></g><g class="divider" style=""><path d="M-79.5 9 C-42.59053177226493 9, -5.681063544529863 9, 79.5 9 M-79.5 9 C-47.24594866575752 9, -14.991897331515034 9, 79.5 9" stroke="hsl(40.5882352941, 60%, 83.3333333333%)" stroke-width="1.3" fill="none" stroke-dasharray="0 0" style=""/></g></g><g class="node default" id="classId-KnightGen-1" transform="translate(305.5, 60)"><g class="basic label-container"><path d="M-88.5 -52 L88.5 -52 L88.5 52 L-88.5 52" stroke="none" stroke-width="0" fill="#fff4dd" style=""/><path d="M-88.5 -52 C-27.30749651866666 -52, 33.88500696266668 -52, 88.5 -52 M-88.5 -52 C-17.71654515922212 -52, 53.06690968155576 -52, 88.5 -52 M88.5 -52 C88.5 -17.43881075876469, 88.5 17.122378482470623, 88.5 52 M88.5 -52 C88.5 -12.364291559853243, 88.5 27.271416880293515, 88.5 52 M88.5 52 C46.69499380379469 52, 4.889987607589376 52, -88.5 52 M88.5 52 C18.127626698304567 52, -52.244746603390865 52, -88.5 52 M-88.5 52 C-88.5 24.903534227533346, -88.5 -2.192931544933309, -88.5 -52 M-88.5 52 C-88.5 13.752726868320352, -88.5 -24.494546263359297, -88.5 -52" stroke="hsl(40.5882352941, 60%, 83.3333333333%)" stroke-width="1.3" fill="none" stroke-dasharray="0 0" style=""/></g><g class="annotation-group text" transform="translate(0, -32)"/><g class="label-group text" transform="translate(-27, -32)"><g class="label" style="font-weight: bolder" transform="translate(0,-6.5)"><g><rect class="background" style="stroke: none"/><text y="-10.1" style=""><tspan class="text-outer-tspan" x="0" y="-0.1em" dy="1.1em" font-weight=""><tspan font-style="normal" class="text-inner-tspan" font-weight="">KnightGen</tspan></tspan></text></g></g></g><g class="members-group text" transform="translate(-76.5, 5)"/><g class="methods-group text" transform="translate(-76.5, 35)"><g class="label" style="" transform="translate(0,-6.5)"><g><rect class="background" style="stroke: none"/><text y="-10.1" style=""><tspan class="text-outer-tspan" x="0" y="-0.1em" dy="1.1em"><tspan font-style="normal" class="text-inner-tspan" font-weight="normal">+gen_knight_attacks()</tspan></tspan></text></g></g></g><g class="divider" style=""><path d="M-88.5 -15 C-30.052096960632795 -15, 28.39580607873441 -15, 88.5 -15 M-88.5 -15 C-38.20557502301401 -15, 12.088849953971973 -15, 88.5 -15" stroke="hsl(40.5882352941, 60%, 83.3333333333%)" stroke-width="1.3" fill="none" stroke-dasharray="0 0" style=""/></g><g class="divider" style=""><path d="M-88.5 9 C-45.6830892271425 9, -2.8661784542850057 9, 88.5 9 M-88.5 9 C-48.88111173073082 9, -9.262223461461645 9, 88.5 9" stroke="hsl(40.5882352941, 60%, 83.3333333333%)" stroke-width="1.3" fill="none" stroke-dasharray="0 0" style=""/></g></g><g class="node default" id="classId-BishopGen-2" transform="translate(390.5, 222)"><g class="basic label-container"><path d="M-124.5 -60 L124.5 -60 L124.5 60 L-124.5 60" stroke="none" stroke-width="0" fill="#fff4dd" style=""/><path d="M-124.5 -60 C-35.33783289951725 -60, 53.824334200965495 -60, 124.5 -60 M-124.5 -60 C-73.84520300299434 -60, -23.19040600598869 -60, 124.5 -60 M124.5 -60 C124.5 -31.504095582084698, 124.5 -3.0081911641693964, 124.5 60 M124.5 -60 C124.5 -21.89900445576113, 124.5 16.20199108847774, 124.5 60 M124.5 60 C45.29722863636012 60, -33.905542727279766 60, -124.5 60 M124.5 60 C65.30644071480009 60, 6.112881429600179 60, -124.5 60 M-124.5 60 C-124.5 34.49778335512707, -124.5 8.995566710254138, -124.5 -60 M-124.5 60 C-124.5 19.599615909599358, -124.5 -20.800768180801285, -124.5 -60" stroke="hsl(40.5882352941, 60%, 83.3333333333%)" stroke-width="1.3" fill="none" stroke-dasharray="0 0" style=""/></g><g class="annotation-group text" transform="translate(0, -40)"/><g class="label-group text" transform="translate(-27, -40)"><g class="label" style="font-weight: bolder" transform="translate(0,-6.5)"><g><rect class="background" style="stroke: none"/><text y="-10.1" style=""><tspan class="text-outer-tspan" x="0" y="-0.1em" dy="1.1em" font-weight=""><tspan font-style="normal" class="text-inner-tspan" font-weight="">BishopGen</tspan></tspan></text></g></g></g><g class="members-group text" transform="translate(-112.5, -3)"/><g class="methods-group text" transform="translate(-112.5, 27)"><g class="label" style="" transform="translate(0,-6.5)"><g><rect class="background" style="stroke: none"/><text y="-10.1" style=""><tspan class="text-outer-tspan" x="0" y="-0.1em" dy="1.1em"><tspan font-style="normal" class="text-inner-tspan" font-weight="normal">+gen_bishop_masks()</tspan></tspan></text></g></g><g class="label" style="" transform="translate(0,9.5)"><g><rect class="background" style="stroke: none"/><text y="-10.1" style=""><tspan class="text-outer-tspan" x="0" y="-0.1em" dy="1.1em"><tspan font-style="normal" class="text-inner-tspan" font-weight="normal">+gen_bishop_attacks(sq,occ)</tspan><tspan font-style="normal" class="text-inner-tspan" font-weight="normal"> :</tspan><tspan font-style="normal" class="text-inner-tspan" font-weight="normal"> u64</tspan></tspan></text></g></g></g><g class="divider" style=""><path d="M-124.5 -23 C-53.72925840868801 -23, 17.041483182623978 -23, 124.5 -23 M-124.5 -23 C-47.45323166385228 -23, 29.593536672295443 -23, 124.5 -23" stroke="hsl(40.5882352941, 60%, 83.3333333333%)" stroke-width="1.3" fill="none" stroke-dasharray="0 0" style=""/></g><g class="divider" style=""><path d="M-124.5 1 C-66.85560390822963 1, -9.211207816459265 1, 124.5 1 M-124.5 1 C-68.00844003106008 1, -11.516880062120137 1, 124.5 1" stroke="hsl(40.5882352941, 60%, 83.3333333333%)" stroke-width="1.3" fill="none" stroke-dasharray="0 0" style=""/></g></g><g class="node default" id="classId-RookGen-3" transform="translate(680.5, 222)"><g class="basic label-container"><path d="M-115.5 -60 L115.5 -60 L115.5 60 L-115.5 60" stroke="none" stroke-width="0" fill="#fff4dd" style=""/><path d="M-115.5 -60 C-49.6631308972613 -60, 16.173738205477406 -60, 115.5 -60 M-115.5 -60 C-41.64558004825686 -60, 32.20883990348628 -60, 115.5 -60 M115.5 -60 C115.5 -17.821373248538386, 115.5 24.35725350292323, 115.5 60 M115.5 -60 C115.5 -24.94471077745483, 115.5 10.11057844509034, 115.5 60 M115.5 60 C35.21090622756017 60, -45.078187544879654 60, -115.5 60 M115.5 60 C32.309637933838346 60, -50.88072413232331 60, -115.5 60 M-115.5 60 C-115.5 34.53977927191696, -115.5 9.079558543833926, -115.5 -60 M-115.5 60 C-115.5 27.463591796227334, -115.5 -5.072816407545332, -115.5 -60" stroke="hsl(40.5882352941, 60%, 83.3333333333%)" stroke-width="1.3" fill="none" stroke-dasharray="0 0" style=""/></g><g class="annotation-group text" transform="translate(0, -40)"/><g class="label-group text" transform="translate(-21, -40)"><g class="label" style="font-weight: bolder" transform="translate(0,-6.5)"><g><rect class="background" style="stroke: none"/><text y="-10.1" style=""><tspan class="text-outer-tspan" x="0" y="-0.1em" dy="1.1em" font-weight=""><tspan font-style="normal" class="text-inner-tspan" font-weight="">RookGen</tspan></tspan></text></g></g></g><g class="members-group text" transform="translate(-103.5, -3)"/><g class="methods-group text" transform="translate(-103.5, 27)"><g class="label" style="" transform="translate(0,-6.5)"><g><rect class="background" style="stroke: none"/><text y="-10.1" style=""><tspan class="text-outer-tspan" x="0" y="-0.1em" dy="1.1em"><tspan font-style="normal" class="text-inner-tspan" font-weight="normal">+gen_rook_masks()</tspan></tspan></text></g></g><g class="label" style="" transform="translate(0,9.5)"><g><rect class="background" style="stroke: none"/><text y="-10.1" style=""><tspan class="text-outer-tspan" x="0" y="-0.1em" dy="1.1em"><tspan font-style="normal" class="text-inner-tspan" font-weight="normal">+gen_rook_attacks(sq,occ)</tspan><tspan font-style="normal" class="text-inner-tspan" font-weight="normal"> :</tspan><tspan font-style="normal" class="text-inner-tspan" font-weight="normal"> u64</tspan></tspan></text></g></g></g><g class="divider" style=""><path d="M-115.5 -23 C-63.92826113950612 -23, -12.356522279012239 -23, 115.5 -23 M-115.5 -23 C-38.1895062991575 -23, 39.120987401685 -23, 115.5 -23" stroke="hsl(40.5882352941, 60%, 83.3333333333%)" stroke-width="1.3" fill="none" stroke-dasharray="0 0" style=""/></g><g class="divider" style=""><path d="M-115.5 1 C-23.359944181336573 1, 68.78011163732685 1, 115.5 1 M-115.5 1 C-30.737729197635673 1, 54.024541604728654 1, 115.5 1" stroke="hsl(40.5882352941, 60%, 83.3333333333%)" stroke-width="1.3" fill="none" stroke-dasharray="0 0" style=""/></g></g><g class="node default" id="classId-Builder-4" transform="translate(535.5, 60)"><g class="basic label-container"><path d="M-91.5 -52 L91.5 -52 L91.5 52 L-91.5 52" stroke="none" stroke-width="0" fill="#fff4dd" style=""/><path d="M-91.5 -52 C-45.410510275073605 -52, 0.6789794498527897 -52, 91.5 -52 M-91.5 -52 C-49.98044583060876 -52, -8.460891661217516 -52, 91.5 -52 M91.5 -52 C91.5 -23.359150898117306, 91.5 5.281698203765387, 91.5 52 M91.5 -52 C91.5 -14.936375136395533, 91.5 22.127249727208934, 91.5 52 M91.5 52 C23.876546074337142 52, -43.746907851325716 52, -91.5 52 M91.5 52 C40.893827528403726 52, -9.712344943192548 52, -91.5 52 M-91.5 52 C-91.5 29.955123174389172, -91.5 7.910246348778344, -91.5 -52 M-91.5 52 C-91.5 10.420085253564459, -91.5 -31.159829492871083, -91.5 -52" stroke="hsl(40.5882352941, 60%, 83.3333333333%)" stroke-width="1.3" fill="none" stroke-dasharray="0 0" style=""/></g><g class="annotation-group text" transform="translate(0, -32)"/><g class="label-group text" transform="translate(-21, -32)"><g class="label" style="font-weight: bolder" transform="translate(0,-6.5)"><g><rect class="background" style="stroke: none"/><text y="-10.1" style=""><tspan class="text-outer-tspan" x="0" y="-0.1em" dy="1.1em" font-weight=""><tspan font-style="normal" class="text-inner-tspan" font-weight="">Builder</tspan></tspan></text></g></g></g><g class="members-group text" transform="translate(-79.5, 5)"/><g class="methods-group text" transform="translate(-79.5, 35)"><g class="label" style="" transform="translate(0,-6.5)"><g><rect class="background" style="stroke: none"/><text y="-10.1" style=""><tspan class="text-outer-tspan" x="0" y="-0.1em" dy="1.1em"><tspan font-style="normal" class="text-inner-tspan" font-weight="normal">+build_table(gen,masks)</tspan></tspan></text></g></g></g><g class="divider" style=""><path d="M-91.5 -15 C-37.00023575258735 -15, 17.4995284948253 -15, 91.5 -15 M-91.5 -15 C-19.3589835897468 -15, 52.7820328205064 -15, 91.5 -15" stroke="hsl(40.5882352941, 60%, 83.3333333333%)" stroke-width="1.3" fill="none" stroke-dasharray="0 0" style=""/></g><g class="divider" style=""><path d="M-91.5 9 C-31.092334379109417 9, 29.315331241781166 9, 91.5 9 M-91.5 9 C-47.3461740402317 9, -3.192348080463404 9, 91.5 9" stroke="hsl(40.5882352941, 60%, 83.3333333333%)" stroke-width="1.3" fill="none" stroke-dasharray="0 0" style=""/></g></g></g></g></g></svg>