<svg id="my-svg" width="100%" xmlns="http://www.w3.org/2000/svg" xmlns:xlink="http://www.w3.org/1999/xlink" class="classDiagram" style="max-width: 1337px; background-color: white;" viewBox="0 0 1337 412" role="graphics-document document" aria-roledescription="class"><style>#my-svg{font-family:JetBrains Mono;font-size:10px;fill:#333;}@keyframes edge-animation-frame{from{stroke-dashoffset:0;}}@keyframes dash{to{stroke-dashoffset:0;}}#my-svg .edge-animation-slow{stroke-dasharray:9,5!important;stroke-dashoffset:900;animation:dash 50s linear infinite;stroke-linecap:round;}#my-svg .edge-animation-fast{stroke-dasharray:9,5!important;stroke-dashoffset:900;animation:dash 20s linear infinite;stroke-linecap:round;}#my-svg .error-icon{fill:hsl(220.5882352941, 100%, 98.3333333333%);}#my-svg .error-text{fill:rgb(8.5000000002, 5.7500000001, 0);stroke:rgb(8.5000000002, 5.7500000001, 0);}#my-svg .edge-thickness-normal{stroke-width:1px;}#my-svg .edge-thickness-thick{stroke-width:3.5px;}#my-svg .edge-pattern-solid{stroke-dasharray:0;}#my-svg .edge-thickness-invisible{stroke-width:0;fill:none;}#my-svg .edge-pattern-dashed{stroke-dasharray:3;}#my-svg .edge-pattern-dotted{stroke-dasharray:2;}#my-svg .marker{fill:#0b0b0b;stroke:#0b0b0b;}#my-svg .marker.cross{stroke:#0b0b0b;}#my-svg svg{font-family:JetBrains Mono;font-size:10px;}#my-svg p{margin:0;}#my-svg g.classGroup text{fill:hsl(40.5882352941, 60%, 83.3333333333%);stroke:none;font-family:JetBrains Mono;font-size:10px;}#my-svg g.classGroup text .title{font-weight:bolder;}#my-svg .nodeLabel,#my-svg .edgeLabel{color:#333;}#my-svg .edgeLabel .label rect{fill:#fff4dd;}#my-svg .label text{fill:#333;}#my-svg .labelBkg{background:#fff4dd;}#my-svg .edgeLabel .label span{background:#fff4dd;}#my-svg .classTitle{font-weight:bolder;}#my-svg .node rect,#my-svg .node circle,#my-svg .node ellipse,#my-svg .node polygon,#my-svg .node path{fill:#fff4dd;stroke:hsl(40.5882352941, 60%, 83.3333333333%);stroke-width:1px;}#my-svg .divider{stroke:hsl(40.5882352941, 60%, 83.3333333333%);stroke-width:1;}#my-svg g.clickable{cursor:pointer;}#my-svg g.classGroup rect{fill:#fff4dd;stroke:hsl(40.5882352941, 60%, 83.3333333333%);}#my-svg g.classGroup line{stroke:hsl(40.5882352941, 60%, 83.3333333333%);stroke-width:1;}#my-svg .classLabel .box{stroke:none;stroke-width:0;fill:#fff4dd;opacity:0.5;}#my-svg .classLabel .label{fill:hsl(40.5882352941, 60%, 83.3333333333%);font-size:10px;}#my-svg .relation{stroke:#0b0b0b;stroke-width:1;fill:none;}#my-svg .dashed-line{stroke-dasharray:3;}#my-svg .dotted-line{stroke-dasharray:1 2;}#my-svg #compositionStart,#my-svg .composition{fill:#0b0b0b!important;stroke:#0b0b0b!important;stroke-width:1;}#my-svg #compositionEnd,#my-svg .composition{fill:#0b0b0b!important;stroke:#0b0b0b!important;stroke-width:1;}#my-svg #dependencyStart,#my-svg .dependency{fill:#0b0b0b!important;stroke:#0b0b0b!important;stroke-width:1;}#my-svg #dependencyStart,#my-svg .dependency{fill:#0b0b0b!important;stroke:#0b0b0b!important;stroke-width:1;}#my-svg #extensionStart,#my-svg .extension{fill:transparent!important;stroke:#0b0b0b!important;stroke-width:1;}#my-svg #extensionEnd,#my-svg .extension{fill:transparent!important;stroke:#0b0b0b!important;stroke-width:1;}#my-svg #aggregationStart,#my-svg .aggregation{fill:transparent!important;stroke:#0b0b0b!important;stroke-width:1;}#my-svg #aggregationEnd,#my-svg .aggregation{fill:transparent!important;stroke:#0b0b0b!important;stroke-width:1;}#my-svg #lollipopStart,#my-svg .lollipop{fill:#fff4dd!important;stroke:#0b0b0b!important;stroke-width:1;}#my-svg #lollipopEnd,#my-svg .lollipop{fill:#fff4dd!important;stroke:#0b0b0b!important;stroke-width:1;}#my-svg .edgeTerminals{font-size:11px;line-height:initial;}#my-svg .classTitleText{text-anchor:middle;font-size:18px;fill:#333;}#my-svg .label-icon{display:inline-block;height:1em;overflow:visible;vertical-align:-0.125em;}#my-svg .node .label-icon path{fill:currentColor;stroke:revert;stroke-width:revert;}#my-svg :root{--mermaid-font-family:"trebuchet ms",verdana,arial,sans-serif;}</style><g><defs><marker id="my-svg_class-aggregationStart" class="marker aggregation class" refX="18" refY="7" markerWidth="190" markerHeight="240" orient="auto"><path d="M 18,7 L9,13 L1,7 L9,1 Z"/></marker></defs><defs><marker id="my-svg_class-aggregationEnd" class="marker aggregation class" refX="1" refY="7" markerWidth="20" markerHeight="28" orient="auto"><path d="M 18,7 L9,13 L1,7 L9,1 Z"/></marker></defs><defs><marker id="my-svg_class-extensionStart" class="marker extension class" refX="18" refY="7" markerWidth="190" markerHeight="240" orient="auto"><path d="M 1,7 L18,13 V 1 Z"/></marker></defs><defs><marker id="my-svg_class-extensionEnd" class="marker extension class" refX="1" refY="7" markerWidth="20" markerHeight="28" orient="auto"><path d="M 1,1 V 13 L18,7 Z"/></marker></defs><defs><marker id="my-svg_class-compositionStart" class="marker composition class" refX="18" refY="7" markerWidth="190" markerHeight="240" orient="auto"><path d="M 18,7 L9,13 L1,7 L9,1 Z"/></marker></defs><defs><marker id="my-svg_class-compositionEnd" class="marker composition class" refX="1" refY="7" markerWidth="20" markerHeight="28" orient="auto"><path d="M 18,7 L9,13 L1,7 L9,1 Z"/></marker></defs><defs><marker id="my-svg_class-dependencyStart" class="marker dependency class" refX="6" refY="7" markerWidth="190" markerHeight="240" orient="auto"><path d="M 5,7 L9,13 L1,7 L9,1 Z"/></marker></defs><defs><marker id="my-svg_class-dependencyEnd" class="marker dependency class" refX="13" refY="7" markerWidth="20" markerHeight="28" orient="auto"><path d="M 18,7 L9,13 L14,7 L9,1 Z"/></marker></defs><defs><marker id="my-svg_class-lollipopStart" class="marker lollipop class" refX="13" refY="7" markerWidth="190" markerHeight="240" orient="auto"><circle stroke="black" fill="transparent" cx="7" cy="7" r="6"/></marker></defs><defs><marker id="my-svg_class-lollipopEnd" class="marker lollipop class" refX="1" refY="7" markerWidth="190" markerHeight="240" orient="auto"><circle stroke="black" fill="transparent" cx="7" cy="7" r="6"/></marker></defs><g class="root"><g class="clusters"/><g class="edgePaths"><path d="M514,148.109L442.417,166.591C370.833,185.073,227.667,222.036,156.083,245.018C84.5,268,84.5,277,84.5,281.5L84.5,286" id="id_StrikesLib_Pawns_1" class="edge-thickness-normal edge-pattern-solid relation" style=";;;" data-edge="true" data-et="edge" data-id="id_StrikesLib_Pawns_1" data-points="W3sieCI6NTE0LCJ5IjoxNDguMTA5NDQ4MDgyMzE5OTF9LHsieCI6ODQuNSwieSI6MjU5fSx7IngiOjg0LjUsInkiOjI5Mn1d" marker-end="url(#my-svg_class-dependencyEnd)"/><path d="M514,165.93L477.75,181.442C441.5,196.953,369,227.977,332.75,247.988C296.5,268,296.5,277,296.5,281.5L296.5,286" id="id_StrikesLib_Knights_2" class="edge-thickness-normal edge-pattern-solid relation" style=";;;" data-edge="true" data-et="edge" data-id="id_StrikesLib_Knights_2" data-points="W3sieCI6NTE0LCJ5IjoxNjUuOTMwMjMyNTU4MTM5NTV9LHsieCI6Mjk2LjUsInkiOjI1OX0seyJ4IjoyOTYuNSwieSI6MjkyfV0=" marker-end="url(#my-svg_class-dependencyEnd)"/><path d="M528.518,234L525.182,238.167C521.845,242.333,515.173,250.667,511.836,259.333C508.5,268,508.5,277,508.5,281.5L508.5,286" id="id_StrikesLib_Kings_3" class="edge-thickness-normal edge-pattern-solid relation" style=";;;" data-edge="true" data-et="edge" data-id="id_StrikesLib_Kings_3" data-points="W3sieCI6NTI4LjUxODExNTk0MjAyOSwieSI6MjM0fSx7IngiOjUwOC41LCJ5IjoyNTl9LHsieCI6NTA4LjUsInkiOjI5Mn1d" marker-end="url(#my-svg_class-dependencyEnd)"/><path d="M709.482,234L712.818,238.167C716.155,242.333,722.827,250.667,726.164,258C729.5,265.333,729.5,271.667,729.5,274.833L729.5,278" id="id_StrikesLib_Rooks_4" class="edge-thickness-normal edge-pattern-solid relation" style=";;;" data-edge="true" data-et="edge" data-id="id_StrikesLib_Rooks_4" data-points="W3sieCI6NzA5LjQ4MTg4NDA1Nzk3MSwieSI6MjM0fSx7IngiOjcyOS41LCJ5IjoyNTl9LHsieCI6NzI5LjUsInkiOjI4NH1d" marker-end="url(#my-svg_class-dependencyEnd)"/><path d="M724,161.418L766.25,177.682C808.5,193.946,893,226.473,935.25,245.903C977.5,265.333,977.5,271.667,977.5,274.833L977.5,278" id="id_StrikesLib_Bishops_5" class="edge-thickness-normal edge-pattern-solid relation" style=";;;" data-edge="true" data-et="edge" data-id="id_StrikesLib_Bishops_5" data-points="W3sieCI6NzI0LCJ5IjoxNjEuNDE4NDEwMDQxODQxfSx7IngiOjk3Ny41LCJ5IjoyNTl9LHsieCI6OTc3LjUsInkiOjI4NH1d" marker-end="url(#my-svg_class-dependencyEnd)"/><path d="M724,144.715L808.333,163.763C892.667,182.81,1061.333,220.905,1145.667,244.453C1230,268,1230,277,1230,281.5L1230,286" id="id_StrikesLib_TableBuilder_6" class="edge-thickness-normal edge-pattern-solid relation" style=";;;" data-edge="true" data-et="edge" data-id="id_StrikesLib_TableBuilder_6" data-points="W3sieCI6NzI0LCJ5IjoxNDQuNzE1MjIwOTQ5MjYzNX0seyJ4IjoxMjMwLCJ5IjoyNTl9LHsieCI6MTIzMCwieSI6MjkyfV0=" marker-end="url(#my-svg_class-dependencyEnd)"/></g><g class="edgeLabels"><g><rect class="background" style="stroke: none"/></g><g><rect class="background" style="stroke: none"/></g><g><rect class="background" style="stroke: none"/></g><g><rect class="background" style="stroke: none"/></g><g><rect class="background" style="stroke: none"/></g><g><rect class="background" style="stroke: none"/></g><g class="edgeLabel"><g class="label" data-id="id_StrikesLib_Pawns_1" transform="translate(0, 0)"><text y="-10.1"><tspan class="text-outer-tspan" x="0" y="-0.1em" dy="1.1em"/></text></g></g><g class="edgeLabel"><g class="label" data-id="id_StrikesLib_Knights_2" transform="translate(0, 0)"><text y="-10.1"><tspan class="text-outer-tspan" x="0" y="-0.1em" dy="1.1em"/></text></g></g><g class="edgeLabel"><g class="label" data-id="id_StrikesLib_Kings_3" transform="translate(0, 0)"><text y="-10.1"><tspan class="text-outer-tspan" x="0" y="-0.1em" dy="1.1em"/></text></g></g><g class="edgeLabel"><g class="label" data-id="id_StrikesLib_Rooks_4" transform="translate(0, 0)"><text y="-10.1"><tspan class="text-outer-tspan" x="0" y="-0.1em" dy="1.1em"/></text></g></g><g class="edgeLabel"><g class="label" data-id="id_StrikesLib_Bishops_5" transform="translate(0, 0)"><text y="-10.1"><tspan class="text-outer-tspan" x="0" y="-0.1em" dy="1.1em"/></text></g></g><g class="edgeLabel"><g class="label" data-id="id_StrikesLib_TableBuilder_6" transform="translate(0, 0)"><text y="-10.1"><tspan class="text-outer-tspan" x="0" y="-0.1em" dy="1.1em"/></text></g></g></g><g class="nodes"><g class="node default" id="classId-StrikesLib-0" transform="translate(619, 121)"><g class="basic label-container"><path d="M-105 -113 L105 -113 L105 113 L-105 113" stroke="none" stroke-width="0" fill="#fff4dd" style=""/><path d="M-105 -113 C-25.763056421453683 -113, 53.47388715709263 -113, 105 -113 M-105 -113 C-42.95434442621697 -113, 19.09131114756606 -113, 105 -113 M105 -113 C105 -52.652956919489284, 105 7.694086161021431, 105 113 M105 -113 C105 -57.83264591686403, 105 -2.6652918337280624, 105 113 M105 113 C46.29126899886969 113, -12.41746200226062 113, -105 113 M105 113 C34.980570542317295 113, -35.03885891536541 113, -105 113 M-105 113 C-105 56.3241199698289, -105 -0.3517600603422011, -105 -113 M-105 113 C-105 37.04794308297288, -105 -38.90411383405424, -105 -113" stroke="hsl(40.5882352941, 60%, 83.3333333333%)" stroke-width="1.3" fill="none" stroke-dasharray="0 0" style=""/></g><g class="annotation-group text" transform="translate(0, -93)"/><g class="label-group text" transform="translate(-30, -93)"><g class="label" style="font-weight: bolder" transform="translate(0,-6.5)"><g><rect class="background" style="stroke: none"/><text y="-10.1" style=""><tspan class="text-outer-tspan" x="0" y="-0.1em" dy="1.1em" font-weight=""><tspan font-style="normal" class="text-inner-tspan" font-weight="">StrikesLib</tspan></tspan></text></g></g></g><g class="members-group text" transform="translate(-93, -56)"><g class="label" style="" transform="translate(0,-6.5)"><g><rect class="background" style="stroke: none"/><text y="-10.1" style=""><tspan class="text-outer-tspan" x="0" y="-0.1em" dy="1.1em"><tspan font-style="normal" class="text-inner-tspan" font-weight="normal">+PAWN_ATTACKS:</tspan><tspan font-style="normal" class="text-inner-tspan" font-weight="normal"> PawnTbl</tspan></tspan></text></g></g><g class="label" style="" transform="translate(0,9.5)"><g><rect class="background" style="stroke: none"/><text y="-10.1" style=""><tspan class="text-outer-tspan" x="0" y="-0.1em" dy="1.1em"><tspan font-style="normal" class="text-inner-tspan" font-weight="normal">+KNIGHT_ATTACKS:</tspan><tspan font-style="normal" class="text-inner-tspan" font-weight="normal"> KnightTbl</tspan></tspan></text></g></g><g class="label" style="" transform="translate(0,25.5)"><g><rect class="background" style="stroke: none"/><text y="-10.1" style=""><tspan class="text-outer-tspan" x="0" y="-0.1em" dy="1.1em"><tspan font-style="normal" class="text-inner-tspan" font-weight="normal">+KING_ATTACKS:</tspan><tspan font-style="normal" class="text-inner-tspan" font-weight="normal"> KingTbl</tspan></tspan></text></g></g><g class="label" style="" transform="translate(0,41.5)"><g><rect class="background" style="stroke: none"/><text y="-10.1" style=""><tspan class="text-outer-tspan" x="0" y="-0.1em" dy="1.1em"><tspan font-style="normal" class="text-inner-tspan" font-weight="normal">+ROOK_MASKS:</tspan><tspan font-style="normal" class="text-inner-tspan" font-weight="normal"> SliderMasks</tspan></tspan></text></g></g><g class="label" style="" transform="translate(0,57.5)"><g><rect class="background" style="stroke: none"/><text y="-10.1" style=""><tspan class="text-outer-tspan" x="0" y="-0.1em" dy="1.1em"><tspan font-style="normal" class="text-inner-tspan" font-weight="normal">+BISHOP_MASKS:</tspan><tspan font-style="normal" class="text-inner-tspan" font-weight="normal"> SliderMasks</tspan></tspan></text></g></g><g class="label" style="" transform="translate(0,73.5)"><g><rect class="background" style="stroke: none"/><text y="-10.1" style=""><tspan class="text-outer-tspan" x="0" y="-0.1em" dy="1.1em"><tspan font-style="normal" class="text-inner-tspan" font-weight="normal">+ROOK_ATTACKS:</tspan><tspan font-style="normal" class="text-inner-tspan" font-weight="normal"> LazyTbl</tspan></tspan></text></g></g><g class="label" style="" transform="translate(0,89.5)"><g><rect class="background" style="stroke: none"/><text y="-10.1" style=""><tspan class="text-outer-tspan" x="0" y="-0.1em" dy="1.1em"><tspan font-style="normal" class="text-inner-tspan" font-weight="normal">+BISHOP_ATTACKS:</tspan><tspan font-style="normal" class="text-inner-tspan" font-weight="normal"> LazyTbl</tspan></tspan></text></g></g><g class="label" style="" transform="translate(0,105.5)"><g><rect class="background" style="stroke: none"/><text y="-10.1" style=""><tspan class="text-outer-tspan" x="0" y="-0.1em" dy="1.1em"><tspan font-style="normal" class="text-inner-tspan" font-weight="normal">+BETWEEN:</tspan><tspan font-style="normal" class="text-inner-tspan" font-weight="normal"> BetweenTbl</tspan></tspan></text></g></g><g class="label" style="" transform="translate(0,121.5)"><g><rect class="background" style="stroke: none"/><text y="-10.1" style=""><tspan class="text-outer-tspan" x="0" y="-0.1em" dy="1.1em"><tspan font-style="normal" class="text-inner-tspan" font-weight="normal">+THROUGH:</tspan><tspan font-style="normal" class="text-inner-tspan" font-weight="normal"> ThroughTbl</tspan></tspan></text></g></g></g><g class="methods-group text" transform="translate(-93, 109)"/><g class="divider" style=""><path d="M-105 -76 C-29.7675721235442 -76, 45.4648557529116 -76, 105 -76 M-105 -76 C-48.91890691321701 -76, 7.162186173565985 -76, 105 -76" stroke="hsl(40.5882352941, 60%, 83.3333333333%)" stroke-width="1.3" fill="none" stroke-dasharray="0 0" style=""/></g><g class="divider" style=""><path d="M-105 89 C-36.303413006428315 89, 32.39317398714337 89, 105 89 M-105 89 C-51.006128246506236 89, 2.9877435069875276 89, 105 89" stroke="hsl(40.5882352941, 60%, 83.3333333333%)" stroke-width="1.3" fill="none" stroke-dasharray="0 0" style=""/></g></g><g class="node default" id="classId-Pawns-1" transform="translate(84.5, 344)"><g class="basic label-container"><path d="M-76.5 -52 L76.5 -52 L76.5 52 L-76.5 52" stroke="none" stroke-width="0" fill="#fff4dd" style=""/><path d="M-76.5 -52 C-35.65474674182779 -52, 5.1905065163444135 -52, 76.5 -52 M-76.5 -52 C-34.2935864299886 -52, 7.912827140022799 -52, 76.5 -52 M76.5 -52 C76.5 -14.835898050700159, 76.5 22.328203898599682, 76.5 52 M76.5 -52 C76.5 -23.698937788998965, 76.5 4.6021244220020705, 76.5 52 M76.5 52 C29.62187891028367 52, -17.25624217943266 52, -76.5 52 M76.5 52 C38.632293050767494 52, 0.764586101534988 52, -76.5 52 M-76.5 52 C-76.5 29.25058107244506, -76.5 6.501162144890117, -76.5 -52 M-76.5 52 C-76.5 18.403480129097638, -76.5 -15.193039741804725, -76.5 -52" stroke="hsl(40.5882352941, 60%, 83.3333333333%)" stroke-width="1.3" fill="none" stroke-dasharray="0 0" style=""/></g><g class="annotation-group text" transform="translate(0, -32)"/><g class="label-group text" transform="translate(-15, -32)"><g class="label" style="font-weight: bolder" transform="translate(0,-6.5)"><g><rect class="background" style="stroke: none"/><text y="-10.1" style=""><tspan class="text-outer-tspan" x="0" y="-0.1em" dy="1.1em" font-weight=""><tspan font-style="normal" class="text-inner-tspan" font-weight="">Pawns</tspan></tspan></text></g></g></g><g class="members-group text" transform="translate(-64.5, 5)"/><g class="methods-group text" transform="translate(-64.5, 35)"><g class="label" style="" transform="translate(0,-6.5)"><g><rect class="background" style="stroke: none"/><text y="-10.1" style=""><tspan class="text-outer-tspan" x="0" y="-0.1em" dy="1.1em"><tspan font-style="normal" class="text-inner-tspan" font-weight="normal">+gen_pawn_attacks()</tspan></tspan></text></g></g></g><g class="divider" style=""><path d="M-76.5 -15 C-34.831069896747024 -15, 6.837860206505951 -15, 76.5 -15 M-76.5 -15 C-30.432735595930424 -15, 15.634528808139152 -15, 76.5 -15" stroke="hsl(40.5882352941, 60%, 83.3333333333%)" stroke-width="1.3" fill="none" stroke-dasharray="0 0" style=""/></g><g class="divider" style=""><path d="M-76.5 9 C-31.767599463116944 9, 12.964801073766111 9, 76.5 9 M-76.5 9 C-31.486991227453395 9, 13.526017545093211 9, 76.5 9" stroke="hsl(40.5882352941, 60%, 83.3333333333%)" stroke-width="1.3" fill="none" stroke-dasharray="0 0" style=""/></g></g><g class="node default" id="classId-Knights-2" transform="translate(296.5, 344)"><g class="basic label-container"><path d="M-85.5 -52 L85.5 -52 L85.5 52 L-85.5 52" stroke="none" stroke-width="0" fill="#fff4dd" style=""/><path d="M-85.5 -52 C-20.239361882604655 -52, 45.02127623479069 -52, 85.5 -52 M-85.5 -52 C-46.61247529963873 -52, -7.724950599277463 -52, 85.5 -52 M85.5 -52 C85.5 -19.86033932981462, 85.5 12.279321340370757, 85.5 52 M85.5 -52 C85.5 -18.90417749278479, 85.5 14.19164501443042, 85.5 52 M85.5 52 C25.101133435227787 52, -35.297733129544426 52, -85.5 52 M85.5 52 C20.148301827745854 52, -45.20339634450829 52, -85.5 52 M-85.5 52 C-85.5 30.51439185924707, -85.5 9.02878371849414, -85.5 -52 M-85.5 52 C-85.5 12.264296116673869, -85.5 -27.471407766652263, -85.5 -52" stroke="hsl(40.5882352941, 60%, 83.3333333333%)" stroke-width="1.3" fill="none" stroke-dasharray="0 0" style=""/></g><g class="annotation-group text" transform="translate(0, -32)"/><g class="label-group text" transform="translate(-21, -32)"><g class="label" style="font-weight: bolder" transform="translate(0,-6.5)"><g><rect class="background" style="stroke: none"/><text y="-10.1" style=""><tspan class="text-outer-tspan" x="0" y="-0.1em" dy="1.1em" font-weight=""><tspan font-style="normal" class="text-inner-tspan" font-weight="">Knights</tspan></tspan></text></g></g></g><g class="members-group text" transform="translate(-73.5, 5)"/><g class="methods-group text" transform="translate(-73.5, 35)"><g class="label" style="" transform="translate(0,-6.5)"><g><rect class="background" style="stroke: none"/><text y="-10.1" style=""><tspan class="text-outer-tspan" x="0" y="-0.1em" dy="1.1em"><tspan font-style="normal" class="text-inner-tspan" font-weight="normal">+gen_knight_attacks()</tspan></tspan></text></g></g></g><g class="divider" style=""><path d="M-85.5 -15 C-49.79710340219693 -15, -14.094206804393863 -15, 85.5 -15 M-85.5 -15 C-22.80704807201846 -15, 39.88590385596308 -15, 85.5 -15" stroke="hsl(40.5882352941, 60%, 83.3333333333%)" stroke-width="1.3" fill="none" stroke-dasharray="0 0" style=""/></g><g class="divider" style=""><path d="M-85.5 9 C-23.202024636620372 9, 39.095950726759256 9, 85.5 9 M-85.5 9 C-49.01065898775197 9, -12.521317975503933 9, 85.5 9" stroke="hsl(40.5882352941, 60%, 83.3333333333%)" stroke-width="1.3" fill="none" stroke-dasharray="0 0" style=""/></g></g><g class="node default" id="classId-Kings-3" transform="translate(508.5, 344)"><g class="basic label-container"><path d="M-76.5 -52 L76.5 -52 L76.5 52 L-76.5 52" stroke="none" stroke-width="0" fill="#fff4dd" style=""/><path d="M-76.5 -52 C-39.973588370357994 -52, -3.447176740715989 -52, 76.5 -52 M-76.5 -52 C-45.1581481150569 -52, -13.8162962301138 -52, 76.5 -52 M76.5 -52 C76.5 -17.969154422691595, 76.5 16.06169115461681, 76.5 52 M76.5 -52 C76.5 -20.49891445283146, 76.5 11.00217109433708, 76.5 52 M76.5 52 C30.753615328685534 52, -14.992769342628932 52, -76.5 52 M76.5 52 C38.34447746825424 52, 0.1889549365084804 52, -76.5 52 M-76.5 52 C-76.5 21.85078158567185, -76.5 -8.2984368286563, -76.5 -52 M-76.5 52 C-76.5 15.958890961424565, -76.5 -20.08221807715087, -76.5 -52" stroke="hsl(40.5882352941, 60%, 83.3333333333%)" stroke-width="1.3" fill="none" stroke-dasharray="0 0" style=""/></g><g class="annotation-group text" transform="translate(0, -32)"/><g class="label-group text" transform="translate(-15, -32)"><g class="label" style="font-weight: bolder" transform="translate(0,-6.5)"><g><rect class="background" style="stroke: none"/><text y="-10.1" style=""><tspan class="text-outer-tspan" x="0" y="-0.1em" dy="1.1em" font-weight=""><tspan font-style="normal" class="text-inner-tspan" font-weight="">Kings</tspan></tspan></text></g></g></g><g class="members-group text" transform="translate(-64.5, 5)"/><g class="methods-group text" transform="translate(-64.5, 35)"><g class="label" style="" transform="translate(0,-6.5)"><g><rect class="background" style="stroke: none"/><text y="-10.1" style=""><tspan class="text-outer-tspan" x="0" y="-0.1em" dy="1.1em"><tspan font-style="normal" class="text-inner-tspan" font-weight="normal">+gen_king_attacks()</tspan></tspan></text></g></g></g><g class="divider" style=""><path d="M-76.5 -15 C-40.61961851466499 -15, -4.739237029329985 -15, 76.5 -15 M-76.5 -15 C-37.477121341807205 -15, 1.5457573163855898 -15, 76.5 -15" stroke="hsl(40.5882352941, 60%, 83.3333333333%)" stroke-width="1.3" fill="none" stroke-dasharray="0 0" style=""/></g><g class="divider" style=""><path d="M-76.5 9 C-39.58085593352703 9, -2.6617118670540663 9, 76.5 9 M-76.5 9 C-25.21550593664086 9, 26.06898812671828 9, 76.5 9" stroke="hsl(40.5882352941, 60%, 83.3333333333%)" stroke-width="1.3" fill="none" stroke-dasharray="0 0" style=""/></g></g><g class="node default" id="classId-Rooks-4" transform="translate(729.5, 344)"><g class="basic label-container"><path d="M-94.5 -60 L94.5 -60 L94.5 60 L-94.5 60" stroke="none" stroke-width="0" fill="#fff4dd" style=""/><path d="M-94.5 -60 C-20.87443665552142 -60, 52.75112668895716 -60, 94.5 -60 M-94.5 -60 C-43.72454053076443 -60, 7.050918938471142 -60, 94.5 -60 M94.5 -60 C94.5 -20.792955516535542, 94.5 18.414088966928915, 94.5 60 M94.5 -60 C94.5 -27.461178381590294, 94.5 5.077643236819412, 94.5 60 M94.5 60 C38.458683226319806 60, -17.582633547360388 60, -94.5 60 M94.5 60 C27.500717648114303 60, -39.49856470377139 60, -94.5 60 M-94.5 60 C-94.5 33.8267289057483, -94.5 7.653457811496594, -94.5 -60 M-94.5 60 C-94.5 30.680579777333815, -94.5 1.3611595546676298, -94.5 -60" stroke="hsl(40.5882352941, 60%, 83.3333333333%)" stroke-width="1.3" fill="none" stroke-dasharray="0 0" style=""/></g><g class="annotation-group text" transform="translate(0, -40)"/><g class="label-group text" transform="translate(-15, -40)"><g class="label" style="font-weight: bolder" transform="translate(0,-6.5)"><g><rect class="background" style="stroke: none"/><text y="-10.1" style=""><tspan class="text-outer-tspan" x="0" y="-0.1em" dy="1.1em" font-weight=""><tspan font-style="normal" class="text-inner-tspan" font-weight="">Rooks</tspan></tspan></text></g></g></g><g class="members-group text" transform="translate(-82.5, -3)"/><g class="methods-group text" transform="translate(-82.5, 27)"><g class="label" style="" transform="translate(0,-6.5)"><g><rect class="background" style="stroke: none"/><text y="-10.1" style=""><tspan class="text-outer-tspan" x="0" y="-0.1em" dy="1.1em"><tspan font-style="normal" class="text-inner-tspan" font-weight="normal">+gen_rook_masks()</tspan></tspan></text></g></g><g class="label" style="" transform="translate(0,9.5)"><g><rect class="background" style="stroke: none"/><text y="-10.1" style=""><tspan class="text-outer-tspan" x="0" y="-0.1em" dy="1.1em"><tspan font-style="normal" class="text-inner-tspan" font-weight="normal">+gen_rook_attacks(sq,occ)</tspan></tspan></text></g></g></g><g class="divider" style=""><path d="M-94.5 -23 C-42.93126616310525 -23, 8.637467673789502 -23, 94.5 -23 M-94.5 -23 C-23.599013417849136 -23, 47.30197316430173 -23, 94.5 -23" stroke="hsl(40.5882352941, 60%, 83.3333333333%)" stroke-width="1.3" fill="none" stroke-dasharray="0 0" style=""/></g><g class="divider" style=""><path d="M-94.5 1 C-48.35014842355348 1, -2.200296847106955 1, 94.5 1 M-94.5 1 C-24.48746163220804 1, 45.52507673558392 1, 94.5 1" stroke="hsl(40.5882352941, 60%, 83.3333333333%)" stroke-width="1.3" fill="none" stroke-dasharray="0 0" style=""/></g></g><g class="node default" id="classId-Bishops-5" transform="translate(977.5, 344)"><g class="basic label-container"><path d="M-103.5 -60 L103.5 -60 L103.5 60 L-103.5 60" stroke="none" stroke-width="0" fill="#fff4dd" style=""/><path d="M-103.5 -60 C-55.59334718152463 -60, -7.686694363049256 -60, 103.5 -60 M-103.5 -60 C-27.898615794922094 -60, 47.70276841015581 -60, 103.5 -60 M103.5 -60 C103.5 -15.124672955991464, 103.5 29.750654088017072, 103.5 60 M103.5 -60 C103.5 -33.85574311597418, 103.5 -7.711486231948349, 103.5 60 M103.5 60 C57.27910441570552 60, 11.058208831411036 60, -103.5 60 M103.5 60 C60.36767182064837 60, 17.235343641296737 60, -103.5 60 M-103.5 60 C-103.5 30.245452823338745, -103.5 0.4909056466774899, -103.5 -60 M-103.5 60 C-103.5 24.339917128697437, -103.5 -11.320165742605127, -103.5 -60" stroke="hsl(40.5882352941, 60%, 83.3333333333%)" stroke-width="1.3" fill="none" stroke-dasharray="0 0" style=""/></g><g class="annotation-group text" transform="translate(0, -40)"/><g class="label-group text" transform="translate(-21, -40)"><g class="label" style="font-weight: bolder" transform="translate(0,-6.5)"><g><rect class="background" style="stroke: none"/><text y="-10.1" style=""><tspan class="text-outer-tspan" x="0" y="-0.1em" dy="1.1em" font-weight=""><tspan font-style="normal" class="text-inner-tspan" font-weight="">Bishops</tspan></tspan></text></g></g></g><g class="members-group text" transform="translate(-91.5, -3)"/><g class="methods-group text" transform="translate(-91.5, 27)"><g class="label" style="" transform="translate(0,-6.5)"><g><rect class="background" style="stroke: none"/><text y="-10.1" style=""><tspan class="text-outer-tspan" x="0" y="-0.1em" dy="1.1em"><tspan font-style="normal" class="text-inner-tspan" font-weight="normal">+gen_bishop_masks()</tspan></tspan></text></g></g><g class="label" style="" transform="translate(0,9.5)"><g><rect class="background" style="stroke: none"/><text y="-10.1" style=""><tspan class="text-outer-tspan" x="0" y="-0.1em" dy="1.1em"><tspan font-style="normal" class="text-inner-tspan" font-weight="normal">+gen_bishop_attacks(sq,occ)</tspan></tspan></text></g></g></g><g class="divider" style=""><path d="M-103.5 -23 C-40.02977890837011 -23, 23.440442183259776 -23, 103.5 -23 M-103.5 -23 C-28.635747974795734 -23, 46.22850405040853 -23, 103.5 -23" stroke="hsl(40.5882352941, 60%, 83.3333333333%)" stroke-width="1.3" fill="none" stroke-dasharray="0 0" style=""/></g><g class="divider" style=""><path d="M-103.5 1 C-60.78965321587898 1, -18.079306431757956 1, 103.5 1 M-103.5 1 C-44.767663216809076 1, 13.964673566381848 1, 103.5 1" stroke="hsl(40.5882352941, 60%, 83.3333333333%)" stroke-width="1.3" fill="none" stroke-dasharray="0 0" style=""/></g></g><g class="node default" id="classId-TableBuilder-6" transform="translate(1230, 344)"><g class="basic label-container"><path d="M-99 -52 L99 -52 L99 52 L-99 52" stroke="none" stroke-width="0" fill="#fff4dd" style=""/><path d="M-99 -52 C-25.208812190320543 -52, 48.58237561935891 -52, 99 -52 M-99 -52 C-51.15155151331649 -52, -3.303103026632982 -52, 99 -52 M99 -52 C99 -23.084372666787893, 99 5.831254666424215, 99 52 M99 -52 C99 -14.263148925240515, 99 23.47370214951897, 99 52 M99 52 C43.46609421052645 52, -12.0678115789471 52, -99 52 M99 52 C27.19903102810457 52, -44.60193794379086 52, -99 52 M-99 52 C-99 15.908585565545948, -99 -20.182828868908103, -99 -52 M-99 52 C-99 28.01493279338998, -99 4.029865586779962, -99 -52" stroke="hsl(40.5882352941, 60%, 83.3333333333%)" stroke-width="1.3" fill="none" stroke-dasharray="0 0" style=""/></g><g class="annotation-group text" transform="translate(0, -32)"/><g class="label-group text" transform="translate(-36, -32)"><g class="label" style="font-weight: bolder" transform="translate(0,-6.5)"><g><rect class="background" style="stroke: none"/><text y="-10.1" style=""><tspan class="text-outer-tspan" x="0" y="-0.1em" dy="1.1em" font-weight=""><tspan font-style="normal" class="text-inner-tspan" font-weight="">TableBuilder</tspan></tspan></text></g></g></g><g class="members-group text" transform="translate(-87, 5)"/><g class="methods-group text" transform="translate(-87, 35)"><g class="label" style="" transform="translate(0,-6.5)"><g><rect class="background" style="stroke: none"/><text y="-10.1" style=""><tspan class="text-outer-tspan" x="0" y="-0.1em" dy="1.1em"><tspan font-style="normal" class="text-inner-tspan" font-weight="normal">+build_table(gen,masks)</tspan></tspan></text></g></g></g><g class="divider" style=""><path d="M-99 -15 C-37.186756924693384 -15, 24.626486150613232 -15, 99 -15 M-99 -15 C-46.85680406504166 -15, 5.2863918699166845 -15, 99 -15" stroke="hsl(40.5882352941, 60%, 83.3333333333%)" stroke-width="1.3" fill="none" stroke-dasharray="0 0" style=""/></g><g class="divider" style=""><path d="M-99 9 C-27.912642299072928 9, 43.174715401854144 9, 99 9 M-99 9 C-54.08868521192328 9, -9.177370423846554 9, 99 9" stroke="hsl(40.5882352941, 60%, 83.3333333333%)" stroke-width="1.3" fill="none" stroke-dasharray="0 0" style=""/></g></g></g></g></g></svg>