<svg id="my-svg" width="100%" xmlns="http://www.w3.org/2000/svg" xmlns:xlink="http://www.w3.org/1999/xlink" class="classDiagram" style="max-width: 489px; background-color: white;" viewBox="0 0 489 660" role="graphics-document document" aria-roledescription="class"><style>#my-svg{font-family:JetBrains Mono;font-size:10px;fill:#333;}@keyframes edge-animation-frame{from{stroke-dashoffset:0;}}@keyframes dash{to{stroke-dashoffset:0;}}#my-svg .edge-animation-slow{stroke-dasharray:9,5!important;stroke-dashoffset:900;animation:dash 50s linear infinite;stroke-linecap:round;}#my-svg .edge-animation-fast{stroke-dasharray:9,5!important;stroke-dashoffset:900;animation:dash 20s linear infinite;stroke-linecap:round;}#my-svg .error-icon{fill:hsl(220.5882352941, 100%, 98.3333333333%);}#my-svg .error-text{fill:rgb(8.5000000002, 5.7500000001, 0);stroke:rgb(8.5000000002, 5.7500000001, 0);}#my-svg .edge-thickness-normal{stroke-width:1px;}#my-svg .edge-thickness-thick{stroke-width:3.5px;}#my-svg .edge-pattern-solid{stroke-dasharray:0;}#my-svg .edge-thickness-invisible{stroke-width:0;fill:none;}#my-svg .edge-pattern-dashed{stroke-dasharray:3;}#my-svg .edge-pattern-dotted{stroke-dasharray:2;}#my-svg .marker{fill:#0b0b0b;stroke:#0b0b0b;}#my-svg .marker.cross{stroke:#0b0b0b;}#my-svg svg{font-family:JetBrains Mono;font-size:10px;}#my-svg p{margin:0;}#my-svg g.classGroup text{fill:hsl(40.5882352941, 60%, 83.3333333333%);stroke:none;font-family:JetBrains Mono;font-size:10px;}#my-svg g.classGroup text .title{font-weight:bolder;}#my-svg .nodeLabel,#my-svg .edgeLabel{color:#333;}#my-svg .edgeLabel .label rect{fill:#fff4dd;}#my-svg .label text{fill:#333;}#my-svg .labelBkg{background:#fff4dd;}#my-svg .edgeLabel .label span{background:#fff4dd;}#my-svg .classTitle{font-weight:bolder;}#my-svg .node rect,#my-svg .node circle,#my-svg .node ellipse,#my-svg .node polygon,#my-svg .node path{fill:#fff4dd;stroke:hsl(40.5882352941, 60%, 83.3333333333%);stroke-width:1px;}#my-svg .divider{stroke:hsl(40.5882352941, 60%, 83.3333333333%);stroke-width:1;}#my-svg g.clickable{cursor:pointer;}#my-svg g.classGroup rect{fill:#fff4dd;stroke:hsl(40.5882352941, 60%, 83.3333333333%);}#my-svg g.classGroup line{stroke:hsl(40.5882352941, 60%, 83.3333333333%);stroke-width:1;}#my-svg .classLabel .box{stroke:none;stroke-width:0;fill:#fff4dd;opacity:0.5;}#my-svg .classLabel .label{fill:hsl(40.5882352941, 60%, 83.3333333333%);font-size:10px;}#my-svg .relation{stroke:#0b0b0b;stroke-width:1;fill:none;}#my-svg .dashed-line{stroke-dasharray:3;}#my-svg .dotted-line{stroke-dasharray:1 2;}#my-svg #compositionStart,#my-svg .composition{fill:#0b0b0b!important;stroke:#0b0b0b!important;stroke-width:1;}#my-svg #compositionEnd,#my-svg .composition{fill:#0b0b0b!important;stroke:#0b0b0b!important;stroke-width:1;}#my-svg #dependencyStart,#my-svg .dependency{fill:#0b0b0b!important;stroke:#0b0b0b!important;stroke-width:1;}#my-svg #dependencyStart,#my-svg .dependency{fill:#0b0b0b!important;stroke:#0b0b0b!important;stroke-width:1;}#my-svg #extensionStart,#my-svg .extension{fill:transparent!important;stroke:#0b0b0b!important;stroke-width:1;}#my-svg #extensionEnd,#my-svg .extension{fill:transparent!important;stroke:#0b0b0b!important;stroke-width:1;}#my-svg #aggregationStart,#my-svg .aggregation{fill:transparent!important;stroke:#0b0b0b!important;stroke-width:1;}#my-svg #aggregationEnd,#my-svg .aggregation{fill:transparent!important;stroke:#0b0b0b!important;stroke-width:1;}#my-svg #lollipopStart,#my-svg .lollipop{fill:#fff4dd!important;stroke:#0b0b0b!important;stroke-width:1;}#my-svg #lollipopEnd,#my-svg .lollipop{fill:#fff4dd!important;stroke:#0b0b0b!important;stroke-width:1;}#my-svg .edgeTerminals{font-size:11px;line-height:initial;}#my-svg .classTitleText{text-anchor:middle;font-size:18px;fill:#333;}#my-svg .label-icon{display:inline-block;height:1em;overflow:visible;vertical-align:-0.125em;}#my-svg .node .label-icon path{fill:currentColor;stroke:revert;stroke-width:revert;}#my-svg :root{--mermaid-font-family:"trebuchet ms",verdana,arial,sans-serif;}</style><g><defs><marker id="my-svg_class-aggregationStart" class="marker aggregation class" refX="18" refY="7" markerWidth="190" markerHeight="240" orient="auto"><path d="M 18,7 L9,13 L1,7 L9,1 Z"/></marker></defs><defs><marker id="my-svg_class-aggregationEnd" class="marker aggregation class" refX="1" refY="7" markerWidth="20" markerHeight="28" orient="auto"><path d="M 18,7 L9,13 L1,7 L9,1 Z"/></marker></defs><defs><marker id="my-svg_class-extensionStart" class="marker extension class" refX="18" refY="7" markerWidth="190" markerHeight="240" orient="auto"><path d="M 1,7 L18,13 V 1 Z"/></marker></defs><defs><marker id="my-svg_class-extensionEnd" class="marker extension class" refX="1" refY="7" markerWidth="20" markerHeight="28" orient="auto"><path d="M 1,1 V 13 L18,7 Z"/></marker></defs><defs><marker id="my-svg_class-compositionStart" class="marker composition class" refX="18" refY="7" markerWidth="190" markerHeight="240" orient="auto"><path d="M 18,7 L9,13 L1,7 L9,1 Z"/></marker></defs><defs><marker id="my-svg_class-compositionEnd" class="marker composition class" refX="1" refY="7" markerWidth="20" markerHeight="28" orient="auto"><path d="M 18,7 L9,13 L1,7 L9,1 Z"/></marker></defs><defs><marker id="my-svg_class-dependencyStart" class="marker dependency class" refX="6" refY="7" markerWidth="190" markerHeight="240" orient="auto"><path d="M 5,7 L9,13 L1,7 L9,1 Z"/></marker></defs><defs><marker id="my-svg_class-dependencyEnd" class="marker dependency class" refX="13" refY="7" markerWidth="20" markerHeight="28" orient="auto"><path d="M 18,7 L9,13 L14,7 L9,1 Z"/></marker></defs><defs><marker id="my-svg_class-lollipopStart" class="marker lollipop class" refX="13" refY="7" markerWidth="190" markerHeight="240" orient="auto"><circle stroke="black" fill="transparent" cx="7" cy="7" r="6"/></marker></defs><defs><marker id="my-svg_class-lollipopEnd" class="marker lollipop class" refX="1" refY="7" markerWidth="190" markerHeight="240" orient="auto"><circle stroke="black" fill="transparent" cx="7" cy="7" r="6"/></marker></defs><g class="root"><g class="clusters"/><g class="edgePaths"><path d="M118.438,421.863L115.531,424.219C112.625,426.575,106.813,431.288,103.906,437.811C101,444.333,101,452.667,101,456.833L101,461" id="id_AccumulatorState_DirtyPiece_1" class="edge-thickness-normal edge-pattern-solid relation" style=";;;" data-edge="true" data-et="edge" data-id="id_AccumulatorState_DirtyPiece_1" data-points="W3sieCI6MTMxLjgzNzI2NDE1MDk0MzM4LCJ5Ijo0MTF9LHsieCI6MTAxLCJ5Ijo0MzZ9LHsieCI6MTAxLCJ5Ijo0NjF9XQ==" marker-start="url(#my-svg_class-compositionStart)"/><path d="M345.062,421.863L347.969,424.219C350.875,426.575,356.687,431.288,359.594,439.144C362.5,447,362.5,458,362.5,463.5L362.5,469" id="id_AccumulatorState_AccumulatorSize_2" class="edge-thickness-normal edge-pattern-solid relation" style=";;;" data-edge="true" data-et="edge" data-id="id_AccumulatorState_AccumulatorSize_2" data-points="W3sieCI6MzMxLjY2MjczNTg0OTA1NjYsInkiOjQxMX0seyJ4IjozNjIuNSwieSI6NDM2fSx7IngiOjM2Mi41LCJ5Ijo0Njl9XQ==" marker-start="url(#my-svg_class-compositionStart)"/><path d="M231.75,216.25L231.75,217.542C231.75,218.833,231.75,221.417,231.75,226.875C231.75,232.333,231.75,240.667,231.75,244.833L231.75,249" id="id_AccStack_AccumulatorState_3" class="edge-thickness-normal edge-pattern-solid relation" style=";;;" data-edge="true" data-et="edge" data-id="id_AccStack_AccumulatorState_3" data-points="W3sieCI6MjMxLjc1LCJ5IjoxOTl9LHsieCI6MjMxLjc1LCJ5IjoyMjR9LHsieCI6MjMxLjc1LCJ5IjoyNDl9XQ==" marker-start="url(#my-svg_class-compositionStart)"/></g><g class="edgeLabels"><g><rect class="background" style="stroke: none"/></g><g><rect class="background" style="stroke: none"/></g><g><rect class="background" style="stroke: none"/></g><g class="edgeLabel"><g class="label" data-id="id_AccumulatorState_DirtyPiece_1" transform="translate(0, 0)"><text y="-10.1"><tspan class="text-outer-tspan" x="0" y="-0.1em" dy="1.1em"/></text></g></g><g class="edgeLabel"><g class="label" data-id="id_AccumulatorState_AccumulatorSize_2" transform="translate(0, 0)"><text y="-10.1"><tspan class="text-outer-tspan" x="0" y="-0.1em" dy="1.1em"/></text></g></g><g class="edgeLabel"><g class="label" data-id="id_AccStack_AccumulatorState_3" transform="translate(0, 0)"><text y="-10.1"><tspan class="text-outer-tspan" x="0" y="-0.1em" dy="1.1em"/></text></g></g></g><g class="nodes"><g class="node default" id="classId-DirtyPiece-0" transform="translate(101, 556.5)"><g class="basic label-container"><path d="M-93 -95.5 L93 -95.5 L93 95.5 L-93 95.5" stroke="none" stroke-width="0" fill="#fff4dd" style=""/><path d="M-93 -95.5 C-36.150564278850865 -95.5, 20.69887144229827 -95.5, 93 -95.5 M-93 -95.5 C-26.75883475659934 -95.5, 39.48233048680132 -95.5, 93 -95.5 M93 -95.5 C93 -21.737825920411396, 93 52.02434815917721, 93 95.5 M93 -95.5 C93 -27.17783657351562, 93 41.14432685296876, 93 95.5 M93 95.5 C22.53224858754031 95.5, -47.93550282491938 95.5, -93 95.5 M93 95.5 C26.288713905602478 95.5, -40.422572188795044 95.5, -93 95.5 M-93 95.5 C-93 34.35651844250284, -93 -26.78696311499432, -93 -95.5 M-93 95.5 C-93 32.42129069069511, -93 -30.657418618609782, -93 -95.5" stroke="hsl(40.5882352941, 60%, 83.3333333333%)" stroke-width="1.3" fill="none" stroke-dasharray="0 0" style=""/></g><g class="annotation-group text" transform="translate(0, -75.5)"/><g class="label-group text" transform="translate(-30, -75.5)"><g class="label" style="font-weight: bolder" transform="translate(0,-6.5)"><g><rect class="background" style="stroke: none"/><text y="-10.1" style=""><tspan class="text-outer-tspan" x="0" y="-0.1em" dy="1.1em" font-weight=""><tspan font-style="normal" class="text-inner-tspan" font-weight="">DirtyPiece</tspan></tspan></text></g></g></g><g class="members-group text" transform="translate(-81, -38.5)"><g class="label" style="" transform="translate(0,-6.5)"><g><rect class="background" style="stroke: none"/><text y="-10.1" style=""><tspan class="text-outer-tspan" x="0" y="-0.1em" dy="1.1em"><tspan font-style="normal" class="text-inner-tspan" font-weight="normal">+dirty_num:</tspan><tspan font-style="normal" class="text-inner-tspan" font-weight="normal"> usize</tspan></tspan></text></g></g><g class="label" style="" transform="translate(0,9.5)"><g><rect class="background" style="stroke: none"/><text y="-10.1" style=""><tspan class="text-outer-tspan" x="0" y="-0.1em" dy="1.1em"><tspan font-style="normal" class="text-inner-tspan" font-weight="normal">+from:</tspan><tspan font-style="normal" class="text-inner-tspan" font-weight="normal"> [usize;3]</tspan></tspan></text></g></g><g class="label" style="" transform="translate(0,25.5)"><g><rect class="background" style="stroke: none"/><text y="-10.1" style=""><tspan class="text-outer-tspan" x="0" y="-0.1em" dy="1.1em"><tspan font-style="normal" class="text-inner-tspan" font-weight="normal">+to:</tspan><tspan font-style="normal" class="text-inner-tspan" font-weight="normal"> [usize;3]</tspan></tspan></text></g></g><g class="label" style="" transform="translate(0,41.5)"><g><rect class="background" style="stroke: none"/><text y="-10.1" style=""><tspan class="text-outer-tspan" x="0" y="-0.1em" dy="1.1em"><tspan font-style="normal" class="text-inner-tspan" font-weight="normal">+piece_from:</tspan><tspan font-style="normal" class="text-inner-tspan" font-weight="normal"> [usize;3]</tspan></tspan></text></g></g><g class="label" style="" transform="translate(0,57.5)"><g><rect class="background" style="stroke: none"/><text y="-10.1" style=""><tspan class="text-outer-tspan" x="0" y="-0.1em" dy="1.1em"><tspan font-style="normal" class="text-inner-tspan" font-weight="normal">+piece_to:</tspan><tspan font-style="normal" class="text-inner-tspan" font-weight="normal"> [usize;3]</tspan></tspan></text></g></g></g><g class="methods-group text" transform="translate(-81, 62.5)"><g class="label" style="" transform="translate(0,-6.5)"><g><rect class="background" style="stroke: none"/><text y="-10.1" style=""><tspan class="text-outer-tspan" x="0" y="-0.1em" dy="1.1em"><tspan font-style="normal" class="text-inner-tspan" font-weight="normal">+add_change(...)</tspan></tspan></text></g></g><g class="label" style="" transform="translate(0,9.5)"><g><rect class="background" style="stroke: none"/><text y="-10.1" style=""><tspan class="text-outer-tspan" x="0" y="-0.1em" dy="1.1em"><tspan font-style="normal" class="text-inner-tspan" font-weight="normal">+reset()</tspan></tspan></text></g></g></g><g class="divider" style=""><path d="M-93 -58.5 C-52.28563924895163 -58.5, -11.571278497903265 -58.5, 93 -58.5 M-93 -58.5 C-30.835098099313363 -58.5, 31.329803801373274 -58.5, 93 -58.5" stroke="hsl(40.5882352941, 60%, 83.3333333333%)" stroke-width="1.3" fill="none" stroke-dasharray="0 0" style=""/></g><g class="divider" style=""><path d="M-93 42.5 C-32.718374042389264 42.5, 27.56325191522147 42.5, 93 42.5 M-93 42.5 C-46.156884908971065 42.5, 0.6862301820578693 42.5, 93 42.5" stroke="hsl(40.5882352941, 60%, 83.3333333333%)" stroke-width="1.3" fill="none" stroke-dasharray="0 0" style=""/></g></g><g class="node default" id="classId-AccumulatorSize-1" transform="translate(362.5, 556.5)"><g class="basic label-container"><path d="M-118.5 -87.5 L118.5 -87.5 L118.5 87.5 L-118.5 87.5" stroke="none" stroke-width="0" fill="#fff4dd" style=""/><path d="M-118.5 -87.5 C-50.69801536640665 -87.5, 17.1039692671867 -87.5, 118.5 -87.5 M-118.5 -87.5 C-25.609153050384677 -87.5, 67.28169389923065 -87.5, 118.5 -87.5 M118.5 -87.5 C118.5 -19.298417395660223, 118.5 48.90316520867955, 118.5 87.5 M118.5 -87.5 C118.5 -23.655898930951274, 118.5 40.18820213809745, 118.5 87.5 M118.5 87.5 C49.832558000889335 87.5, -18.83488399822133 87.5, -118.5 87.5 M118.5 87.5 C64.5132842515903 87.5, 10.526568503180613 87.5, -118.5 87.5 M-118.5 87.5 C-118.5 20.784068524430225, -118.5 -45.93186295113955, -118.5 -87.5 M-118.5 87.5 C-118.5 46.66884863933445, -118.5 5.837697278668898, -118.5 -87.5" stroke="hsl(40.5882352941, 60%, 83.3333333333%)" stroke-width="1.3" fill="none" stroke-dasharray="0 0" style=""/></g><g class="annotation-group text" transform="translate(0, -67.5)"/><g class="label-group text" transform="translate(-45, -67.5)"><g class="label" style="font-weight: bolder" transform="translate(0,-6.5)"><g><rect class="background" style="stroke: none"/><text y="-10.1" style=""><tspan class="text-outer-tspan" x="0" y="-0.1em" dy="1.1em" font-weight=""><tspan font-style="normal" class="text-inner-tspan" font-weight="">AccumulatorSize</tspan></tspan></text></g></g></g><g class="members-group text" transform="translate(-106.5, -30.5)"><g class="label" style="" transform="translate(0,-6.5)"><g><rect class="background" style="stroke: none"/><text y="-10.1" style=""><tspan class="text-outer-tspan" x="0" y="-0.1em" dy="1.1em"><tspan font-style="normal" class="text-inner-tspan" font-weight="normal">+accumulation:</tspan><tspan font-style="normal" class="text-inner-tspan" font-weight="normal"> [AccI16;2]</tspan></tspan></text></g></g><g class="label" style="" transform="translate(0,9.5)"><g><rect class="background" style="stroke: none"/><text y="-10.1" style=""><tspan class="text-outer-tspan" x="0" y="-0.1em" dy="1.1em"><tspan font-style="normal" class="text-inner-tspan" font-weight="normal">+psqt_accumulation:</tspan><tspan font-style="normal" class="text-inner-tspan" font-weight="normal"> [Psqt;2]</tspan></tspan></text></g></g><g class="label" style="" transform="translate(0,25.5)"><g><rect class="background" style="stroke: none"/><text y="-10.1" style=""><tspan class="text-outer-tspan" x="0" y="-0.1em" dy="1.1em"><tspan font-style="normal" class="text-inner-tspan" font-weight="normal">+computed:</tspan><tspan font-style="normal" class="text-inner-tspan" font-weight="normal"> [bool;2]</tspan></tspan></text></g></g></g><g class="methods-group text" transform="translate(-106.5, 38.5)"><g class="label" style="" transform="translate(0,-6.5)"><g><rect class="background" style="stroke: none"/><text y="-10.1" style=""><tspan class="text-outer-tspan" x="0" y="-0.1em" dy="1.1em"><tspan font-style="normal" class="text-inner-tspan" font-weight="normal">+refresh(...)</tspan></tspan></text></g></g><g class="label" style="" transform="translate(0,9.5)"><g><rect class="background" style="stroke: none"/><text y="-10.1" style=""><tspan class="text-outer-tspan" x="0" y="-0.1em" dy="1.1em"><tspan font-style="normal" class="text-inner-tspan" font-weight="normal">+update_incremental(...)</tspan></tspan></text></g></g><g class="label" style="" transform="translate(0,25.5)"><g><rect class="background" style="stroke: none"/><text y="-10.1" style=""><tspan class="text-outer-tspan" x="0" y="-0.1em" dy="1.1em"><tspan font-style="normal" class="text-inner-tspan" font-weight="normal">+update_inc_perspective(...)</tspan></tspan></text></g></g></g><g class="divider" style=""><path d="M-118.5 -50.5 C-37.65571652981218 -50.5, 43.18856694037564 -50.5, 118.5 -50.5 M-118.5 -50.5 C-27.27231736607642 -50.5, 63.95536526784716 -50.5, 118.5 -50.5" stroke="hsl(40.5882352941, 60%, 83.3333333333%)" stroke-width="1.3" fill="none" stroke-dasharray="0 0" style=""/></g><g class="divider" style=""><path d="M-118.5 18.5 C-55.15071556327199 18.5, 8.198568873456026 18.5, 118.5 18.5 M-118.5 18.5 C-60.919006635817674 18.5, -3.3380132716353472 18.5, 118.5 18.5" stroke="hsl(40.5882352941, 60%, 83.3333333333%)" stroke-width="1.3" fill="none" stroke-dasharray="0 0" style=""/></g></g><g class="node default" id="classId-AccumulatorState-2" transform="translate(231.75, 330)"><g class="basic label-container"><path d="M-108 -81 L108 -81 L108 81 L-108 81" stroke="none" stroke-width="0" fill="#fff4dd" style=""/><path d="M-108 -81 C-27.62961581070499 -81, 52.74076837859002 -81, 108 -81 M-108 -81 C-57.02106149321468 -81, -6.042122986429362 -81, 108 -81 M108 -81 C108 -32.32500919985964, 108 16.349981600280714, 108 81 M108 -81 C108 -33.073693719675404, 108 14.852612560649192, 108 81 M108 81 C40.87674481559142 81, -26.246510368817155 81, -108 81 M108 81 C58.06486557220205 81, 8.129731144404104 81, -108 81 M-108 81 C-108 24.73098808390639, -108 -31.53802383218722, -108 -81 M-108 81 C-108 16.772462464344358, -108 -47.455075071311285, -108 -81" stroke="hsl(40.5882352941, 60%, 83.3333333333%)" stroke-width="1.3" fill="none" stroke-dasharray="0 0" style=""/></g><g class="annotation-group text" transform="translate(0, -61)"/><g class="label-group text" transform="translate(-48, -61)"><g class="label" style="font-weight: bolder" transform="translate(0,-6.5)"><g><rect class="background" style="stroke: none"/><text y="-10.1" style=""><tspan class="text-outer-tspan" x="0" y="-0.1em" dy="1.1em" font-weight=""><tspan font-style="normal" class="text-inner-tspan" font-weight="">AccumulatorState</tspan></tspan></text></g></g></g><g class="members-group text" transform="translate(-96, -24)"><g class="label" style="" transform="translate(0,-6.5)"><g><rect class="background" style="stroke: none"/><text y="-10.1" style=""><tspan class="text-outer-tspan" x="0" y="-0.1em" dy="1.1em"><tspan font-style="normal" class="text-inner-tspan" font-weight="normal">+acc_big:</tspan><tspan font-style="normal" class="text-inner-tspan" font-weight="normal"> AccBig</tspan></tspan></text></g></g><g class="label" style="" transform="translate(0,9.5)"><g><rect class="background" style="stroke: none"/><text y="-10.1" style=""><tspan class="text-outer-tspan" x="0" y="-0.1em" dy="1.1em"><tspan font-style="normal" class="text-inner-tspan" font-weight="normal">+acc_small:</tspan><tspan font-style="normal" class="text-inner-tspan" font-weight="normal"> AccSmall</tspan></tspan></text></g></g><g class="label" style="" transform="translate(0,25.5)"><g><rect class="background" style="stroke: none"/><text y="-10.1" style=""><tspan class="text-outer-tspan" x="0" y="-0.1em" dy="1.1em"><tspan font-style="normal" class="text-inner-tspan" font-weight="normal">+dirty_piece:</tspan><tspan font-style="normal" class="text-inner-tspan" font-weight="normal"> DirtyPiece</tspan></tspan></text></g></g><g class="label" style="" transform="translate(0,41.5)"><g><rect class="background" style="stroke: none"/><text y="-10.1" style=""><tspan class="text-outer-tspan" x="0" y="-0.1em" dy="1.1em"><tspan font-style="normal" class="text-inner-tspan" font-weight="normal">+computed:</tspan><tspan font-style="normal" class="text-inner-tspan" font-weight="normal"> [bool;2]</tspan></tspan></text></g></g><g class="label" style="" transform="translate(0,57.5)"><g><rect class="background" style="stroke: none"/><text y="-10.1" style=""><tspan class="text-outer-tspan" x="0" y="-0.1em" dy="1.1em"><tspan font-style="normal" class="text-inner-tspan" font-weight="normal">+rule50:</tspan><tspan font-style="normal" class="text-inner-tspan" font-weight="normal"> i32</tspan></tspan></text></g></g></g><g class="methods-group text" transform="translate(-96, 77)"/><g class="divider" style=""><path d="M-108 -44 C-64.54693798598305 -44, -21.093875971966085 -44, 108 -44 M-108 -44 C-64.44829577758514 -44, -20.896591555170275 -44, 108 -44" stroke="hsl(40.5882352941, 60%, 83.3333333333%)" stroke-width="1.3" fill="none" stroke-dasharray="0 0" style=""/></g><g class="divider" style=""><path d="M-108 57 C-48.73557859788302 57, 10.52884280423396 57, 108 57 M-108 57 C-27.53414697162397 57, 52.93170605675206 57, 108 57" stroke="hsl(40.5882352941, 60%, 83.3333333333%)" stroke-width="1.3" fill="none" stroke-dasharray="0 0" style=""/></g></g><g class="node default" id="classId-AccStack-3" transform="translate(231.75, 103.5)"><g class="basic label-container"><path d="M-108 -95.5 L108 -95.5 L108 95.5 L-108 95.5" stroke="none" stroke-width="0" fill="#fff4dd" style=""/><path d="M-108 -95.5 C-33.413092671770045 -95.5, 41.17381465645991 -95.5, 108 -95.5 M-108 -95.5 C-51.5953054729187 -95.5, 4.809389054162594 -95.5, 108 -95.5 M108 -95.5 C108 -33.271234406479024, 108 28.95753118704195, 108 95.5 M108 -95.5 C108 -52.95145107693951, 108 -10.402902153879026, 108 95.5 M108 95.5 C52.580188314134986 95.5, -2.8396233717300277 95.5, -108 95.5 M108 95.5 C35.96366917716219 95.5, -36.07266164567562 95.5, -108 95.5 M-108 95.5 C-108 40.82615072489251, -108 -13.847698550214986, -108 -95.5 M-108 95.5 C-108 35.27527038812892, -108 -24.949459223742167, -108 -95.5" stroke="hsl(40.5882352941, 60%, 83.3333333333%)" stroke-width="1.3" fill="none" stroke-dasharray="0 0" style=""/></g><g class="annotation-group text" transform="translate(0, -75.5)"/><g class="label-group text" transform="translate(-24, -75.5)"><g class="label" style="font-weight: bolder" transform="translate(0,-6.5)"><g><rect class="background" style="stroke: none"/><text y="-10.1" style=""><tspan class="text-outer-tspan" x="0" y="-0.1em" dy="1.1em" font-weight=""><tspan font-style="normal" class="text-inner-tspan" font-weight="">AccStack</tspan></tspan></text></g></g></g><g class="members-group text" transform="translate(-96, -38.5)"><g class="label" style="" transform="translate(0,-6.5)"><g><rect class="background" style="stroke: none"/><text y="-10.1" style=""><tspan class="text-outer-tspan" x="0" y="-0.1em" dy="1.1em"><tspan font-style="normal" class="text-inner-tspan" font-weight="normal">-stack:</tspan><tspan font-style="normal" class="text-inner-tspan" font-weight="normal"> AccStateVec</tspan></tspan></text></g></g><g class="label" style="" transform="translate(0,9.5)"><g><rect class="background" style="stroke: none"/><text y="-10.1" style=""><tspan class="text-outer-tspan" x="0" y="-0.1em" dy="1.1em"><tspan font-style="normal" class="text-inner-tspan" font-weight="normal">-current_idx:</tspan><tspan font-style="normal" class="text-inner-tspan" font-weight="normal"> usize</tspan></tspan></text></g></g></g><g class="methods-group text" transform="translate(-96, 14.5)"><g class="label" style="" transform="translate(0,-6.5)"><g><rect class="background" style="stroke: none"/><text y="-10.1" style=""><tspan class="text-outer-tspan" x="0" y="-0.1em" dy="1.1em"><tspan font-style="normal" class="text-inner-tspan" font-weight="normal">+push(dirty,rule50)</tspan></tspan></text></g></g><g class="label" style="" transform="translate(0,9.5)"><g><rect class="background" style="stroke: none"/><text y="-10.1" style=""><tspan class="text-outer-tspan" x="0" y="-0.1em" dy="1.1em"><tspan font-style="normal" class="text-inner-tspan" font-weight="normal">+pop()</tspan></tspan></text></g></g><g class="label" style="" transform="translate(0,25.5)"><g><rect class="background" style="stroke: none"/><text y="-10.1" style=""><tspan class="text-outer-tspan" x="0" y="-0.1em" dy="1.1em"><tspan font-style="normal" class="text-inner-tspan" font-weight="normal">+latest()</tspan><tspan font-style="normal" class="text-inner-tspan" font-weight="normal"> :</tspan><tspan font-style="normal" class="text-inner-tspan" font-weight="normal"> AccumulatorState</tspan></tspan></text></g></g><g class="label" style="" transform="translate(0,41.5)"><g><rect class="background" style="stroke: none"/><text y="-10.1" style=""><tspan class="text-outer-tspan" x="0" y="-0.1em" dy="1.1em"><tspan font-style="normal" class="text-inner-tspan" font-weight="normal">+update_incremental(...)</tspan></tspan></text></g></g><g class="label" style="" transform="translate(0,57.5)"><g><rect class="background" style="stroke: none"/><text y="-10.1" style=""><tspan class="text-outer-tspan" x="0" y="-0.1em" dy="1.1em"><tspan font-style="normal" class="text-inner-tspan" font-weight="normal">+reset_with_refresh(...)</tspan></tspan></text></g></g></g><g class="divider" style=""><path d="M-108 -58.5 C-63.80078276384502 -58.5, -19.601565527690042 -58.5, 108 -58.5 M-108 -58.5 C-34.101636867553495 -58.5, 39.79672626489301 -58.5, 108 -58.5" stroke="hsl(40.5882352941, 60%, 83.3333333333%)" stroke-width="1.3" fill="none" stroke-dasharray="0 0" style=""/></g><g class="divider" style=""><path d="M-108 -5.5 C-30.760586608834984 -5.5, 46.47882678233003 -5.5, 108 -5.5 M-108 -5.5 C-51.93649793879732 -5.5, 4.127004122405367 -5.5, 108 -5.5" stroke="hsl(40.5882352941, 60%, 83.3333333333%)" stroke-width="1.3" fill="none" stroke-dasharray="0 0" style=""/></g></g></g></g></g></svg>