<svg id="my-svg" width="100%" xmlns="http://www.w3.org/2000/svg" xmlns:xlink="http://www.w3.org/1999/xlink" class="classDiagram" style="max-width: 1066px; background-color: white;" viewBox="0 0 1066 361" role="graphics-document document" aria-roledescription="class"><style>#my-svg{font-family:JetBrains Mono;font-size:10px;fill:#333;}@keyframes edge-animation-frame{from{stroke-dashoffset:0;}}@keyframes dash{to{stroke-dashoffset:0;}}#my-svg .edge-animation-slow{stroke-dasharray:9,5!important;stroke-dashoffset:900;animation:dash 50s linear infinite;stroke-linecap:round;}#my-svg .edge-animation-fast{stroke-dasharray:9,5!important;stroke-dashoffset:900;animation:dash 20s linear infinite;stroke-linecap:round;}#my-svg .error-icon{fill:hsl(220.5882352941, 100%, 98.3333333333%);}#my-svg .error-text{fill:rgb(8.5000000002, 5.7500000001, 0);stroke:rgb(8.5000000002, 5.7500000001, 0);}#my-svg .edge-thickness-normal{stroke-width:1px;}#my-svg .edge-thickness-thick{stroke-width:3.5px;}#my-svg .edge-pattern-solid{stroke-dasharray:0;}#my-svg .edge-thickness-invisible{stroke-width:0;fill:none;}#my-svg .edge-pattern-dashed{stroke-dasharray:3;}#my-svg .edge-pattern-dotted{stroke-dasharray:2;}#my-svg .marker{fill:#0b0b0b;stroke:#0b0b0b;}#my-svg .marker.cross{stroke:#0b0b0b;}#my-svg svg{font-family:JetBrains Mono;font-size:10px;}#my-svg p{margin:0;}#my-svg g.classGroup text{fill:hsl(40.5882352941, 60%, 83.3333333333%);stroke:none;font-family:JetBrains Mono;font-size:10px;}#my-svg g.classGroup text .title{font-weight:bolder;}#my-svg .nodeLabel,#my-svg .edgeLabel{color:#333;}#my-svg .edgeLabel .label rect{fill:#fff4dd;}#my-svg .label text{fill:#333;}#my-svg .labelBkg{background:#fff4dd;}#my-svg .edgeLabel .label span{background:#fff4dd;}#my-svg .classTitle{font-weight:bolder;}#my-svg .node rect,#my-svg .node circle,#my-svg .node ellipse,#my-svg .node polygon,#my-svg .node path{fill:#fff4dd;stroke:hsl(40.5882352941, 60%, 83.3333333333%);stroke-width:1px;}#my-svg .divider{stroke:hsl(40.5882352941, 60%, 83.3333333333%);stroke-width:1;}#my-svg g.clickable{cursor:pointer;}#my-svg g.classGroup rect{fill:#fff4dd;stroke:hsl(40.5882352941, 60%, 83.3333333333%);}#my-svg g.classGroup line{stroke:hsl(40.5882352941, 60%, 83.3333333333%);stroke-width:1;}#my-svg .classLabel .box{stroke:none;stroke-width:0;fill:#fff4dd;opacity:0.5;}#my-svg .classLabel .label{fill:hsl(40.5882352941, 60%, 83.3333333333%);font-size:10px;}#my-svg .relation{stroke:#0b0b0b;stroke-width:1;fill:none;}#my-svg .dashed-line{stroke-dasharray:3;}#my-svg .dotted-line{stroke-dasharray:1 2;}#my-svg #compositionStart,#my-svg .composition{fill:#0b0b0b!important;stroke:#0b0b0b!important;stroke-width:1;}#my-svg #compositionEnd,#my-svg .composition{fill:#0b0b0b!important;stroke:#0b0b0b!important;stroke-width:1;}#my-svg #dependencyStart,#my-svg .dependency{fill:#0b0b0b!important;stroke:#0b0b0b!important;stroke-width:1;}#my-svg #dependencyStart,#my-svg .dependency{fill:#0b0b0b!important;stroke:#0b0b0b!important;stroke-width:1;}#my-svg #extensionStart,#my-svg .extension{fill:transparent!important;stroke:#0b0b0b!important;stroke-width:1;}#my-svg #extensionEnd,#my-svg .extension{fill:transparent!important;stroke:#0b0b0b!important;stroke-width:1;}#my-svg #aggregationStart,#my-svg .aggregation{fill:transparent!important;stroke:#0b0b0b!important;stroke-width:1;}#my-svg #aggregationEnd,#my-svg .aggregation{fill:transparent!important;stroke:#0b0b0b!important;stroke-width:1;}#my-svg #lollipopStart,#my-svg .lollipop{fill:#fff4dd!important;stroke:#0b0b0b!important;stroke-width:1;}#my-svg #lollipopEnd,#my-svg .lollipop{fill:#fff4dd!important;stroke:#0b0b0b!important;stroke-width:1;}#my-svg .edgeTerminals{font-size:11px;line-height:initial;}#my-svg .classTitleText{text-anchor:middle;font-size:18px;fill:#333;}#my-svg .label-icon{display:inline-block;height:1em;overflow:visible;vertical-align:-0.125em;}#my-svg .node .label-icon path{fill:currentColor;stroke:revert;stroke-width:revert;}#my-svg :root{--mermaid-font-family:"trebuchet ms",verdana,arial,sans-serif;}</style><g><defs><marker id="my-svg_class-aggregationStart" class="marker aggregation class" refX="18" refY="7" markerWidth="190" markerHeight="240" orient="auto"><path d="M 18,7 L9,13 L1,7 L9,1 Z"/></marker></defs><defs><marker id="my-svg_class-aggregationEnd" class="marker aggregation class" refX="1" refY="7" markerWidth="20" markerHeight="28" orient="auto"><path d="M 18,7 L9,13 L1,7 L9,1 Z"/></marker></defs><defs><marker id="my-svg_class-extensionStart" class="marker extension class" refX="18" refY="7" markerWidth="190" markerHeight="240" orient="auto"><path d="M 1,7 L18,13 V 1 Z"/></marker></defs><defs><marker id="my-svg_class-extensionEnd" class="marker extension class" refX="1" refY="7" markerWidth="20" markerHeight="28" orient="auto"><path d="M 1,1 V 13 L18,7 Z"/></marker></defs><defs><marker id="my-svg_class-compositionStart" class="marker composition class" refX="18" refY="7" markerWidth="190" markerHeight="240" orient="auto"><path d="M 18,7 L9,13 L1,7 L9,1 Z"/></marker></defs><defs><marker id="my-svg_class-compositionEnd" class="marker composition class" refX="1" refY="7" markerWidth="20" markerHeight="28" orient="auto"><path d="M 18,7 L9,13 L1,7 L9,1 Z"/></marker></defs><defs><marker id="my-svg_class-dependencyStart" class="marker dependency class" refX="6" refY="7" markerWidth="190" markerHeight="240" orient="auto"><path d="M 5,7 L9,13 L1,7 L9,1 Z"/></marker></defs><defs><marker id="my-svg_class-dependencyEnd" class="marker dependency class" refX="13" refY="7" markerWidth="20" markerHeight="28" orient="auto"><path d="M 18,7 L9,13 L14,7 L9,1 Z"/></marker></defs><defs><marker id="my-svg_class-lollipopStart" class="marker lollipop class" refX="13" refY="7" markerWidth="190" markerHeight="240" orient="auto"><circle stroke="black" fill="transparent" cx="7" cy="7" r="6"/></marker></defs><defs><marker id="my-svg_class-lollipopEnd" class="marker lollipop class" refX="1" refY="7" markerWidth="190" markerHeight="240" orient="auto"><circle stroke="black" fill="transparent" cx="7" cy="7" r="6"/></marker></defs><g class="root"><g class="clusters"/><g class="edgePaths"><path d="M438.876,99.086L386.313,110.238C333.75,121.39,228.625,143.695,176.063,159.014C123.5,174.333,123.5,182.667,123.5,186.833L123.5,191" id="id_Layer_AffineTransform_1" class="edge-thickness-normal edge-pattern-dashed relation" style=";;;" data-edge="true" data-et="edge" data-id="id_Layer_AffineTransform_1" data-points="W3sieCI6NDU1Ljc1LCJ5Ijo5NS41MDUyMTczOTEzMDQzNH0seyJ4IjoxMjMuNSwieSI6MTY2fSx7IngiOjEyMy41LCJ5IjoxOTF9XQ==" marker-start="url(#my-svg_class-extensionStart)"/><path d="M443.307,150.74L439.589,153.283C435.871,155.827,428.436,160.913,424.718,167.623C421,174.333,421,182.667,421,186.833L421,191" id="id_Layer_AffineTransformSparseInput_2" class="edge-thickness-normal edge-pattern-dashed relation" style=";;;" data-edge="true" data-et="edge" data-id="id_Layer_AffineTransformSparseInput_2" data-points="W3sieCI6NDU3LjU0MzcxNTg0Njk5NDUzLCJ5IjoxNDF9LHsieCI6NDIxLCJ5IjoxNjZ9LHsieCI6NDIxLCJ5IjoxOTF9XQ==" marker-start="url(#my-svg_class-extensionStart)"/><path d="M666.193,150.74L669.911,153.283C673.629,155.827,681.064,160.913,684.782,171.873C688.5,182.833,688.5,199.667,688.5,208.083L688.5,216.5" id="id_Layer_ClippedReLU_3" class="edge-thickness-normal edge-pattern-dashed relation" style=";;;" data-edge="true" data-et="edge" data-id="id_Layer_ClippedReLU_3" data-points="W3sieCI6NjUxLjk1NjI4NDE1MzAwNTUsInkiOjE0MX0seyJ4Ijo2ODguNSwieSI6MTY2fSx7IngiOjY4OC41LCJ5IjoyMTYuNX1d" marker-start="url(#my-svg_class-extensionStart)"/><path d="M670.535,101.929L715.613,112.607C760.69,123.286,850.845,144.643,895.923,163.738C941,182.833,941,199.667,941,208.083L941,216.5" id="id_Layer_SqrClippedReLU_4" class="edge-thickness-normal edge-pattern-dashed relation" style=";;;" data-edge="true" data-et="edge" data-id="id_Layer_SqrClippedReLU_4" data-points="W3sieCI6NjUzLjc1LCJ5Ijo5Ny45NTI0MjcxODQ0NjYwMn0seyJ4Ijo5NDEsInkiOjE2Nn0seyJ4Ijo5NDEsInkiOjIxNi41fV0=" marker-start="url(#my-svg_class-extensionStart)"/></g><g class="edgeLabels"><g><rect class="background" style="stroke: none"/></g><g><rect class="background" style="stroke: none"/></g><g><rect class="background" style="stroke: none"/></g><g><rect class="background" style="stroke: none"/></g><g class="edgeLabel"><g class="label" data-id="id_Layer_AffineTransform_1" transform="translate(0, 0)"><text y="-10.1"><tspan class="text-outer-tspan" x="0" y="-0.1em" dy="1.1em"/></text></g></g><g class="edgeLabel"><g class="label" data-id="id_Layer_AffineTransformSparseInput_2" transform="translate(0, 0)"><text y="-10.1"><tspan class="text-outer-tspan" x="0" y="-0.1em" dy="1.1em"/></text></g></g><g class="edgeLabel"><g class="label" data-id="id_Layer_ClippedReLU_3" transform="translate(0, 0)"><text y="-10.1"><tspan class="text-outer-tspan" x="0" y="-0.1em" dy="1.1em"/></text></g></g><g class="edgeLabel"><g class="label" data-id="id_Layer_SqrClippedReLU_4" transform="translate(0, 0)"><text y="-10.1"><tspan class="text-outer-tspan" x="0" y="-0.1em" dy="1.1em"/></text></g></g></g><g class="nodes"><g class="node default" id="classId-Layer-0" transform="translate(554.75, 74.5)"><g class="basic label-container"><path d="M-99 -66.5 L99 -66.5 L99 66.5 L-99 66.5" stroke="none" stroke-width="0" fill="#fff4dd" style=""/><path d="M-99 -66.5 C-54.68530813604454 -66.5, -10.37061627208908 -66.5, 99 -66.5 M-99 -66.5 C-54.12017030347024 -66.5, -9.240340606940478 -66.5, 99 -66.5 M99 -66.5 C99 -15.91901449926683, 99 34.66197100146634, 99 66.5 M99 -66.5 C99 -36.48145115024221, 99 -6.462902300484409, 99 66.5 M99 66.5 C34.190541717867276 66.5, -30.618916564265447 66.5, -99 66.5 M99 66.5 C20.964070989924238 66.5, -57.071858020151524 66.5, -99 66.5 M-99 66.5 C-99 23.538532723306325, -99 -19.42293455338735, -99 -66.5 M-99 66.5 C-99 30.004831692982734, -99 -6.490336614034533, -99 -66.5" stroke="hsl(40.5882352941, 60%, 83.3333333333%)" stroke-width="1.3" fill="none" stroke-dasharray="0 0" style=""/></g><g class="annotation-group text" transform="translate(-21, -46.5)"><g class="label" style="" transform="translate(0,-6.5)"><g><rect class="background" style="stroke: none"/><text y="-10.1" style=""><tspan class="text-outer-tspan" x="0" y="-0.1em" dy="1.1em"><tspan font-style="normal" class="text-inner-tspan" font-weight="normal">«trait»</tspan></tspan></text></g></g></g><g class="label-group text" transform="translate(-30, -33.5)"><g class="label" style="font-weight: bolder" transform="translate(0,-6.5)"><g><rect class="background" style="stroke: none"/><text y="-10.1" style=""><tspan class="text-outer-tspan" x="0" y="-0.1em" dy="1.1em" font-weight="">Layer&lt;I,O&gt;</tspan></text></g></g></g><g class="members-group text" transform="translate(-87, 3.5)"/><g class="methods-group text" transform="translate(-87, 33.5)"><g class="label" style="" transform="translate(0,-6.5)"><g><rect class="background" style="stroke: none"/><text y="-10.1" style=""><tspan class="text-outer-tspan" x="0" y="-0.1em" dy="1.1em"><tspan font-style="normal" class="text-inner-tspan" font-weight="normal">+propagate(input,output)</tspan></tspan></text></g></g><g class="label" style="" transform="translate(0,9.5)"><g><rect class="background" style="stroke: none"/><text y="-10.1" style=""><tspan class="text-outer-tspan" x="0" y="-0.1em" dy="1.1em"><tspan font-style="normal" class="text-inner-tspan" font-weight="normal">+read_parameters(reader)</tspan></tspan></text></g></g></g><g class="divider" style=""><path d="M-99 -16.5 C-42.177063462094544 -16.5, 14.645873075810911 -16.5, 99 -16.5 M-99 -16.5 C-39.46742199279217 -16.5, 20.065156014415663 -16.5, 99 -16.5" stroke="hsl(40.5882352941, 60%, 83.3333333333%)" stroke-width="1.3" fill="none" stroke-dasharray="0 0" style=""/></g><g class="divider" style=""><path d="M-99 7.5 C-30.560255671617867 7.5, 37.879488656764266 7.5, 99 7.5 M-99 7.5 C-38.610310164688876 7.5, 21.779379670622248 7.5, 99 7.5" stroke="hsl(40.5882352941, 60%, 83.3333333333%)" stroke-width="1.3" fill="none" stroke-dasharray="0 0" style=""/></g></g><g class="node default" id="classId-AffineTransform-1" transform="translate(123.5, 272)"><g class="basic label-container"><path d="M-115.5 -81 L115.5 -81 L115.5 81 L-115.5 81" stroke="none" stroke-width="0" fill="#fff4dd" style=""/><path d="M-115.5 -81 C-40.5040802167571 -81, 34.491839566485794 -81, 115.5 -81 M-115.5 -81 C-36.40189769360855 -81, 42.69620461278291 -81, 115.5 -81 M115.5 -81 C115.5 -46.4545229538062, 115.5 -11.909045907612395, 115.5 81 M115.5 -81 C115.5 -39.43296803878882, 115.5 2.1340639224223565, 115.5 81 M115.5 81 C34.31128250064714 81, -46.87743499870572 81, -115.5 81 M115.5 81 C28.737666220610222 81, -58.024667558779555 81, -115.5 81 M-115.5 81 C-115.5 36.64586031531298, -115.5 -7.70827936937404, -115.5 -81 M-115.5 81 C-115.5 48.499527694520644, -115.5 15.999055389041288, -115.5 -81" stroke="hsl(40.5882352941, 60%, 83.3333333333%)" stroke-width="1.3" fill="none" stroke-dasharray="0 0" style=""/></g><g class="annotation-group text" transform="translate(0, -61)"/><g class="label-group text" transform="translate(-45, -61)"><g class="label" style="font-weight: bolder" transform="translate(0,-6.5)"><g><rect class="background" style="stroke: none"/><text y="-10.1" style=""><tspan class="text-outer-tspan" x="0" y="-0.1em" dy="1.1em" font-weight=""><tspan font-style="normal" class="text-inner-tspan" font-weight="">AffineTransform</tspan></tspan></text></g></g></g><g class="members-group text" transform="translate(-103.5, -24)"><g class="label" style="" transform="translate(0,-6.5)"><g><rect class="background" style="stroke: none"/><text y="-10.1" style=""><tspan class="text-outer-tspan" x="0" y="-0.1em" dy="1.1em">+biases: AlignedBuffer&lt;i32&gt;</tspan></text></g></g><g class="label" style="" transform="translate(0,9.5)"><g><rect class="background" style="stroke: none"/><text y="-10.1" style=""><tspan class="text-outer-tspan" x="0" y="-0.1em" dy="1.1em">+weights: AlignedBuffer&lt;i8&gt;</tspan></text></g></g><g class="label" style="" transform="translate(0,25.5)"><g><rect class="background" style="stroke: none"/><text y="-10.1" style=""><tspan class="text-outer-tspan" x="0" y="-0.1em" dy="1.1em"><tspan font-style="normal" class="text-inner-tspan" font-weight="normal">+input_dims:</tspan><tspan font-style="normal" class="text-inner-tspan" font-weight="normal"> usize</tspan></tspan></text></g></g><g class="label" style="" transform="translate(0,41.5)"><g><rect class="background" style="stroke: none"/><text y="-10.1" style=""><tspan class="text-outer-tspan" x="0" y="-0.1em" dy="1.1em"><tspan font-style="normal" class="text-inner-tspan" font-weight="normal">+output_dims:</tspan><tspan font-style="normal" class="text-inner-tspan" font-weight="normal"> usize</tspan></tspan></text></g></g><g class="label" style="" transform="translate(0,57.5)"><g><rect class="background" style="stroke: none"/><text y="-10.1" style=""><tspan class="text-outer-tspan" x="0" y="-0.1em" dy="1.1em"><tspan font-style="normal" class="text-inner-tspan" font-weight="normal">+padded_input_dims:</tspan><tspan font-style="normal" class="text-inner-tspan" font-weight="normal"> usize</tspan></tspan></text></g></g></g><g class="methods-group text" transform="translate(-103.5, 77)"/><g class="divider" style=""><path d="M-115.5 -44 C-38.79804361582106 -44, 37.903912768357884 -44, 115.5 -44 M-115.5 -44 C-42.45267392189558 -44, 30.594652156208838 -44, 115.5 -44" stroke="hsl(40.5882352941, 60%, 83.3333333333%)" stroke-width="1.3" fill="none" stroke-dasharray="0 0" style=""/></g><g class="divider" style=""><path d="M-115.5 57 C-47.27543573475796 57, 20.949128530484074 57, 115.5 57 M-115.5 57 C-63.937018882329156 57, -12.374037764658311 57, 115.5 57" stroke="hsl(40.5882352941, 60%, 83.3333333333%)" stroke-width="1.3" fill="none" stroke-dasharray="0 0" style=""/></g></g><g class="node default" id="classId-AffineTransformSparseInput-2" transform="translate(421, 272)"><g class="basic label-container"><path d="M-132 -81 L132 -81 L132 81 L-132 81" stroke="none" stroke-width="0" fill="#fff4dd" style=""/><path d="M-132 -81 C-36.53413060689394 -81, 58.93173878621212 -81, 132 -81 M-132 -81 C-51.205795511034594 -81, 29.58840897793081 -81, 132 -81 M132 -81 C132 -42.32496581575084, 132 -3.649931631501687, 132 81 M132 -81 C132 -38.58769459114012, 132 3.8246108177197584, 132 81 M132 81 C56.04126834031344 81, -19.917463319373127 81, -132 81 M132 81 C69.95318790086156 81, 7.906375801723115 81, -132 81 M-132 81 C-132 35.29988802394686, -132 -10.400223952106273, -132 -81 M-132 81 C-132 46.788879159966335, -132 12.57775831993267, -132 -81" stroke="hsl(40.5882352941, 60%, 83.3333333333%)" stroke-width="1.3" fill="none" stroke-dasharray="0 0" style=""/></g><g class="annotation-group text" transform="translate(0, -61)"/><g class="label-group text" transform="translate(-78, -61)"><g class="label" style="font-weight: bolder" transform="translate(0,-6.5)"><g><rect class="background" style="stroke: none"/><text y="-10.1" style=""><tspan class="text-outer-tspan" x="0" y="-0.1em" dy="1.1em" font-weight=""><tspan font-style="normal" class="text-inner-tspan" font-weight="">AffineTransformSparseInput</tspan></tspan></text></g></g></g><g class="members-group text" transform="translate(-120, -24)"><g class="label" style="" transform="translate(0,-6.5)"><g><rect class="background" style="stroke: none"/><text y="-10.1" style=""><tspan class="text-outer-tspan" x="0" y="-0.1em" dy="1.1em">+biases: AlignedBuffer&lt;i32&gt;</tspan></text></g></g><g class="label" style="" transform="translate(0,9.5)"><g><rect class="background" style="stroke: none"/><text y="-10.1" style=""><tspan class="text-outer-tspan" x="0" y="-0.1em" dy="1.1em">+weights: AlignedBuffer&lt;i8&gt;</tspan></text></g></g><g class="label" style="" transform="translate(0,25.5)"><g><rect class="background" style="stroke: none"/><text y="-10.1" style=""><tspan class="text-outer-tspan" x="0" y="-0.1em" dy="1.1em"><tspan font-style="normal" class="text-inner-tspan" font-weight="normal">+input_dims:</tspan><tspan font-style="normal" class="text-inner-tspan" font-weight="normal"> usize</tspan></tspan></text></g></g><g class="label" style="" transform="translate(0,41.5)"><g><rect class="background" style="stroke: none"/><text y="-10.1" style=""><tspan class="text-outer-tspan" x="0" y="-0.1em" dy="1.1em"><tspan font-style="normal" class="text-inner-tspan" font-weight="normal">+output_dims:</tspan><tspan font-style="normal" class="text-inner-tspan" font-weight="normal"> usize</tspan></tspan></text></g></g><g class="label" style="" transform="translate(0,57.5)"><g><rect class="background" style="stroke: none"/><text y="-10.1" style=""><tspan class="text-outer-tspan" x="0" y="-0.1em" dy="1.1em"><tspan font-style="normal" class="text-inner-tspan" font-weight="normal">+padded_input_dims:</tspan><tspan font-style="normal" class="text-inner-tspan" font-weight="normal"> usize</tspan></tspan></text></g></g></g><g class="methods-group text" transform="translate(-120, 77)"/><g class="divider" style=""><path d="M-132 -44 C-45.155088001838934 -44, 41.68982399632213 -44, 132 -44 M-132 -44 C-58.313925160874476 -44, 15.372149678251048 -44, 132 -44" stroke="hsl(40.5882352941, 60%, 83.3333333333%)" stroke-width="1.3" fill="none" stroke-dasharray="0 0" style=""/></g><g class="divider" style=""><path d="M-132 57 C-58.17610849436177 57, 15.64778301127646 57, 132 57 M-132 57 C-39.44185278276434 57, 53.116294434471314 57, 132 57" stroke="hsl(40.5882352941, 60%, 83.3333333333%)" stroke-width="1.3" fill="none" stroke-dasharray="0 0" style=""/></g></g><g class="node default" id="classId-ClippedReLU-3" transform="translate(688.5, 272)"><g class="basic label-container"><path d="M-85.5 -55.5 L85.5 -55.5 L85.5 55.5 L-85.5 55.5" stroke="none" stroke-width="0" fill="#fff4dd" style=""/><path d="M-85.5 -55.5 C-43.040764914291444 -55.5, -0.5815298285828874 -55.5, 85.5 -55.5 M-85.5 -55.5 C-30.82314460588311 -55.5, 23.853710788233784 -55.5, 85.5 -55.5 M85.5 -55.5 C85.5 -21.875940724943057, 85.5 11.748118550113887, 85.5 55.5 M85.5 -55.5 C85.5 -16.47200419746634, 85.5 22.55599160506732, 85.5 55.5 M85.5 55.5 C41.609099579646326 55.5, -2.281800840707348 55.5, -85.5 55.5 M85.5 55.5 C28.666626230557092 55.5, -28.166747538885815 55.5, -85.5 55.5 M-85.5 55.5 C-85.5 14.075282700673597, -85.5 -27.349434598652806, -85.5 -55.5 M-85.5 55.5 C-85.5 12.321072399451495, -85.5 -30.85785520109701, -85.5 -55.5" stroke="hsl(40.5882352941, 60%, 83.3333333333%)" stroke-width="1.3" fill="none" stroke-dasharray="0 0" style=""/></g><g class="annotation-group text" transform="translate(0, -35.5)"/><g class="label-group text" transform="translate(-33, -35.5)"><g class="label" style="font-weight: bolder" transform="translate(0,-6.5)"><g><rect class="background" style="stroke: none"/><text y="-10.1" style=""><tspan class="text-outer-tspan" x="0" y="-0.1em" dy="1.1em" font-weight=""><tspan font-style="normal" class="text-inner-tspan" font-weight="">ClippedReLU</tspan></tspan></text></g></g></g><g class="members-group text" transform="translate(-73.5, 1.5)"><g class="label" style="" transform="translate(0,-6.5)"><g><rect class="background" style="stroke: none"/><text y="-10.1" style=""><tspan class="text-outer-tspan" x="0" y="-0.1em" dy="1.1em"><tspan font-style="normal" class="text-inner-tspan" font-weight="normal">+dims:</tspan><tspan font-style="normal" class="text-inner-tspan" font-weight="normal"> usize</tspan></tspan></text></g></g></g><g class="methods-group text" transform="translate(-73.5, 38.5)"><g class="label" style="" transform="translate(0,-6.5)"><g><rect class="background" style="stroke: none"/><text y="-10.1" style=""><tspan class="text-outer-tspan" x="0" y="-0.1em" dy="1.1em">+propagate(i32-&gt;u8)</tspan></text></g></g></g><g class="divider" style=""><path d="M-85.5 -18.5 C-48.82369919061511 -18.5, -12.147398381230218 -18.5, 85.5 -18.5 M-85.5 -18.5 C-19.97325560366106 -18.5, 45.55348879267788 -18.5, 85.5 -18.5" stroke="hsl(40.5882352941, 60%, 83.3333333333%)" stroke-width="1.3" fill="none" stroke-dasharray="0 0" style=""/></g><g class="divider" style=""><path d="M-85.5 18.5 C-18.490172873315785 18.5, 48.51965425336843 18.5, 85.5 18.5 M-85.5 18.5 C-26.56135504128177 18.5, 32.37728991743646 18.5, 85.5 18.5" stroke="hsl(40.5882352941, 60%, 83.3333333333%)" stroke-width="1.3" fill="none" stroke-dasharray="0 0" style=""/></g></g><g class="node default" id="classId-SqrClippedReLU-4" transform="translate(941, 272)"><g class="basic label-container"><path d="M-117 -55.5 L117 -55.5 L117 55.5 L-117 55.5" stroke="none" stroke-width="0" fill="#fff4dd" style=""/><path d="M-117 -55.5 C-53.95574310241349 -55.5, 9.088513795173014 -55.5, 117 -55.5 M-117 -55.5 C-25.1357059108674 -55.5, 66.7285881782652 -55.5, 117 -55.5 M117 -55.5 C117 -21.13179024061504, 117 13.236419518769921, 117 55.5 M117 -55.5 C117 -29.397042356958817, 117 -3.294084713917634, 117 55.5 M117 55.5 C36.60641353518653 55.5, -43.787172929626934 55.5, -117 55.5 M117 55.5 C30.792575344690604 55.5, -55.41484931061879 55.5, -117 55.5 M-117 55.5 C-117 17.317744664235413, -117 -20.864510671529175, -117 -55.5 M-117 55.5 C-117 28.267984562708836, -117 1.0359691254176724, -117 -55.5" stroke="hsl(40.5882352941, 60%, 83.3333333333%)" stroke-width="1.3" fill="none" stroke-dasharray="0 0" style=""/></g><g class="annotation-group text" transform="translate(0, -35.5)"/><g class="label-group text" transform="translate(-42, -35.5)"><g class="label" style="font-weight: bolder" transform="translate(0,-6.5)"><g><rect class="background" style="stroke: none"/><text y="-10.1" style=""><tspan class="text-outer-tspan" x="0" y="-0.1em" dy="1.1em" font-weight=""><tspan font-style="normal" class="text-inner-tspan" font-weight="">SqrClippedReLU</tspan></tspan></text></g></g></g><g class="members-group text" transform="translate(-105, 1.5)"><g class="label" style="" transform="translate(0,-6.5)"><g><rect class="background" style="stroke: none"/><text y="-10.1" style=""><tspan class="text-outer-tspan" x="0" y="-0.1em" dy="1.1em"><tspan font-style="normal" class="text-inner-tspan" font-weight="normal">+dims:</tspan><tspan font-style="normal" class="text-inner-tspan" font-weight="normal"> usize</tspan></tspan></text></g></g></g><g class="methods-group text" transform="translate(-105, 38.5)"><g class="label" style="" transform="translate(0,-6.5)"><g><rect class="background" style="stroke: none"/><text y="-10.1" style=""><tspan class="text-outer-tspan" x="0" y="-0.1em" dy="1.1em">+propagate(i32-&gt;u8, squared)</tspan></text></g></g></g><g class="divider" style=""><path d="M-117 -18.5 C-56.636480406559095 -18.5, 3.727039186881811 -18.5, 117 -18.5 M-117 -18.5 C-35.19667774867331 -18.5, 46.60664450265338 -18.5, 117 -18.5" stroke="hsl(40.5882352941, 60%, 83.3333333333%)" stroke-width="1.3" fill="none" stroke-dasharray="0 0" style=""/></g><g class="divider" style=""><path d="M-117 18.5 C-67.61069802093465 18.5, -18.221396041869312 18.5, 117 18.5 M-117 18.5 C-24.431976136417916 18.5, 68.13604772716417 18.5, 117 18.5" stroke="hsl(40.5882352941, 60%, 83.3333333333%)" stroke-width="1.3" fill="none" stroke-dasharray="0 0" style=""/></g></g></g></g></g></svg>