<svg id="my-svg" width="100%" xmlns="http://www.w3.org/2000/svg" xmlns:xlink="http://www.w3.org/1999/xlink" class="classDiagram" style="max-width: 1123px; background-color: white;" viewBox="0 0 1123 351" role="graphics-document document" aria-roledescription="class"><style>#my-svg{font-family:JetBrains Mono;font-size:10px;fill:#333;}@keyframes edge-animation-frame{from{stroke-dashoffset:0;}}@keyframes dash{to{stroke-dashoffset:0;}}#my-svg .edge-animation-slow{stroke-dasharray:9,5!important;stroke-dashoffset:900;animation:dash 50s linear infinite;stroke-linecap:round;}#my-svg .edge-animation-fast{stroke-dasharray:9,5!important;stroke-dashoffset:900;animation:dash 20s linear infinite;stroke-linecap:round;}#my-svg .error-icon{fill:hsl(220.5882352941, 100%, 98.3333333333%);}#my-svg .error-text{fill:rgb(8.5000000002, 5.7500000001, 0);stroke:rgb(8.5000000002, 5.7500000001, 0);}#my-svg .edge-thickness-normal{stroke-width:1px;}#my-svg .edge-thickness-thick{stroke-width:3.5px;}#my-svg .edge-pattern-solid{stroke-dasharray:0;}#my-svg .edge-thickness-invisible{stroke-width:0;fill:none;}#my-svg .edge-pattern-dashed{stroke-dasharray:3;}#my-svg .edge-pattern-dotted{stroke-dasharray:2;}#my-svg .marker{fill:#0b0b0b;stroke:#0b0b0b;}#my-svg .marker.cross{stroke:#0b0b0b;}#my-svg svg{font-family:JetBrains Mono;font-size:10px;}#my-svg p{margin:0;}#my-svg g.classGroup text{fill:hsl(40.5882352941, 60%, 83.3333333333%);stroke:none;font-family:JetBrains Mono;font-size:10px;}#my-svg g.classGroup text .title{font-weight:bolder;}#my-svg .nodeLabel,#my-svg .edgeLabel{color:#333;}#my-svg .edgeLabel .label rect{fill:#fff4dd;}#my-svg .label text{fill:#333;}#my-svg .labelBkg{background:#fff4dd;}#my-svg .edgeLabel .label span{background:#fff4dd;}#my-svg .classTitle{font-weight:bolder;}#my-svg .node rect,#my-svg .node circle,#my-svg .node ellipse,#my-svg .node polygon,#my-svg .node path{fill:#fff4dd;stroke:hsl(40.5882352941, 60%, 83.3333333333%);stroke-width:1px;}#my-svg .divider{stroke:hsl(40.5882352941, 60%, 83.3333333333%);stroke-width:1;}#my-svg g.clickable{cursor:pointer;}#my-svg g.classGroup rect{fill:#fff4dd;stroke:hsl(40.5882352941, 60%, 83.3333333333%);}#my-svg g.classGroup line{stroke:hsl(40.5882352941, 60%, 83.3333333333%);stroke-width:1;}#my-svg .classLabel .box{stroke:none;stroke-width:0;fill:#fff4dd;opacity:0.5;}#my-svg .classLabel .label{fill:hsl(40.5882352941, 60%, 83.3333333333%);font-size:10px;}#my-svg .relation{stroke:#0b0b0b;stroke-width:1;fill:none;}#my-svg .dashed-line{stroke-dasharray:3;}#my-svg .dotted-line{stroke-dasharray:1 2;}#my-svg #compositionStart,#my-svg .composition{fill:#0b0b0b!important;stroke:#0b0b0b!important;stroke-width:1;}#my-svg #compositionEnd,#my-svg .composition{fill:#0b0b0b!important;stroke:#0b0b0b!important;stroke-width:1;}#my-svg #dependencyStart,#my-svg .dependency{fill:#0b0b0b!important;stroke:#0b0b0b!important;stroke-width:1;}#my-svg #dependencyStart,#my-svg .dependency{fill:#0b0b0b!important;stroke:#0b0b0b!important;stroke-width:1;}#my-svg #extensionStart,#my-svg .extension{fill:transparent!important;stroke:#0b0b0b!important;stroke-width:1;}#my-svg #extensionEnd,#my-svg .extension{fill:transparent!important;stroke:#0b0b0b!important;stroke-width:1;}#my-svg #aggregationStart,#my-svg .aggregation{fill:transparent!important;stroke:#0b0b0b!important;stroke-width:1;}#my-svg #aggregationEnd,#my-svg .aggregation{fill:transparent!important;stroke:#0b0b0b!important;stroke-width:1;}#my-svg #lollipopStart,#my-svg .lollipop{fill:#fff4dd!important;stroke:#0b0b0b!important;stroke-width:1;}#my-svg #lollipopEnd,#my-svg .lollipop{fill:#fff4dd!important;stroke:#0b0b0b!important;stroke-width:1;}#my-svg .edgeTerminals{font-size:11px;line-height:initial;}#my-svg .classTitleText{text-anchor:middle;font-size:18px;fill:#333;}#my-svg .label-icon{display:inline-block;height:1em;overflow:visible;vertical-align:-0.125em;}#my-svg .node .label-icon path{fill:currentColor;stroke:revert;stroke-width:revert;}#my-svg :root{--mermaid-font-family:"trebuchet ms",verdana,arial,sans-serif;}</style><g><defs><marker id="my-svg_class-aggregationStart" class="marker aggregation class" refX="18" refY="7" markerWidth="190" markerHeight="240" orient="auto"><path d="M 18,7 L9,13 L1,7 L9,1 Z"/></marker></defs><defs><marker id="my-svg_class-aggregationEnd" class="marker aggregation class" refX="1" refY="7" markerWidth="20" markerHeight="28" orient="auto"><path d="M 18,7 L9,13 L1,7 L9,1 Z"/></marker></defs><defs><marker id="my-svg_class-extensionStart" class="marker extension class" refX="18" refY="7" markerWidth="190" markerHeight="240" orient="auto"><path d="M 1,7 L18,13 V 1 Z"/></marker></defs><defs><marker id="my-svg_class-extensionEnd" class="marker extension class" refX="1" refY="7" markerWidth="20" markerHeight="28" orient="auto"><path d="M 1,1 V 13 L18,7 Z"/></marker></defs><defs><marker id="my-svg_class-compositionStart" class="marker composition class" refX="18" refY="7" markerWidth="190" markerHeight="240" orient="auto"><path d="M 18,7 L9,13 L1,7 L9,1 Z"/></marker></defs><defs><marker id="my-svg_class-compositionEnd" class="marker composition class" refX="1" refY="7" markerWidth="20" markerHeight="28" orient="auto"><path d="M 18,7 L9,13 L1,7 L9,1 Z"/></marker></defs><defs><marker id="my-svg_class-dependencyStart" class="marker dependency class" refX="6" refY="7" markerWidth="190" markerHeight="240" orient="auto"><path d="M 5,7 L9,13 L1,7 L9,1 Z"/></marker></defs><defs><marker id="my-svg_class-dependencyEnd" class="marker dependency class" refX="13" refY="7" markerWidth="20" markerHeight="28" orient="auto"><path d="M 18,7 L9,13 L14,7 L9,1 Z"/></marker></defs><defs><marker id="my-svg_class-lollipopStart" class="marker lollipop class" refX="13" refY="7" markerWidth="190" markerHeight="240" orient="auto"><circle stroke="black" fill="transparent" cx="7" cy="7" r="6"/></marker></defs><defs><marker id="my-svg_class-lollipopEnd" class="marker lollipop class" refX="1" refY="7" markerWidth="190" markerHeight="240" orient="auto"><circle stroke="black" fill="transparent" cx="7" cy="7" r="6"/></marker></defs><g class="root"><g class="clusters"/><g class="edgePaths"><path d="M281.911,137.904L256.009,147.92C230.107,157.936,178.304,177.968,152.402,192.151C126.5,206.333,126.5,214.667,126.5,218.833L126.5,223" id="id_Algebraic_StrImpl_1" class="edge-thickness-normal edge-pattern-dashed relation" style=";;;" data-edge="true" data-et="edge" data-id="id_Algebraic_StrImpl_1" data-points="W3sieCI6Mjk4LCJ5IjoxMzEuNjgyNTUzOTU2ODM0NTR9LHsieCI6MTI2LjUsInkiOjE5OH0seyJ4IjoxMjYuNSwieSI6MjIzfV0=" marker-start="url(#my-svg_class-extensionStart)"/><path d="M404.5,190.25L404.5,191.542C404.5,192.833,404.5,195.417,404.5,202.208C404.5,209,404.5,220,404.5,225.5L404.5,231" id="id_Algebraic_U64Impl_2" class="edge-thickness-normal edge-pattern-dashed relation" style=";;;" data-edge="true" data-et="edge" data-id="id_Algebraic_U64Impl_2" data-points="W3sieCI6NDA0LjUsInkiOjE3M30seyJ4Ijo0MDQuNSwieSI6MTk4fSx7IngiOjQwNC41LCJ5IjoyMzF9XQ==" marker-start="url(#my-svg_class-extensionStart)"/><path d="M527.111,137.406L553.509,147.505C579.908,157.604,632.704,177.802,659.102,192.068C685.5,206.333,685.5,214.667,685.5,218.833L685.5,223" id="id_Algebraic_UsizeImpl_3" class="edge-thickness-normal edge-pattern-dashed relation" style=";;;" data-edge="true" data-et="edge" data-id="id_Algebraic_UsizeImpl_3" data-points="W3sieCI6NTExLCJ5IjoxMzEuMjQyODgyNTYyMjc3NTd9LHsieCI6Njg1LjUsInkiOjE5OH0seyJ4Ijo2ODUuNSwieSI6MjIzfV0=" marker-start="url(#my-svg_class-extensionStart)"/><path d="M986,166.25L986,171.542C986,176.833,986,187.417,986,198.208C986,209,986,220,986,225.5L986,231" id="id_PrintAsBoard_U64BoardImpl_4" class="edge-thickness-normal edge-pattern-dashed relation" style=";;;" data-edge="true" data-et="edge" data-id="id_PrintAsBoard_U64BoardImpl_4" data-points="W3sieCI6OTg2LCJ5IjoxNDl9LHsieCI6OTg2LCJ5IjoxOTh9LHsieCI6OTg2LCJ5IjoyMzF9XQ==" marker-start="url(#my-svg_class-extensionStart)"/></g><g class="edgeLabels"><g><rect class="background" style="stroke: none"/></g><g><rect class="background" style="stroke: none"/></g><g><rect class="background" style="stroke: none"/></g><g><rect class="background" style="stroke: none"/></g><g class="edgeLabel"><g class="label" data-id="id_Algebraic_StrImpl_1" transform="translate(0, 0)"><text y="-10.1"><tspan class="text-outer-tspan" x="0" y="-0.1em" dy="1.1em"/></text></g></g><g class="edgeLabel"><g class="label" data-id="id_Algebraic_U64Impl_2" transform="translate(0, 0)"><text y="-10.1"><tspan class="text-outer-tspan" x="0" y="-0.1em" dy="1.1em"/></text></g></g><g class="edgeLabel"><g class="label" data-id="id_Algebraic_UsizeImpl_3" transform="translate(0, 0)"><text y="-10.1"><tspan class="text-outer-tspan" x="0" y="-0.1em" dy="1.1em"/></text></g></g><g class="edgeLabel"><g class="label" data-id="id_PrintAsBoard_U64BoardImpl_4" transform="translate(0, 0)"><text y="-10.1"><tspan class="text-outer-tspan" x="0" y="-0.1em" dy="1.1em"/></text></g></g></g><g class="nodes"><g class="node default" id="classId-Algebraic-0" transform="translate(404.5, 90.5)"><g class="basic label-container"><path d="M-106.5 -82.5 L106.5 -82.5 L106.5 82.5 L-106.5 82.5" stroke="none" stroke-width="0" fill="#fff4dd" style=""/><path d="M-106.5 -82.5 C-58.267163732696034 -82.5, -10.034327465392067 -82.5, 106.5 -82.5 M-106.5 -82.5 C-37.43588382287054 -82.5, 31.628232354258927 -82.5, 106.5 -82.5 M106.5 -82.5 C106.5 -40.59801638444891, 106.5 1.3039672311021775, 106.5 82.5 M106.5 -82.5 C106.5 -20.133056389299902, 106.5 42.233887221400195, 106.5 82.5 M106.5 82.5 C59.812678957658136 82.5, 13.125357915316272 82.5, -106.5 82.5 M106.5 82.5 C21.966593284614973 82.5, -62.566813430770054 82.5, -106.5 82.5 M-106.5 82.5 C-106.5 28.809114621254288, -106.5 -24.881770757491424, -106.5 -82.5 M-106.5 82.5 C-106.5 36.5751748932455, -106.5 -9.349650213508994, -106.5 -82.5" stroke="hsl(40.5882352941, 60%, 83.3333333333%)" stroke-width="1.3" fill="none" stroke-dasharray="0 0" style=""/></g><g class="annotation-group text" transform="translate(-21, -62.5)"><g class="label" style="" transform="translate(0,-6.5)"><g><rect class="background" style="stroke: none"/><text y="-10.1" style=""><tspan class="text-outer-tspan" x="0" y="-0.1em" dy="1.1em"><tspan font-style="normal" class="text-inner-tspan" font-weight="normal">«trait»</tspan></tspan></text></g></g></g><g class="label-group text" transform="translate(-27, -49.5)"><g class="label" style="font-weight: bolder" transform="translate(0,-6.5)"><g><rect class="background" style="stroke: none"/><text y="-10.1" style=""><tspan class="text-outer-tspan" x="0" y="-0.1em" dy="1.1em" font-weight=""><tspan font-style="normal" class="text-inner-tspan" font-weight="">Algebraic</tspan></tspan></text></g></g></g><g class="members-group text" transform="translate(-94.5, -12.5)"/><g class="methods-group text" transform="translate(-94.5, 17.5)"><g class="label" style="" transform="translate(0,-6.5)"><g><rect class="background" style="stroke: none"/><text y="-10.1" style=""><tspan class="text-outer-tspan" x="0" y="-0.1em" dy="1.1em"><tspan font-style="normal" class="text-inner-tspan" font-weight="normal">+place()</tspan><tspan font-style="normal" class="text-inner-tspan" font-weight="normal"> :</tspan><tspan font-style="normal" class="text-inner-tspan" font-weight="normal"> u64</tspan></tspan></text></g></g><g class="label" style="" transform="translate(0,9.5)"><g><rect class="background" style="stroke: none"/><text y="-10.1" style=""><tspan class="text-outer-tspan" x="0" y="-0.1em" dy="1.1em"><tspan font-style="normal" class="text-inner-tspan" font-weight="normal">+idx()</tspan><tspan font-style="normal" class="text-inner-tspan" font-weight="normal"> :</tspan><tspan font-style="normal" class="text-inner-tspan" font-weight="normal"> usize</tspan></tspan></text></g></g><g class="label" style="" transform="translate(0,25.5)"><g><rect class="background" style="stroke: none"/><text y="-10.1" style=""><tspan class="text-outer-tspan" x="0" y="-0.1em" dy="1.1em"><tspan font-style="normal" class="text-inner-tspan" font-weight="normal">+notation()</tspan><tspan font-style="normal" class="text-inner-tspan" font-weight="normal"> :</tspan><tspan font-style="normal" class="text-inner-tspan" font-weight="normal"> String</tspan></tspan></text></g></g><g class="label" style="" transform="translate(0,41.5)"><g><rect class="background" style="stroke: none"/><text y="-10.1" style=""><tspan class="text-outer-tspan" x="0" y="-0.1em" dy="1.1em"><tspan font-style="normal" class="text-inner-tspan" font-weight="normal">+single_notation()</tspan><tspan font-style="normal" class="text-inner-tspan" font-weight="normal"> :</tspan><tspan font-style="normal" class="text-inner-tspan" font-weight="normal"> String</tspan></tspan></text></g></g></g><g class="divider" style=""><path d="M-106.5 -32.5 C-27.922636983472188 -32.5, 50.654726033055624 -32.5, 106.5 -32.5 M-106.5 -32.5 C-50.09098051257573 -32.5, 6.318038974848534 -32.5, 106.5 -32.5" stroke="hsl(40.5882352941, 60%, 83.3333333333%)" stroke-width="1.3" fill="none" stroke-dasharray="0 0" style=""/></g><g class="divider" style=""><path d="M-106.5 -8.5 C-40.31420864004049 -8.5, 25.87158271991902 -8.5, 106.5 -8.5 M-106.5 -8.5 C-58.697404769780775 -8.5, -10.89480953956155 -8.5, 106.5 -8.5" stroke="hsl(40.5882352941, 60%, 83.3333333333%)" stroke-width="1.3" fill="none" stroke-dasharray="0 0" style=""/></g></g><g class="node default" id="classId-StrImpl-1" transform="translate(126.5, 283)"><g class="basic label-container"><path d="M-118.5 -60 L118.5 -60 L118.5 60 L-118.5 60" stroke="none" stroke-width="0" fill="#fff4dd" style=""/><path d="M-118.5 -60 C-43.36763732136356 -60, 31.76472535727288 -60, 118.5 -60 M-118.5 -60 C-65.47205487472289 -60, -12.444109749445786 -60, 118.5 -60 M118.5 -60 C118.5 -30.399799383252745, 118.5 -0.7995987665054898, 118.5 60 M118.5 -60 C118.5 -24.271829640867132, 118.5 11.456340718265736, 118.5 60 M118.5 60 C62.64914473633436 60, 6.7982894726687135 60, -118.5 60 M118.5 60 C70.3538178093616 60, 22.207635618723202 60, -118.5 60 M-118.5 60 C-118.5 24.891565478944507, -118.5 -10.216869042110986, -118.5 -60 M-118.5 60 C-118.5 25.11011009209887, -118.5 -9.779779815802257, -118.5 -60" stroke="hsl(40.5882352941, 60%, 83.3333333333%)" stroke-width="1.3" fill="none" stroke-dasharray="0 0" style=""/></g><g class="annotation-group text" transform="translate(0, -40)"/><g class="label-group text" transform="translate(-21, -40)"><g class="label" style="font-weight: bolder" transform="translate(0,-6.5)"><g><rect class="background" style="stroke: none"/><text y="-10.1" style=""><tspan class="text-outer-tspan" x="0" y="-0.1em" dy="1.1em" font-weight=""><tspan font-style="normal" class="text-inner-tspan" font-weight="">StrImpl</tspan></tspan></text></g></g></g><g class="members-group text" transform="translate(-106.5, -3)"/><g class="methods-group text" transform="translate(-106.5, 27)"><g class="label" style="" transform="translate(0,-6.5)"><g><rect class="background" style="stroke: none"/><text y="-10.1" style=""><tspan class="text-outer-tspan" x="0" y="-0.1em" dy="1.1em"><tspan font-style="normal" class="text-inner-tspan" font-weight="normal">+place()</tspan><tspan font-style="normal" class="text-inner-tspan" font-weight="normal"> :</tspan><tspan font-style="normal" class="text-inner-tspan" font-weight="normal"> :</tspan><tspan font-style="normal" class="text-inner-tspan" font-weight="normal"> parse</tspan><tspan font-style="normal" class="text-inner-tspan" font-weight="normal"> sq</tspan><tspan font-style="normal" class="text-inner-tspan" font-weight="normal"> list</tspan><tspan font-style="normal" class="text-inner-tspan" font-weight="normal"> to</tspan><tspan font-style="normal" class="text-inner-tspan" font-weight="normal"> bb</tspan></tspan></text></g></g><g class="label" style="" transform="translate(0,9.5)"><g><rect class="background" style="stroke: none"/><text y="-10.1" style=""><tspan class="text-outer-tspan" x="0" y="-0.1em" dy="1.1em"><tspan font-style="normal" class="text-inner-tspan" font-weight="normal">+idx()</tspan><tspan font-style="normal" class="text-inner-tspan" font-weight="normal"> :</tspan><tspan font-style="normal" class="text-inner-tspan" font-weight="normal"> :</tspan><tspan font-style="normal" class="text-inner-tspan" font-weight="normal"> square</tspan><tspan font-style="normal" class="text-inner-tspan" font-weight="normal"> to</tspan><tspan font-style="normal" class="text-inner-tspan" font-weight="normal"> 0..63</tspan></tspan></text></g></g></g><g class="divider" style=""><path d="M-118.5 -23 C-34.51230261238719 -23, 49.475394775225624 -23, 118.5 -23 M-118.5 -23 C-37.6958983589345 -23, 43.108203282131 -23, 118.5 -23" stroke="hsl(40.5882352941, 60%, 83.3333333333%)" stroke-width="1.3" fill="none" stroke-dasharray="0 0" style=""/></g><g class="divider" style=""><path d="M-118.5 1 C-39.80436095379291 1, 38.89127809241418 1, 118.5 1 M-118.5 1 C-61.26982982588698 1, -4.03965965177396 1, 118.5 1" stroke="hsl(40.5882352941, 60%, 83.3333333333%)" stroke-width="1.3" fill="none" stroke-dasharray="0 0" style=""/></g></g><g class="node default" id="classId-U64Impl-2" transform="translate(404.5, 283)"><g class="basic label-container"><path d="M-109.5 -52 L109.5 -52 L109.5 52 L-109.5 52" stroke="none" stroke-width="0" fill="#fff4dd" style=""/><path d="M-109.5 -52 C-60.59947430359048 -52, -11.698948607180967 -52, 109.5 -52 M-109.5 -52 C-33.41925349072527 -52, 42.661493018549464 -52, 109.5 -52 M109.5 -52 C109.5 -18.91720976792638, 109.5 14.16558046414724, 109.5 52 M109.5 -52 C109.5 -30.838158026153096, 109.5 -9.676316052306191, 109.5 52 M109.5 52 C61.04965994242062 52, 12.599319884841236 52, -109.5 52 M109.5 52 C36.70389258813965 52, -36.092214823720695 52, -109.5 52 M-109.5 52 C-109.5 12.09034022696715, -109.5 -27.8193195460657, -109.5 -52 M-109.5 52 C-109.5 30.924838145304346, -109.5 9.849676290608691, -109.5 -52" stroke="hsl(40.5882352941, 60%, 83.3333333333%)" stroke-width="1.3" fill="none" stroke-dasharray="0 0" style=""/></g><g class="annotation-group text" transform="translate(0, -32)"/><g class="label-group text" transform="translate(-21, -32)"><g class="label" style="font-weight: bolder" transform="translate(0,-6.5)"><g><rect class="background" style="stroke: none"/><text y="-10.1" style=""><tspan class="text-outer-tspan" x="0" y="-0.1em" dy="1.1em" font-weight=""><tspan font-style="normal" class="text-inner-tspan" font-weight="">U64Impl</tspan></tspan></text></g></g></g><g class="members-group text" transform="translate(-97.5, 5)"/><g class="methods-group text" transform="translate(-97.5, 35)"><g class="label" style="" transform="translate(0,-6.5)"><g><rect class="background" style="stroke: none"/><text y="-10.1" style=""><tspan class="text-outer-tspan" x="0" y="-0.1em" dy="1.1em"><tspan font-style="normal" class="text-inner-tspan" font-weight="normal">+notation()</tspan><tspan font-style="normal" class="text-inner-tspan" font-weight="normal"> :</tspan><tspan font-style="normal" class="text-inner-tspan" font-weight="normal"> :</tspan><tspan font-style="normal" class="text-inner-tspan" font-weight="normal"> bb</tspan><tspan font-style="normal" class="text-inner-tspan" font-weight="normal"> to</tspan><tspan font-style="normal" class="text-inner-tspan" font-weight="normal"> sq</tspan><tspan font-style="normal" class="text-inner-tspan" font-weight="normal"> list</tspan></tspan></text></g></g></g><g class="divider" style=""><path d="M-109.5 -15 C-42.99701313898882 -15, 23.50597372202236 -15, 109.5 -15 M-109.5 -15 C-22.84920934545869 -15, 63.80158130908262 -15, 109.5 -15" stroke="hsl(40.5882352941, 60%, 83.3333333333%)" stroke-width="1.3" fill="none" stroke-dasharray="0 0" style=""/></g><g class="divider" style=""><path d="M-109.5 9 C-34.301583577226296 9, 40.89683284554741 9, 109.5 9 M-109.5 9 C-38.88576391994019 9, 31.728472160119622 9, 109.5 9" stroke="hsl(40.5882352941, 60%, 83.3333333333%)" stroke-width="1.3" fill="none" stroke-dasharray="0 0" style=""/></g></g><g class="node default" id="classId-UsizeImpl-3" transform="translate(685.5, 283)"><g class="basic label-container"><path d="M-121.5 -60 L121.5 -60 L121.5 60 L-121.5 60" stroke="none" stroke-width="0" fill="#fff4dd" style=""/><path d="M-121.5 -60 C-44.18635330255627 -60, 33.12729339488746 -60, 121.5 -60 M-121.5 -60 C-35.958829887378855 -60, 49.58234022524229 -60, 121.5 -60 M121.5 -60 C121.5 -20.73345403649239, 121.5 18.53309192701522, 121.5 60 M121.5 -60 C121.5 -19.12039483831183, 121.5 21.759210323376337, 121.5 60 M121.5 60 C60.81665591599307 60, 0.13331183198613417 60, -121.5 60 M121.5 60 C47.95209003474744 60, -25.595819930505115 60, -121.5 60 M-121.5 60 C-121.5 23.010400472325188, -121.5 -13.979199055349625, -121.5 -60 M-121.5 60 C-121.5 26.145715225710127, -121.5 -7.708569548579746, -121.5 -60" stroke="hsl(40.5882352941, 60%, 83.3333333333%)" stroke-width="1.3" fill="none" stroke-dasharray="0 0" style=""/></g><g class="annotation-group text" transform="translate(0, -40)"/><g class="label-group text" transform="translate(-27, -40)"><g class="label" style="font-weight: bolder" transform="translate(0,-6.5)"><g><rect class="background" style="stroke: none"/><text y="-10.1" style=""><tspan class="text-outer-tspan" x="0" y="-0.1em" dy="1.1em" font-weight=""><tspan font-style="normal" class="text-inner-tspan" font-weight="">UsizeImpl</tspan></tspan></text></g></g></g><g class="members-group text" transform="translate(-109.5, -3)"/><g class="methods-group text" transform="translate(-109.5, 27)"><g class="label" style="" transform="translate(0,-6.5)"><g><rect class="background" style="stroke: none"/><text y="-10.1" style=""><tspan class="text-outer-tspan" x="0" y="-0.1em" dy="1.1em"><tspan font-style="normal" class="text-inner-tspan" font-weight="normal">+notation()</tspan><tspan font-style="normal" class="text-inner-tspan" font-weight="normal"> :</tspan><tspan font-style="normal" class="text-inner-tspan" font-weight="normal"> :</tspan><tspan font-style="normal" class="text-inner-tspan" font-weight="normal"> idx</tspan><tspan font-style="normal" class="text-inner-tspan" font-weight="normal"> bits</tspan><tspan font-style="normal" class="text-inner-tspan" font-weight="normal"> to</tspan><tspan font-style="normal" class="text-inner-tspan" font-weight="normal"> alg</tspan></tspan></text></g></g><g class="label" style="" transform="translate(0,9.5)"><g><rect class="background" style="stroke: none"/><text y="-10.1" style=""><tspan class="text-outer-tspan" x="0" y="-0.1em" dy="1.1em"><tspan font-style="normal" class="text-inner-tspan" font-weight="normal">+single_notation()</tspan><tspan font-style="normal" class="text-inner-tspan" font-weight="normal"> :</tspan><tspan font-style="normal" class="text-inner-tspan" font-weight="normal"> :</tspan><tspan font-style="normal" class="text-inner-tspan" font-weight="normal"> idx</tspan><tspan font-style="normal" class="text-inner-tspan" font-weight="normal"> to</tspan><tspan font-style="normal" class="text-inner-tspan" font-weight="normal"> sq</tspan></tspan></text></g></g></g><g class="divider" style=""><path d="M-121.5 -23 C-39.833501225609595 -23, 41.83299754878081 -23, 121.5 -23 M-121.5 -23 C-62.2692819978849 -23, -3.038563995769806 -23, 121.5 -23" stroke="hsl(40.5882352941, 60%, 83.3333333333%)" stroke-width="1.3" fill="none" stroke-dasharray="0 0" style=""/></g><g class="divider" style=""><path d="M-121.5 1 C-58.878562813186335 1, 3.7428743736273304 1, 121.5 1 M-121.5 1 C-51.096744556910025 1, 19.30651088617995 1, 121.5 1" stroke="hsl(40.5882352941, 60%, 83.3333333333%)" stroke-width="1.3" fill="none" stroke-dasharray="0 0" style=""/></g></g><g class="node default" id="classId-PrintAsBoard-4" transform="translate(986, 90.5)"><g class="basic label-container"><path d="M-54 -58.5 L54 -58.5 L54 58.5 L-54 58.5" stroke="none" stroke-width="0" fill="#fff4dd" style=""/><path d="M-54 -58.5 C-11.970510714351704 -58.5, 30.058978571296592 -58.5, 54 -58.5 M-54 -58.5 C-22.59303677001939 -58.5, 8.813926459961223 -58.5, 54 -58.5 M54 -58.5 C54 -32.2875325125399, 54 -6.0750650250797875, 54 58.5 M54 -58.5 C54 -18.199977908739683, 54 22.100044182520634, 54 58.5 M54 58.5 C26.20925517209273 58.5, -1.5814896558145435 58.5, -54 58.5 M54 58.5 C12.382015254742932 58.5, -29.235969490514137 58.5, -54 58.5 M-54 58.5 C-54 12.451152040354607, -54 -33.597695919290786, -54 -58.5 M-54 58.5 C-54 30.571929269309567, -54 2.643858538619135, -54 -58.5" stroke="hsl(40.5882352941, 60%, 83.3333333333%)" stroke-width="1.3" fill="none" stroke-dasharray="0 0" style=""/></g><g class="annotation-group text" transform="translate(-21, -38.5)"><g class="label" style="" transform="translate(0,-6.5)"><g><rect class="background" style="stroke: none"/><text y="-10.1" style=""><tspan class="text-outer-tspan" x="0" y="-0.1em" dy="1.1em"><tspan font-style="normal" class="text-inner-tspan" font-weight="normal">«trait»</tspan></tspan></text></g></g></g><g class="label-group text" transform="translate(-36, -25.5)"><g class="label" style="font-weight: bolder" transform="translate(0,-6.5)"><g><rect class="background" style="stroke: none"/><text y="-10.1" style=""><tspan class="text-outer-tspan" x="0" y="-0.1em" dy="1.1em" font-weight=""><tspan font-style="normal" class="text-inner-tspan" font-weight="">PrintAsBoard</tspan></tspan></text></g></g></g><g class="members-group text" transform="translate(-42, 11.5)"/><g class="methods-group text" transform="translate(-42, 41.5)"><g class="label" style="" transform="translate(0,-6.5)"><g><rect class="background" style="stroke: none"/><text y="-10.1" style=""><tspan class="text-outer-tspan" x="0" y="-0.1em" dy="1.1em"><tspan font-style="normal" class="text-inner-tspan" font-weight="normal">+print()</tspan></tspan></text></g></g></g><g class="divider" style=""><path d="M-54 -8.5 C-12.798386502567595 -8.5, 28.40322699486481 -8.5, 54 -8.5 M-54 -8.5 C-29.886721215320463 -8.5, -5.773442430640927 -8.5, 54 -8.5" stroke="hsl(40.5882352941, 60%, 83.3333333333%)" stroke-width="1.3" fill="none" stroke-dasharray="0 0" style=""/></g><g class="divider" style=""><path d="M-54 15.5 C-23.359046747095658 15.5, 7.281906505808685 15.5, 54 15.5 M-54 15.5 C-18.903310263102057 15.5, 16.193379473795886 15.5, 54 15.5" stroke="hsl(40.5882352941, 60%, 83.3333333333%)" stroke-width="1.3" fill="none" stroke-dasharray="0 0" style=""/></g></g><g class="node default" id="classId-U64BoardImpl-5" transform="translate(986, 283)"><g class="basic label-container"><path d="M-129 -52 L129 -52 L129 52 L-129 52" stroke="none" stroke-width="0" fill="#fff4dd" style=""/><path d="M-129 -52 C-34.858787413029845 -52, 59.28242517394031 -52, 129 -52 M-129 -52 C-51.722326963001336 -52, 25.555346073997327 -52, 129 -52 M129 -52 C129 -16.64278014642244, 129 18.714439707155123, 129 52 M129 -52 C129 -23.101858025035035, 129 5.796283949929929, 129 52 M129 52 C42.49213562834875 52, -44.0157287433025 52, -129 52 M129 52 C38.76338679455145 52, -51.4732264108971 52, -129 52 M-129 52 C-129 13.197984577147494, -129 -25.60403084570501, -129 -52 M-129 52 C-129 16.362982219686153, -129 -19.274035560627695, -129 -52" stroke="hsl(40.5882352941, 60%, 83.3333333333%)" stroke-width="1.3" fill="none" stroke-dasharray="0 0" style=""/></g><g class="annotation-group text" transform="translate(0, -32)"/><g class="label-group text" transform="translate(-36, -32)"><g class="label" style="font-weight: bolder" transform="translate(0,-6.5)"><g><rect class="background" style="stroke: none"/><text y="-10.1" style=""><tspan class="text-outer-tspan" x="0" y="-0.1em" dy="1.1em" font-weight=""><tspan font-style="normal" class="text-inner-tspan" font-weight="">U64BoardImpl</tspan></tspan></text></g></g></g><g class="members-group text" transform="translate(-117, 5)"/><g class="methods-group text" transform="translate(-117, 35)"><g class="label" style="" transform="translate(0,-6.5)"><g><rect class="background" style="stroke: none"/><text y="-10.1" style=""><tspan class="text-outer-tspan" x="0" y="-0.1em" dy="1.1em"><tspan font-style="normal" class="text-inner-tspan" font-weight="normal">+print()</tspan><tspan font-style="normal" class="text-inner-tspan" font-weight="normal"> :</tspan><tspan font-style="normal" class="text-inner-tspan" font-weight="normal"> :</tspan><tspan font-style="normal" class="text-inner-tspan" font-weight="normal"> board</tspan><tspan font-style="normal" class="text-inner-tspan" font-weight="normal"> with</tspan><tspan font-style="normal" class="text-inner-tspan" font-weight="normal"> X</tspan><tspan font-style="normal" class="text-inner-tspan" font-weight="normal"> and</tspan><tspan font-style="normal" class="text-inner-tspan" font-weight="normal"> dot</tspan></tspan></text></g></g></g><g class="divider" style=""><path d="M-129 -15 C-65.19897029730723 -15, -1.3979405946144539 -15, 129 -15 M-129 -15 C-30.654852787717218 -15, 67.69029442456556 -15, 129 -15" stroke="hsl(40.5882352941, 60%, 83.3333333333%)" stroke-width="1.3" fill="none" stroke-dasharray="0 0" style=""/></g><g class="divider" style=""><path d="M-129 9 C-64.58154157235238 9, -0.16308314470475693 9, 129 9 M-129 9 C-27.352266395501942 9, 74.29546720899612 9, 129 9" stroke="hsl(40.5882352941, 60%, 83.3333333333%)" stroke-width="1.3" fill="none" stroke-dasharray="0 0" style=""/></g></g></g></g></g></svg>