<svg id="my-svg" width="100%" xmlns="http://www.w3.org/2000/svg" xmlns:xlink="http://www.w3.org/1999/xlink" class="classDiagram" style="max-width: 877px; background-color: white;" viewBox="0 0 877 832" role="graphics-document document" aria-roledescription="class"><style>#my-svg{font-family:JetBrains Mono;font-size:10px;fill:#333;}@keyframes edge-animation-frame{from{stroke-dashoffset:0;}}@keyframes dash{to{stroke-dashoffset:0;}}#my-svg .edge-animation-slow{stroke-dasharray:9,5!important;stroke-dashoffset:900;animation:dash 50s linear infinite;stroke-linecap:round;}#my-svg .edge-animation-fast{stroke-dasharray:9,5!important;stroke-dashoffset:900;animation:dash 20s linear infinite;stroke-linecap:round;}#my-svg .error-icon{fill:hsl(220.5882352941, 100%, 98.3333333333%);}#my-svg .error-text{fill:rgb(8.5000000002, 5.7500000001, 0);stroke:rgb(8.5000000002, 5.7500000001, 0);}#my-svg .edge-thickness-normal{stroke-width:1px;}#my-svg .edge-thickness-thick{stroke-width:3.5px;}#my-svg .edge-pattern-solid{stroke-dasharray:0;}#my-svg .edge-thickness-invisible{stroke-width:0;fill:none;}#my-svg .edge-pattern-dashed{stroke-dasharray:3;}#my-svg .edge-pattern-dotted{stroke-dasharray:2;}#my-svg .marker{fill:#0b0b0b;stroke:#0b0b0b;}#my-svg .marker.cross{stroke:#0b0b0b;}#my-svg svg{font-family:JetBrains Mono;font-size:10px;}#my-svg p{margin:0;}#my-svg g.classGroup text{fill:hsl(40.5882352941, 60%, 83.3333333333%);stroke:none;font-family:JetBrains Mono;font-size:10px;}#my-svg g.classGroup text .title{font-weight:bolder;}#my-svg .nodeLabel,#my-svg .edgeLabel{color:#333;}#my-svg .edgeLabel .label rect{fill:#fff4dd;}#my-svg .label text{fill:#333;}#my-svg .labelBkg{background:#fff4dd;}#my-svg .edgeLabel .label span{background:#fff4dd;}#my-svg .classTitle{font-weight:bolder;}#my-svg .node rect,#my-svg .node circle,#my-svg .node ellipse,#my-svg .node polygon,#my-svg .node path{fill:#fff4dd;stroke:hsl(40.5882352941, 60%, 83.3333333333%);stroke-width:1px;}#my-svg .divider{stroke:hsl(40.5882352941, 60%, 83.3333333333%);stroke-width:1;}#my-svg g.clickable{cursor:pointer;}#my-svg g.classGroup rect{fill:#fff4dd;stroke:hsl(40.5882352941, 60%, 83.3333333333%);}#my-svg g.classGroup line{stroke:hsl(40.5882352941, 60%, 83.3333333333%);stroke-width:1;}#my-svg .classLabel .box{stroke:none;stroke-width:0;fill:#fff4dd;opacity:0.5;}#my-svg .classLabel .label{fill:hsl(40.5882352941, 60%, 83.3333333333%);font-size:10px;}#my-svg .relation{stroke:#0b0b0b;stroke-width:1;fill:none;}#my-svg .dashed-line{stroke-dasharray:3;}#my-svg .dotted-line{stroke-dasharray:1 2;}#my-svg #compositionStart,#my-svg .composition{fill:#0b0b0b!important;stroke:#0b0b0b!important;stroke-width:1;}#my-svg #compositionEnd,#my-svg .composition{fill:#0b0b0b!important;stroke:#0b0b0b!important;stroke-width:1;}#my-svg #dependencyStart,#my-svg .dependency{fill:#0b0b0b!important;stroke:#0b0b0b!important;stroke-width:1;}#my-svg #dependencyStart,#my-svg .dependency{fill:#0b0b0b!important;stroke:#0b0b0b!important;stroke-width:1;}#my-svg #extensionStart,#my-svg .extension{fill:transparent!important;stroke:#0b0b0b!important;stroke-width:1;}#my-svg #extensionEnd,#my-svg .extension{fill:transparent!important;stroke:#0b0b0b!important;stroke-width:1;}#my-svg #aggregationStart,#my-svg .aggregation{fill:transparent!important;stroke:#0b0b0b!important;stroke-width:1;}#my-svg #aggregationEnd,#my-svg .aggregation{fill:transparent!important;stroke:#0b0b0b!important;stroke-width:1;}#my-svg #lollipopStart,#my-svg .lollipop{fill:#fff4dd!important;stroke:#0b0b0b!important;stroke-width:1;}#my-svg #lollipopEnd,#my-svg .lollipop{fill:#fff4dd!important;stroke:#0b0b0b!important;stroke-width:1;}#my-svg .edgeTerminals{font-size:11px;line-height:initial;}#my-svg .classTitleText{text-anchor:middle;font-size:18px;fill:#333;}#my-svg .label-icon{display:inline-block;height:1em;overflow:visible;vertical-align:-0.125em;}#my-svg .node .label-icon path{fill:currentColor;stroke:revert;stroke-width:revert;}#my-svg :root{--mermaid-font-family:"trebuchet ms",verdana,arial,sans-serif;}</style><g><defs><marker id="my-svg_class-aggregationStart" class="marker aggregation class" refX="18" refY="7" markerWidth="190" markerHeight="240" orient="auto"><path d="M 18,7 L9,13 L1,7 L9,1 Z"/></marker></defs><defs><marker id="my-svg_class-aggregationEnd" class="marker aggregation class" refX="1" refY="7" markerWidth="20" markerHeight="28" orient="auto"><path d="M 18,7 L9,13 L1,7 L9,1 Z"/></marker></defs><defs><marker id="my-svg_class-extensionStart" class="marker extension class" refX="18" refY="7" markerWidth="190" markerHeight="240" orient="auto"><path d="M 1,7 L18,13 V 1 Z"/></marker></defs><defs><marker id="my-svg_class-extensionEnd" class="marker extension class" refX="1" refY="7" markerWidth="20" markerHeight="28" orient="auto"><path d="M 1,1 V 13 L18,7 Z"/></marker></defs><defs><marker id="my-svg_class-compositionStart" class="marker composition class" refX="18" refY="7" markerWidth="190" markerHeight="240" orient="auto"><path d="M 18,7 L9,13 L1,7 L9,1 Z"/></marker></defs><defs><marker id="my-svg_class-compositionEnd" class="marker composition class" refX="1" refY="7" markerWidth="20" markerHeight="28" orient="auto"><path d="M 18,7 L9,13 L1,7 L9,1 Z"/></marker></defs><defs><marker id="my-svg_class-dependencyStart" class="marker dependency class" refX="6" refY="7" markerWidth="190" markerHeight="240" orient="auto"><path d="M 5,7 L9,13 L1,7 L9,1 Z"/></marker></defs><defs><marker id="my-svg_class-dependencyEnd" class="marker dependency class" refX="13" refY="7" markerWidth="20" markerHeight="28" orient="auto"><path d="M 18,7 L9,13 L14,7 L9,1 Z"/></marker></defs><defs><marker id="my-svg_class-lollipopStart" class="marker lollipop class" refX="13" refY="7" markerWidth="190" markerHeight="240" orient="auto"><circle stroke="black" fill="transparent" cx="7" cy="7" r="6"/></marker></defs><defs><marker id="my-svg_class-lollipopEnd" class="marker lollipop class" refX="1" refY="7" markerWidth="190" markerHeight="240" orient="auto"><circle stroke="black" fill="transparent" cx="7" cy="7" r="6"/></marker></defs><g class="root"><g class="clusters"/><g class="edgePaths"><path d="M380.77,160L385.267,164.167C389.763,168.333,398.757,176.667,403.253,188.833C407.75,201,407.75,217,407.75,225L407.75,233" id="id_SearchAPI_Parallel_1" class="edge-thickness-normal edge-pattern-solid relation" style=";;;" data-edge="true" data-et="edge" data-id="id_SearchAPI_Parallel_1" data-points="W3sieCI6MzgwLjc2OTgwMTk4MDE5ODA1LCJ5IjoxNjB9LHsieCI6NDA3Ljc1LCJ5IjoxODV9LHsieCI6NDA3Ljc1LCJ5IjoyMzl9XQ==" marker-end="url(#my-svg_class-dependencyEnd)"/><path d="M407.75,359L407.75,368C407.75,377,407.75,395,407.75,407.167C407.75,419.333,407.75,425.667,407.75,428.833L407.75,432" id="id_Parallel_AlphaBeta_2" class="edge-thickness-normal edge-pattern-solid relation" style=";;;" data-edge="true" data-et="edge" data-id="id_Parallel_AlphaBeta_2" data-points="W3sieCI6NDA3Ljc1LCJ5IjozNTl9LHsieCI6NDA3Ljc1LCJ5Ijo0MTN9LHsieCI6NDA3Ljc1LCJ5Ijo0Mzh9XQ==" marker-end="url(#my-svg_class-dependencyEnd)"/><path d="M331.25,538.126L290.625,550.939C250,563.751,168.75,589.375,128.125,612.021C87.5,634.667,87.5,654.333,87.5,664.167L87.5,674" id="id_AlphaBeta_QSearch_3" class="edge-thickness-normal edge-pattern-solid relation" style=";;;" data-edge="true" data-et="edge" data-id="id_AlphaBeta_QSearch_3" data-points="W3sieCI6MzMxLjI1LCJ5Ijo1MzguMTI2NDYzNzAwMjM0Mn0seyJ4Ijo4Ny41LCJ5Ijo2MTV9LHsieCI6ODcuNSwieSI6NjgwfV0=" marker-end="url(#my-svg_class-dependencyEnd)"/><path d="M331.25,586.379L326.208,591.149C321.167,595.92,311.083,605.46,306.042,615.48C301,625.5,301,636,301,641.25L301,646.5" id="id_AlphaBeta_Ordering_4" class="edge-thickness-normal edge-pattern-solid relation" style=";;;" data-edge="true" data-et="edge" data-id="id_AlphaBeta_Ordering_4" data-points="W3sieCI6MzMxLjI1LCJ5Ijo1ODYuMzc5MzkxMTAwNzAyNn0seyJ4IjozMDEsInkiOjYxNX0seyJ4IjozMDEsInkiOjY1Mi41fV0=" marker-end="url(#my-svg_class-dependencyEnd)"/><path d="M484.25,586.379L489.292,591.149C494.333,595.92,504.417,605.46,509.458,613.397C514.5,621.333,514.5,627.667,514.5,630.833L514.5,634" id="id_AlphaBeta_Pruning_5" class="edge-thickness-normal edge-pattern-solid relation" style=";;;" data-edge="true" data-et="edge" data-id="id_AlphaBeta_Pruning_5" data-points="W3sieCI6NDg0LjI1LCJ5Ijo1ODYuMzc5MzkxMTAwNzAyNn0seyJ4Ijo1MTQuNSwieSI6NjE1fSx7IngiOjUxNC41LCJ5Ijo2NDB9XQ==" marker-end="url(#my-svg_class-dependencyEnd)"/><path d="M484.25,536.155L529.625,549.296C575,562.437,665.75,588.718,711.125,607.109C756.5,625.5,756.5,636,756.5,641.25L756.5,646.5" id="id_AlphaBeta_SearchStats_6" class="edge-thickness-normal edge-pattern-solid relation" style=";;;" data-edge="true" data-et="edge" data-id="id_AlphaBeta_SearchStats_6" data-points="W3sieCI6NDg0LjI1LCJ5Ijo1MzYuMTU0ODM4NzA5Njc3NH0seyJ4Ijo3NTYuNSwieSI6NjE1fSx7IngiOjc1Ni41LCJ5Ijo2NTIuNX1d" marker-end="url(#my-svg_class-dependencyEnd)"/><path d="M216.73,160L212.233,164.167C207.737,168.333,198.743,176.667,194.247,184C189.75,191.333,189.75,197.667,189.75,200.833L189.75,204" id="id_SearchAPI_SearchInfo_7" class="edge-thickness-normal edge-pattern-solid relation" style=";;;" data-edge="true" data-et="edge" data-id="id_SearchAPI_SearchInfo_7" data-points="W3sieCI6MjE2LjczMDE5ODAxOTgwMTk3LCJ5IjoxNjB9LHsieCI6MTg5Ljc1LCJ5IjoxODV9LHsieCI6MTg5Ljc1LCJ5IjoyMTB9XQ==" marker-end="url(#my-svg_class-dependencyEnd)"/></g><g class="edgeLabels"><g><rect class="background" style="stroke: none"/></g><g><rect class="background" style="stroke: none"/></g><g><rect class="background" style="stroke: none"/></g><g><rect class="background" style="stroke: none"/></g><g><rect class="background" style="stroke: none"/></g><g><rect class="background" style="stroke: none"/></g><g><rect class="background" style="stroke: none"/></g><g class="edgeLabel"><g class="label" data-id="id_SearchAPI_Parallel_1" transform="translate(0, 0)"><text y="-10.1"><tspan class="text-outer-tspan" x="0" y="-0.1em" dy="1.1em"/></text></g></g><g class="edgeLabel"><g class="label" data-id="id_Parallel_AlphaBeta_2" transform="translate(0, 0)"><text y="-10.1"><tspan class="text-outer-tspan" x="0" y="-0.1em" dy="1.1em"/></text></g></g><g class="edgeLabel"><g class="label" data-id="id_AlphaBeta_QSearch_3" transform="translate(0, 0)"><text y="-10.1"><tspan class="text-outer-tspan" x="0" y="-0.1em" dy="1.1em"/></text></g></g><g class="edgeLabel"><g class="label" data-id="id_AlphaBeta_Ordering_4" transform="translate(0, 0)"><text y="-10.1"><tspan class="text-outer-tspan" x="0" y="-0.1em" dy="1.1em"/></text></g></g><g class="edgeLabel"><g class="label" data-id="id_AlphaBeta_Pruning_5" transform="translate(0, 0)"><text y="-10.1"><tspan class="text-outer-tspan" x="0" y="-0.1em" dy="1.1em"/></text></g></g><g class="edgeLabel"><g class="label" data-id="id_AlphaBeta_SearchStats_6" transform="translate(0, 0)"><text y="-10.1"><tspan class="text-outer-tspan" x="0" y="-0.1em" dy="1.1em"/></text></g></g><g class="edgeLabel"><g class="label" data-id="id_SearchAPI_SearchInfo_7" transform="translate(0, 0)"><text y="-10.1"><tspan class="text-outer-tspan" x="0" y="-0.1em" dy="1.1em"/></text></g></g></g><g class="nodes"><g class="node default" id="classId-SearchStats-0" transform="translate(756.5, 732)"><g class="basic label-container"><path d="M-112.5 -79.5 L112.5 -79.5 L112.5 79.5 L-112.5 79.5" stroke="none" stroke-width="0" fill="#fff4dd" style=""/><path d="M-112.5 -79.5 C-45.180682541156784 -79.5, 22.13863491768643 -79.5, 112.5 -79.5 M-112.5 -79.5 C-46.610477135130395 -79.5, 19.27904572973921 -79.5, 112.5 -79.5 M112.5 -79.5 C112.5 -27.59838092023908, 112.5 24.30323815952184, 112.5 79.5 M112.5 -79.5 C112.5 -37.60919036086273, 112.5 4.281619278274533, 112.5 79.5 M112.5 79.5 C64.9702569818044 79.5, 17.440513963608794 79.5, -112.5 79.5 M112.5 79.5 C37.0176188352052 79.5, -38.464762329589604 79.5, -112.5 79.5 M-112.5 79.5 C-112.5 35.44691122981526, -112.5 -8.606177540369487, -112.5 -79.5 M-112.5 79.5 C-112.5 35.03846805188142, -112.5 -9.423063896237153, -112.5 -79.5" stroke="hsl(40.5882352941, 60%, 83.3333333333%)" stroke-width="1.3" fill="none" stroke-dasharray="0 0" style=""/></g><g class="annotation-group text" transform="translate(0, -59.5)"/><g class="label-group text" transform="translate(-33, -59.5)"><g class="label" style="font-weight: bolder" transform="translate(0,-6.5)"><g><rect class="background" style="stroke: none"/><text y="-10.1" style=""><tspan class="text-outer-tspan" x="0" y="-0.1em" dy="1.1em" font-weight=""><tspan font-style="normal" class="text-inner-tspan" font-weight="">SearchStats</tspan></tspan></text></g></g></g><g class="members-group text" transform="translate(-100.5, -22.5)"><g class="label" style="" transform="translate(0,-6.5)"><g><rect class="background" style="stroke: none"/><text y="-10.1" style=""><tspan class="text-outer-tspan" x="0" y="-0.1em" dy="1.1em"><tspan font-style="normal" class="text-inner-tspan" font-weight="normal">+nodes:</tspan><tspan font-style="normal" class="text-inner-tspan" font-weight="normal"> u64</tspan></tspan></text></g></g><g class="label" style="" transform="translate(0,9.5)"><g><rect class="background" style="stroke: none"/><text y="-10.1" style=""><tspan class="text-outer-tspan" x="0" y="-0.1em" dy="1.1em"><tspan font-style="normal" class="text-inner-tspan" font-weight="normal">+tt_hits:</tspan><tspan font-style="normal" class="text-inner-tspan" font-weight="normal"> u64</tspan></tspan></text></g></g><g class="label" style="" transform="translate(0,25.5)"><g><rect class="background" style="stroke: none"/><text y="-10.1" style=""><tspan class="text-outer-tspan" x="0" y="-0.1em" dy="1.1em"><tspan font-style="normal" class="text-inner-tspan" font-weight="normal">+stop_signal:</tspan><tspan font-style="normal" class="text-inner-tspan" font-weight="normal"> StopSignal</tspan></tspan></text></g></g></g><g class="methods-group text" transform="translate(-100.5, 46.5)"><g class="label" style="" transform="translate(0,-6.5)"><g><rect class="background" style="stroke: none"/><text y="-10.1" style=""><tspan class="text-outer-tspan" x="0" y="-0.1em" dy="1.1em"><tspan font-style="normal" class="text-inner-tspan" font-weight="normal">+new(stop_sig)</tspan><tspan font-style="normal" class="text-inner-tspan" font-weight="normal"> :</tspan><tspan font-style="normal" class="text-inner-tspan" font-weight="normal"> SearchStats</tspan></tspan></text></g></g><g class="label" style="" transform="translate(0,9.5)"><g><rect class="background" style="stroke: none"/><text y="-10.1" style=""><tspan class="text-outer-tspan" x="0" y="-0.1em" dy="1.1em"><tspan font-style="normal" class="text-inner-tspan" font-weight="normal">+should_stop()</tspan><tspan font-style="normal" class="text-inner-tspan" font-weight="normal"> :</tspan><tspan font-style="normal" class="text-inner-tspan" font-weight="normal"> bool</tspan></tspan></text></g></g></g><g class="divider" style=""><path d="M-112.5 -42.5 C-61.07675898769407 -42.5, -9.65351797538814 -42.5, 112.5 -42.5 M-112.5 -42.5 C-23.40163043999371 -42.5, 65.69673912001258 -42.5, 112.5 -42.5" stroke="hsl(40.5882352941, 60%, 83.3333333333%)" stroke-width="1.3" fill="none" stroke-dasharray="0 0" style=""/></g><g class="divider" style=""><path d="M-112.5 26.5 C-45.795777226975744 26.5, 20.90844554604851 26.5, 112.5 26.5 M-112.5 26.5 C-39.66677730783525 26.5, 33.166445384329506 26.5, 112.5 26.5" stroke="hsl(40.5882352941, 60%, 83.3333333333%)" stroke-width="1.3" fill="none" stroke-dasharray="0 0" style=""/></g></g><g class="node default" id="classId-SearchInfo-1" transform="translate(189.75, 299)"><g class="basic label-container"><path d="M-75 -89 L75 -89 L75 89 L-75 89" stroke="none" stroke-width="0" fill="#fff4dd" style=""/><path d="M-75 -89 C-30.06245541706476 -89, 14.875089165870477 -89, 75 -89 M-75 -89 C-33.38503847047759 -89, 8.229923059044822 -89, 75 -89 M75 -89 C75 -38.65465675549775, 75 11.690686489004506, 75 89 M75 -89 C75 -51.58615114724265, 75 -14.172302294485306, 75 89 M75 89 C20.054603822979473 89, -34.890792354041054 89, -75 89 M75 89 C18.89993278354931 89, -37.20013443290138 89, -75 89 M-75 89 C-75 32.60933257753812, -75 -23.781334844923762, -75 -89 M-75 89 C-75 43.34916766417024, -75 -2.3016646716595233, -75 -89" stroke="hsl(40.5882352941, 60%, 83.3333333333%)" stroke-width="1.3" fill="none" stroke-dasharray="0 0" style=""/></g><g class="annotation-group text" transform="translate(0, -69)"/><g class="label-group text" transform="translate(-30, -69)"><g class="label" style="font-weight: bolder" transform="translate(0,-6.5)"><g><rect class="background" style="stroke: none"/><text y="-10.1" style=""><tspan class="text-outer-tspan" x="0" y="-0.1em" dy="1.1em" font-weight=""><tspan font-style="normal" class="text-inner-tspan" font-weight="">SearchInfo</tspan></tspan></text></g></g></g><g class="members-group text" transform="translate(-63, -32)"><g class="label" style="" transform="translate(0,-6.5)"><g><rect class="background" style="stroke: none"/><text y="-10.1" style=""><tspan class="text-outer-tspan" x="0" y="-0.1em" dy="1.1em"><tspan font-style="normal" class="text-inner-tspan" font-weight="normal">+best_move:</tspan><tspan font-style="normal" class="text-inner-tspan" font-weight="normal"> Move</tspan></tspan></text></g></g><g class="label" style="" transform="translate(0,9.5)"><g><rect class="background" style="stroke: none"/><text y="-10.1" style=""><tspan class="text-outer-tspan" x="0" y="-0.1em" dy="1.1em"><tspan font-style="normal" class="text-inner-tspan" font-weight="normal">+score:</tspan><tspan font-style="normal" class="text-inner-tspan" font-weight="normal"> i32</tspan></tspan></text></g></g><g class="label" style="" transform="translate(0,25.5)"><g><rect class="background" style="stroke: none"/><text y="-10.1" style=""><tspan class="text-outer-tspan" x="0" y="-0.1em" dy="1.1em"><tspan font-style="normal" class="text-inner-tspan" font-weight="normal">+depth:</tspan><tspan font-style="normal" class="text-inner-tspan" font-weight="normal"> u8</tspan></tspan></text></g></g><g class="label" style="" transform="translate(0,41.5)"><g><rect class="background" style="stroke: none"/><text y="-10.1" style=""><tspan class="text-outer-tspan" x="0" y="-0.1em" dy="1.1em"><tspan font-style="normal" class="text-inner-tspan" font-weight="normal">+nodes:</tspan><tspan font-style="normal" class="text-inner-tspan" font-weight="normal"> u64</tspan></tspan></text></g></g><g class="label" style="" transform="translate(0,57.5)"><g><rect class="background" style="stroke: none"/><text y="-10.1" style=""><tspan class="text-outer-tspan" x="0" y="-0.1em" dy="1.1em"><tspan font-style="normal" class="text-inner-tspan" font-weight="normal">+time_ms:</tspan><tspan font-style="normal" class="text-inner-tspan" font-weight="normal"> u64</tspan></tspan></text></g></g><g class="label" style="" transform="translate(0,73.5)"><g><rect class="background" style="stroke: none"/><text y="-10.1" style=""><tspan class="text-outer-tspan" x="0" y="-0.1em" dy="1.1em"><tspan font-style="normal" class="text-inner-tspan" font-weight="normal">+tt_hits:</tspan><tspan font-style="normal" class="text-inner-tspan" font-weight="normal"> u64</tspan></tspan></text></g></g></g><g class="methods-group text" transform="translate(-63, 85)"/><g class="divider" style=""><path d="M-75 -52 C-21.51174025514696 -52, 31.976519489706078 -52, 75 -52 M-75 -52 C-34.72964784394336 -52, 5.540704312113277 -52, 75 -52" stroke="hsl(40.5882352941, 60%, 83.3333333333%)" stroke-width="1.3" fill="none" stroke-dasharray="0 0" style=""/></g><g class="divider" style=""><path d="M-75 65 C-27.601213883820222 65, 19.797572232359556 65, 75 65 M-75 65 C-20.35889744235633 65, 34.28220511528734 65, 75 65" stroke="hsl(40.5882352941, 60%, 83.3333333333%)" stroke-width="1.3" fill="none" stroke-dasharray="0 0" style=""/></g></g><g class="node default" id="classId-SearchAPI-2" transform="translate(298.75, 84)"><g class="basic label-container"><path d="M-109.5 -76 L109.5 -76 L109.5 76 L-109.5 76" stroke="none" stroke-width="0" fill="#fff4dd" style=""/><path d="M-109.5 -76 C-45.78564202115429 -76, 17.928715957691423 -76, 109.5 -76 M-109.5 -76 C-56.61947701955396 -76, -3.7389540391079237 -76, 109.5 -76 M109.5 -76 C109.5 -34.900307565480574, 109.5 6.199384869038852, 109.5 76 M109.5 -76 C109.5 -24.260729330557623, 109.5 27.478541338884753, 109.5 76 M109.5 76 C53.07742066412469 76, -3.3451586717506245 76, -109.5 76 M109.5 76 C48.007150019710046 76, -13.485699960579907 76, -109.5 76 M-109.5 76 C-109.5 41.74874434832827, -109.5 7.497488696656546, -109.5 -76 M-109.5 76 C-109.5 19.191775055482992, -109.5 -37.616449889034016, -109.5 -76" stroke="hsl(40.5882352941, 60%, 83.3333333333%)" stroke-width="1.3" fill="none" stroke-dasharray="0 0" style=""/></g><g class="annotation-group text" transform="translate(0, -56)"/><g class="label-group text" transform="translate(-27, -56)"><g class="label" style="font-weight: bolder" transform="translate(0,-6.5)"><g><rect class="background" style="stroke: none"/><text y="-10.1" style=""><tspan class="text-outer-tspan" x="0" y="-0.1em" dy="1.1em" font-weight=""><tspan font-style="normal" class="text-inner-tspan" font-weight="">SearchAPI</tspan></tspan></text></g></g></g><g class="members-group text" transform="translate(-97.5, -19)"/><g class="methods-group text" transform="translate(-97.5, 11)"><g class="label" style="" transform="translate(0,-6.5)"><g><rect class="background" style="stroke: none"/><text y="-10.1" style=""><tspan class="text-outer-tspan" x="0" y="-0.1em" dy="1.1em"><tspan font-style="normal" class="text-inner-tspan" font-weight="normal">+search(...)</tspan><tspan font-style="normal" class="text-inner-tspan" font-weight="normal"> :</tspan><tspan font-style="normal" class="text-inner-tspan" font-weight="normal"> SearchInfoOpt</tspan></tspan></text></g></g><g class="label" style="" transform="translate(0,9.5)"><g><rect class="background" style="stroke: none"/><text y="-10.1" style=""><tspan class="text-outer-tspan" x="0" y="-0.1em" dy="1.1em"><tspan font-style="normal" class="text-inner-tspan" font-weight="normal">+print_uci_info(...)</tspan></tspan></text></g></g><g class="label" style="" transform="translate(0,25.5)"><g><rect class="background" style="stroke: none"/><text y="-10.1" style=""><tspan class="text-outer-tspan" x="0" y="-0.1em" dy="1.1em"><tspan font-style="normal" class="text-inner-tspan" font-weight="normal">+should_stop(...)</tspan><tspan font-style="normal" class="text-inner-tspan" font-weight="normal"> :</tspan><tspan font-style="normal" class="text-inner-tspan" font-weight="normal"> bool</tspan></tspan></text></g></g><g class="label" style="" transform="translate(0,41.5)"><g><rect class="background" style="stroke: none"/><text y="-10.1" style=""><tspan class="text-outer-tspan" x="0" y="-0.1em" dy="1.1em"><tspan font-style="normal" class="text-inner-tspan" font-weight="normal">+to_uci(Move)</tspan><tspan font-style="normal" class="text-inner-tspan" font-weight="normal"> :</tspan><tspan font-style="normal" class="text-inner-tspan" font-weight="normal"> String</tspan></tspan></text></g></g></g><g class="divider" style=""><path d="M-109.5 -39 C-61.78735672510888 -39, -14.074713450217757 -39, 109.5 -39 M-109.5 -39 C-54.067097259272984 -39, 1.3658054814540321 -39, 109.5 -39" stroke="hsl(40.5882352941, 60%, 83.3333333333%)" stroke-width="1.3" fill="none" stroke-dasharray="0 0" style=""/></g><g class="divider" style=""><path d="M-109.5 -15 C-39.184099448345904 -15, 31.13180110330819 -15, 109.5 -15 M-109.5 -15 C-38.71347373484045 -15, 32.0730525303191 -15, 109.5 -15" stroke="hsl(40.5882352941, 60%, 83.3333333333%)" stroke-width="1.3" fill="none" stroke-dasharray="0 0" style=""/></g></g><g class="node default" id="classId-AlphaBeta-3" transform="translate(407.75, 514)"><g class="basic label-container"><path d="M-76.5 -76 L76.5 -76 L76.5 76 L-76.5 76" stroke="none" stroke-width="0" fill="#fff4dd" style=""/><path d="M-76.5 -76 C-37.40044882272565 -76, 1.6991023545486996 -76, 76.5 -76 M-76.5 -76 C-34.25343909577309 -76, 7.993121808453822 -76, 76.5 -76 M76.5 -76 C76.5 -18.562021164791553, 76.5 38.875957670416895, 76.5 76 M76.5 -76 C76.5 -34.236087490896125, 76.5 7.52782501820775, 76.5 76 M76.5 76 C19.343165801680712 76, -37.813668396638576 76, -76.5 76 M76.5 76 C37.599520449523084 76, -1.3009591009538326 76, -76.5 76 M-76.5 76 C-76.5 40.62201554545736, -76.5 5.244031090914717, -76.5 -76 M-76.5 76 C-76.5 42.87453989957789, -76.5 9.74907979915578, -76.5 -76" stroke="hsl(40.5882352941, 60%, 83.3333333333%)" stroke-width="1.3" fill="none" stroke-dasharray="0 0" style=""/></g><g class="annotation-group text" transform="translate(0, -56)"/><g class="label-group text" transform="translate(-27, -56)"><g class="label" style="font-weight: bolder" transform="translate(0,-6.5)"><g><rect class="background" style="stroke: none"/><text y="-10.1" style=""><tspan class="text-outer-tspan" x="0" y="-0.1em" dy="1.1em" font-weight=""><tspan font-style="normal" class="text-inner-tspan" font-weight="">AlphaBeta</tspan></tspan></text></g></g></g><g class="members-group text" transform="translate(-64.5, -19)"/><g class="methods-group text" transform="translate(-64.5, 11)"><g class="label" style="" transform="translate(0,-6.5)"><g><rect class="background" style="stroke: none"/><text y="-10.1" style=""><tspan class="text-outer-tspan" x="0" y="-0.1em" dy="1.1em"><tspan font-style="normal" class="text-inner-tspan" font-weight="normal">+negamax(...)</tspan></tspan></text></g></g><g class="label" style="" transform="translate(0,9.5)"><g><rect class="background" style="stroke: none"/><text y="-10.1" style=""><tspan class="text-outer-tspan" x="0" y="-0.1em" dy="1.1em"><tspan font-style="normal" class="text-inner-tspan" font-weight="normal">+search_root(...)</tspan></tspan></text></g></g><g class="label" style="" transform="translate(0,25.5)"><g><rect class="background" style="stroke: none"/><text y="-10.1" style=""><tspan class="text-outer-tspan" x="0" y="-0.1em" dy="1.1em"><tspan font-style="normal" class="text-inner-tspan" font-weight="normal">+search_move(...)</tspan></tspan></text></g></g><g class="label" style="" transform="translate(0,41.5)"><g><rect class="background" style="stroke: none"/><text y="-10.1" style=""><tspan class="text-outer-tspan" x="0" y="-0.1em" dy="1.1em"><tspan font-style="normal" class="text-inner-tspan" font-weight="normal">+try_iid(...)</tspan></tspan></text></g></g></g><g class="divider" style=""><path d="M-76.5 -39 C-37.27713574741604 -39, 1.9457285051679207 -39, 76.5 -39 M-76.5 -39 C-31.825220162311005 -39, 12.84955967537799 -39, 76.5 -39" stroke="hsl(40.5882352941, 60%, 83.3333333333%)" stroke-width="1.3" fill="none" stroke-dasharray="0 0" style=""/></g><g class="divider" style=""><path d="M-76.5 -15 C-20.610327566121235 -15, 35.27934486775753 -15, 76.5 -15 M-76.5 -15 C-40.64237371186023 -15, -4.784747423720461 -15, 76.5 -15" stroke="hsl(40.5882352941, 60%, 83.3333333333%)" stroke-width="1.3" fill="none" stroke-dasharray="0 0" style=""/></g></g><g class="node default" id="classId-QSearch-4" transform="translate(87.5, 732)"><g class="basic label-container"><path d="M-79.5 -52 L79.5 -52 L79.5 52 L-79.5 52" stroke="none" stroke-width="0" fill="#fff4dd" style=""/><path d="M-79.5 -52 C-19.69599836068619 -52, 40.10800327862762 -52, 79.5 -52 M-79.5 -52 C-39.2710993273851 -52, 0.9578013452297967 -52, 79.5 -52 M79.5 -52 C79.5 -14.799228426241882, 79.5 22.401543147516236, 79.5 52 M79.5 -52 C79.5 -12.541774829969938, 79.5 26.916450340060123, 79.5 52 M79.5 52 C18.515034147773335 52, -42.46993170445333 52, -79.5 52 M79.5 52 C32.04955822277738 52, -15.400883554445244 52, -79.5 52 M-79.5 52 C-79.5 16.929620264190994, -79.5 -18.14075947161801, -79.5 -52 M-79.5 52 C-79.5 16.361240519371485, -79.5 -19.27751896125703, -79.5 -52" stroke="hsl(40.5882352941, 60%, 83.3333333333%)" stroke-width="1.3" fill="none" stroke-dasharray="0 0" style=""/></g><g class="annotation-group text" transform="translate(0, -32)"/><g class="label-group text" transform="translate(-21, -32)"><g class="label" style="font-weight: bolder" transform="translate(0,-6.5)"><g><rect class="background" style="stroke: none"/><text y="-10.1" style=""><tspan class="text-outer-tspan" x="0" y="-0.1em" dy="1.1em" font-weight=""><tspan font-style="normal" class="text-inner-tspan" font-weight="">QSearch</tspan></tspan></text></g></g></g><g class="members-group text" transform="translate(-67.5, 5)"/><g class="methods-group text" transform="translate(-67.5, 35)"><g class="label" style="" transform="translate(0,-6.5)"><g><rect class="background" style="stroke: none"/><text y="-10.1" style=""><tspan class="text-outer-tspan" x="0" y="-0.1em" dy="1.1em"><tspan font-style="normal" class="text-inner-tspan" font-weight="normal">+qsearch(...)</tspan><tspan font-style="normal" class="text-inner-tspan" font-weight="normal"> :</tspan><tspan font-style="normal" class="text-inner-tspan" font-weight="normal"> i32</tspan></tspan></text></g></g></g><g class="divider" style=""><path d="M-79.5 -15 C-42.280755946857255 -15, -5.06151189371451 -15, 79.5 -15 M-79.5 -15 C-41.89572666799463 -15, -4.29145333598926 -15, 79.5 -15" stroke="hsl(40.5882352941, 60%, 83.3333333333%)" stroke-width="1.3" fill="none" stroke-dasharray="0 0" style=""/></g><g class="divider" style=""><path d="M-79.5 9 C-31.377961174928025 9, 16.74407765014395 9, 79.5 9 M-79.5 9 C-23.237527131860894 9, 33.02494573627821 9, 79.5 9" stroke="hsl(40.5882352941, 60%, 83.3333333333%)" stroke-width="1.3" fill="none" stroke-dasharray="0 0" style=""/></g></g><g class="node default" id="classId-Ordering-5" transform="translate(301, 732)"><g class="basic label-container"><path d="M-84 -79.5 L84 -79.5 L84 79.5 L-84 79.5" stroke="none" stroke-width="0" fill="#fff4dd" style=""/><path d="M-84 -79.5 C-29.621325954694775 -79.5, 24.75734809061045 -79.5, 84 -79.5 M-84 -79.5 C-27.051065367325066 -79.5, 29.89786926534987 -79.5, 84 -79.5 M84 -79.5 C84 -22.578461326381912, 84 34.343077347236175, 84 79.5 M84 -79.5 C84 -25.62899046006713, 84 28.24201907986574, 84 79.5 M84 79.5 C29.453937154874687 79.5, -25.092125690250626 79.5, -84 79.5 M84 79.5 C40.09567749027753 79.5, -3.8086450194449384 79.5, -84 79.5 M-84 79.5 C-84 31.219820563890295, -84 -17.06035887221941, -84 -79.5 M-84 79.5 C-84 30.646458921510273, -84 -18.207082156979453, -84 -79.5" stroke="hsl(40.5882352941, 60%, 83.3333333333%)" stroke-width="1.3" fill="none" stroke-dasharray="0 0" style=""/></g><g class="annotation-group text" transform="translate(0, -59.5)"/><g class="label-group text" transform="translate(-24, -59.5)"><g class="label" style="font-weight: bolder" transform="translate(0,-6.5)"><g><rect class="background" style="stroke: none"/><text y="-10.1" style=""><tspan class="text-outer-tspan" x="0" y="-0.1em" dy="1.1em" font-weight=""><tspan font-style="normal" class="text-inner-tspan" font-weight="">Ordering</tspan></tspan></text></g></g></g><g class="members-group text" transform="translate(-72, -22.5)"><g class="label" style="" transform="translate(0,-6.5)"><g><rect class="background" style="stroke: none"/><text y="-10.1" style=""><tspan class="text-outer-tspan" x="0" y="-0.1em" dy="1.1em"><tspan font-style="normal" class="text-inner-tspan" font-weight="normal">+KillerTable</tspan></tspan></text></g></g><g class="label" style="" transform="translate(0,9.5)"><g><rect class="background" style="stroke: none"/><text y="-10.1" style=""><tspan class="text-outer-tspan" x="0" y="-0.1em" dy="1.1em"><tspan font-style="normal" class="text-inner-tspan" font-weight="normal">+HistoryTable</tspan></tspan></text></g></g><g class="label" style="" transform="translate(0,25.5)"><g><rect class="background" style="stroke: none"/><text y="-10.1" style=""><tspan class="text-outer-tspan" x="0" y="-0.1em" dy="1.1em"><tspan font-style="normal" class="text-inner-tspan" font-weight="normal">+MoveHistory</tspan></tspan></text></g></g></g><g class="methods-group text" transform="translate(-72, 46.5)"><g class="label" style="" transform="translate(0,-6.5)"><g><rect class="background" style="stroke: none"/><text y="-10.1" style=""><tspan class="text-outer-tspan" x="0" y="-0.1em" dy="1.1em"><tspan font-style="normal" class="text-inner-tspan" font-weight="normal">+score_move(...)</tspan></tspan></text></g></g><g class="label" style="" transform="translate(0,9.5)"><g><rect class="background" style="stroke: none"/><text y="-10.1" style=""><tspan class="text-outer-tspan" x="0" y="-0.1em" dy="1.1em"><tspan font-style="normal" class="text-inner-tspan" font-weight="normal">+pick_next_move(...)</tspan></tspan></text></g></g></g><g class="divider" style=""><path d="M-84 -42.5 C-44.73746891934615 -42.5, -5.474937838692298 -42.5, 84 -42.5 M-84 -42.5 C-39.762075131710894 -42.5, 4.475849736578212 -42.5, 84 -42.5" stroke="hsl(40.5882352941, 60%, 83.3333333333%)" stroke-width="1.3" fill="none" stroke-dasharray="0 0" style=""/></g><g class="divider" style=""><path d="M-84 26.5 C-23.451633107826297 26.5, 37.09673378434741 26.5, 84 26.5 M-84 26.5 C-48.02499073530724 26.5, -12.049981470614483 26.5, 84 26.5" stroke="hsl(40.5882352941, 60%, 83.3333333333%)" stroke-width="1.3" fill="none" stroke-dasharray="0 0" style=""/></g></g><g class="node default" id="classId-Pruning-6" transform="translate(514.5, 732)"><g class="basic label-container"><path d="M-79.5 -92 L79.5 -92 L79.5 92 L-79.5 92" stroke="none" stroke-width="0" fill="#fff4dd" style=""/><path d="M-79.5 -92 C-44.12717800175857 -92, -8.754356003517145 -92, 79.5 -92 M-79.5 -92 C-38.347632449541116 -92, 2.8047351009177675 -92, 79.5 -92 M79.5 -92 C79.5 -37.65060094099656, 79.5 16.698798118006877, 79.5 92 M79.5 -92 C79.5 -18.723412855238564, 79.5 54.55317428952287, 79.5 92 M79.5 92 C31.565415562992108 92, -16.369168874015784 92, -79.5 92 M79.5 92 C35.699523452716704 92, -8.100953094566592 92, -79.5 92 M-79.5 92 C-79.5 47.31747662524475, -79.5 2.6349532504895024, -79.5 -92 M-79.5 92 C-79.5 47.20082739694895, -79.5 2.4016547938979045, -79.5 -92" stroke="hsl(40.5882352941, 60%, 83.3333333333%)" stroke-width="1.3" fill="none" stroke-dasharray="0 0" style=""/></g><g class="annotation-group text" transform="translate(0, -72)"/><g class="label-group text" transform="translate(-21, -72)"><g class="label" style="font-weight: bolder" transform="translate(0,-6.5)"><g><rect class="background" style="stroke: none"/><text y="-10.1" style=""><tspan class="text-outer-tspan" x="0" y="-0.1em" dy="1.1em" font-weight=""><tspan font-style="normal" class="text-inner-tspan" font-weight="">Pruning</tspan></tspan></text></g></g></g><g class="members-group text" transform="translate(-67.5, -35)"/><g class="methods-group text" transform="translate(-67.5, -5)"><g class="label" style="" transform="translate(0,-6.5)"><g><rect class="background" style="stroke: none"/><text y="-10.1" style=""><tspan class="text-outer-tspan" x="0" y="-0.1em" dy="1.1em"><tspan font-style="normal" class="text-inner-tspan" font-weight="normal">+try_probcut(...)</tspan></tspan></text></g></g><g class="label" style="" transform="translate(0,9.5)"><g><rect class="background" style="stroke: none"/><text y="-10.1" style=""><tspan class="text-outer-tspan" x="0" y="-0.1em" dy="1.1em"><tspan font-style="normal" class="text-inner-tspan" font-weight="normal">+try_null_move(...)</tspan></tspan></text></g></g><g class="label" style="" transform="translate(0,25.5)"><g><rect class="background" style="stroke: none"/><text y="-10.1" style=""><tspan class="text-outer-tspan" x="0" y="-0.1em" dy="1.1em"><tspan font-style="normal" class="text-inner-tspan" font-weight="normal">+try_razoring(...)</tspan></tspan></text></g></g><g class="label" style="" transform="translate(0,41.5)"><g><rect class="background" style="stroke: none"/><text y="-10.1" style=""><tspan class="text-outer-tspan" x="0" y="-0.1em" dy="1.1em"><tspan font-style="normal" class="text-inner-tspan" font-weight="normal">+reduce_lmr(...)</tspan></tspan></text></g></g><g class="label" style="" transform="translate(0,57.5)"><g><rect class="background" style="stroke: none"/><text y="-10.1" style=""><tspan class="text-outer-tspan" x="0" y="-0.1em" dy="1.1em"><tspan font-style="normal" class="text-inner-tspan" font-weight="normal">+calc_lmr(...)</tspan></tspan></text></g></g><g class="label" style="" transform="translate(0,73.5)"><g><rect class="background" style="stroke: none"/><text y="-10.1" style=""><tspan class="text-outer-tspan" x="0" y="-0.1em" dy="1.1em"><tspan font-style="normal" class="text-inner-tspan" font-weight="normal">+use_futility(...)</tspan></tspan></text></g></g></g><g class="divider" style=""><path d="M-79.5 -55 C-28.332884056776294 -55, 22.834231886447412 -55, 79.5 -55 M-79.5 -55 C-17.43860447472842 -55, 44.62279105054316 -55, 79.5 -55" stroke="hsl(40.5882352941, 60%, 83.3333333333%)" stroke-width="1.3" fill="none" stroke-dasharray="0 0" style=""/></g><g class="divider" style=""><path d="M-79.5 -31 C-32.85822017125928 -31, 13.783559657481433 -31, 79.5 -31 M-79.5 -31 C-31.854618047622566 -31, 15.790763904754868 -31, 79.5 -31" stroke="hsl(40.5882352941, 60%, 83.3333333333%)" stroke-width="1.3" fill="none" stroke-dasharray="0 0" style=""/></g></g><g class="node default" id="classId-Parallel-7" transform="translate(407.75, 299)"><g class="basic label-container"><path d="M-93 -60 L93 -60 L93 60 L-93 60" stroke="none" stroke-width="0" fill="#fff4dd" style=""/><path d="M-93 -60 C-48.484193870571524 -60, -3.9683877411430473 -60, 93 -60 M-93 -60 C-39.559589992216175 -60, 13.88082001556765 -60, 93 -60 M93 -60 C93 -27.25435937384892, 93 5.491281252302159, 93 60 M93 -60 C93 -21.934098297637327, 93 16.131803404725346, 93 60 M93 60 C25.05371848864864 60, -42.89256302270272 60, -93 60 M93 60 C30.793354145395206 60, -31.413291709209588 60, -93 60 M-93 60 C-93 29.86663246961058, -93 -0.2667350607788421, -93 -60 M-93 60 C-93 15.759452760332188, -93 -28.481094479335624, -93 -60" stroke="hsl(40.5882352941, 60%, 83.3333333333%)" stroke-width="1.3" fill="none" stroke-dasharray="0 0" style=""/></g><g class="annotation-group text" transform="translate(0, -40)"/><g class="label-group text" transform="translate(-24, -40)"><g class="label" style="font-weight: bolder" transform="translate(0,-6.5)"><g><rect class="background" style="stroke: none"/><text y="-10.1" style=""><tspan class="text-outer-tspan" x="0" y="-0.1em" dy="1.1em" font-weight=""><tspan font-style="normal" class="text-inner-tspan" font-weight="">Parallel</tspan></tspan></text></g></g></g><g class="members-group text" transform="translate(-81, -3)"/><g class="methods-group text" transform="translate(-81, 27)"><g class="label" style="" transform="translate(0,-6.5)"><g><rect class="background" style="stroke: none"/><text y="-10.1" style=""><tspan class="text-outer-tspan" x="0" y="-0.1em" dy="1.1em"><tspan font-style="normal" class="text-inner-tspan" font-weight="normal">+search_driver(...)</tspan></tspan></text></g></g><g class="label" style="" transform="translate(0,9.5)"><g><rect class="background" style="stroke: none"/><text y="-10.1" style=""><tspan class="text-outer-tspan" x="0" y="-0.1em" dy="1.1em"><tspan font-style="normal" class="text-inner-tspan" font-weight="normal">+search_aspiration(...)</tspan></tspan></text></g></g></g><g class="divider" style=""><path d="M-93 -23 C-19.26204741157737 -23, 54.47590517684526 -23, 93 -23 M-93 -23 C-45.76161650616244 -23, 1.47676698767512 -23, 93 -23" stroke="hsl(40.5882352941, 60%, 83.3333333333%)" stroke-width="1.3" fill="none" stroke-dasharray="0 0" style=""/></g><g class="divider" style=""><path d="M-93 1 C-19.9511065865302 1, 53.0977868269396 1, 93 1 M-93 1 C-22.060460287318705 1, 48.87907942536259 1, 93 1" stroke="hsl(40.5882352941, 60%, 83.3333333333%)" stroke-width="1.3" fill="none" stroke-dasharray="0 0" style=""/></g></g></g></g></g></svg>