<svg id="my-svg" width="100%" xmlns="http://www.w3.org/2000/svg" xmlns:xlink="http://www.w3.org/1999/xlink" class="classDiagram" style="max-width: 417.25px; background-color: white;" viewBox="0 0 417.25 660" role="graphics-document document" aria-roledescription="class"><style>#my-svg{font-family:JetBrains Mono;font-size:10px;fill:#333;}@keyframes edge-animation-frame{from{stroke-dashoffset:0;}}@keyframes dash{to{stroke-dashoffset:0;}}#my-svg .edge-animation-slow{stroke-dasharray:9,5!important;stroke-dashoffset:900;animation:dash 50s linear infinite;stroke-linecap:round;}#my-svg .edge-animation-fast{stroke-dasharray:9,5!important;stroke-dashoffset:900;animation:dash 20s linear infinite;stroke-linecap:round;}#my-svg .error-icon{fill:hsl(220.5882352941, 100%, 98.3333333333%);}#my-svg .error-text{fill:rgb(8.5000000002, 5.7500000001, 0);stroke:rgb(8.5000000002, 5.7500000001, 0);}#my-svg .edge-thickness-normal{stroke-width:1px;}#my-svg .edge-thickness-thick{stroke-width:3.5px;}#my-svg .edge-pattern-solid{stroke-dasharray:0;}#my-svg .edge-thickness-invisible{stroke-width:0;fill:none;}#my-svg .edge-pattern-dashed{stroke-dasharray:3;}#my-svg .edge-pattern-dotted{stroke-dasharray:2;}#my-svg .marker{fill:#0b0b0b;stroke:#0b0b0b;}#my-svg .marker.cross{stroke:#0b0b0b;}#my-svg svg{font-family:JetBrains Mono;font-size:10px;}#my-svg p{margin:0;}#my-svg g.classGroup text{fill:hsl(40.5882352941, 60%, 83.3333333333%);stroke:none;font-family:JetBrains Mono;font-size:10px;}#my-svg g.classGroup text .title{font-weight:bolder;}#my-svg .nodeLabel,#my-svg .edgeLabel{color:#333;}#my-svg .edgeLabel .label rect{fill:#fff4dd;}#my-svg .label text{fill:#333;}#my-svg .labelBkg{background:#fff4dd;}#my-svg .edgeLabel .label span{background:#fff4dd;}#my-svg .classTitle{font-weight:bolder;}#my-svg .node rect,#my-svg .node circle,#my-svg .node ellipse,#my-svg .node polygon,#my-svg .node path{fill:#fff4dd;stroke:hsl(40.5882352941, 60%, 83.3333333333%);stroke-width:1px;}#my-svg .divider{stroke:hsl(40.5882352941, 60%, 83.3333333333%);stroke-width:1;}#my-svg g.clickable{cursor:pointer;}#my-svg g.classGroup rect{fill:#fff4dd;stroke:hsl(40.5882352941, 60%, 83.3333333333%);}#my-svg g.classGroup line{stroke:hsl(40.5882352941, 60%, 83.3333333333%);stroke-width:1;}#my-svg .classLabel .box{stroke:none;stroke-width:0;fill:#fff4dd;opacity:0.5;}#my-svg .classLabel .label{fill:hsl(40.5882352941, 60%, 83.3333333333%);font-size:10px;}#my-svg .relation{stroke:#0b0b0b;stroke-width:1;fill:none;}#my-svg .dashed-line{stroke-dasharray:3;}#my-svg .dotted-line{stroke-dasharray:1 2;}#my-svg #compositionStart,#my-svg .composition{fill:#0b0b0b!important;stroke:#0b0b0b!important;stroke-width:1;}#my-svg #compositionEnd,#my-svg .composition{fill:#0b0b0b!important;stroke:#0b0b0b!important;stroke-width:1;}#my-svg #dependencyStart,#my-svg .dependency{fill:#0b0b0b!important;stroke:#0b0b0b!important;stroke-width:1;}#my-svg #dependencyStart,#my-svg .dependency{fill:#0b0b0b!important;stroke:#0b0b0b!important;stroke-width:1;}#my-svg #extensionStart,#my-svg .extension{fill:transparent!important;stroke:#0b0b0b!important;stroke-width:1;}#my-svg #extensionEnd,#my-svg .extension{fill:transparent!important;stroke:#0b0b0b!important;stroke-width:1;}#my-svg #aggregationStart,#my-svg .aggregation{fill:transparent!important;stroke:#0b0b0b!important;stroke-width:1;}#my-svg #aggregationEnd,#my-svg .aggregation{fill:transparent!important;stroke:#0b0b0b!important;stroke-width:1;}#my-svg #lollipopStart,#my-svg .lollipop{fill:#fff4dd!important;stroke:#0b0b0b!important;stroke-width:1;}#my-svg #lollipopEnd,#my-svg .lollipop{fill:#fff4dd!important;stroke:#0b0b0b!important;stroke-width:1;}#my-svg .edgeTerminals{font-size:11px;line-height:initial;}#my-svg .classTitleText{text-anchor:middle;font-size:18px;fill:#333;}#my-svg .label-icon{display:inline-block;height:1em;overflow:visible;vertical-align:-0.125em;}#my-svg .node .label-icon path{fill:currentColor;stroke:revert;stroke-width:revert;}#my-svg :root{--mermaid-font-family:"trebuchet ms",verdana,arial,sans-serif;}</style><g><defs><marker id="my-svg_class-aggregationStart" class="marker aggregation class" refX="18" refY="7" markerWidth="190" markerHeight="240" orient="auto"><path d="M 18,7 L9,13 L1,7 L9,1 Z"/></marker></defs><defs><marker id="my-svg_class-aggregationEnd" class="marker aggregation class" refX="1" refY="7" markerWidth="20" markerHeight="28" orient="auto"><path d="M 18,7 L9,13 L1,7 L9,1 Z"/></marker></defs><defs><marker id="my-svg_class-extensionStart" class="marker extension class" refX="18" refY="7" markerWidth="190" markerHeight="240" orient="auto"><path d="M 1,7 L18,13 V 1 Z"/></marker></defs><defs><marker id="my-svg_class-extensionEnd" class="marker extension class" refX="1" refY="7" markerWidth="20" markerHeight="28" orient="auto"><path d="M 1,1 V 13 L18,7 Z"/></marker></defs><defs><marker id="my-svg_class-compositionStart" class="marker composition class" refX="18" refY="7" markerWidth="190" markerHeight="240" orient="auto"><path d="M 18,7 L9,13 L1,7 L9,1 Z"/></marker></defs><defs><marker id="my-svg_class-compositionEnd" class="marker composition class" refX="1" refY="7" markerWidth="20" markerHeight="28" orient="auto"><path d="M 18,7 L9,13 L1,7 L9,1 Z"/></marker></defs><defs><marker id="my-svg_class-dependencyStart" class="marker dependency class" refX="6" refY="7" markerWidth="190" markerHeight="240" orient="auto"><path d="M 5,7 L9,13 L1,7 L9,1 Z"/></marker></defs><defs><marker id="my-svg_class-dependencyEnd" class="marker dependency class" refX="13" refY="7" markerWidth="20" markerHeight="28" orient="auto"><path d="M 18,7 L9,13 L14,7 L9,1 Z"/></marker></defs><defs><marker id="my-svg_class-lollipopStart" class="marker lollipop class" refX="13" refY="7" markerWidth="190" markerHeight="240" orient="auto"><circle stroke="black" fill="transparent" cx="7" cy="7" r="6"/></marker></defs><defs><marker id="my-svg_class-lollipopEnd" class="marker lollipop class" refX="1" refY="7" markerWidth="190" markerHeight="240" orient="auto"><circle stroke="black" fill="transparent" cx="7" cy="7" r="6"/></marker></defs><g class="root"><g class="clusters"/><g class="edgePaths"><path d="M305.734,244.552L307.237,246.46C308.739,248.368,311.745,252.184,313.247,263.592C314.75,275,314.75,294,314.75,303.5L314.75,313" id="id_TTTable_PackedTTEntry_1" class="edge-thickness-normal edge-pattern-solid relation" style=";;;" data-edge="true" data-et="edge" data-id="id_TTTable_PackedTTEntry_1" data-points="W3sieCI6Mjk1LjA2MTM1NTMxMTM1NTMsInkiOjIzMX0seyJ4IjozMTQuNzUsInkiOjI1Nn0seyJ4IjozMTQuNzUsInkiOjMxM31d" marker-start="url(#my-svg_class-compositionStart)"/><path d="M119.439,231L116.157,235.167C112.876,239.333,106.313,247.667,103.031,255C99.75,262.333,99.75,268.667,99.75,271.833L99.75,275" id="id_TTTable_TTEntry_2" class="edge-thickness-normal edge-pattern-solid relation" style=";;;" data-edge="true" data-et="edge" data-id="id_TTTable_TTEntry_2" data-points="W3sieCI6MTE5LjQzODY0NDY4ODY0NDY5LCJ5IjoyMzF9LHsieCI6OTkuNzUsInkiOjI1Nn0seyJ4Ijo5OS43NSwieSI6MjgxfV0=" marker-end="url(#my-svg_class-dependencyEnd)"/><path d="M46.857,459L44.381,463.167C41.905,467.333,36.952,475.667,34.476,488.833C32,502,32,520,32,529L32,538" id="id_TTEntry_Move_3" class="edge-thickness-normal edge-pattern-solid relation" style=";;;" data-edge="true" data-et="edge" data-id="id_TTEntry_Move_3" data-points="W3sieCI6NDYuODU3NDU2MTQwMzUwODgsInkiOjQ1OX0seyJ4IjozMiwieSI6NDg0fSx7IngiOjMyLCJ5Ijo1NDR9XQ==" marker-end="url(#my-svg_class-dependencyEnd)"/><path d="M152.643,459L155.119,463.167C157.595,467.333,162.548,475.667,165.024,483C167.5,490.333,167.5,496.667,167.5,499.833L167.5,503" id="id_TTEntry_TTFlags_4" class="edge-thickness-normal edge-pattern-solid relation" style=";;;" data-edge="true" data-et="edge" data-id="id_TTEntry_TTFlags_4" data-points="W3sieCI6MTUyLjY0MjU0Mzg1OTY0OTEyLCJ5Ijo0NTl9LHsieCI6MTY3LjUsInkiOjQ4NH0seyJ4IjoxNjcuNSwieSI6NTA5fV0=" marker-end="url(#my-svg_class-dependencyEnd)"/></g><g class="edgeLabels"><g><rect class="background" style="stroke: none"/></g><g><rect class="background" style="stroke: none"/></g><g><rect class="background" style="stroke: none"/></g><g><rect class="background" style="stroke: none"/></g><g class="edgeLabel"><g class="label" data-id="id_TTTable_PackedTTEntry_1" transform="translate(0, 0)"><text y="-10.1"><tspan class="text-outer-tspan" x="0" y="-0.1em" dy="1.1em"/></text></g></g><g class="edgeLabel"><g class="label" data-id="id_TTTable_TTEntry_2" transform="translate(0, 0)"><text y="-10.1"><tspan class="text-outer-tspan" x="0" y="-0.1em" dy="1.1em"/></text></g></g><g class="edgeLabel"><g class="label" data-id="id_TTEntry_Move_3" transform="translate(0, 0)"><text y="-10.1"><tspan class="text-outer-tspan" x="0" y="-0.1em" dy="1.1em"/></text></g></g><g class="edgeLabel"><g class="label" data-id="id_TTEntry_TTFlags_4" transform="translate(0, 0)"><text y="-10.1"><tspan class="text-outer-tspan" x="0" y="-0.1em" dy="1.1em"/></text></g></g></g><g class="nodes"><g class="node default" id="classId-TTEntry-0" transform="translate(99.75, 370)"><g class="basic label-container"><path d="M-70.5 -89 L70.5 -89 L70.5 89 L-70.5 89" stroke="none" stroke-width="0" fill="#fff4dd" style=""/><path d="M-70.5 -89 C-26.333113238849528 -89, 17.833773522300945 -89, 70.5 -89 M-70.5 -89 C-29.770317252192044 -89, 10.959365495615913 -89, 70.5 -89 M70.5 -89 C70.5 -41.41797645136893, 70.5 6.1640470972621415, 70.5 89 M70.5 -89 C70.5 -25.498942684895077, 70.5 38.002114630209846, 70.5 89 M70.5 89 C29.349292454697434 89, -11.801415090605133 89, -70.5 89 M70.5 89 C41.77669941021756 89, 13.05339882043512 89, -70.5 89 M-70.5 89 C-70.5 37.558604255818246, -70.5 -13.882791488363509, -70.5 -89 M-70.5 89 C-70.5 28.2676504298273, -70.5 -32.4646991403454, -70.5 -89" stroke="hsl(40.5882352941, 60%, 83.3333333333%)" stroke-width="1.3" fill="none" stroke-dasharray="0 0" style=""/></g><g class="annotation-group text" transform="translate(0, -69)"/><g class="label-group text" transform="translate(-21, -69)"><g class="label" style="font-weight: bolder" transform="translate(0,-6.5)"><g><rect class="background" style="stroke: none"/><text y="-10.1" style=""><tspan class="text-outer-tspan" x="0" y="-0.1em" dy="1.1em" font-weight=""><tspan font-style="normal" class="text-inner-tspan" font-weight="">TTEntry</tspan></tspan></text></g></g></g><g class="members-group text" transform="translate(-58.5, -32)"><g class="label" style="" transform="translate(0,-6.5)"><g><rect class="background" style="stroke: none"/><text y="-10.1" style=""><tspan class="text-outer-tspan" x="0" y="-0.1em" dy="1.1em"><tspan font-style="normal" class="text-inner-tspan" font-weight="normal">+key:</tspan><tspan font-style="normal" class="text-inner-tspan" font-weight="normal"> u64</tspan></tspan></text></g></g><g class="label" style="" transform="translate(0,9.5)"><g><rect class="background" style="stroke: none"/><text y="-10.1" style=""><tspan class="text-outer-tspan" x="0" y="-0.1em" dy="1.1em"><tspan font-style="normal" class="text-inner-tspan" font-weight="normal">+best_move:</tspan><tspan font-style="normal" class="text-inner-tspan" font-weight="normal"> Move</tspan></tspan></text></g></g><g class="label" style="" transform="translate(0,25.5)"><g><rect class="background" style="stroke: none"/><text y="-10.1" style=""><tspan class="text-outer-tspan" x="0" y="-0.1em" dy="1.1em"><tspan font-style="normal" class="text-inner-tspan" font-weight="normal">+score:</tspan><tspan font-style="normal" class="text-inner-tspan" font-weight="normal"> i32</tspan></tspan></text></g></g><g class="label" style="" transform="translate(0,41.5)"><g><rect class="background" style="stroke: none"/><text y="-10.1" style=""><tspan class="text-outer-tspan" x="0" y="-0.1em" dy="1.1em"><tspan font-style="normal" class="text-inner-tspan" font-weight="normal">+depth:</tspan><tspan font-style="normal" class="text-inner-tspan" font-weight="normal"> u8</tspan></tspan></text></g></g><g class="label" style="" transform="translate(0,57.5)"><g><rect class="background" style="stroke: none"/><text y="-10.1" style=""><tspan class="text-outer-tspan" x="0" y="-0.1em" dy="1.1em"><tspan font-style="normal" class="text-inner-tspan" font-weight="normal">+flag:</tspan><tspan font-style="normal" class="text-inner-tspan" font-weight="normal"> u8</tspan></tspan></text></g></g><g class="label" style="" transform="translate(0,73.5)"><g><rect class="background" style="stroke: none"/><text y="-10.1" style=""><tspan class="text-outer-tspan" x="0" y="-0.1em" dy="1.1em"><tspan font-style="normal" class="text-inner-tspan" font-weight="normal">+age:</tspan><tspan font-style="normal" class="text-inner-tspan" font-weight="normal"> u8</tspan></tspan></text></g></g></g><g class="methods-group text" transform="translate(-58.5, 85)"/><g class="divider" style=""><path d="M-70.5 -52 C-22.01057004068106 -52, 26.47885991863788 -52, 70.5 -52 M-70.5 -52 C-37.58085260031762 -52, -4.6617052006352395 -52, 70.5 -52" stroke="hsl(40.5882352941, 60%, 83.3333333333%)" stroke-width="1.3" fill="none" stroke-dasharray="0 0" style=""/></g><g class="divider" style=""><path d="M-70.5 65 C-19.490738326899447 65, 31.518523346201107 65, 70.5 65 M-70.5 65 C-32.00046780191835 65, 6.4990643961633054 65, 70.5 65" stroke="hsl(40.5882352941, 60%, 83.3333333333%)" stroke-width="1.3" fill="none" stroke-dasharray="0 0" style=""/></g></g><g class="node default" id="classId-PackedTTEntry-1" transform="translate(314.75, 370)"><g class="basic label-container"><path d="M-94.5 -57 L94.5 -57 L94.5 57 L-94.5 57" stroke="none" stroke-width="0" fill="#fff4dd" style=""/><path d="M-94.5 -57 C-21.344828008777426 -57, 51.81034398244515 -57, 94.5 -57 M-94.5 -57 C-52.00289284262675 -57, -9.5057856852535 -57, 94.5 -57 M94.5 -57 C94.5 -30.014420538098026, 94.5 -3.028841076196052, 94.5 57 M94.5 -57 C94.5 -12.879595629730538, 94.5 31.240808740538924, 94.5 57 M94.5 57 C18.904429628118535 57, -56.69114074376293 57, -94.5 57 M94.5 57 C54.29873189246014 57, 14.09746378492028 57, -94.5 57 M-94.5 57 C-94.5 14.312463115373731, -94.5 -28.375073769252538, -94.5 -57 M-94.5 57 C-94.5 13.351586107104573, -94.5 -30.296827785790853, -94.5 -57" stroke="hsl(40.5882352941, 60%, 83.3333333333%)" stroke-width="1.3" fill="none" stroke-dasharray="0 0" style=""/></g><g class="annotation-group text" transform="translate(0, -37)"/><g class="label-group text" transform="translate(-39, -37)"><g class="label" style="font-weight: bolder" transform="translate(0,-6.5)"><g><rect class="background" style="stroke: none"/><text y="-10.1" style=""><tspan class="text-outer-tspan" x="0" y="-0.1em" dy="1.1em" font-weight=""><tspan font-style="normal" class="text-inner-tspan" font-weight="">PackedTTEntry</tspan></tspan></text></g></g></g><g class="members-group text" transform="translate(-82.5, 0)"><g class="label" style="" transform="translate(0,-6.5)"><g><rect class="background" style="stroke: none"/><text y="-10.1" style=""><tspan class="text-outer-tspan" x="0" y="-0.1em" dy="1.1em"><tspan font-style="normal" class="text-inner-tspan" font-weight="normal">-data:</tspan><tspan font-style="normal" class="text-inner-tspan" font-weight="normal"> AtomicU64</tspan></tspan></text></g></g><g class="label" style="" transform="translate(0,9.5)"><g><rect class="background" style="stroke: none"/><text y="-10.1" style=""><tspan class="text-outer-tspan" x="0" y="-0.1em" dy="1.1em"><tspan font-style="normal" class="text-inner-tspan" font-weight="normal">-signature:</tspan><tspan font-style="normal" class="text-inner-tspan" font-weight="normal"> AtomicU64</tspan></tspan></text></g></g></g><g class="methods-group text" transform="translate(-82.5, 53)"/><g class="divider" style=""><path d="M-94.5 -20 C-32.16248883448639 -20, 30.175022331027222 -20, 94.5 -20 M-94.5 -20 C-56.18812578610902 -20, -17.876251572218038 -20, 94.5 -20" stroke="hsl(40.5882352941, 60%, 83.3333333333%)" stroke-width="1.3" fill="none" stroke-dasharray="0 0" style=""/></g><g class="divider" style=""><path d="M-94.5 33 C-50.64970476869309 33, -6.7994095373861825 33, 94.5 33 M-94.5 33 C-42.73539522889968 33, 9.029209542200647 33, 94.5 33" stroke="hsl(40.5882352941, 60%, 83.3333333333%)" stroke-width="1.3" fill="none" stroke-dasharray="0 0" style=""/></g></g><g class="node default" id="classId-TTTable-2" transform="translate(207.25, 119.5)"><g class="basic label-container"><path d="M-97.5 -111.5 L97.5 -111.5 L97.5 111.5 L-97.5 111.5" stroke="none" stroke-width="0" fill="#fff4dd" style=""/><path d="M-97.5 -111.5 C-30.17948512366158 -111.5, 37.14102975267684 -111.5, 97.5 -111.5 M-97.5 -111.5 C-40.979813821701036 -111.5, 15.540372356597928 -111.5, 97.5 -111.5 M97.5 -111.5 C97.5 -49.89796867106265, 97.5 11.704062657874701, 97.5 111.5 M97.5 -111.5 C97.5 -44.84629033554462, 97.5 21.807419328910754, 97.5 111.5 M97.5 111.5 C24.869251165621975 111.5, -47.76149766875605 111.5, -97.5 111.5 M97.5 111.5 C37.12650694535116 111.5, -23.24698610929768 111.5, -97.5 111.5 M-97.5 111.5 C-97.5 52.32316180874748, -97.5 -6.853676382505043, -97.5 -111.5 M-97.5 111.5 C-97.5 59.37871024959393, -97.5 7.257420499187859, -97.5 -111.5" stroke="hsl(40.5882352941, 60%, 83.3333333333%)" stroke-width="1.3" fill="none" stroke-dasharray="0 0" style=""/></g><g class="annotation-group text" transform="translate(0, -91.5)"/><g class="label-group text" transform="translate(-21, -91.5)"><g class="label" style="font-weight: bolder" transform="translate(0,-6.5)"><g><rect class="background" style="stroke: none"/><text y="-10.1" style=""><tspan class="text-outer-tspan" x="0" y="-0.1em" dy="1.1em" font-weight=""><tspan font-style="normal" class="text-inner-tspan" font-weight="">TTTable</tspan></tspan></text></g></g></g><g class="members-group text" transform="translate(-85.5, -54.5)"><g class="label" style="" transform="translate(0,-6.5)"><g><rect class="background" style="stroke: none"/><text y="-10.1" style=""><tspan class="text-outer-tspan" x="0" y="-0.1em" dy="1.1em"><tspan font-style="normal" class="text-inner-tspan" font-weight="normal">-table:</tspan><tspan font-style="normal" class="text-inner-tspan" font-weight="normal"> PackedEntryVec</tspan></tspan></text></g></g><g class="label" style="" transform="translate(0,9.5)"><g><rect class="background" style="stroke: none"/><text y="-10.1" style=""><tspan class="text-outer-tspan" x="0" y="-0.1em" dy="1.1em"><tspan font-style="normal" class="text-inner-tspan" font-weight="normal">-mask:</tspan><tspan font-style="normal" class="text-inner-tspan" font-weight="normal"> u64</tspan></tspan></text></g></g><g class="label" style="" transform="translate(0,25.5)"><g><rect class="background" style="stroke: none"/><text y="-10.1" style=""><tspan class="text-outer-tspan" x="0" y="-0.1em" dy="1.1em"><tspan font-style="normal" class="text-inner-tspan" font-weight="normal">-generation:</tspan><tspan font-style="normal" class="text-inner-tspan" font-weight="normal"> AtomicU8</tspan></tspan></text></g></g></g><g class="methods-group text" transform="translate(-85.5, 14.5)"><g class="label" style="" transform="translate(0,-6.5)"><g><rect class="background" style="stroke: none"/><text y="-10.1" style=""><tspan class="text-outer-tspan" x="0" y="-0.1em" dy="1.1em"><tspan font-style="normal" class="text-inner-tspan" font-weight="normal">+new_mb(mb)</tspan><tspan font-style="normal" class="text-inner-tspan" font-weight="normal"> :</tspan><tspan font-style="normal" class="text-inner-tspan" font-weight="normal"> TTTable</tspan></tspan></text></g></g><g class="label" style="" transform="translate(0,9.5)"><g><rect class="background" style="stroke: none"/><text y="-10.1" style=""><tspan class="text-outer-tspan" x="0" y="-0.1em" dy="1.1em"><tspan font-style="normal" class="text-inner-tspan" font-weight="normal">+new_search()</tspan></tspan></text></g></g><g class="label" style="" transform="translate(0,25.5)"><g><rect class="background" style="stroke: none"/><text y="-10.1" style=""><tspan class="text-outer-tspan" x="0" y="-0.1em" dy="1.1em"><tspan font-style="normal" class="text-inner-tspan" font-weight="normal">+probe(hash)</tspan><tspan font-style="normal" class="text-inner-tspan" font-weight="normal"> :</tspan><tspan font-style="normal" class="text-inner-tspan" font-weight="normal"> TTEntryOpt</tspan></tspan></text></g></g><g class="label" style="" transform="translate(0,41.5)"><g><rect class="background" style="stroke: none"/><text y="-10.1" style=""><tspan class="text-outer-tspan" x="0" y="-0.1em" dy="1.1em"><tspan font-style="normal" class="text-inner-tspan" font-weight="normal">+store(hash,mv,sc,d,flag)</tspan></tspan></text></g></g><g class="label" style="" transform="translate(0,57.5)"><g><rect class="background" style="stroke: none"/><text y="-10.1" style=""><tspan class="text-outer-tspan" x="0" y="-0.1em" dy="1.1em"><tspan font-style="normal" class="text-inner-tspan" font-weight="normal">+clear()</tspan></tspan></text></g></g><g class="label" style="" transform="translate(0,73.5)"><g><rect class="background" style="stroke: none"/><text y="-10.1" style=""><tspan class="text-outer-tspan" x="0" y="-0.1em" dy="1.1em"><tspan font-style="normal" class="text-inner-tspan" font-weight="normal">+hashfull()</tspan><tspan font-style="normal" class="text-inner-tspan" font-weight="normal"> :</tspan><tspan font-style="normal" class="text-inner-tspan" font-weight="normal"> usize</tspan></tspan></text></g></g></g><g class="divider" style=""><path d="M-97.5 -74.5 C-57.36629293471788 -74.5, -17.232585869435766 -74.5, 97.5 -74.5 M-97.5 -74.5 C-48.63601979159435 -74.5, 0.22796041681129964 -74.5, 97.5 -74.5" stroke="hsl(40.5882352941, 60%, 83.3333333333%)" stroke-width="1.3" fill="none" stroke-dasharray="0 0" style=""/></g><g class="divider" style=""><path d="M-97.5 -5.5 C-23.736660957105357 -5.5, 50.026678085789285 -5.5, 97.5 -5.5 M-97.5 -5.5 C-41.26804402422387 -5.5, 14.963911951552262 -5.5, 97.5 -5.5" stroke="hsl(40.5882352941, 60%, 83.3333333333%)" stroke-width="1.3" fill="none" stroke-dasharray="0 0" style=""/></g></g><g class="node default" id="classId-TTFlags-3" transform="translate(167.5, 580.5)"><g class="basic label-container"><path d="M-61.5 -71.5 L61.5 -71.5 L61.5 71.5 L-61.5 71.5" stroke="none" stroke-width="0" fill="#fff4dd" style=""/><path d="M-61.5 -71.5 C-18.508058830461486 -71.5, 24.483882339077027 -71.5, 61.5 -71.5 M-61.5 -71.5 C-13.249706528676562 -71.5, 35.000586942646876 -71.5, 61.5 -71.5 M61.5 -71.5 C61.5 -27.423748309307257, 61.5 16.652503381385486, 61.5 71.5 M61.5 -71.5 C61.5 -38.5857730625691, 61.5 -5.671546125138207, 61.5 71.5 M61.5 71.5 C16.450374531440794 71.5, -28.599250937118413 71.5, -61.5 71.5 M61.5 71.5 C36.51447747429559 71.5, 11.528954948591185 71.5, -61.5 71.5 M-61.5 71.5 C-61.5 38.48821452454227, -61.5 5.476429049084544, -61.5 -71.5 M-61.5 71.5 C-61.5 38.173705524378335, -61.5 4.847411048756669, -61.5 -71.5" stroke="hsl(40.5882352941, 60%, 83.3333333333%)" stroke-width="1.3" fill="none" stroke-dasharray="0 0" style=""/></g><g class="annotation-group text" transform="translate(-21, -51.5)"><g class="label" style="" transform="translate(0,-6.5)"><g><rect class="background" style="stroke: none"/><text y="-10.1" style=""><tspan class="text-outer-tspan" x="0" y="-0.1em" dy="1.1em"><tspan font-style="normal" class="text-inner-tspan" font-weight="normal">«const»</tspan></tspan></text></g></g></g><g class="label-group text" transform="translate(-21, -38.5)"><g class="label" style="font-weight: bolder" transform="translate(0,-6.5)"><g><rect class="background" style="stroke: none"/><text y="-10.1" style=""><tspan class="text-outer-tspan" x="0" y="-0.1em" dy="1.1em" font-weight=""><tspan font-style="normal" class="text-inner-tspan" font-weight="">TTFlags</tspan></tspan></text></g></g></g><g class="members-group text" transform="translate(-49.5, -1.5)"><g class="label" style="" transform="translate(0,-6.5)"><g><rect class="background" style="stroke: none"/><text y="-10.1" style=""><tspan class="text-outer-tspan" x="0" y="-0.1em" dy="1.1em"><tspan font-style="normal" class="text-inner-tspan" font-weight="normal">EXACT=0</tspan></tspan></text></g></g><g class="label" style="" transform="translate(0,9.5)"><g><rect class="background" style="stroke: none"/><text y="-10.1" style=""><tspan class="text-outer-tspan" x="0" y="-0.1em" dy="1.1em"><tspan font-style="normal" class="text-inner-tspan" font-weight="normal">LOWER_BOUND=1</tspan></tspan></text></g></g><g class="label" style="" transform="translate(0,25.5)"><g><rect class="background" style="stroke: none"/><text y="-10.1" style=""><tspan class="text-outer-tspan" x="0" y="-0.1em" dy="1.1em"><tspan font-style="normal" class="text-inner-tspan" font-weight="normal">UPPER_BOUND=2</tspan></tspan></text></g></g></g><g class="methods-group text" transform="translate(-49.5, 67.5)"/><g class="divider" style=""><path d="M-61.5 -21.5 C-13.368033372580683 -21.5, 34.76393325483863 -21.5, 61.5 -21.5 M-61.5 -21.5 C-32.116191961764954 -21.5, -2.732383923529916 -21.5, 61.5 -21.5" stroke="hsl(40.5882352941, 60%, 83.3333333333%)" stroke-width="1.3" fill="none" stroke-dasharray="0 0" style=""/></g><g class="divider" style=""><path d="M-61.5 47.5 C-25.653658967043576 47.5, 10.192682065912848 47.5, 61.5 47.5 M-61.5 47.5 C-31.21753693556784 47.5, -0.9350738711356783 47.5, 61.5 47.5" stroke="hsl(40.5882352941, 60%, 83.3333333333%)" stroke-width="1.3" fill="none" stroke-dasharray="0 0" style=""/></g></g><g class="node default" id="classId-Move-4" transform="translate(32, 580.5)"><g class="basic label-container"><path d="M-24 -36.5 L24 -36.5 L24 36.5 L-24 36.5" stroke="none" stroke-width="0" fill="#fff4dd" style=""/><path d="M-24 -36.5 C-8.427352216128837 -36.5, 7.145295567742327 -36.5, 24 -36.5 M-24 -36.5 C-6.689486054439609 -36.5, 10.621027891120782 -36.5, 24 -36.5 M24 -36.5 C24 -14.035269386924803, 24 8.429461226150394, 24 36.5 M24 -36.5 C24 -7.551430909013995, 24 21.39713818197201, 24 36.5 M24 36.5 C10.092079341364286 36.5, -3.8158413172714276 36.5, -24 36.5 M24 36.5 C13.83032837053811 36.5, 3.6606567410762203 36.5, -24 36.5 M-24 36.5 C-24 13.150661613643365, -24 -10.19867677271327, -24 -36.5 M-24 36.5 C-24 14.220445172714498, -24 -8.059109654571003, -24 -36.5" stroke="hsl(40.5882352941, 60%, 83.3333333333%)" stroke-width="1.3" fill="none" stroke-dasharray="0 0" style=""/></g><g class="annotation-group text" transform="translate(0, -16.5)"/><g class="label-group text" transform="translate(-12, -16.5)"><g class="label" style="font-weight: bolder" transform="translate(0,-6.5)"><g><rect class="background" style="stroke: none"/><text y="-10.1" style=""><tspan class="text-outer-tspan" x="0" y="-0.1em" dy="1.1em" font-weight=""><tspan font-style="normal" class="text-inner-tspan" font-weight="">Move</tspan></tspan></text></g></g></g><g class="members-group text" transform="translate(-12, 20.5)"/><g class="methods-group text" transform="translate(-12, 50.5)"/><g class="divider" style=""><path d="M-24 0.5 C-4.944032956500461 0.5, 14.111934086999078 0.5, 24 0.5 M-24 0.5 C-13.230374703018528 0.5, -2.4607494060370563 0.5, 24 0.5" stroke="hsl(40.5882352941, 60%, 83.3333333333%)" stroke-width="1.3" fill="none" stroke-dasharray="0 0" style=""/></g><g class="divider" style=""><path d="M-24 18.5 C-11.992716122031329 18.5, 0.014567755937342497 18.5, 24 18.5 M-24 18.5 C-12.712372128806553 18.5, -1.4247442576131064 18.5, 24 18.5" stroke="hsl(40.5882352941, 60%, 83.3333333333%)" stroke-width="1.3" fill="none" stroke-dasharray="0 0" style=""/></g></g></g></g></g></svg>