<svg id="my-svg" width="100%" xmlns="http://www.w3.org/2000/svg" xmlns:xlink="http://www.w3.org/1999/xlink" class="classDiagram" style="max-width: 883px; background-color: white;" viewBox="0 0 883 833" role="graphics-document document" aria-roledescription="class"><style>#my-svg{font-family:JetBrains Mono;font-size:10px;fill:#333;}@keyframes edge-animation-frame{from{stroke-dashoffset:0;}}@keyframes dash{to{stroke-dashoffset:0;}}#my-svg .edge-animation-slow{stroke-dasharray:9,5!important;stroke-dashoffset:900;animation:dash 50s linear infinite;stroke-linecap:round;}#my-svg .edge-animation-fast{stroke-dasharray:9,5!important;stroke-dashoffset:900;animation:dash 20s linear infinite;stroke-linecap:round;}#my-svg .error-icon{fill:hsl(220.5882352941, 100%, 98.3333333333%);}#my-svg .error-text{fill:rgb(8.5000000002, 5.7500000001, 0);stroke:rgb(8.5000000002, 5.7500000001, 0);}#my-svg .edge-thickness-normal{stroke-width:1px;}#my-svg .edge-thickness-thick{stroke-width:3.5px;}#my-svg .edge-pattern-solid{stroke-dasharray:0;}#my-svg .edge-thickness-invisible{stroke-width:0;fill:none;}#my-svg .edge-pattern-dashed{stroke-dasharray:3;}#my-svg .edge-pattern-dotted{stroke-dasharray:2;}#my-svg .marker{fill:#0b0b0b;stroke:#0b0b0b;}#my-svg .marker.cross{stroke:#0b0b0b;}#my-svg svg{font-family:JetBrains Mono;font-size:10px;}#my-svg p{margin:0;}#my-svg g.classGroup text{fill:hsl(40.5882352941, 60%, 83.3333333333%);stroke:none;font-family:JetBrains Mono;font-size:10px;}#my-svg g.classGroup text .title{font-weight:bolder;}#my-svg .nodeLabel,#my-svg .edgeLabel{color:#333;}#my-svg .edgeLabel .label rect{fill:#fff4dd;}#my-svg .label text{fill:#333;}#my-svg .labelBkg{background:#fff4dd;}#my-svg .edgeLabel .label span{background:#fff4dd;}#my-svg .classTitle{font-weight:bolder;}#my-svg .node rect,#my-svg .node circle,#my-svg .node ellipse,#my-svg .node polygon,#my-svg .node path{fill:#fff4dd;stroke:hsl(40.5882352941, 60%, 83.3333333333%);stroke-width:1px;}#my-svg .divider{stroke:hsl(40.5882352941, 60%, 83.3333333333%);stroke-width:1;}#my-svg g.clickable{cursor:pointer;}#my-svg g.classGroup rect{fill:#fff4dd;stroke:hsl(40.5882352941, 60%, 83.3333333333%);}#my-svg g.classGroup line{stroke:hsl(40.5882352941, 60%, 83.3333333333%);stroke-width:1;}#my-svg .classLabel .box{stroke:none;stroke-width:0;fill:#fff4dd;opacity:0.5;}#my-svg .classLabel .label{fill:hsl(40.5882352941, 60%, 83.3333333333%);font-size:10px;}#my-svg .relation{stroke:#0b0b0b;stroke-width:1;fill:none;}#my-svg .dashed-line{stroke-dasharray:3;}#my-svg .dotted-line{stroke-dasharray:1 2;}#my-svg #compositionStart,#my-svg .composition{fill:#0b0b0b!important;stroke:#0b0b0b!important;stroke-width:1;}#my-svg #compositionEnd,#my-svg .composition{fill:#0b0b0b!important;stroke:#0b0b0b!important;stroke-width:1;}#my-svg #dependencyStart,#my-svg .dependency{fill:#0b0b0b!important;stroke:#0b0b0b!important;stroke-width:1;}#my-svg #dependencyStart,#my-svg .dependency{fill:#0b0b0b!important;stroke:#0b0b0b!important;stroke-width:1;}#my-svg #extensionStart,#my-svg .extension{fill:transparent!important;stroke:#0b0b0b!important;stroke-width:1;}#my-svg #extensionEnd,#my-svg .extension{fill:transparent!important;stroke:#0b0b0b!important;stroke-width:1;}#my-svg #aggregationStart,#my-svg .aggregation{fill:transparent!important;stroke:#0b0b0b!important;stroke-width:1;}#my-svg #aggregationEnd,#my-svg .aggregation{fill:transparent!important;stroke:#0b0b0b!important;stroke-width:1;}#my-svg #lollipopStart,#my-svg .lollipop{fill:#fff4dd!important;stroke:#0b0b0b!important;stroke-width:1;}#my-svg #lollipopEnd,#my-svg .lollipop{fill:#fff4dd!important;stroke:#0b0b0b!important;stroke-width:1;}#my-svg .edgeTerminals{font-size:11px;line-height:initial;}#my-svg .classTitleText{text-anchor:middle;font-size:18px;fill:#333;}#my-svg .label-icon{display:inline-block;height:1em;overflow:visible;vertical-align:-0.125em;}#my-svg .node .label-icon path{fill:currentColor;stroke:revert;stroke-width:revert;}#my-svg :root{--mermaid-font-family:"trebuchet ms",verdana,arial,sans-serif;}</style><g><defs><marker id="my-svg_class-aggregationStart" class="marker aggregation class" refX="18" refY="7" markerWidth="190" markerHeight="240" orient="auto"><path d="M 18,7 L9,13 L1,7 L9,1 Z"/></marker></defs><defs><marker id="my-svg_class-aggregationEnd" class="marker aggregation class" refX="1" refY="7" markerWidth="20" markerHeight="28" orient="auto"><path d="M 18,7 L9,13 L1,7 L9,1 Z"/></marker></defs><defs><marker id="my-svg_class-extensionStart" class="marker extension class" refX="18" refY="7" markerWidth="190" markerHeight="240" orient="auto"><path d="M 1,7 L18,13 V 1 Z"/></marker></defs><defs><marker id="my-svg_class-extensionEnd" class="marker extension class" refX="1" refY="7" markerWidth="20" markerHeight="28" orient="auto"><path d="M 1,1 V 13 L18,7 Z"/></marker></defs><defs><marker id="my-svg_class-compositionStart" class="marker composition class" refX="18" refY="7" markerWidth="190" markerHeight="240" orient="auto"><path d="M 18,7 L9,13 L1,7 L9,1 Z"/></marker></defs><defs><marker id="my-svg_class-compositionEnd" class="marker composition class" refX="1" refY="7" markerWidth="20" markerHeight="28" orient="auto"><path d="M 18,7 L9,13 L1,7 L9,1 Z"/></marker></defs><defs><marker id="my-svg_class-dependencyStart" class="marker dependency class" refX="6" refY="7" markerWidth="190" markerHeight="240" orient="auto"><path d="M 5,7 L9,13 L1,7 L9,1 Z"/></marker></defs><defs><marker id="my-svg_class-dependencyEnd" class="marker dependency class" refX="13" refY="7" markerWidth="20" markerHeight="28" orient="auto"><path d="M 18,7 L9,13 L14,7 L9,1 Z"/></marker></defs><defs><marker id="my-svg_class-lollipopStart" class="marker lollipop class" refX="13" refY="7" markerWidth="190" markerHeight="240" orient="auto"><circle stroke="black" fill="transparent" cx="7" cy="7" r="6"/></marker></defs><defs><marker id="my-svg_class-lollipopEnd" class="marker lollipop class" refX="1" refY="7" markerWidth="190" markerHeight="240" orient="auto"><circle stroke="black" fill="transparent" cx="7" cy="7" r="6"/></marker></defs><g class="root"><g class="clusters"/><g class="edgePaths"><path d="M507,207L507,215.167C507,223.333,507,239.667,507,255.25C507,270.833,507,285.667,507,293.083L507,300.5" id="id_CastleRights_Color_1" class="edge-thickness-normal edge-pattern-solid relation" style=";;;" data-edge="true" data-et="edge" data-id="id_CastleRights_Color_1" data-points="W3sieCI6NTA3LCJ5IjoyMDd9LHsieCI6NTA3LCJ5IjoyNTZ9LHsieCI6NTA3LCJ5IjozMDYuNX1d" marker-end="url(#my-svg_class-dependencyEnd)"/><path d="M777.5,472L777.5,476.167C777.5,480.333,777.5,488.667,777.5,496C777.5,503.333,777.5,509.667,777.5,512.833L777.5,516" id="id_Move_MoveType_2" class="edge-thickness-normal edge-pattern-solid relation" style=";;;" data-edge="true" data-et="edge" data-id="id_Move_MoveType_2" data-points="W3sieCI6Nzc3LjUsInkiOjQ3Mn0seyJ4Ijo3NzcuNSwieSI6NDk3fSx7IngiOjc3Ny41LCJ5Ijo1MjJ9XQ==" marker-end="url(#my-svg_class-dependencyEnd)"/><path d="M777.5,231L777.5,235.167C777.5,239.333,777.5,247.667,777.5,255C777.5,262.333,777.5,268.667,777.5,271.833L777.5,275" id="id_MoveCollector_Move_3" class="edge-thickness-normal edge-pattern-solid relation" style=";;;" data-edge="true" data-et="edge" data-id="id_MoveCollector_Move_3" data-points="W3sieCI6Nzc3LjUsInkiOjIzMX0seyJ4Ijo3NzcuNSwieSI6MjU2fSx7IngiOjc3Ny41LCJ5IjoyODF9XQ==" marker-end="url(#my-svg_class-dependencyEnd)"/></g><g class="edgeLabels"><g><rect class="background" style="stroke: none"/></g><g><rect class="background" style="stroke: none"/></g><g><rect class="background" style="stroke: none"/></g><g class="edgeLabel"><g class="label" data-id="id_CastleRights_Color_1" transform="translate(0, 0)"><text y="-10.1"><tspan class="text-outer-tspan" x="0" y="-0.1em" dy="1.1em"/></text></g></g><g class="edgeLabel"><g class="label" data-id="id_Move_MoveType_2" transform="translate(0, 0)"><text y="-10.1"><tspan class="text-outer-tspan" x="0" y="-0.1em" dy="1.1em"/></text></g></g><g class="edgeLabel"><g class="label" data-id="id_MoveCollector_Move_3" transform="translate(0, 0)"><text y="-10.1"><tspan class="text-outer-tspan" x="0" y="-0.1em" dy="1.1em"/></text></g></g></g><g class="nodes"><g class="node default" id="classId-Bitboard-0" transform="translate(107, 119.5)"><g class="basic label-container"><path d="M-99 -87.5 L99 -87.5 L99 87.5 L-99 87.5" stroke="none" stroke-width="0" fill="#fff4dd" style=""/><path d="M-99 -87.5 C-52.96902870515781 -87.5, -6.938057410315622 -87.5, 99 -87.5 M-99 -87.5 C-58.58164286363651 -87.5, -18.16328572727302 -87.5, 99 -87.5 M99 -87.5 C99 -22.276517519526806, 99 42.94696496094639, 99 87.5 M99 -87.5 C99 -28.253949976365533, 99 30.992100047268934, 99 87.5 M99 87.5 C51.64193331737383 87.5, 4.283866634747653 87.5, -99 87.5 M99 87.5 C31.777697267357937 87.5, -35.44460546528413 87.5, -99 87.5 M-99 87.5 C-99 19.50661424744436, -99 -48.48677150511128, -99 -87.5 M-99 87.5 C-99 40.545283424177875, -99 -6.409433151644251, -99 -87.5" stroke="hsl(40.5882352941, 60%, 83.3333333333%)" stroke-width="1.3" fill="none" stroke-dasharray="0 0" style=""/></g><g class="annotation-group text" transform="translate(0, -67.5)"/><g class="label-group text" transform="translate(-24, -67.5)"><g class="label" style="font-weight: bolder" transform="translate(0,-6.5)"><g><rect class="background" style="stroke: none"/><text y="-10.1" style=""><tspan class="text-outer-tspan" x="0" y="-0.1em" dy="1.1em" font-weight=""><tspan font-style="normal" class="text-inner-tspan" font-weight="">Bitboard</tspan></tspan></text></g></g></g><g class="members-group text" transform="translate(-87, -30.5)"><g class="label" style="" transform="translate(0,-6.5)"><g><rect class="background" style="stroke: none"/><text y="-10.1" style=""><tspan class="text-outer-tspan" x="0" y="-0.1em" dy="1.1em"><tspan font-style="normal" class="text-inner-tspan" font-weight="normal">+u64</tspan><tspan font-style="normal" class="text-inner-tspan" font-weight="normal"> 0</tspan></tspan></text></g></g></g><g class="methods-group text" transform="translate(-87, 6.5)"><g class="label" style="" transform="translate(0,-6.5)"><g><rect class="background" style="stroke: none"/><text y="-10.1" style=""><tspan class="text-outer-tspan" x="0" y="-0.1em" dy="1.1em"><tspan font-style="normal" class="text-inner-tspan" font-weight="normal">+new()</tspan><tspan font-style="normal" class="text-inner-tspan" font-weight="normal"> :</tspan><tspan font-style="normal" class="text-inner-tspan" font-weight="normal"> Bitboard</tspan></tspan></text></g></g><g class="label" style="" transform="translate(0,9.5)"><g><rect class="background" style="stroke: none"/><text y="-10.1" style=""><tspan class="text-outer-tspan" x="0" y="-0.1em" dy="1.1em"><tspan font-style="normal" class="text-inner-tspan" font-weight="normal">+from_raw(u64)</tspan><tspan font-style="normal" class="text-inner-tspan" font-weight="normal"> :</tspan><tspan font-style="normal" class="text-inner-tspan" font-weight="normal"> Bitboard</tspan></tspan></text></g></g><g class="label" style="" transform="translate(0,25.5)"><g><rect class="background" style="stroke: none"/><text y="-10.1" style=""><tspan class="text-outer-tspan" x="0" y="-0.1em" dy="1.1em"><tspan font-style="normal" class="text-inner-tspan" font-weight="normal">+set(idx)</tspan></tspan></text></g></g><g class="label" style="" transform="translate(0,41.5)"><g><rect class="background" style="stroke: none"/><text y="-10.1" style=""><tspan class="text-outer-tspan" x="0" y="-0.1em" dy="1.1em"><tspan font-style="normal" class="text-inner-tspan" font-weight="normal">+clear(idx)</tspan></tspan></text></g></g><g class="label" style="" transform="translate(0,57.5)"><g><rect class="background" style="stroke: none"/><text y="-10.1" style=""><tspan class="text-outer-tspan" x="0" y="-0.1em" dy="1.1em"><tspan font-style="normal" class="text-inner-tspan" font-weight="normal">+is_empty()</tspan><tspan font-style="normal" class="text-inner-tspan" font-weight="normal"> :</tspan><tspan font-style="normal" class="text-inner-tspan" font-weight="normal"> bool</tspan></tspan></text></g></g></g><g class="divider" style=""><path d="M-99 -50.5 C-24.72478862187711 -50.5, 49.55042275624578 -50.5, 99 -50.5 M-99 -50.5 C-39.4827479480755 -50.5, 20.034504103849002 -50.5, 99 -50.5" stroke="hsl(40.5882352941, 60%, 83.3333333333%)" stroke-width="1.3" fill="none" stroke-dasharray="0 0" style=""/></g><g class="divider" style=""><path d="M-99 -13.5 C-23.975539401251368 -13.5, 51.048921197497265 -13.5, 99 -13.5 M-99 -13.5 C-32.47745953765367 -13.5, 34.045080924692655 -13.5, 99 -13.5" stroke="hsl(40.5882352941, 60%, 83.3333333333%)" stroke-width="1.3" fill="none" stroke-dasharray="0 0" style=""/></g></g><g class="node default" id="classId-Color-1" transform="translate(507, 376.5)"><g class="basic label-container"><path d="M-66 -70 L66 -70 L66 70 L-66 70" stroke="none" stroke-width="0" fill="#fff4dd" style=""/><path d="M-66 -70 C-14.04678821396439 -70, 37.90642357207122 -70, 66 -70 M-66 -70 C-19.663022121307883 -70, 26.673955757384235 -70, 66 -70 M66 -70 C66 -38.978862748972034, 66 -7.957725497944068, 66 70 M66 -70 C66 -32.868965753097335, 66 4.26206849380533, 66 70 M66 70 C34.99855531425762 70, 3.9971106285152445 70, -66 70 M66 70 C28.983097362567214 70, -8.033805274865571 70, -66 70 M-66 70 C-66 38.129356966960145, -66 6.2587139339202835, -66 -70 M-66 70 C-66 33.72280018495876, -66 -2.554399630082486, -66 -70" stroke="hsl(40.5882352941, 60%, 83.3333333333%)" stroke-width="1.3" fill="none" stroke-dasharray="0 0" style=""/></g><g class="annotation-group text" transform="translate(-18, -50)"><g class="label" style="" transform="translate(0,-6.5)"><g><rect class="background" style="stroke: none"/><text y="-10.1" style=""><tspan class="text-outer-tspan" x="0" y="-0.1em" dy="1.1em"><tspan font-style="normal" class="text-inner-tspan" font-weight="normal">«enum»</tspan></tspan></text></g></g></g><g class="label-group text" transform="translate(-15, -37)"><g class="label" style="font-weight: bolder" transform="translate(0,-6.5)"><g><rect class="background" style="stroke: none"/><text y="-10.1" style=""><tspan class="text-outer-tspan" x="0" y="-0.1em" dy="1.1em" font-weight=""><tspan font-style="normal" class="text-inner-tspan" font-weight="">Color</tspan></tspan></text></g></g></g><g class="members-group text" transform="translate(-54, 0)"><g class="label" style="" transform="translate(0,-6.5)"><g><rect class="background" style="stroke: none"/><text y="-10.1" style=""><tspan class="text-outer-tspan" x="0" y="-0.1em" dy="1.1em"><tspan font-style="normal" class="text-inner-tspan" font-weight="normal">White</tspan></tspan></text></g></g><g class="label" style="" transform="translate(0,9.5)"><g><rect class="background" style="stroke: none"/><text y="-10.1" style=""><tspan class="text-outer-tspan" x="0" y="-0.1em" dy="1.1em"><tspan font-style="normal" class="text-inner-tspan" font-weight="normal">Black</tspan></tspan></text></g></g></g><g class="methods-group text" transform="translate(-54, 53)"><g class="label" style="" transform="translate(0,-6.5)"><g><rect class="background" style="stroke: none"/><text y="-10.1" style=""><tspan class="text-outer-tspan" x="0" y="-0.1em" dy="1.1em"><tspan font-style="normal" class="text-inner-tspan" font-weight="normal">+flip()</tspan><tspan font-style="normal" class="text-inner-tspan" font-weight="normal"> :</tspan><tspan font-style="normal" class="text-inner-tspan" font-weight="normal"> Color</tspan></tspan></text></g></g></g><g class="divider" style=""><path d="M-66 -20 C-18.01811372188253 -20, 29.963772556234943 -20, 66 -20 M-66 -20 C-31.41583485169341 -20, 3.1683302966131777 -20, 66 -20" stroke="hsl(40.5882352941, 60%, 83.3333333333%)" stroke-width="1.3" fill="none" stroke-dasharray="0 0" style=""/></g><g class="divider" style=""><path d="M-66 33 C-36.334024107417676 33, -6.668048214835359 33, 66 33 M-66 33 C-28.0493356645812 33, 9.9013286708376 33, 66 33" stroke="hsl(40.5882352941, 60%, 83.3333333333%)" stroke-width="1.3" fill="none" stroke-dasharray="0 0" style=""/></g></g><g class="node default" id="classId-Piece-2" transform="translate(295, 119.5)"><g class="basic label-container"><path d="M-39 -95.5 L39 -95.5 L39 95.5 L-39 95.5" stroke="none" stroke-width="0" fill="#fff4dd" style=""/><path d="M-39 -95.5 C-11.093291595290363 -95.5, 16.813416809419273 -95.5, 39 -95.5 M-39 -95.5 C-15.168648623596347 -95.5, 8.662702752807306 -95.5, 39 -95.5 M39 -95.5 C39 -42.54157950909559, 39 10.416840981808818, 39 95.5 M39 -95.5 C39 -51.444758917012905, 39 -7.38951783402581, 39 95.5 M39 95.5 C17.4855312479136 95.5, -4.028937504172802 95.5, -39 95.5 M39 95.5 C8.47062253280815 95.5, -22.0587549343837 95.5, -39 95.5 M-39 95.5 C-39 31.94001545665848, -39 -31.619969086683042, -39 -95.5 M-39 95.5 C-39 32.77180965692269, -39 -29.956380686154617, -39 -95.5" stroke="hsl(40.5882352941, 60%, 83.3333333333%)" stroke-width="1.3" fill="none" stroke-dasharray="0 0" style=""/></g><g class="annotation-group text" transform="translate(-18, -75.5)"><g class="label" style="" transform="translate(0,-6.5)"><g><rect class="background" style="stroke: none"/><text y="-10.1" style=""><tspan class="text-outer-tspan" x="0" y="-0.1em" dy="1.1em"><tspan font-style="normal" class="text-inner-tspan" font-weight="normal">«enum»</tspan></tspan></text></g></g></g><g class="label-group text" transform="translate(-15, -62.5)"><g class="label" style="font-weight: bolder" transform="translate(0,-6.5)"><g><rect class="background" style="stroke: none"/><text y="-10.1" style=""><tspan class="text-outer-tspan" x="0" y="-0.1em" dy="1.1em" font-weight=""><tspan font-style="normal" class="text-inner-tspan" font-weight="">Piece</tspan></tspan></text></g></g></g><g class="members-group text" transform="translate(-27, -25.5)"><g class="label" style="" transform="translate(0,-6.5)"><g><rect class="background" style="stroke: none"/><text y="-10.1" style=""><tspan class="text-outer-tspan" x="0" y="-0.1em" dy="1.1em"><tspan font-style="normal" class="text-inner-tspan" font-weight="normal">Pawn</tspan></tspan></text></g></g><g class="label" style="" transform="translate(0,9.5)"><g><rect class="background" style="stroke: none"/><text y="-10.1" style=""><tspan class="text-outer-tspan" x="0" y="-0.1em" dy="1.1em"><tspan font-style="normal" class="text-inner-tspan" font-weight="normal">Knight</tspan></tspan></text></g></g><g class="label" style="" transform="translate(0,25.5)"><g><rect class="background" style="stroke: none"/><text y="-10.1" style=""><tspan class="text-outer-tspan" x="0" y="-0.1em" dy="1.1em"><tspan font-style="normal" class="text-inner-tspan" font-weight="normal">Bishop</tspan></tspan></text></g></g><g class="label" style="" transform="translate(0,41.5)"><g><rect class="background" style="stroke: none"/><text y="-10.1" style=""><tspan class="text-outer-tspan" x="0" y="-0.1em" dy="1.1em"><tspan font-style="normal" class="text-inner-tspan" font-weight="normal">Rook</tspan></tspan></text></g></g><g class="label" style="" transform="translate(0,57.5)"><g><rect class="background" style="stroke: none"/><text y="-10.1" style=""><tspan class="text-outer-tspan" x="0" y="-0.1em" dy="1.1em"><tspan font-style="normal" class="text-inner-tspan" font-weight="normal">Queen</tspan></tspan></text></g></g><g class="label" style="" transform="translate(0,73.5)"><g><rect class="background" style="stroke: none"/><text y="-10.1" style=""><tspan class="text-outer-tspan" x="0" y="-0.1em" dy="1.1em"><tspan font-style="normal" class="text-inner-tspan" font-weight="normal">King</tspan></tspan></text></g></g></g><g class="methods-group text" transform="translate(-27, 91.5)"/><g class="divider" style=""><path d="M-39 -45.5 C-13.315371213850664 -45.5, 12.369257572298672 -45.5, 39 -45.5 M-39 -45.5 C-13.70743925365419 -45.5, 11.58512149269162 -45.5, 39 -45.5" stroke="hsl(40.5882352941, 60%, 83.3333333333%)" stroke-width="1.3" fill="none" stroke-dasharray="0 0" style=""/></g><g class="divider" style=""><path d="M-39 71.5 C-18.946907681421926 71.5, 1.1061846371561472 71.5, 39 71.5 M-39 71.5 C-22.119221367740003 71.5, -5.238442735480007 71.5, 39 71.5" stroke="hsl(40.5882352941, 60%, 83.3333333333%)" stroke-width="1.3" fill="none" stroke-dasharray="0 0" style=""/></g></g><g class="node default" id="classId-CastleRights-3" transform="translate(507, 119.5)"><g class="basic label-container"><path d="M-123 -87.5 L123 -87.5 L123 87.5 L-123 87.5" stroke="none" stroke-width="0" fill="#fff4dd" style=""/><path d="M-123 -87.5 C-25.966324152285893 -87.5, 71.06735169542821 -87.5, 123 -87.5 M-123 -87.5 C-68.05121914793554 -87.5, -13.102438295871082 -87.5, 123 -87.5 M123 -87.5 C123 -26.502050316246326, 123 34.49589936750735, 123 87.5 M123 -87.5 C123 -21.716979139150155, 123 44.06604172169969, 123 87.5 M123 87.5 C41.89406363501405 87.5, -39.2118727299719 87.5, -123 87.5 M123 87.5 C32.68892780521864 87.5, -57.62214438956272 87.5, -123 87.5 M-123 87.5 C-123 39.627770218240514, -123 -8.244459563518973, -123 -87.5 M-123 87.5 C-123 44.96074585898227, -123 2.4214917179645425, -123 -87.5" stroke="hsl(40.5882352941, 60%, 83.3333333333%)" stroke-width="1.3" fill="none" stroke-dasharray="0 0" style=""/></g><g class="annotation-group text" transform="translate(0, -67.5)"/><g class="label-group text" transform="translate(-36, -67.5)"><g class="label" style="font-weight: bolder" transform="translate(0,-6.5)"><g><rect class="background" style="stroke: none"/><text y="-10.1" style=""><tspan class="text-outer-tspan" x="0" y="-0.1em" dy="1.1em" font-weight=""><tspan font-style="normal" class="text-inner-tspan" font-weight="">CastleRights</tspan></tspan></text></g></g></g><g class="members-group text" transform="translate(-111, -30.5)"><g class="label" style="" transform="translate(0,-6.5)"><g><rect class="background" style="stroke: none"/><text y="-10.1" style=""><tspan class="text-outer-tspan" x="0" y="-0.1em" dy="1.1em"><tspan font-style="normal" class="text-inner-tspan" font-weight="normal">+u8</tspan><tspan font-style="normal" class="text-inner-tspan" font-weight="normal"> 0</tspan></tspan></text></g></g><g class="label" style="" transform="translate(0,9.5)"><g><rect class="background" style="stroke: none"/><text y="-10.1" style=""><tspan class="text-outer-tspan" x="0" y="-0.1em" dy="1.1em"><tspan font-style="normal" class="text-inner-tspan" font-weight="normal">+NONE</tspan></tspan></text></g></g></g><g class="methods-group text" transform="translate(-111, 22.5)"><g class="label" style="" transform="translate(0,-6.5)"><g><rect class="background" style="stroke: none"/><text y="-10.1" style=""><tspan class="text-outer-tspan" x="0" y="-0.1em" dy="1.1em"><tspan font-style="normal" class="text-inner-tspan" font-weight="normal">+can_castle_king(Color)</tspan><tspan font-style="normal" class="text-inner-tspan" font-weight="normal"> :</tspan><tspan font-style="normal" class="text-inner-tspan" font-weight="normal"> bool</tspan></tspan></text></g></g><g class="label" style="" transform="translate(0,9.5)"><g><rect class="background" style="stroke: none"/><text y="-10.1" style=""><tspan class="text-outer-tspan" x="0" y="-0.1em" dy="1.1em"><tspan font-style="normal" class="text-inner-tspan" font-weight="normal">+can_castle_queen(Color)</tspan><tspan font-style="normal" class="text-inner-tspan" font-weight="normal"> :</tspan><tspan font-style="normal" class="text-inner-tspan" font-weight="normal"> bool</tspan></tspan></text></g></g><g class="label" style="" transform="translate(0,25.5)"><g><rect class="background" style="stroke: none"/><text y="-10.1" style=""><tspan class="text-outer-tspan" x="0" y="-0.1em" dy="1.1em"><tspan font-style="normal" class="text-inner-tspan" font-weight="normal">+remove_color(Color)</tspan></tspan></text></g></g><g class="label" style="" transform="translate(0,41.5)"><g><rect class="background" style="stroke: none"/><text y="-10.1" style=""><tspan class="text-outer-tspan" x="0" y="-0.1em" dy="1.1em"><tspan font-style="normal" class="text-inner-tspan" font-weight="normal">+remove_rook(sq)</tspan></tspan></text></g></g></g><g class="divider" style=""><path d="M-123 -50.5 C-59.21618077781858 -50.5, 4.567638444362842 -50.5, 123 -50.5 M-123 -50.5 C-59.107051741828904 -50.5, 4.785896516342191 -50.5, 123 -50.5" stroke="hsl(40.5882352941, 60%, 83.3333333333%)" stroke-width="1.3" fill="none" stroke-dasharray="0 0" style=""/></g><g class="divider" style=""><path d="M-123 2.5 C-33.17238039907524 2.5, 56.655239201849525 2.5, 123 2.5 M-123 2.5 C-66.190072677731 2.5, -9.380145355461991 2.5, 123 2.5" stroke="hsl(40.5882352941, 60%, 83.3333333333%)" stroke-width="1.3" fill="none" stroke-dasharray="0 0" style=""/></g></g><g class="node default" id="classId-MoveType-4" transform="translate(777.5, 673.5)"><g class="basic label-container"><path d="M-66 -151.5 L66 -151.5 L66 151.5 L-66 151.5" stroke="none" stroke-width="0" fill="#fff4dd" style=""/><path d="M-66 -151.5 C-14.748795451498644 -151.5, 36.50240909700271 -151.5, 66 -151.5 M-66 -151.5 C-23.275447720791547 -151.5, 19.449104558416906 -151.5, 66 -151.5 M66 -151.5 C66 -73.68053915406827, 66 4.138921691863459, 66 151.5 M66 -151.5 C66 -81.20038575167327, 66 -10.900771503346533, 66 151.5 M66 151.5 C15.512646972555203 151.5, -34.974706054889594 151.5, -66 151.5 M66 151.5 C38.625646964352484 151.5, 11.25129392870496 151.5, -66 151.5 M-66 151.5 C-66 84.65161600096638, -66 17.80323200193277, -66 -151.5 M-66 151.5 C-66 88.97443823574719, -66 26.448876471494373, -66 -151.5" stroke="hsl(40.5882352941, 60%, 83.3333333333%)" stroke-width="1.3" fill="none" stroke-dasharray="0 0" style=""/></g><g class="annotation-group text" transform="translate(-18, -131.5)"><g class="label" style="" transform="translate(0,-6.5)"><g><rect class="background" style="stroke: none"/><text y="-10.1" style=""><tspan class="text-outer-tspan" x="0" y="-0.1em" dy="1.1em"><tspan font-style="normal" class="text-inner-tspan" font-weight="normal">«enum»</tspan></tspan></text></g></g></g><g class="label-group text" transform="translate(-24, -118.5)"><g class="label" style="font-weight: bolder" transform="translate(0,-6.5)"><g><rect class="background" style="stroke: none"/><text y="-10.1" style=""><tspan class="text-outer-tspan" x="0" y="-0.1em" dy="1.1em" font-weight=""><tspan font-style="normal" class="text-inner-tspan" font-weight="">MoveType</tspan></tspan></text></g></g></g><g class="members-group text" transform="translate(-54, -81.5)"><g class="label" style="" transform="translate(0,-6.5)"><g><rect class="background" style="stroke: none"/><text y="-10.1" style=""><tspan class="text-outer-tspan" x="0" y="-0.1em" dy="1.1em"><tspan font-style="normal" class="text-inner-tspan" font-weight="normal">Quiet</tspan></tspan></text></g></g><g class="label" style="" transform="translate(0,9.5)"><g><rect class="background" style="stroke: none"/><text y="-10.1" style=""><tspan class="text-outer-tspan" x="0" y="-0.1em" dy="1.1em"><tspan font-style="normal" class="text-inner-tspan" font-weight="normal">DoublePush</tspan></tspan></text></g></g><g class="label" style="" transform="translate(0,25.5)"><g><rect class="background" style="stroke: none"/><text y="-10.1" style=""><tspan class="text-outer-tspan" x="0" y="-0.1em" dy="1.1em"><tspan font-style="normal" class="text-inner-tspan" font-weight="normal">Castle</tspan></tspan></text></g></g><g class="label" style="" transform="translate(0,41.5)"><g><rect class="background" style="stroke: none"/><text y="-10.1" style=""><tspan class="text-outer-tspan" x="0" y="-0.1em" dy="1.1em"><tspan font-style="normal" class="text-inner-tspan" font-weight="normal">EnPassant</tspan></tspan></text></g></g><g class="label" style="" transform="translate(0,57.5)"><g><rect class="background" style="stroke: none"/><text y="-10.1" style=""><tspan class="text-outer-tspan" x="0" y="-0.1em" dy="1.1em"><tspan font-style="normal" class="text-inner-tspan" font-weight="normal">Capture</tspan></tspan></text></g></g><g class="label" style="" transform="translate(0,73.5)"><g><rect class="background" style="stroke: none"/><text y="-10.1" style=""><tspan class="text-outer-tspan" x="0" y="-0.1em" dy="1.1em"><tspan font-style="normal" class="text-inner-tspan" font-weight="normal">PromoKnight</tspan></tspan></text></g></g><g class="label" style="" transform="translate(0,89.5)"><g><rect class="background" style="stroke: none"/><text y="-10.1" style=""><tspan class="text-outer-tspan" x="0" y="-0.1em" dy="1.1em"><tspan font-style="normal" class="text-inner-tspan" font-weight="normal">PromoBishop</tspan></tspan></text></g></g><g class="label" style="" transform="translate(0,105.5)"><g><rect class="background" style="stroke: none"/><text y="-10.1" style=""><tspan class="text-outer-tspan" x="0" y="-0.1em" dy="1.1em"><tspan font-style="normal" class="text-inner-tspan" font-weight="normal">PromoRook</tspan></tspan></text></g></g><g class="label" style="" transform="translate(0,121.5)"><g><rect class="background" style="stroke: none"/><text y="-10.1" style=""><tspan class="text-outer-tspan" x="0" y="-0.1em" dy="1.1em"><tspan font-style="normal" class="text-inner-tspan" font-weight="normal">PromoQueen</tspan></tspan></text></g></g><g class="label" style="" transform="translate(0,137.5)"><g><rect class="background" style="stroke: none"/><text y="-10.1" style=""><tspan class="text-outer-tspan" x="0" y="-0.1em" dy="1.1em"><tspan font-style="normal" class="text-inner-tspan" font-weight="normal">CapPromoKnight</tspan></tspan></text></g></g><g class="label" style="" transform="translate(0,153.5)"><g><rect class="background" style="stroke: none"/><text y="-10.1" style=""><tspan class="text-outer-tspan" x="0" y="-0.1em" dy="1.1em"><tspan font-style="normal" class="text-inner-tspan" font-weight="normal">CapPromoBishop</tspan></tspan></text></g></g><g class="label" style="" transform="translate(0,169.5)"><g><rect class="background" style="stroke: none"/><text y="-10.1" style=""><tspan class="text-outer-tspan" x="0" y="-0.1em" dy="1.1em"><tspan font-style="normal" class="text-inner-tspan" font-weight="normal">CapPromoRook</tspan></tspan></text></g></g><g class="label" style="" transform="translate(0,185.5)"><g><rect class="background" style="stroke: none"/><text y="-10.1" style=""><tspan class="text-outer-tspan" x="0" y="-0.1em" dy="1.1em"><tspan font-style="normal" class="text-inner-tspan" font-weight="normal">CapPromoQueen</tspan></tspan></text></g></g></g><g class="methods-group text" transform="translate(-54, 147.5)"/><g class="divider" style=""><path d="M-66 -101.5 C-31.207075461482965 -101.5, 3.5858490770340694 -101.5, 66 -101.5 M-66 -101.5 C-25.431372766463916 -101.5, 15.137254467072168 -101.5, 66 -101.5" stroke="hsl(40.5882352941, 60%, 83.3333333333%)" stroke-width="1.3" fill="none" stroke-dasharray="0 0" style=""/></g><g class="divider" style=""><path d="M-66 127.5 C-27.077403381029356 127.5, 11.845193237941288 127.5, 66 127.5 M-66 127.5 C-22.18136493287247 127.5, 21.63727013425506 127.5, 66 127.5" stroke="hsl(40.5882352941, 60%, 83.3333333333%)" stroke-width="1.3" fill="none" stroke-dasharray="0 0" style=""/></g></g><g class="node default" id="classId-Move-5" transform="translate(777.5, 376.5)"><g class="basic label-container"><path d="M-93 -95.5 L93 -95.5 L93 95.5 L-93 95.5" stroke="none" stroke-width="0" fill="#fff4dd" style=""/><path d="M-93 -95.5 C-43.81722917900058 -95.5, 5.3655416419988455 -95.5, 93 -95.5 M-93 -95.5 C-46.03545213841177 -95.5, 0.9290957231764594 -95.5, 93 -95.5 M93 -95.5 C93 -48.566917465881225, 93 -1.6338349317624505, 93 95.5 M93 -95.5 C93 -53.925834173630456, 93 -12.351668347260912, 93 95.5 M93 95.5 C54.13192984048297 95.5, 15.263859680965936 95.5, -93 95.5 M93 95.5 C28.797237985291105 95.5, -35.40552402941779 95.5, -93 95.5 M-93 95.5 C-93 44.523546246806575, -93 -6.45290750638685, -93 -95.5 M-93 95.5 C-93 21.565639577408234, -93 -52.36872084518353, -93 -95.5" stroke="hsl(40.5882352941, 60%, 83.3333333333%)" stroke-width="1.3" fill="none" stroke-dasharray="0 0" style=""/></g><g class="annotation-group text" transform="translate(0, -75.5)"/><g class="label-group text" transform="translate(-12, -75.5)"><g class="label" style="font-weight: bolder" transform="translate(0,-6.5)"><g><rect class="background" style="stroke: none"/><text y="-10.1" style=""><tspan class="text-outer-tspan" x="0" y="-0.1em" dy="1.1em" font-weight=""><tspan font-style="normal" class="text-inner-tspan" font-weight="">Move</tspan></tspan></text></g></g></g><g class="members-group text" transform="translate(-81, -38.5)"><g class="label" style="" transform="translate(0,-6.5)"><g><rect class="background" style="stroke: none"/><text y="-10.1" style=""><tspan class="text-outer-tspan" x="0" y="-0.1em" dy="1.1em"><tspan font-style="normal" class="text-inner-tspan" font-weight="normal">+u16</tspan><tspan font-style="normal" class="text-inner-tspan" font-weight="normal"> 0</tspan></tspan></text></g></g></g><g class="methods-group text" transform="translate(-81, -1.5)"><g class="label" style="" transform="translate(0,-6.5)"><g><rect class="background" style="stroke: none"/><text y="-10.1" style=""><tspan class="text-outer-tspan" x="0" y="-0.1em" dy="1.1em"><tspan font-style="normal" class="text-inner-tspan" font-weight="normal">+new(from,to,kind)</tspan><tspan font-style="normal" class="text-inner-tspan" font-weight="normal"> :</tspan><tspan font-style="normal" class="text-inner-tspan" font-weight="normal"> Move</tspan></tspan></text></g></g><g class="label" style="" transform="translate(0,9.5)"><g><rect class="background" style="stroke: none"/><text y="-10.1" style=""><tspan class="text-outer-tspan" x="0" y="-0.1em" dy="1.1em"><tspan font-style="normal" class="text-inner-tspan" font-weight="normal">+from()</tspan><tspan font-style="normal" class="text-inner-tspan" font-weight="normal"> :</tspan><tspan font-style="normal" class="text-inner-tspan" font-weight="normal"> usize</tspan></tspan></text></g></g><g class="label" style="" transform="translate(0,25.5)"><g><rect class="background" style="stroke: none"/><text y="-10.1" style=""><tspan class="text-outer-tspan" x="0" y="-0.1em" dy="1.1em"><tspan font-style="normal" class="text-inner-tspan" font-weight="normal">+to()</tspan><tspan font-style="normal" class="text-inner-tspan" font-weight="normal"> :</tspan><tspan font-style="normal" class="text-inner-tspan" font-weight="normal"> usize</tspan></tspan></text></g></g><g class="label" style="" transform="translate(0,41.5)"><g><rect class="background" style="stroke: none"/><text y="-10.1" style=""><tspan class="text-outer-tspan" x="0" y="-0.1em" dy="1.1em"><tspan font-style="normal" class="text-inner-tspan" font-weight="normal">+move_type()</tspan><tspan font-style="normal" class="text-inner-tspan" font-weight="normal"> :</tspan><tspan font-style="normal" class="text-inner-tspan" font-weight="normal"> MoveType</tspan></tspan></text></g></g><g class="label" style="" transform="translate(0,57.5)"><g><rect class="background" style="stroke: none"/><text y="-10.1" style=""><tspan class="text-outer-tspan" x="0" y="-0.1em" dy="1.1em"><tspan font-style="normal" class="text-inner-tspan" font-weight="normal">+is_capture()</tspan><tspan font-style="normal" class="text-inner-tspan" font-weight="normal"> :</tspan><tspan font-style="normal" class="text-inner-tspan" font-weight="normal"> bool</tspan></tspan></text></g></g><g class="label" style="" transform="translate(0,73.5)"><g><rect class="background" style="stroke: none"/><text y="-10.1" style=""><tspan class="text-outer-tspan" x="0" y="-0.1em" dy="1.1em"><tspan font-style="normal" class="text-inner-tspan" font-weight="normal">+is_promotion()</tspan><tspan font-style="normal" class="text-inner-tspan" font-weight="normal"> :</tspan><tspan font-style="normal" class="text-inner-tspan" font-weight="normal"> bool</tspan></tspan></text></g></g></g><g class="divider" style=""><path d="M-93 -58.5 C-23.568610467300843 -58.5, 45.862779065398314 -58.5, 93 -58.5 M-93 -58.5 C-54.16561500794252 -58.5, -15.33123001588504 -58.5, 93 -58.5" stroke="hsl(40.5882352941, 60%, 83.3333333333%)" stroke-width="1.3" fill="none" stroke-dasharray="0 0" style=""/></g><g class="divider" style=""><path d="M-93 -21.5 C-33.284559765237134 -21.5, 26.430880469525732 -21.5, 93 -21.5 M-93 -21.5 C-33.675740228142544 -21.5, 25.64851954371491 -21.5, 93 -21.5" stroke="hsl(40.5882352941, 60%, 83.3333333333%)" stroke-width="1.3" fill="none" stroke-dasharray="0 0" style=""/></g></g><g class="node default" id="classId-MoveCollector-6" transform="translate(777.5, 119.5)"><g class="basic label-container"><path d="M-97.5 -111.5 L97.5 -111.5 L97.5 111.5 L-97.5 111.5" stroke="none" stroke-width="0" fill="#fff4dd" style=""/><path d="M-97.5 -111.5 C-21.273904627702635 -111.5, 54.95219074459473 -111.5, 97.5 -111.5 M-97.5 -111.5 C-39.55410932381677 -111.5, 18.391781352366465 -111.5, 97.5 -111.5 M97.5 -111.5 C97.5 -61.64968108762806, 97.5 -11.799362175256121, 97.5 111.5 M97.5 -111.5 C97.5 -61.834224488264496, 97.5 -12.168448976528992, 97.5 111.5 M97.5 111.5 C26.353376393303122 111.5, -44.793247213393755 111.5, -97.5 111.5 M97.5 111.5 C55.14531183788159 111.5, 12.790623675763186 111.5, -97.5 111.5 M-97.5 111.5 C-97.5 34.385543069788596, -97.5 -42.72891386042281, -97.5 -111.5 M-97.5 111.5 C-97.5 43.356506941562614, -97.5 -24.786986116874772, -97.5 -111.5" stroke="hsl(40.5882352941, 60%, 83.3333333333%)" stroke-width="1.3" fill="none" stroke-dasharray="0 0" style=""/></g><g class="annotation-group text" transform="translate(0, -91.5)"/><g class="label-group text" transform="translate(-39, -91.5)"><g class="label" style="font-weight: bolder" transform="translate(0,-6.5)"><g><rect class="background" style="stroke: none"/><text y="-10.1" style=""><tspan class="text-outer-tspan" x="0" y="-0.1em" dy="1.1em" font-weight=""><tspan font-style="normal" class="text-inner-tspan" font-weight="">MoveCollector</tspan></tspan></text></g></g></g><g class="members-group text" transform="translate(-85.5, -54.5)"><g class="label" style="" transform="translate(0,-6.5)"><g><rect class="background" style="stroke: none"/><text y="-10.1" style=""><tspan class="text-outer-tspan" x="0" y="-0.1em" dy="1.1em"><tspan font-style="normal" class="text-inner-tspan" font-weight="normal">-moves:</tspan><tspan font-style="normal" class="text-inner-tspan" font-weight="normal"> [Move;256]</tspan></tspan></text></g></g><g class="label" style="" transform="translate(0,9.5)"><g><rect class="background" style="stroke: none"/><text y="-10.1" style=""><tspan class="text-outer-tspan" x="0" y="-0.1em" dy="1.1em"><tspan font-style="normal" class="text-inner-tspan" font-weight="normal">-count:</tspan><tspan font-style="normal" class="text-inner-tspan" font-weight="normal"> usize</tspan></tspan></text></g></g></g><g class="methods-group text" transform="translate(-85.5, -1.5)"><g class="label" style="" transform="translate(0,-6.5)"><g><rect class="background" style="stroke: none"/><text y="-10.1" style=""><tspan class="text-outer-tspan" x="0" y="-0.1em" dy="1.1em"><tspan font-style="normal" class="text-inner-tspan" font-weight="normal">+new()</tspan><tspan font-style="normal" class="text-inner-tspan" font-weight="normal"> :</tspan><tspan font-style="normal" class="text-inner-tspan" font-weight="normal"> MoveCollector</tspan></tspan></text></g></g><g class="label" style="" transform="translate(0,9.5)"><g><rect class="background" style="stroke: none"/><text y="-10.1" style=""><tspan class="text-outer-tspan" x="0" y="-0.1em" dy="1.1em"><tspan font-style="normal" class="text-inner-tspan" font-weight="normal">+push(Move)</tspan></tspan></text></g></g><g class="label" style="" transform="translate(0,25.5)"><g><rect class="background" style="stroke: none"/><text y="-10.1" style=""><tspan class="text-outer-tspan" x="0" y="-0.1em" dy="1.1em"><tspan font-style="normal" class="text-inner-tspan" font-weight="normal">+len()</tspan><tspan font-style="normal" class="text-inner-tspan" font-weight="normal"> :</tspan><tspan font-style="normal" class="text-inner-tspan" font-weight="normal"> usize</tspan></tspan></text></g></g><g class="label" style="" transform="translate(0,41.5)"><g><rect class="background" style="stroke: none"/><text y="-10.1" style=""><tspan class="text-outer-tspan" x="0" y="-0.1em" dy="1.1em"><tspan font-style="normal" class="text-inner-tspan" font-weight="normal">+is_empty()</tspan><tspan font-style="normal" class="text-inner-tspan" font-weight="normal"> :</tspan><tspan font-style="normal" class="text-inner-tspan" font-weight="normal"> bool</tspan></tspan></text></g></g><g class="label" style="" transform="translate(0,57.5)"><g><rect class="background" style="stroke: none"/><text y="-10.1" style=""><tspan class="text-outer-tspan" x="0" y="-0.1em" dy="1.1em"><tspan font-style="normal" class="text-inner-tspan" font-weight="normal">+clear()</tspan></tspan></text></g></g><g class="label" style="" transform="translate(0,73.5)"><g><rect class="background" style="stroke: none"/><text y="-10.1" style=""><tspan class="text-outer-tspan" x="0" y="-0.1em" dy="1.1em"><tspan font-style="normal" class="text-inner-tspan" font-weight="normal">+get(index)</tspan><tspan font-style="normal" class="text-inner-tspan" font-weight="normal"> :</tspan><tspan font-style="normal" class="text-inner-tspan" font-weight="normal"> Move</tspan></tspan></text></g></g><g class="label" style="" transform="translate(0,89.5)"><g><rect class="background" style="stroke: none"/><text y="-10.1" style=""><tspan class="text-outer-tspan" x="0" y="-0.1em" dy="1.1em"><tspan font-style="normal" class="text-inner-tspan" font-weight="normal">+as_slice()</tspan><tspan font-style="normal" class="text-inner-tspan" font-weight="normal"> :</tspan><tspan font-style="normal" class="text-inner-tspan" font-weight="normal"> [Move]</tspan></tspan></text></g></g></g><g class="divider" style=""><path d="M-97.5 -74.5 C-28.074405567116145 -74.5, 41.35118886576771 -74.5, 97.5 -74.5 M-97.5 -74.5 C-48.36259808864655 -74.5, 0.7748038227069003 -74.5, 97.5 -74.5" stroke="hsl(40.5882352941, 60%, 83.3333333333%)" stroke-width="1.3" fill="none" stroke-dasharray="0 0" style=""/></g><g class="divider" style=""><path d="M-97.5 -21.5 C-30.642476270819202 -21.5, 36.215047458361596 -21.5, 97.5 -21.5 M-97.5 -21.5 C-20.51473768917907 -21.5, 56.47052462164186 -21.5, 97.5 -21.5" stroke="hsl(40.5882352941, 60%, 83.3333333333%)" stroke-width="1.3" fill="none" stroke-dasharray="0 0" style=""/></g></g></g></g></g></svg>