<svg id="my-svg" width="100%" xmlns="http://www.w3.org/2000/svg" xmlns:xlink="http://www.w3.org/1999/xlink" class="classDiagram" style="max-width: 785px; background-color: white;" viewBox="0 0 785 611" role="graphics-document document" aria-roledescription="class"><style>#my-svg{font-family:JetBrains Mono;font-size:10px;fill:#333;}@keyframes edge-animation-frame{from{stroke-dashoffset:0;}}@keyframes dash{to{stroke-dashoffset:0;}}#my-svg .edge-animation-slow{stroke-dasharray:9,5!important;stroke-dashoffset:900;animation:dash 50s linear infinite;stroke-linecap:round;}#my-svg .edge-animation-fast{stroke-dasharray:9,5!important;stroke-dashoffset:900;animation:dash 20s linear infinite;stroke-linecap:round;}#my-svg .error-icon{fill:hsl(220.5882352941, 100%, 98.3333333333%);}#my-svg .error-text{fill:rgb(8.5000000002, 5.7500000001, 0);stroke:rgb(8.5000000002, 5.7500000001, 0);}#my-svg .edge-thickness-normal{stroke-width:1px;}#my-svg .edge-thickness-thick{stroke-width:3.5px;}#my-svg .edge-pattern-solid{stroke-dasharray:0;}#my-svg .edge-thickness-invisible{stroke-width:0;fill:none;}#my-svg .edge-pattern-dashed{stroke-dasharray:3;}#my-svg .edge-pattern-dotted{stroke-dasharray:2;}#my-svg .marker{fill:#0b0b0b;stroke:#0b0b0b;}#my-svg .marker.cross{stroke:#0b0b0b;}#my-svg svg{font-family:JetBrains Mono;font-size:10px;}#my-svg p{margin:0;}#my-svg g.classGroup text{fill:hsl(40.5882352941, 60%, 83.3333333333%);stroke:none;font-family:JetBrains Mono;font-size:10px;}#my-svg g.classGroup text .title{font-weight:bolder;}#my-svg .nodeLabel,#my-svg .edgeLabel{color:#333;}#my-svg .edgeLabel .label rect{fill:#fff4dd;}#my-svg .label text{fill:#333;}#my-svg .labelBkg{background:#fff4dd;}#my-svg .edgeLabel .label span{background:#fff4dd;}#my-svg .classTitle{font-weight:bolder;}#my-svg .node rect,#my-svg .node circle,#my-svg .node ellipse,#my-svg .node polygon,#my-svg .node path{fill:#fff4dd;stroke:hsl(40.5882352941, 60%, 83.3333333333%);stroke-width:1px;}#my-svg .divider{stroke:hsl(40.5882352941, 60%, 83.3333333333%);stroke-width:1;}#my-svg g.clickable{cursor:pointer;}#my-svg g.classGroup rect{fill:#fff4dd;stroke:hsl(40.5882352941, 60%, 83.3333333333%);}#my-svg g.classGroup line{stroke:hsl(40.5882352941, 60%, 83.3333333333%);stroke-width:1;}#my-svg .classLabel .box{stroke:none;stroke-width:0;fill:#fff4dd;opacity:0.5;}#my-svg .classLabel .label{fill:hsl(40.5882352941, 60%, 83.3333333333%);font-size:10px;}#my-svg .relation{stroke:#0b0b0b;stroke-width:1;fill:none;}#my-svg .dashed-line{stroke-dasharray:3;}#my-svg .dotted-line{stroke-dasharray:1 2;}#my-svg #compositionStart,#my-svg .composition{fill:#0b0b0b!important;stroke:#0b0b0b!important;stroke-width:1;}#my-svg #compositionEnd,#my-svg .composition{fill:#0b0b0b!important;stroke:#0b0b0b!important;stroke-width:1;}#my-svg #dependencyStart,#my-svg .dependency{fill:#0b0b0b!important;stroke:#0b0b0b!important;stroke-width:1;}#my-svg #dependencyStart,#my-svg .dependency{fill:#0b0b0b!important;stroke:#0b0b0b!important;stroke-width:1;}#my-svg #extensionStart,#my-svg .extension{fill:transparent!important;stroke:#0b0b0b!important;stroke-width:1;}#my-svg #extensionEnd,#my-svg .extension{fill:transparent!important;stroke:#0b0b0b!important;stroke-width:1;}#my-svg #aggregationStart,#my-svg .aggregation{fill:transparent!important;stroke:#0b0b0b!important;stroke-width:1;}#my-svg #aggregationEnd,#my-svg .aggregation{fill:transparent!important;stroke:#0b0b0b!important;stroke-width:1;}#my-svg #lollipopStart,#my-svg .lollipop{fill:#fff4dd!important;stroke:#0b0b0b!important;stroke-width:1;}#my-svg #lollipopEnd,#my-svg .lollipop{fill:#fff4dd!important;stroke:#0b0b0b!important;stroke-width:1;}#my-svg .edgeTerminals{font-size:11px;line-height:initial;}#my-svg .classTitleText{text-anchor:middle;font-size:18px;fill:#333;}#my-svg .label-icon{display:inline-block;height:1em;overflow:visible;vertical-align:-0.125em;}#my-svg .node .label-icon path{fill:currentColor;stroke:revert;stroke-width:revert;}#my-svg :root{--mermaid-font-family:"trebuchet ms",verdana,arial,sans-serif;}</style><g><defs><marker id="my-svg_class-aggregationStart" class="marker aggregation class" refX="18" refY="7" markerWidth="190" markerHeight="240" orient="auto"><path d="M 18,7 L9,13 L1,7 L9,1 Z"/></marker></defs><defs><marker id="my-svg_class-aggregationEnd" class="marker aggregation class" refX="1" refY="7" markerWidth="20" markerHeight="28" orient="auto"><path d="M 18,7 L9,13 L1,7 L9,1 Z"/></marker></defs><defs><marker id="my-svg_class-extensionStart" class="marker extension class" refX="18" refY="7" markerWidth="190" markerHeight="240" orient="auto"><path d="M 1,7 L18,13 V 1 Z"/></marker></defs><defs><marker id="my-svg_class-extensionEnd" class="marker extension class" refX="1" refY="7" markerWidth="20" markerHeight="28" orient="auto"><path d="M 1,1 V 13 L18,7 Z"/></marker></defs><defs><marker id="my-svg_class-compositionStart" class="marker composition class" refX="18" refY="7" markerWidth="190" markerHeight="240" orient="auto"><path d="M 18,7 L9,13 L1,7 L9,1 Z"/></marker></defs><defs><marker id="my-svg_class-compositionEnd" class="marker composition class" refX="1" refY="7" markerWidth="20" markerHeight="28" orient="auto"><path d="M 18,7 L9,13 L1,7 L9,1 Z"/></marker></defs><defs><marker id="my-svg_class-dependencyStart" class="marker dependency class" refX="6" refY="7" markerWidth="190" markerHeight="240" orient="auto"><path d="M 5,7 L9,13 L1,7 L9,1 Z"/></marker></defs><defs><marker id="my-svg_class-dependencyEnd" class="marker dependency class" refX="13" refY="7" markerWidth="20" markerHeight="28" orient="auto"><path d="M 18,7 L9,13 L14,7 L9,1 Z"/></marker></defs><defs><marker id="my-svg_class-lollipopStart" class="marker lollipop class" refX="13" refY="7" markerWidth="190" markerHeight="240" orient="auto"><circle stroke="black" fill="transparent" cx="7" cy="7" r="6"/></marker></defs><defs><marker id="my-svg_class-lollipopEnd" class="marker lollipop class" refX="1" refY="7" markerWidth="190" markerHeight="240" orient="auto"><circle stroke="black" fill="transparent" cx="7" cy="7" r="6"/></marker></defs><g class="root"><g class="clusters"/><g class="edgePaths"><path d="M316.651,275.125L281.459,298.604C246.267,322.083,175.884,369.042,140.692,396.687C105.5,424.333,105.5,432.667,105.5,436.833L105.5,441" id="id_Position_GameState_1" class="edge-thickness-normal edge-pattern-solid relation" style=";;;" data-edge="true" data-et="edge" data-id="id_Position_GameState_1" data-points="W3sieCI6MzMxLCJ5IjoyNjUuNTUwODQ3NDU3NjI3MX0seyJ4IjoxMDUuNSwieSI6NDE2fSx7IngiOjEwNS41LCJ5Ijo0NDF9XQ==" marker-start="url(#my-svg_class-compositionStart)"/><path d="M331,339.588L322,352.324C313,365.059,295,390.529,286,413.848C277,437.167,277,458.333,277,468.917L277,479.5" id="id_Position_Move_2" class="edge-thickness-normal edge-pattern-solid relation" style=";;;" data-edge="true" data-et="edge" data-id="id_Position_Move_2" data-points="W3sieCI6MzMxLCJ5IjozMzkuNTg4MjM1Mjk0MTE3N30seyJ4IjoyNzcsInkiOjQxNn0seyJ4IjoyNzcsInkiOjQ4NS41fV0=" marker-end="url(#my-svg_class-dependencyEnd)"/><path d="M384.005,391L383.004,395.167C382.003,399.333,380.002,407.667,379.001,422.417C378,437.167,378,458.333,378,468.917L378,479.5" id="id_Position_Piece_3" class="edge-thickness-normal edge-pattern-solid relation" style=";;;" data-edge="true" data-et="edge" data-id="id_Position_Piece_3" data-points="W3sieCI6Mzg0LjAwNDYxODkzNzY0NDM1LCJ5IjozOTF9LHsieCI6Mzc4LCJ5Ijo0MTZ9LHsieCI6Mzc4LCJ5Ijo0ODUuNX1d" marker-end="url(#my-svg_class-dependencyEnd)"/><path d="M475.995,391L476.996,395.167C477.997,399.333,479.998,407.667,480.999,422.417C482,437.167,482,458.333,482,468.917L482,479.5" id="id_Position_Color_4" class="edge-thickness-normal edge-pattern-solid relation" style=";;;" data-edge="true" data-et="edge" data-id="id_Position_Color_4" data-points="W3sieCI6NDc1Ljk5NTM4MTA2MjM1NTY1LCJ5IjozOTF9LHsieCI6NDgyLCJ5Ijo0MTZ9LHsieCI6NDgyLCJ5Ijo0ODUuNX1d" marker-end="url(#my-svg_class-dependencyEnd)"/><path d="M529,329.4L540,343.833C551,358.267,573,387.133,584,412.15C595,437.167,595,458.333,595,468.917L595,479.5" id="id_Position_Bitboard_5" class="edge-thickness-normal edge-pattern-solid relation" style=";;;" data-edge="true" data-et="edge" data-id="id_Position_Bitboard_5" data-points="W3sieCI6NTI5LCJ5IjozMjkuNH0seyJ4Ijo1OTUsInkiOjQxNn0seyJ4Ijo1OTUsInkiOjQ4NS41fV0=" marker-end="url(#my-svg_class-dependencyEnd)"/><path d="M529,271.184L562.333,295.32C595.667,319.456,662.333,367.728,695.667,402.447C729,437.167,729,458.333,729,468.917L729,479.5" id="id_Position_CastleRights_6" class="edge-thickness-normal edge-pattern-solid relation" style=";;;" data-edge="true" data-et="edge" data-id="id_Position_CastleRights_6" data-points="W3sieCI6NTI5LCJ5IjoyNzEuMTgzOTQ2NDg4Mjk0M30seyJ4Ijo3MjksInkiOjQxNn0seyJ4Ijo3MjksInkiOjQ4NS41fV0=" marker-end="url(#my-svg_class-dependencyEnd)"/></g><g class="edgeLabels"><g><rect class="background" style="stroke: none"/></g><g><rect class="background" style="stroke: none"/></g><g><rect class="background" style="stroke: none"/></g><g><rect class="background" style="stroke: none"/></g><g><rect class="background" style="stroke: none"/></g><g><rect class="background" style="stroke: none"/></g><g class="edgeLabel"><g class="label" data-id="id_Position_GameState_1" transform="translate(0, 0)"><text y="-10.1"><tspan class="text-outer-tspan" x="0" y="-0.1em" dy="1.1em"/></text></g></g><g class="edgeLabel"><g class="label" data-id="id_Position_Move_2" transform="translate(0, 0)"><text y="-10.1"><tspan class="text-outer-tspan" x="0" y="-0.1em" dy="1.1em"/></text></g></g><g class="edgeLabel"><g class="label" data-id="id_Position_Piece_3" transform="translate(0, 0)"><text y="-10.1"><tspan class="text-outer-tspan" x="0" y="-0.1em" dy="1.1em"/></text></g></g><g class="edgeLabel"><g class="label" data-id="id_Position_Color_4" transform="translate(0, 0)"><text y="-10.1"><tspan class="text-outer-tspan" x="0" y="-0.1em" dy="1.1em"/></text></g></g><g class="edgeLabel"><g class="label" data-id="id_Position_Bitboard_5" transform="translate(0, 0)"><text y="-10.1"><tspan class="text-outer-tspan" x="0" y="-0.1em" dy="1.1em"/></text></g></g><g class="edgeLabel"><g class="label" data-id="id_Position_CastleRights_6" transform="translate(0, 0)"><text y="-10.1"><tspan class="text-outer-tspan" x="0" y="-0.1em" dy="1.1em"/></text></g></g></g><g class="nodes"><g class="node default" id="classId-GameState-0" transform="translate(105.5, 522)"><g class="basic label-container"><path d="M-97.5 -81 L97.5 -81 L97.5 81 L-97.5 81" stroke="none" stroke-width="0" fill="#fff4dd" style=""/><path d="M-97.5 -81 C-53.62133414393783 -81, -9.74266828787566 -81, 97.5 -81 M-97.5 -81 C-44.11601458117294 -81, 9.267970837654119 -81, 97.5 -81 M97.5 -81 C97.5 -42.335924196829005, 97.5 -3.67184839365801, 97.5 81 M97.5 -81 C97.5 -21.303631589732753, 97.5 38.392736820534495, 97.5 81 M97.5 81 C37.51547852114432 81, -22.469042957711366 81, -97.5 81 M97.5 81 C43.81126341432852 81, -9.877473171342956 81, -97.5 81 M-97.5 81 C-97.5 29.622608076587923, -97.5 -21.754783846824154, -97.5 -81 M-97.5 81 C-97.5 22.95013946589549, -97.5 -35.09972106820902, -97.5 -81" stroke="hsl(40.5882352941, 60%, 83.3333333333%)" stroke-width="1.3" fill="none" stroke-dasharray="0 0" style=""/></g><g class="annotation-group text" transform="translate(0, -61)"/><g class="label-group text" transform="translate(-27, -61)"><g class="label" style="font-weight: bolder" transform="translate(0,-6.5)"><g><rect class="background" style="stroke: none"/><text y="-10.1" style=""><tspan class="text-outer-tspan" x="0" y="-0.1em" dy="1.1em" font-weight=""><tspan font-style="normal" class="text-inner-tspan" font-weight="">GameState</tspan></tspan></text></g></g></g><g class="members-group text" transform="translate(-85.5, -24)"><g class="label" style="" transform="translate(0,-6.5)"><g><rect class="background" style="stroke: none"/><text y="-10.1" style=""><tspan class="text-outer-tspan" x="0" y="-0.1em" dy="1.1em"><tspan font-style="normal" class="text-inner-tspan" font-weight="normal">+castling:</tspan><tspan font-style="normal" class="text-inner-tspan" font-weight="normal"> CastleRights</tspan></tspan></text></g></g><g class="label" style="" transform="translate(0,9.5)"><g><rect class="background" style="stroke: none"/><text y="-10.1" style=""><tspan class="text-outer-tspan" x="0" y="-0.1em" dy="1.1em">+en_passant: Option&lt;u8&gt;</tspan></text></g></g><g class="label" style="" transform="translate(0,25.5)"><g><rect class="background" style="stroke: none"/><text y="-10.1" style=""><tspan class="text-outer-tspan" x="0" y="-0.1em" dy="1.1em"><tspan font-style="normal" class="text-inner-tspan" font-weight="normal">+halfmove:</tspan><tspan font-style="normal" class="text-inner-tspan" font-weight="normal"> u16</tspan></tspan></text></g></g><g class="label" style="" transform="translate(0,41.5)"><g><rect class="background" style="stroke: none"/><text y="-10.1" style=""><tspan class="text-outer-tspan" x="0" y="-0.1em" dy="1.1em"><tspan font-style="normal" class="text-inner-tspan" font-weight="normal">+hash:</tspan><tspan font-style="normal" class="text-inner-tspan" font-weight="normal"> u64</tspan></tspan></text></g></g><g class="label" style="" transform="translate(0,57.5)"><g><rect class="background" style="stroke: none"/><text y="-10.1" style=""><tspan class="text-outer-tspan" x="0" y="-0.1em" dy="1.1em">+captured: Option&lt;Piece&gt;</tspan></text></g></g></g><g class="methods-group text" transform="translate(-85.5, 77)"/><g class="divider" style=""><path d="M-97.5 -44 C-28.669646624135865 -44, 40.16070675172827 -44, 97.5 -44 M-97.5 -44 C-44.629699216090295 -44, 8.240601567819411 -44, 97.5 -44" stroke="hsl(40.5882352941, 60%, 83.3333333333%)" stroke-width="1.3" fill="none" stroke-dasharray="0 0" style=""/></g><g class="divider" style=""><path d="M-97.5 57 C-35.63461979411082 57, 26.230760411778363 57, 97.5 57 M-97.5 57 C-30.497807655588446 57, 36.50438468882311 57, 97.5 57" stroke="hsl(40.5882352941, 60%, 83.3333333333%)" stroke-width="1.3" fill="none" stroke-dasharray="0 0" style=""/></g></g><g class="node default" id="classId-Position-1" transform="translate(430, 199.5)"><g class="basic label-container"><path d="M-99 -191.5 L99 -191.5 L99 191.5 L-99 191.5" stroke="none" stroke-width="0" fill="#fff4dd" style=""/><path d="M-99 -191.5 C-55.18345612805702 -191.5, -11.366912256114034 -191.5, 99 -191.5 M-99 -191.5 C-19.992506100947153 -191.5, 59.01498779810569 -191.5, 99 -191.5 M99 -191.5 C99 -112.4961348915652, 99 -33.49226978313041, 99 191.5 M99 -191.5 C99 -90.63791745121642, 99 10.224165097567152, 99 191.5 M99 191.5 C20.56606473839524 191.5, -57.86787052320952 191.5, -99 191.5 M99 191.5 C59.38699617751945 191.5, 19.7739923550389 191.5, -99 191.5 M-99 191.5 C-99 41.206080579534415, -99 -109.08783884093117, -99 -191.5 M-99 191.5 C-99 65.13772403989324, -99 -61.224551920213514, -99 -191.5" stroke="hsl(40.5882352941, 60%, 83.3333333333%)" stroke-width="1.3" fill="none" stroke-dasharray="0 0" style=""/></g><g class="annotation-group text" transform="translate(0, -171.5)"/><g class="label-group text" transform="translate(-24, -171.5)"><g class="label" style="font-weight: bolder" transform="translate(0,-6.5)"><g><rect class="background" style="stroke: none"/><text y="-10.1" style=""><tspan class="text-outer-tspan" x="0" y="-0.1em" dy="1.1em" font-weight=""><tspan font-style="normal" class="text-inner-tspan" font-weight="">Position</tspan></tspan></text></g></g></g><g class="members-group text" transform="translate(-87, -134.5)"><g class="label" style="" transform="translate(0,-6.5)"><g><rect class="background" style="stroke: none"/><text y="-10.1" style=""><tspan class="text-outer-tspan" x="0" y="-0.1em" dy="1.1em"><tspan font-style="normal" class="text-inner-tspan" font-weight="normal">+pieces:</tspan><tspan font-style="normal" class="text-inner-tspan" font-weight="normal"> [Bitboard;6]</tspan></tspan></text></g></g><g class="label" style="" transform="translate(0,9.5)"><g><rect class="background" style="stroke: none"/><text y="-10.1" style=""><tspan class="text-outer-tspan" x="0" y="-0.1em" dy="1.1em"><tspan font-style="normal" class="text-inner-tspan" font-weight="normal">+colors:</tspan><tspan font-style="normal" class="text-inner-tspan" font-weight="normal"> [Bitboard;2]</tspan></tspan></text></g></g><g class="label" style="" transform="translate(0,25.5)"><g><rect class="background" style="stroke: none"/><text y="-10.1" style=""><tspan class="text-outer-tspan" x="0" y="-0.1em" dy="1.1em"><tspan font-style="normal" class="text-inner-tspan" font-weight="normal">+board:</tspan><tspan font-style="normal" class="text-inner-tspan" font-weight="normal"> [BoardCell;64]</tspan></tspan></text></g></g><g class="label" style="" transform="translate(0,41.5)"><g><rect class="background" style="stroke: none"/><text y="-10.1" style=""><tspan class="text-outer-tspan" x="0" y="-0.1em" dy="1.1em"><tspan font-style="normal" class="text-inner-tspan" font-weight="normal">+side_to_move:</tspan><tspan font-style="normal" class="text-inner-tspan" font-weight="normal"> Color</tspan></tspan></text></g></g><g class="label" style="" transform="translate(0,57.5)"><g><rect class="background" style="stroke: none"/><text y="-10.1" style=""><tspan class="text-outer-tspan" x="0" y="-0.1em" dy="1.1em"><tspan font-style="normal" class="text-inner-tspan" font-weight="normal">+castling:</tspan><tspan font-style="normal" class="text-inner-tspan" font-weight="normal"> CastleRights</tspan></tspan></text></g></g><g class="label" style="" transform="translate(0,73.5)"><g><rect class="background" style="stroke: none"/><text y="-10.1" style=""><tspan class="text-outer-tspan" x="0" y="-0.1em" dy="1.1em">+en_passant: Option&lt;u8&gt;</tspan></text></g></g><g class="label" style="" transform="translate(0,89.5)"><g><rect class="background" style="stroke: none"/><text y="-10.1" style=""><tspan class="text-outer-tspan" x="0" y="-0.1em" dy="1.1em"><tspan font-style="normal" class="text-inner-tspan" font-weight="normal">+halfmove:</tspan><tspan font-style="normal" class="text-inner-tspan" font-weight="normal"> u16</tspan></tspan></text></g></g><g class="label" style="" transform="translate(0,105.5)"><g><rect class="background" style="stroke: none"/><text y="-10.1" style=""><tspan class="text-outer-tspan" x="0" y="-0.1em" dy="1.1em"><tspan font-style="normal" class="text-inner-tspan" font-weight="normal">+fullmove:</tspan><tspan font-style="normal" class="text-inner-tspan" font-weight="normal"> u16</tspan></tspan></text></g></g><g class="label" style="" transform="translate(0,121.5)"><g><rect class="background" style="stroke: none"/><text y="-10.1" style=""><tspan class="text-outer-tspan" x="0" y="-0.1em" dy="1.1em"><tspan font-style="normal" class="text-inner-tspan" font-weight="normal">+hash:</tspan><tspan font-style="normal" class="text-inner-tspan" font-weight="normal"> u64</tspan></tspan></text></g></g><g class="label" style="" transform="translate(0,137.5)"><g><rect class="background" style="stroke: none"/><text y="-10.1" style=""><tspan class="text-outer-tspan" x="0" y="-0.1em" dy="1.1em">+history: Vec&lt;GameState&gt;</tspan></text></g></g></g><g class="methods-group text" transform="translate(-87, 46.5)"><g class="label" style="" transform="translate(0,-6.5)"><g><rect class="background" style="stroke: none"/><text y="-10.1" style=""><tspan class="text-outer-tspan" x="0" y="-0.1em" dy="1.1em"><tspan font-style="normal" class="text-inner-tspan" font-weight="normal">+from_fen(fen)</tspan><tspan font-style="normal" class="text-inner-tspan" font-weight="normal"> :</tspan><tspan font-style="normal" class="text-inner-tspan" font-weight="normal"> Position</tspan></tspan></text></g></g><g class="label" style="" transform="translate(0,9.5)"><g><rect class="background" style="stroke: none"/><text y="-10.1" style=""><tspan class="text-outer-tspan" x="0" y="-0.1em" dy="1.1em"><tspan font-style="normal" class="text-inner-tspan" font-weight="normal">+compute_hash()</tspan><tspan font-style="normal" class="text-inner-tspan" font-weight="normal"> :</tspan><tspan font-style="normal" class="text-inner-tspan" font-weight="normal"> u64</tspan></tspan></text></g></g><g class="label" style="" transform="translate(0,25.5)"><g><rect class="background" style="stroke: none"/><text y="-10.1" style=""><tspan class="text-outer-tspan" x="0" y="-0.1em" dy="1.1em"><tspan font-style="normal" class="text-inner-tspan" font-weight="normal">+make_move(Move)</tspan></tspan></text></g></g><g class="label" style="" transform="translate(0,41.5)"><g><rect class="background" style="stroke: none"/><text y="-10.1" style=""><tspan class="text-outer-tspan" x="0" y="-0.1em" dy="1.1em"><tspan font-style="normal" class="text-inner-tspan" font-weight="normal">+unmake_move(Move)</tspan></tspan></text></g></g><g class="label" style="" transform="translate(0,57.5)"><g><rect class="background" style="stroke: none"/><text y="-10.1" style=""><tspan class="text-outer-tspan" x="0" y="-0.1em" dy="1.1em"><tspan font-style="normal" class="text-inner-tspan" font-weight="normal">+make_null_move()</tspan></tspan></text></g></g><g class="label" style="" transform="translate(0,73.5)"><g><rect class="background" style="stroke: none"/><text y="-10.1" style=""><tspan class="text-outer-tspan" x="0" y="-0.1em" dy="1.1em"><tspan font-style="normal" class="text-inner-tspan" font-weight="normal">+unmake_null_move()</tspan></tspan></text></g></g><g class="label" style="" transform="translate(0,89.5)"><g><rect class="background" style="stroke: none"/><text y="-10.1" style=""><tspan class="text-outer-tspan" x="0" y="-0.1em" dy="1.1em"><tspan font-style="normal" class="text-inner-tspan" font-weight="normal">+is_game_over()</tspan><tspan font-style="normal" class="text-inner-tspan" font-weight="normal"> :</tspan><tspan font-style="normal" class="text-inner-tspan" font-weight="normal"> bool</tspan></tspan></text></g></g><g class="label" style="" transform="translate(0,105.5)"><g><rect class="background" style="stroke: none"/><text y="-10.1" style=""><tspan class="text-outer-tspan" x="0" y="-0.1em" dy="1.1em"><tspan font-style="normal" class="text-inner-tspan" font-weight="normal">+is_checkmate()</tspan><tspan font-style="normal" class="text-inner-tspan" font-weight="normal"> :</tspan><tspan font-style="normal" class="text-inner-tspan" font-weight="normal"> bool</tspan></tspan></text></g></g><g class="label" style="" transform="translate(0,121.5)"><g><rect class="background" style="stroke: none"/><text y="-10.1" style=""><tspan class="text-outer-tspan" x="0" y="-0.1em" dy="1.1em"><tspan font-style="normal" class="text-inner-tspan" font-weight="normal">+is_stalemate()</tspan><tspan font-style="normal" class="text-inner-tspan" font-weight="normal"> :</tspan><tspan font-style="normal" class="text-inner-tspan" font-weight="normal"> bool</tspan></tspan></text></g></g></g><g class="divider" style=""><path d="M-99 -154.5 C-47.35031873353021 -154.5, 4.299362532939583 -154.5, 99 -154.5 M-99 -154.5 C-41.69482861576228 -154.5, 15.610342768475434 -154.5, 99 -154.5" stroke="hsl(40.5882352941, 60%, 83.3333333333%)" stroke-width="1.3" fill="none" stroke-dasharray="0 0" style=""/></g><g class="divider" style=""><path d="M-99 26.5 C-45.835267032554725 26.5, 7.32946593489055 26.5, 99 26.5 M-99 26.5 C-40.37644741402617 26.5, 18.247105171947666 26.5, 99 26.5" stroke="hsl(40.5882352941, 60%, 83.3333333333%)" stroke-width="1.3" fill="none" stroke-dasharray="0 0" style=""/></g></g><g class="node default" id="classId-Move-2" transform="translate(277, 522)"><g class="basic label-container"><path d="M-24 -36.5 L24 -36.5 L24 36.5 L-24 36.5" stroke="none" stroke-width="0" fill="#fff4dd" style=""/><path d="M-24 -36.5 C-7.917027010721455 -36.5, 8.16594597855709 -36.5, 24 -36.5 M-24 -36.5 C-7.282711741374936 -36.5, 9.434576517250129 -36.5, 24 -36.5 M24 -36.5 C24 -19.126095065886027, 24 -1.7521901317720534, 24 36.5 M24 -36.5 C24 -7.626083649437696, 24 21.247832701124608, 24 36.5 M24 36.5 C5.914621339715925 36.5, -12.17075732056815 36.5, -24 36.5 M24 36.5 C13.504038050484992 36.5, 3.0080761009699835 36.5, -24 36.5 M-24 36.5 C-24 21.83967877281883, -24 7.179357545637661, -24 -36.5 M-24 36.5 C-24 12.84010368380832, -24 -10.819792632383361, -24 -36.5" stroke="hsl(40.5882352941, 60%, 83.3333333333%)" stroke-width="1.3" fill="none" stroke-dasharray="0 0" style=""/></g><g class="annotation-group text" transform="translate(0, -16.5)"/><g class="label-group text" transform="translate(-12, -16.5)"><g class="label" style="font-weight: bolder" transform="translate(0,-6.5)"><g><rect class="background" style="stroke: none"/><text y="-10.1" style=""><tspan class="text-outer-tspan" x="0" y="-0.1em" dy="1.1em" font-weight=""><tspan font-style="normal" class="text-inner-tspan" font-weight="">Move</tspan></tspan></text></g></g></g><g class="members-group text" transform="translate(-12, 20.5)"/><g class="methods-group text" transform="translate(-12, 50.5)"/><g class="divider" style=""><path d="M-24 0.5 C-11.32944356812883 0.5, 1.3411128637423388 0.5, 24 0.5 M-24 0.5 C-13.99363510500114 0.5, -3.987270210002279 0.5, 24 0.5" stroke="hsl(40.5882352941, 60%, 83.3333333333%)" stroke-width="1.3" fill="none" stroke-dasharray="0 0" style=""/></g><g class="divider" style=""><path d="M-24 18.5 C-7.70449947940541 18.5, 8.59100104118918 18.5, 24 18.5 M-24 18.5 C-8.954918248995627 18.5, 6.090163502008746 18.5, 24 18.5" stroke="hsl(40.5882352941, 60%, 83.3333333333%)" stroke-width="1.3" fill="none" stroke-dasharray="0 0" style=""/></g></g><g class="node default" id="classId-Piece-3" transform="translate(378, 522)"><g class="basic label-container"><path d="M-27 -36.5 L27 -36.5 L27 36.5 L-27 36.5" stroke="none" stroke-width="0" fill="#fff4dd" style=""/><path d="M-27 -36.5 C-8.86329480893485 -36.5, 9.273410382130301 -36.5, 27 -36.5 M-27 -36.5 C-6.488067382816212 -36.5, 14.023865234367577 -36.5, 27 -36.5 M27 -36.5 C27 -21.89541847587962, 27 -7.290836951759239, 27 36.5 M27 -36.5 C27 -20.212273178605486, 27 -3.9245463572109713, 27 36.5 M27 36.5 C6.823265602568579 36.5, -13.353468794862842 36.5, -27 36.5 M27 36.5 C11.57070486976928 36.5, -3.8585902604614404 36.5, -27 36.5 M-27 36.5 C-27 19.380197970784423, -27 2.260395941568845, -27 -36.5 M-27 36.5 C-27 11.279028426655607, -27 -13.941943146688786, -27 -36.5" stroke="hsl(40.5882352941, 60%, 83.3333333333%)" stroke-width="1.3" fill="none" stroke-dasharray="0 0" style=""/></g><g class="annotation-group text" transform="translate(0, -16.5)"/><g class="label-group text" transform="translate(-15, -16.5)"><g class="label" style="font-weight: bolder" transform="translate(0,-6.5)"><g><rect class="background" style="stroke: none"/><text y="-10.1" style=""><tspan class="text-outer-tspan" x="0" y="-0.1em" dy="1.1em" font-weight=""><tspan font-style="normal" class="text-inner-tspan" font-weight="">Piece</tspan></tspan></text></g></g></g><g class="members-group text" transform="translate(-15, 20.5)"/><g class="methods-group text" transform="translate(-15, 50.5)"/><g class="divider" style=""><path d="M-27 0.5 C-14.797831004012007 0.5, -2.5956620080240143 0.5, 27 0.5 M-27 0.5 C-15.080557085094178 0.5, -3.1611141701883554 0.5, 27 0.5" stroke="hsl(40.5882352941, 60%, 83.3333333333%)" stroke-width="1.3" fill="none" stroke-dasharray="0 0" style=""/></g><g class="divider" style=""><path d="M-27 18.5 C-5.927388131167575 18.5, 15.14522373766485 18.5, 27 18.5 M-27 18.5 C-12.890482129663683 18.5, 1.2190357406726342 18.5, 27 18.5" stroke="hsl(40.5882352941, 60%, 83.3333333333%)" stroke-width="1.3" fill="none" stroke-dasharray="0 0" style=""/></g></g><g class="node default" id="classId-Color-4" transform="translate(482, 522)"><g class="basic label-container"><path d="M-27 -36.5 L27 -36.5 L27 36.5 L-27 36.5" stroke="none" stroke-width="0" fill="#fff4dd" style=""/><path d="M-27 -36.5 C-5.41650714375492 -36.5, 16.16698571249016 -36.5, 27 -36.5 M-27 -36.5 C-13.13079143150145 -36.5, 0.7384171369971 -36.5, 27 -36.5 M27 -36.5 C27 -8.010129133544009, 27 20.479741732911982, 27 36.5 M27 -36.5 C27 -20.08440555574699, 27 -3.66881111149398, 27 36.5 M27 36.5 C14.448717379535129 36.5, 1.8974347590702578 36.5, -27 36.5 M27 36.5 C6.314149075213585 36.5, -14.37170184957283 36.5, -27 36.5 M-27 36.5 C-27 9.103520869562576, -27 -18.292958260874848, -27 -36.5 M-27 36.5 C-27 21.112876916056887, -27 5.725753832113774, -27 -36.5" stroke="hsl(40.5882352941, 60%, 83.3333333333%)" stroke-width="1.3" fill="none" stroke-dasharray="0 0" style=""/></g><g class="annotation-group text" transform="translate(0, -16.5)"/><g class="label-group text" transform="translate(-15, -16.5)"><g class="label" style="font-weight: bolder" transform="translate(0,-6.5)"><g><rect class="background" style="stroke: none"/><text y="-10.1" style=""><tspan class="text-outer-tspan" x="0" y="-0.1em" dy="1.1em" font-weight=""><tspan font-style="normal" class="text-inner-tspan" font-weight="">Color</tspan></tspan></text></g></g></g><g class="members-group text" transform="translate(-15, 20.5)"/><g class="methods-group text" transform="translate(-15, 50.5)"/><g class="divider" style=""><path d="M-27 0.5 C-12.233584605257606 0.5, 2.5328307894847875 0.5, 27 0.5 M-27 0.5 C-10.524927802317151 0.5, 5.950144395365697 0.5, 27 0.5" stroke="hsl(40.5882352941, 60%, 83.3333333333%)" stroke-width="1.3" fill="none" stroke-dasharray="0 0" style=""/></g><g class="divider" style=""><path d="M-27 18.5 C-5.726334019375628 18.5, 15.547331961248744 18.5, 27 18.5 M-27 18.5 C-9.625908746652513 18.5, 7.748182506694974 18.5, 27 18.5" stroke="hsl(40.5882352941, 60%, 83.3333333333%)" stroke-width="1.3" fill="none" stroke-dasharray="0 0" style=""/></g></g><g class="node default" id="classId-Bitboard-5" transform="translate(595, 522)"><g class="basic label-container"><path d="M-36 -36.5 L36 -36.5 L36 36.5 L-36 36.5" stroke="none" stroke-width="0" fill="#fff4dd" style=""/><path d="M-36 -36.5 C-9.945456492027414 -36.5, 16.10908701594517 -36.5, 36 -36.5 M-36 -36.5 C-7.3508444592214985 -36.5, 21.298311081557003 -36.5, 36 -36.5 M36 -36.5 C36 -20.798532779464168, 36 -5.097065558928332, 36 36.5 M36 -36.5 C36 -11.431628266025115, 36 13.63674346794977, 36 36.5 M36 36.5 C17.75854225651455 36.5, -0.4829154869709029 36.5, -36 36.5 M36 36.5 C10.158883107985243 36.5, -15.682233784029513 36.5, -36 36.5 M-36 36.5 C-36 8.590319456612079, -36 -19.319361086775842, -36 -36.5 M-36 36.5 C-36 8.405770034352344, -36 -19.688459931295313, -36 -36.5" stroke="hsl(40.5882352941, 60%, 83.3333333333%)" stroke-width="1.3" fill="none" stroke-dasharray="0 0" style=""/></g><g class="annotation-group text" transform="translate(0, -16.5)"/><g class="label-group text" transform="translate(-24, -16.5)"><g class="label" style="font-weight: bolder" transform="translate(0,-6.5)"><g><rect class="background" style="stroke: none"/><text y="-10.1" style=""><tspan class="text-outer-tspan" x="0" y="-0.1em" dy="1.1em" font-weight=""><tspan font-style="normal" class="text-inner-tspan" font-weight="">Bitboard</tspan></tspan></text></g></g></g><g class="members-group text" transform="translate(-24, 20.5)"/><g class="methods-group text" transform="translate(-24, 50.5)"/><g class="divider" style=""><path d="M-36 0.5 C-19.85246877181512 0.5, -3.704937543630237 0.5, 36 0.5 M-36 0.5 C-17.25287640728958 0.5, 1.4942471854208392 0.5, 36 0.5" stroke="hsl(40.5882352941, 60%, 83.3333333333%)" stroke-width="1.3" fill="none" stroke-dasharray="0 0" style=""/></g><g class="divider" style=""><path d="M-36 18.5 C-11.001211305111308 18.5, 13.997577389777383 18.5, 36 18.5 M-36 18.5 C-9.01807189382351 18.5, 17.96385621235298 18.5, 36 18.5" stroke="hsl(40.5882352941, 60%, 83.3333333333%)" stroke-width="1.3" fill="none" stroke-dasharray="0 0" style=""/></g></g><g class="node default" id="classId-CastleRights-6" transform="translate(729, 522)"><g class="basic label-container"><path d="M-48 -36.5 L48 -36.5 L48 36.5 L-48 36.5" stroke="none" stroke-width="0" fill="#fff4dd" style=""/><path d="M-48 -36.5 C-9.850257571876405 -36.5, 28.29948485624719 -36.5, 48 -36.5 M-48 -36.5 C-13.527458082702864 -36.5, 20.94508383459427 -36.5, 48 -36.5 M48 -36.5 C48 -11.48571505354716, 48 13.52856989290568, 48 36.5 M48 -36.5 C48 -12.000062920185787, 48 12.499874159628426, 48 36.5 M48 36.5 C14.606972196267364 36.5, -18.786055607465272 36.5, -48 36.5 M48 36.5 C13.77047425989764 36.5, -20.45905148020472 36.5, -48 36.5 M-48 36.5 C-48 20.963394200196085, -48 5.426788400392173, -48 -36.5 M-48 36.5 C-48 21.797985847210228, -48 7.095971694420459, -48 -36.5" stroke="hsl(40.5882352941, 60%, 83.3333333333%)" stroke-width="1.3" fill="none" stroke-dasharray="0 0" style=""/></g><g class="annotation-group text" transform="translate(0, -16.5)"/><g class="label-group text" transform="translate(-36, -16.5)"><g class="label" style="font-weight: bolder" transform="translate(0,-6.5)"><g><rect class="background" style="stroke: none"/><text y="-10.1" style=""><tspan class="text-outer-tspan" x="0" y="-0.1em" dy="1.1em" font-weight=""><tspan font-style="normal" class="text-inner-tspan" font-weight="">CastleRights</tspan></tspan></text></g></g></g><g class="members-group text" transform="translate(-36, 20.5)"/><g class="methods-group text" transform="translate(-36, 50.5)"/><g class="divider" style=""><path d="M-48 0.5 C-24.661179497258445 0.5, -1.3223589945168897 0.5, 48 0.5 M-48 0.5 C-24.251367411758395 0.5, -0.5027348235167892 0.5, 48 0.5" stroke="hsl(40.5882352941, 60%, 83.3333333333%)" stroke-width="1.3" fill="none" stroke-dasharray="0 0" style=""/></g><g class="divider" style=""><path d="M-48 18.5 C-15.721859687035348 18.5, 16.556280625929304 18.5, 48 18.5 M-48 18.5 C-28.476469733938206 18.5, -8.952939467876412 18.5, 48 18.5" stroke="hsl(40.5882352941, 60%, 83.3333333333%)" stroke-width="1.3" fill="none" stroke-dasharray="0 0" style=""/></g></g></g></g></g></svg>