<svg id="my-svg" width="100%" xmlns="http://www.w3.org/2000/svg" xmlns:xlink="http://www.w3.org/1999/xlink" class="flowchart" style="max-width: 1414px; background-color: white;" viewBox="0 0 1414 555.75" role="graphics-document document" aria-roledescription="flowchart-v2"><style>#my-svg{font-family:JetBrains Mono;font-size:10px;fill:#333;}@keyframes edge-animation-frame{from{stroke-dashoffset:0;}}@keyframes dash{to{stroke-dashoffset:0;}}#my-svg .edge-animation-slow{stroke-dasharray:9,5!important;stroke-dashoffset:900;animation:dash 50s linear infinite;stroke-linecap:round;}#my-svg .edge-animation-fast{stroke-dasharray:9,5!important;stroke-dashoffset:900;animation:dash 20s linear infinite;stroke-linecap:round;}#my-svg .error-icon{fill:hsl(220.5882352941, 100%, 98.3333333333%);}#my-svg .error-text{fill:rgb(8.5000000002, 5.7500000001, 0);stroke:rgb(8.5000000002, 5.7500000001, 0);}#my-svg .edge-thickness-normal{stroke-width:1px;}#my-svg .edge-thickness-thick{stroke-width:3.5px;}#my-svg .edge-pattern-solid{stroke-dasharray:0;}#my-svg .edge-thickness-invisible{stroke-width:0;fill:none;}#my-svg .edge-pattern-dashed{stroke-dasharray:3;}#my-svg .edge-pattern-dotted{stroke-dasharray:2;}#my-svg .marker{fill:#0b0b0b;stroke:#0b0b0b;}#my-svg .marker.cross{stroke:#0b0b0b;}#my-svg svg{font-family:JetBrains Mono;font-size:10px;}#my-svg p{margin:0;}#my-svg .label{font-family:JetBrains Mono;color:#333;}#my-svg .cluster-label text{fill:rgb(8.5000000002, 5.7500000001, 0);}#my-svg .cluster-label span{color:rgb(8.5000000002, 5.7500000001, 0);}#my-svg .cluster-label span p{background-color:transparent;}#my-svg .label text,#my-svg span{fill:#333;color:#333;}#my-svg .node rect,#my-svg .node circle,#my-svg .node ellipse,#my-svg .node polygon,#my-svg .node path{fill:#fff4dd;stroke:hsl(40.5882352941, 60%, 83.3333333333%);stroke-width:1px;}#my-svg .rough-node .label text,#my-svg .node .label text,#my-svg .image-shape .label,#my-svg .icon-shape .label{text-anchor:middle;}#my-svg .node .katex path{fill:#000;stroke:#000;stroke-width:1px;}#my-svg .rough-node .label,#my-svg .node .label,#my-svg .image-shape .label,#my-svg .icon-shape .label{text-align:center;}#my-svg .node.clickable{cursor:pointer;}#my-svg .root .anchor path{fill:#0b0b0b!important;stroke-width:0;stroke:#0b0b0b;}#my-svg .arrowheadPath{fill:#0b0b0b;}#my-svg .edgePath .path{stroke:#0b0b0b;stroke-width:2.0px;}#my-svg .flowchart-link{stroke:#0b0b0b;fill:none;}#my-svg .edgeLabel{background-color:hsl(-79.4117647059, 100%, 93.3333333333%);text-align:center;}#my-svg .edgeLabel p{background-color:hsl(-79.4117647059, 100%, 93.3333333333%);}#my-svg .edgeLabel rect{opacity:0.5;background-color:hsl(-79.4117647059, 100%, 93.3333333333%);fill:hsl(-79.4117647059, 100%, 93.3333333333%);}#my-svg .labelBkg{background-color:rgba(243.9999999999, 220.9999999998, 255, 0.5);}#my-svg .cluster rect{fill:hsl(220.5882352941, 100%, 98.3333333333%);stroke:hsl(220.5882352941, 60%, 88.3333333333%);stroke-width:1px;}#my-svg .cluster text{fill:rgb(8.5000000002, 5.7500000001, 0);}#my-svg .cluster span{color:rgb(8.5000000002, 5.7500000001, 0);}#my-svg div.mermaidTooltip{position:absolute;text-align:center;max-width:200px;padding:2px;font-family:JetBrains Mono;font-size:12px;background:hsl(220.5882352941, 100%, 98.3333333333%);border:1px solid hsl(220.5882352941, 60%, 88.3333333333%);border-radius:2px;pointer-events:none;z-index:100;}#my-svg .flowchartTitleText{text-anchor:middle;font-size:18px;fill:#333;}#my-svg rect.text{fill:none;stroke-width:0;}#my-svg .icon-shape,#my-svg .image-shape{background-color:hsl(-79.4117647059, 100%, 93.3333333333%);text-align:center;}#my-svg .icon-shape p,#my-svg .image-shape p{background-color:hsl(-79.4117647059, 100%, 93.3333333333%);padding:2px;}#my-svg .icon-shape rect,#my-svg .image-shape rect{opacity:0.5;background-color:hsl(-79.4117647059, 100%, 93.3333333333%);fill:hsl(-79.4117647059, 100%, 93.3333333333%);}#my-svg .label-icon{display:inline-block;height:1em;overflow:visible;vertical-align:-0.125em;}#my-svg .node .label-icon path{fill:currentColor;stroke:revert;stroke-width:revert;}#my-svg :root{--mermaid-font-family:"trebuchet ms",verdana,arial,sans-serif;}</style><g><marker id="my-svg_flowchart-v2-pointEnd" class="marker flowchart-v2" viewBox="0 0 10 10" refX="5" refY="5" markerUnits="userSpaceOnUse" markerWidth="8" markerHeight="8" orient="auto"><path d="M 0 0 L 10 5 L 0 10 z" class="arrowMarkerPath" style="stroke-width: 1; stroke-dasharray: 1, 0;"/></marker><marker id="my-svg_flowchart-v2-pointStart" class="marker flowchart-v2" viewBox="0 0 10 10" refX="4.5" refY="5" markerUnits="userSpaceOnUse" markerWidth="8" markerHeight="8" orient="auto"><path d="M 0 5 L 10 10 L 10 0 z" class="arrowMarkerPath" style="stroke-width: 1; stroke-dasharray: 1, 0;"/></marker><marker id="my-svg_flowchart-v2-circleEnd" class="marker flowchart-v2" viewBox="0 0 10 10" refX="11" refY="5" markerUnits="userSpaceOnUse" markerWidth="11" markerHeight="11" orient="auto"><circle cx="5" cy="5" r="5" class="arrowMarkerPath" style="stroke-width: 1; stroke-dasharray: 1, 0;"/></marker><marker id="my-svg_flowchart-v2-circleStart" class="marker flowchart-v2" viewBox="0 0 10 10" refX="-1" refY="5" markerUnits="userSpaceOnUse" markerWidth="11" markerHeight="11" orient="auto"><circle cx="5" cy="5" r="5" class="arrowMarkerPath" style="stroke-width: 1; stroke-dasharray: 1, 0;"/></marker><marker id="my-svg_flowchart-v2-crossEnd" class="marker cross flowchart-v2" viewBox="0 0 11 11" refX="12" refY="5.2" markerUnits="userSpaceOnUse" markerWidth="11" markerHeight="11" orient="auto"><path d="M 1,1 l 9,9 M 10,1 l -9,9" class="arrowMarkerPath" style="stroke-width: 2; stroke-dasharray: 1, 0;"/></marker><marker id="my-svg_flowchart-v2-crossStart" class="marker cross flowchart-v2" viewBox="0 0 11 11" refX="-1" refY="5.2" markerUnits="userSpaceOnUse" markerWidth="11" markerHeight="11" orient="auto"><path d="M 1,1 l 9,9 M 10,1 l -9,9" class="arrowMarkerPath" style="stroke-width: 2; stroke-dasharray: 1, 0;"/></marker><g class="root"><g class="clusters"/><g class="edgePaths"><path d="M176,86L180.167,86C184.333,86,192.667,86,213.5,86C234.333,86,267.667,86,301,86C334.333,86,367.667,86,403,86C438.333,86,475.667,86,513,86C550.333,86,587.667,86,624.5,86C661.333,86,697.667,86,734,86C770.333,86,806.667,86,839.5,86C872.333,86,901.667,86,931,86C960.333,86,989.667,86,1019.783,99.151C1049.899,112.302,1080.798,138.605,1096.247,151.756L1111.697,164.907" id="L_UCI_POS_0" class="edge-thickness-normal edge-pattern-solid edge-thickness-normal edge-pattern-solid flowchart-link" style=";" data-edge="true" data-et="edge" data-id="L_UCI_POS_0" data-points="W3sieCI6MTc2LCJ5Ijo4Nn0seyJ4IjoyMDEsInkiOjg2fSx7IngiOjMwMSwieSI6ODZ9LHsieCI6NDAxLCJ5Ijo4Nn0seyJ4Ijo1MTMsInkiOjg2fSx7IngiOjYyNSwieSI6ODZ9LHsieCI6NzM0LCJ5Ijo4Nn0seyJ4Ijo4NDMsInkiOjg2fSx7IngiOjkzMSwieSI6ODZ9LHsieCI6MTAxOSwieSI6ODZ9LHsieCI6MTExNC43NDI3MTg0NDY2MDE5LCJ5IjoxNjcuNX1d" marker-end="url(#my-svg_flowchart-v2-pointEnd)"/><path d="M133.478,64.5L144.732,58.667C155.985,52.833,178.493,41.167,193.246,35.333C208,29.5,215,29.5,218.5,29.5L222,29.5" id="L_UCI_TC_0" class="edge-thickness-normal edge-pattern-solid edge-thickness-normal edge-pattern-solid flowchart-link" style=";" data-edge="true" data-et="edge" data-id="L_UCI_TC_0" data-points="W3sieCI6MTMzLjQ3Nzg3NjEwNjE5NDY5LCJ5Ijo2NC41fSx7IngiOjIwMSwieSI6MjkuNX0seyJ4IjoyMjYsInkiOjI5LjV9XQ==" marker-end="url(#my-svg_flowchart-v2-pointEnd)"/><path d="M102.45,107.5L118.875,141.292C135.3,175.083,168.15,242.667,189.075,276.458C210,310.25,219,310.25,223.5,310.25L228,310.25" id="L_UCI_SRCH_0" class="edge-thickness-normal edge-pattern-solid edge-thickness-normal edge-pattern-solid flowchart-link" style=";" data-edge="true" data-et="edge" data-id="L_UCI_SRCH_0" data-points="W3sieCI6MTAyLjQ1MDM5MDE4OTUyMDYyLCJ5IjoxMDcuNX0seyJ4IjoyMDEsInkiOjMxMC4yNX0seyJ4IjoyMzIsInkiOjMxMC4yNX1d" marker-end="url(#my-svg_flowchart-v2-pointEnd)"/><path d="M347.237,331.75L356.197,335.917C365.158,340.083,383.079,348.417,395.539,352.583C408,356.75,415,356.75,418.5,356.75L422,356.75" id="L_SRCH_AB_0" class="edge-thickness-normal edge-pattern-solid edge-thickness-normal edge-pattern-solid flowchart-link" style=";" data-edge="true" data-et="edge" data-id="L_SRCH_AB_0" data-points="W3sieCI6MzQ3LjIzNjU1OTEzOTc4NDk2LCJ5IjozMzEuNzV9LHsieCI6NDAxLCJ5IjozNTYuNzV9LHsieCI6NDI2LCJ5IjozNTYuNzV9XQ==" marker-end="url(#my-svg_flowchart-v2-pointEnd)"/><path d="M313.817,288.75L328.347,264.375C342.878,240,371.939,191.25,390.469,166.875C409,142.5,417,142.5,421,142.5L425,142.5" id="L_SRCH_PAR_0" class="edge-thickness-normal edge-pattern-solid edge-thickness-normal edge-pattern-solid flowchart-link" style=";" data-edge="true" data-et="edge" data-id="L_SRCH_PAR_0" data-points="W3sieCI6MzEzLjgxNjY5MTUwNTIxNjEsInkiOjI4OC43NX0seyJ4Ijo0MDEsInkiOjE0Mi41fSx7IngiOjQyOSwieSI6MTQyLjV9XQ==" marker-end="url(#my-svg_flowchart-v2-pointEnd)"/><path d="M541.413,378.25L555.344,388.792C569.275,399.333,597.138,420.417,618.569,430.958C640,441.5,655,441.5,662.5,441.5L670,441.5" id="L_AB_QS_0" class="edge-thickness-normal edge-pattern-solid edge-thickness-normal edge-pattern-solid flowchart-link" style=";" data-edge="true" data-et="edge" data-id="L_AB_QS_0" data-points="W3sieCI6NTQxLjQxMjk3OTM1MTAzMjQsInkiOjM3OC4yNX0seyJ4Ijo2MjUsInkiOjQ0MS41fSx7IngiOjY3NCwieSI6NDQxLjV9XQ==" marker-end="url(#my-svg_flowchart-v2-pointEnd)"/><path d="M524.239,335.25L541.033,303.125C557.826,271,591.413,206.75,611.707,174.625C632,142.5,639,142.5,642.5,142.5L646,142.5" id="L_AB_ORD_0" class="edge-thickness-normal edge-pattern-solid edge-thickness-normal edge-pattern-solid flowchart-link" style=";" data-edge="true" data-et="edge" data-id="L_AB_ORD_0" data-points="W3sieCI6NTI0LjIzOTIwNjUzNDQyMjQsInkiOjMzNS4yNX0seyJ4Ijo2MjUsInkiOjE0Mi41fSx7IngiOjY1MCwieSI6MTQyLjV9XQ==" marker-end="url(#my-svg_flowchart-v2-pointEnd)"/><path d="M532.86,335.25L548.216,318.625C563.573,302,594.287,268.75,613.643,252.125C633,235.5,641,235.5,645,235.5L649,235.5" id="L_AB_PRN_0" class="edge-thickness-normal edge-pattern-solid edge-thickness-normal edge-pattern-solid flowchart-link" style=";" data-edge="true" data-et="edge" data-id="L_AB_PRN_0" data-points="W3sieCI6NTMyLjg1OTc5MzgxNDQzMywieSI6MzM1LjI1fSx7IngiOjYyNSwieSI6MjM1LjV9LHsieCI6NjUzLCJ5IjoyMzUuNX1d" marker-end="url(#my-svg_flowchart-v2-pointEnd)"/><path d="M598.239,335.25L602.699,334.125C607.159,333,616.08,330.75,624.54,329.625C633,328.5,641,328.5,645,328.5L649,328.5" id="L_AB_TPT_0" class="edge-thickness-normal edge-pattern-solid edge-thickness-normal edge-pattern-solid flowchart-link" style=";" data-edge="true" data-et="edge" data-id="L_AB_TPT_0" data-points="W3sieCI6NTk4LjIzODkzODA1MzA5NzQsInkiOjMzNS4yNX0seyJ4Ijo2MjUsInkiOjMyOC41fSx7IngiOjY1MywieSI6MzI4LjV9XQ==" marker-end="url(#my-svg_flowchart-v2-pointEnd)"/><path d="M598.239,378.25L602.699,379.375C607.159,380.5,616.08,382.75,638.706,383.875C661.333,385,697.667,385,734,385C770.333,385,806.667,385,832.38,389.138C858.093,393.276,873.187,401.551,880.733,405.689L888.28,409.827" id="L_AB_MVG_0" class="edge-thickness-normal edge-pattern-solid edge-thickness-normal edge-pattern-solid flowchart-link" style=";" data-edge="true" data-et="edge" data-id="L_AB_MVG_0" data-points="W3sieCI6NTk4LjIzODkzODA1MzA5NzQsInkiOjM3OC4yNX0seyJ4Ijo2MjUsInkiOjM4NX0seyJ4Ijo3MzQsInkiOjM4NX0seyJ4Ijo4NDMsInkiOjM4NX0seyJ4Ijo4OTEuNzg3NTY0NzY2ODM5NCwieSI6NDExLjc1fV0=" marker-end="url(#my-svg_flowchart-v2-pointEnd)"/><path d="M530.048,378.25L545.873,398.208C561.699,418.167,593.349,458.083,627.341,478.042C661.333,498,697.667,498,734,498C770.333,498,806.667,498,828.365,499.134C850.064,500.268,857.128,502.535,860.66,503.669L864.191,504.803" id="L_AB_EVAL_0" class="edge-thickness-normal edge-pattern-solid edge-thickness-normal edge-pattern-solid flowchart-link" style=";" data-edge="true" data-et="edge" data-id="L_AB_EVAL_0" data-points="W3sieCI6NTMwLjA0Nzc4NzYxMDYxOTUsInkiOjM3OC4yNX0seyJ4Ijo2MjUsInkiOjQ5OH0seyJ4Ijo3MzQsInkiOjQ5OH0seyJ4Ijo4NDMsInkiOjQ5OH0seyJ4Ijo4NjgsInkiOjUwNi4wMjU1NjgxODE4MTgyfV0=" marker-end="url(#my-svg_flowchart-v2-pointEnd)"/><path d="M761.652,463L775.21,473.542C788.768,484.083,815.884,505.167,832.942,515.708C850,526.25,857,526.25,860.5,526.25L864,526.25" id="L_QS_EVAL_0" class="edge-thickness-normal edge-pattern-solid edge-thickness-normal edge-pattern-solid flowchart-link" style=";" data-edge="true" data-et="edge" data-id="L_QS_EVAL_0" data-points="W3sieCI6NzYxLjY1MTkxNzQwNDEyOTgsInkiOjQ2M30seyJ4Ijo4NDMsInkiOjUyNi4yNX0seyJ4Ijo4NjgsInkiOjUyNi4yNX1d" marker-end="url(#my-svg_flowchart-v2-pointEnd)"/><path d="M794,441.5L802.167,441.5C810.333,441.5,826.667,441.5,838.836,441.125C851.006,440.749,859.012,439.999,863.015,439.624L867.017,439.248" id="L_QS_MVG_0" class="edge-thickness-normal edge-pattern-solid edge-thickness-normal edge-pattern-solid flowchart-link" style=";" data-edge="true" data-et="edge" data-id="L_QS_MVG_0" data-points="W3sieCI6Nzk0LCJ5Ijo0NDEuNX0seyJ4Ijo4NDMsInkiOjQ0MS41fSx7IngiOjg3MSwieSI6NDM4Ljg3NX1d" marker-end="url(#my-svg_flowchart-v2-pointEnd)"/><path d="M991,419.614L995.667,418.553C1000.333,417.492,1009.667,415.371,1022.333,414.311C1035,413.25,1051,413.25,1059,413.25L1067,413.25" id="L_MVG_STR_0" class="edge-thickness-normal edge-pattern-solid edge-thickness-normal edge-pattern-solid flowchart-link" style=";" data-edge="true" data-et="edge" data-id="L_MVG_STR_0" data-points="W3sieCI6OTkxLCJ5Ijo0MTkuNjEzNjM2MzYzNjM2NH0seyJ4IjoxMDE5LCJ5Ijo0MTMuMjV9LHsieCI6MTA3MSwieSI6NDEzLjI1fV0=" marker-end="url(#my-svg_flowchart-v2-pointEnd)"/><path d="M955.732,411.75L966.277,402.583C976.821,393.417,997.911,375.083,1025.647,342.082C1053.384,309.081,1087.768,261.413,1104.96,237.578L1122.152,213.744" id="L_MVG_POS_0" class="edge-thickness-normal edge-pattern-solid edge-thickness-normal edge-pattern-solid flowchart-link" style=";" data-edge="true" data-et="edge" data-id="L_MVG_POS_0" data-points="W3sieCI6OTU1LjczMjAyNjE0Mzc5MDksInkiOjQxMS43NX0seyJ4IjoxMDE5LCJ5IjozNTYuNzV9LHsieCI6MTEyNC40OTE4MDMyNzg2ODg2LCJ5IjoyMTAuNX1d" marker-end="url(#my-svg_flowchart-v2-pointEnd)"/><path d="M1236,181.066L1240.167,180.722C1244.333,180.377,1252.667,179.689,1260.333,179.344C1268,179,1275,179,1278.5,179L1282,179" id="L_POS_ZOB_0" class="edge-thickness-normal edge-pattern-solid edge-thickness-normal edge-pattern-solid flowchart-link" style=";" data-edge="true" data-et="edge" data-id="L_POS_ZOB_0" data-points="W3sieCI6MTIzNiwieSI6MTgxLjA2NjExNTcwMjQ3OTM1fSx7IngiOjEyNjEsInkiOjE3OX0seyJ4IjoxMjg2LCJ5IjoxNzl9XQ==" marker-end="url(#my-svg_flowchart-v2-pointEnd)"/><path d="M1152.142,210.5L1170.285,242.625C1188.428,274.75,1224.714,339,1253.299,382.55C1281.884,426.099,1302.767,448.948,1313.209,460.373L1323.651,471.797" id="L_POS_TYP_0" class="edge-thickness-normal edge-pattern-solid edge-thickness-normal edge-pattern-solid flowchart-link" style=";" data-edge="true" data-et="edge" data-id="L_POS_TYP_0" data-points="W3sieCI6MTE1Mi4xNDIzNTcwNTk1MSwieSI6MjEwLjV9LHsieCI6MTI2MSwieSI6NDAzLjI1fSx7IngiOjEzMjYuMzQ5NDYyMzY1NTkxMywieSI6NDc0Ljc1fV0=" marker-end="url(#my-svg_flowchart-v2-pointEnd)"/><path d="M965.557,454.75L974.464,460.292C983.371,465.833,1001.186,476.917,1030.26,482.458C1059.333,488,1099.667,488,1140,488C1180.333,488,1220.667,488,1245.336,488.437C1270.006,488.874,1279.012,489.748,1283.516,490.185L1288.019,490.622" id="L_MVG_TYP_0" class="edge-thickness-normal edge-pattern-solid edge-thickness-normal edge-pattern-solid flowchart-link" style=";" data-edge="true" data-et="edge" data-id="L_MVG_TYP_0" data-points="W3sieCI6OTY1LjU1NzA3NzYyNTU3MDcsInkiOjQ1NC43NX0seyJ4IjoxMDE5LCJ5Ijo0ODh9LHsieCI6MTE0MCwieSI6NDg4fSx7IngiOjEyNjEsInkiOjQ4OH0seyJ4IjoxMjkyLCJ5Ijo0OTEuMDA4ODIzNTI5NDExNzZ9XQ==" marker-end="url(#my-svg_flowchart-v2-pointEnd)"/><path d="M994,526.25L998.167,526.25C1002.333,526.25,1010.667,526.25,1035,526.25C1059.333,526.25,1099.667,526.25,1140,526.25C1180.333,526.25,1220.667,526.25,1245.371,524.648C1270.076,523.047,1279.152,519.843,1283.69,518.242L1288.228,516.64" id="L_EVAL_TYP_0" class="edge-thickness-normal edge-pattern-solid edge-thickness-normal edge-pattern-solid flowchart-link" style=";" data-edge="true" data-et="edge" data-id="L_EVAL_TYP_0" data-points="W3sieCI6OTk0LCJ5Ijo1MjYuMjV9LHsieCI6MTAxOSwieSI6NTI2LjI1fSx7IngiOjExNDAsInkiOjUyNi4yNX0seyJ4IjoxMjYxLCJ5Ijo1MjYuMjV9LHsieCI6MTI5MiwieSI6NTE1LjMwODgyMzUyOTQxMTd9XQ==" marker-end="url(#my-svg_flowchart-v2-pointEnd)"/></g><g class="edgeLabels"><g><rect class="background" style="stroke: none"/></g><g><rect class="background" style="stroke: none"/></g><g><rect class="background" style="stroke: none"/></g><g><rect class="background" style="stroke: none"/></g><g><rect class="background" style="stroke: none"/></g><g><rect class="background" style="stroke: none"/></g><g><rect class="background" style="stroke: none"/></g><g><rect class="background" style="stroke: none"/></g><g><rect class="background" style="stroke: none"/></g><g><rect class="background" style="stroke: none"/></g><g><rect class="background" style="stroke: none"/></g><g><rect class="background" style="stroke: none"/></g><g><rect class="background" style="stroke: none"/></g><g><rect class="background" style="stroke: none"/></g><g><rect class="background" style="stroke: none"/></g><g><rect class="background" style="stroke: none"/></g><g><rect class="background" style="stroke: none"/></g><g><rect class="background" style="stroke: none"/></g><g><rect class="background" style="stroke: none"/></g><g class="edgeLabel"><g class="label" data-id="L_UCI_POS_0" transform="translate(0, 0)"><text y="-10.1"><tspan class="text-outer-tspan" x="0" y="-0.1em" dy="1.1em"/></text></g></g><g class="edgeLabel"><g class="label" data-id="L_UCI_TC_0" transform="translate(0, 0)"><text y="-10.1"><tspan class="text-outer-tspan" x="0" y="-0.1em" dy="1.1em"/></text></g></g><g class="edgeLabel"><g class="label" data-id="L_UCI_SRCH_0" transform="translate(0, 0)"><text y="-10.1"><tspan class="text-outer-tspan" x="0" y="-0.1em" dy="1.1em"/></text></g></g><g class="edgeLabel"><g class="label" data-id="L_SRCH_AB_0" transform="translate(0, 0)"><text y="-10.1"><tspan class="text-outer-tspan" x="0" y="-0.1em" dy="1.1em"/></text></g></g><g class="edgeLabel"><g class="label" data-id="L_SRCH_PAR_0" transform="translate(0, 0)"><text y="-10.1"><tspan class="text-outer-tspan" x="0" y="-0.1em" dy="1.1em"/></text></g></g><g class="edgeLabel"><g class="label" data-id="L_AB_QS_0" transform="translate(0, 0)"><text y="-10.1"><tspan class="text-outer-tspan" x="0" y="-0.1em" dy="1.1em"/></text></g></g><g class="edgeLabel"><g class="label" data-id="L_AB_ORD_0" transform="translate(0, 0)"><text y="-10.1"><tspan class="text-outer-tspan" x="0" y="-0.1em" dy="1.1em"/></text></g></g><g class="edgeLabel"><g class="label" data-id="L_AB_PRN_0" transform="translate(0, 0)"><text y="-10.1"><tspan class="text-outer-tspan" x="0" y="-0.1em" dy="1.1em"/></text></g></g><g class="edgeLabel"><g class="label" data-id="L_AB_TPT_0" transform="translate(0, 0)"><text y="-10.1"><tspan class="text-outer-tspan" x="0" y="-0.1em" dy="1.1em"/></text></g></g><g class="edgeLabel"><g class="label" data-id="L_AB_MVG_0" transform="translate(0, 0)"><text y="-10.1"><tspan class="text-outer-tspan" x="0" y="-0.1em" dy="1.1em"/></text></g></g><g class="edgeLabel"><g class="label" data-id="L_AB_EVAL_0" transform="translate(0, 0)"><text y="-10.1"><tspan class="text-outer-tspan" x="0" y="-0.1em" dy="1.1em"/></text></g></g><g class="edgeLabel"><g class="label" data-id="L_QS_EVAL_0" transform="translate(0, 0)"><text y="-10.1"><tspan class="text-outer-tspan" x="0" y="-0.1em" dy="1.1em"/></text></g></g><g class="edgeLabel"><g class="label" data-id="L_QS_MVG_0" transform="translate(0, 0)"><text y="-10.1"><tspan class="text-outer-tspan" x="0" y="-0.1em" dy="1.1em"/></text></g></g><g class="edgeLabel"><g class="label" data-id="L_MVG_STR_0" transform="translate(0, 0)"><text y="-10.1"><tspan class="text-outer-tspan" x="0" y="-0.1em" dy="1.1em"/></text></g></g><g class="edgeLabel"><g class="label" data-id="L_MVG_POS_0" transform="translate(0, 0)"><text y="-10.1"><tspan class="text-outer-tspan" x="0" y="-0.1em" dy="1.1em"/></text></g></g><g class="edgeLabel"><g class="label" data-id="L_POS_ZOB_0" transform="translate(0, 0)"><text y="-10.1"><tspan class="text-outer-tspan" x="0" y="-0.1em" dy="1.1em"/></text></g></g><g class="edgeLabel"><g class="label" data-id="L_POS_TYP_0" transform="translate(0, 0)"><text y="-10.1"><tspan class="text-outer-tspan" x="0" y="-0.1em" dy="1.1em"/></text></g></g><g class="edgeLabel"><g class="label" data-id="L_MVG_TYP_0" transform="translate(0, 0)"><text y="-10.1"><tspan class="text-outer-tspan" x="0" y="-0.1em" dy="1.1em"/></text></g></g><g class="edgeLabel"><g class="label" data-id="L_EVAL_TYP_0" transform="translate(0, 0)"><text y="-10.1"><tspan class="text-outer-tspan" x="0" y="-0.1em" dy="1.1em"/></text></g></g></g><g class="nodes"><g class="node default" id="flowchart-UCI-0" transform="translate(92, 86)"><rect class="basic label-container" style="" x="-84" y="-21.5" width="168" height="43"/><g class="label" style="" transform="translate(0, -6.5)"><rect/><g><rect class="background" style="stroke: none"/><text y="-10.1" style=""><tspan class="text-outer-tspan" x="0" y="-0.1em" dy="1.1em"><tspan font-style="normal" class="text-inner-tspan" font-weight="normal">uci.rs</tspan><tspan font-style="normal" class="text-inner-tspan" font-weight="normal"> -</tspan><tspan font-style="normal" class="text-inner-tspan" font-weight="normal"> UciEngine</tspan></tspan></text></g></g></g><g class="node default" id="flowchart-POS-1" transform="translate(1140, 189)"><rect class="basic label-container" style="" x="-96" y="-21.5" width="192" height="43"/><g class="label" style="" transform="translate(0, -6.5)"><rect/><g><rect class="background" style="stroke: none"/><text y="-10.1" style=""><tspan class="text-outer-tspan" x="0" y="-0.1em" dy="1.1em"><tspan font-style="normal" class="text-inner-tspan" font-weight="normal">position.rs</tspan><tspan font-style="normal" class="text-inner-tspan" font-weight="normal"> -</tspan><tspan font-style="normal" class="text-inner-tspan" font-weight="normal"> Position</tspan></tspan></text></g></g></g><g class="node default" id="flowchart-TC-3" transform="translate(301, 29.5)"><rect class="basic label-container" style="" x="-75" y="-21.5" width="150" height="43"/><g class="label" style="" transform="translate(0, -6.5)"><rect/><g><rect class="background" style="stroke: none"/><text y="-10.1" style=""><tspan class="text-outer-tspan" x="0" y="-0.1em" dy="1.1em"><tspan font-style="normal" class="text-inner-tspan" font-weight="normal">time_control.rs</tspan></tspan></text></g></g></g><g class="node default" id="flowchart-SRCH-5" transform="translate(301, 310.25)"><rect class="basic label-container" style="" x="-69" y="-21.5" width="138" height="43"/><g class="label" style="" transform="translate(0, -6.5)"><rect/><g><rect class="background" style="stroke: none"/><text y="-10.1" style=""><tspan class="text-outer-tspan" x="0" y="-0.1em" dy="1.1em"><tspan font-style="normal" class="text-inner-tspan" font-weight="normal">search/mod.rs</tspan></tspan></text></g></g></g><g class="node default" id="flowchart-AB-7" transform="translate(513, 356.75)"><rect class="basic label-container" style="" x="-87" y="-21.5" width="174" height="43"/><g class="label" style="" transform="translate(0, -6.5)"><rect/><g><rect class="background" style="stroke: none"/><text y="-10.1" style=""><tspan class="text-outer-tspan" x="0" y="-0.1em" dy="1.1em"><tspan font-style="normal" class="text-inner-tspan" font-weight="normal">search/alphabeta.rs</tspan></tspan></text></g></g></g><g class="node default" id="flowchart-PAR-9" transform="translate(513, 142.5)"><rect class="basic label-container" style="" x="-84" y="-21.5" width="168" height="43"/><g class="label" style="" transform="translate(0, -6.5)"><rect/><g><rect class="background" style="stroke: none"/><text y="-10.1" style=""><tspan class="text-outer-tspan" x="0" y="-0.1em" dy="1.1em"><tspan font-style="normal" class="text-inner-tspan" font-weight="normal">search/parallel.rs</tspan></tspan></text></g></g></g><g class="node default" id="flowchart-QS-11" transform="translate(734, 441.5)"><rect class="basic label-container" style="" x="-60" y="-21.5" width="120" height="43"/><g class="label" style="" transform="translate(0, -6.5)"><rect/><g><rect class="background" style="stroke: none"/><text y="-10.1" style=""><tspan class="text-outer-tspan" x="0" y="-0.1em" dy="1.1em"><tspan font-style="normal" class="text-inner-tspan" font-weight="normal">qsearch.rs</tspan></tspan></text></g></g></g><g class="node default" id="flowchart-ORD-13" transform="translate(734, 142.5)"><rect class="basic label-container" style="" x="-84" y="-21.5" width="168" height="43"/><g class="label" style="" transform="translate(0, -6.5)"><rect/><g><rect class="background" style="stroke: none"/><text y="-10.1" style=""><tspan class="text-outer-tspan" x="0" y="-0.1em" dy="1.1em"><tspan font-style="normal" class="text-inner-tspan" font-weight="normal">search/ordering.rs</tspan></tspan></text></g></g></g><g class="node default" id="flowchart-PRN-15" transform="translate(734, 235.5)"><rect class="basic label-container" style="" x="-81" y="-21.5" width="162" height="43"/><g class="label" style="" transform="translate(0, -6.5)"><rect/><g><rect class="background" style="stroke: none"/><text y="-10.1" style=""><tspan class="text-outer-tspan" x="0" y="-0.1em" dy="1.1em"><tspan font-style="normal" class="text-inner-tspan" font-weight="normal">search/pruning.rs</tspan></tspan></text></g></g></g><g class="node default" id="flowchart-TPT-17" transform="translate(734, 328.5)"><rect class="basic label-container" style="" x="-81" y="-21.5" width="162" height="43"/><g class="label" style="" transform="translate(0, -6.5)"><rect/><g><rect class="background" style="stroke: none"/><text y="-10.1" style=""><tspan class="text-outer-tspan" x="0" y="-0.1em" dy="1.1em"><tspan font-style="normal" class="text-inner-tspan" font-weight="normal">tpt.rs</tspan><tspan font-style="normal" class="text-inner-tspan" font-weight="normal"> -</tspan><tspan font-style="normal" class="text-inner-tspan" font-weight="normal"> TT-Table</tspan></tspan></text></g></g></g><g class="node default" id="flowchart-MVG-19" transform="translate(931, 433.25)"><rect class="basic label-container" style="" x="-60" y="-21.5" width="120" height="43"/><g class="label" style="" transform="translate(0, -6.5)"><rect/><g><rect class="background" style="stroke: none"/><text y="-10.1" style=""><tspan class="text-outer-tspan" x="0" y="-0.1em" dy="1.1em"><tspan font-style="normal" class="text-inner-tspan" font-weight="normal">movegen.rs</tspan></tspan></text></g></g></g><g class="node default" id="flowchart-EVAL-21" transform="translate(931, 526.25)"><rect class="basic label-container" style="" x="-63" y="-21.5" width="126" height="43"/><g class="label" style="" transform="translate(0, -6.5)"><rect/><g><rect class="background" style="stroke: none"/><text y="-10.1" style=""><tspan class="text-outer-tspan" x="0" y="-0.1em" dy="1.1em"><tspan font-style="normal" class="text-inner-tspan" font-weight="normal">evaluate.rs</tspan></tspan></text></g></g></g><g class="node default" id="flowchart-STR-27" transform="translate(1140, 413.25)"><rect class="basic label-container" style="" x="-69" y="-21.5" width="138" height="43"/><g class="label" style="" transform="translate(0, -6.5)"><rect/><g><rect class="background" style="stroke: none"/><text y="-10.1" style=""><tspan class="text-outer-tspan" x="0" y="-0.1em" dy="1.1em"><tspan font-style="normal" class="text-inner-tspan" font-weight="normal">strikes</tspan><tspan font-style="normal" class="text-inner-tspan" font-weight="normal"> crate</tspan></tspan></text></g></g></g><g class="node default" id="flowchart-ZOB-31" transform="translate(1346, 179)"><rect class="basic label-container" style="" x="-60" y="-21.5" width="120" height="43"/><g class="label" style="" transform="translate(0, -6.5)"><rect/><g><rect class="background" style="stroke: none"/><text y="-10.1" style=""><tspan class="text-outer-tspan" x="0" y="-0.1em" dy="1.1em"><tspan font-style="normal" class="text-inner-tspan" font-weight="normal">zobrist.rs</tspan></tspan></text></g></g></g><g class="node default" id="flowchart-TYP-33" transform="translate(1346, 496.25)"><rect class="basic label-container" style="" x="-54" y="-21.5" width="108" height="43"/><g class="label" style="" transform="translate(0, -6.5)"><rect/><g><rect class="background" style="stroke: none"/><text y="-10.1" style=""><tspan class="text-outer-tspan" x="0" y="-0.1em" dy="1.1em"><tspan font-style="normal" class="text-inner-tspan" font-weight="normal">types.rs</tspan></tspan></text></g></g></g></g></g></g></svg>